<?xml version="1.0" encoding="utf-8"?>
<!-- Generator: Adobe Illustrator 19.0.0, SVG Export Plug-In . SVG Version: 6.00 Build 0)  -->
<svg version="1.1" id="图层_1" xmlns="http://www.w3.org/2000/svg" xmlns:xlink="http://www.w3.org/1999/xlink" x="0px" y="0px"
	 viewBox="0 0 136.1 28.4" style="enable-background:new 0 0 136.1 28.4;" xml:space="preserve">
<style type="text/css">
	.st0{clip-path:url(#XMLID_107_);fill:url(#XMLID_108_);}
	.st1{fill:none;stroke:#E8456C;stroke-width:0.25;stroke-miterlimit:10;}
	.st2{clip-path:url(#XMLID_109_);fill:url(#XMLID_110_);}
	.st3{clip-path:url(#XMLID_111_);fill:url(#XMLID_112_);}
	.st4{clip-path:url(#XMLID_113_);fill:url(#XMLID_114_);}
	.st5{clip-path:url(#XMLID_115_);fill:url(#XMLID_116_);}
	.st6{clip-path:url(#XMLID_117_);fill:url(#XMLID_118_);}
	.st7{clip-path:url(#XMLID_119_);fill:url(#XMLID_120_);}
	.st8{clip-path:url(#XMLID_121_);fill:url(#XMLID_122_);}
	.st9{clip-path:url(#XMLID_123_);fill:url(#XMLID_124_);}
	.st10{clip-path:url(#XMLID_125_);fill:url(#XMLID_126_);}
	.st11{clip-path:url(#XMLID_127_);fill:url(#XMLID_128_);}
	.st12{clip-path:url(#XMLID_129_);fill:url(#XMLID_130_);}
	.st13{clip-path:url(#XMLID_131_);fill:url(#XMLID_132_);}
	.st14{clip-path:url(#XMLID_133_);fill:url(#XMLID_134_);}
	.st15{clip-path:url(#XMLID_135_);fill:url(#XMLID_136_);}
	.st16{clip-path:url(#XMLID_137_);fill:url(#XMLID_138_);}
	.st17{clip-path:url(#XMLID_139_);fill:url(#XMLID_140_);}
	.st18{clip-path:url(#XMLID_141_);fill:url(#XMLID_142_);}
	.st19{clip-path:url(#XMLID_143_);fill:url(#XMLID_144_);}
	.st20{clip-path:url(#XMLID_145_);fill:url(#XMLID_146_);}
	.st21{clip-path:url(#XMLID_147_);fill:url(#XMLID_148_);}
	.st22{clip-path:url(#XMLID_149_);fill:url(#XMLID_150_);}
	.st23{clip-path:url(#XMLID_151_);fill:url(#XMLID_152_);}
	.st24{clip-path:url(#XMLID_153_);fill:url(#XMLID_154_);}
	.st25{clip-path:url(#XMLID_155_);fill:url(#XMLID_156_);}
	.st26{clip-path:url(#XMLID_157_);fill:url(#XMLID_158_);}
	.st27{clip-path:url(#XMLID_159_);fill:url(#XMLID_160_);}
	.st28{clip-path:url(#XMLID_161_);fill:url(#XMLID_162_);}
	.st29{clip-path:url(#XMLID_163_);fill:url(#XMLID_164_);}
	.st30{clip-path:url(#XMLID_165_);fill:url(#XMLID_166_);}
	.st31{clip-path:url(#XMLID_167_);fill:url(#XMLID_168_);}
	.st32{clip-path:url(#XMLID_169_);fill:url(#XMLID_170_);}
	.st33{clip-path:url(#XMLID_171_);fill:url(#XMLID_172_);}
	.st34{clip-path:url(#XMLID_173_);fill:url(#XMLID_174_);}
	.st35{clip-path:url(#XMLID_175_);fill:url(#XMLID_176_);}
	.st36{clip-path:url(#XMLID_177_);fill:url(#XMLID_178_);}
	.st37{clip-path:url(#XMLID_179_);fill:url(#XMLID_180_);}
</style>
<g id="XMLID_33_">
	<defs>
		<path id="XMLID_936_" d="M66.6,21.3c-2.1,0-4.3-0.4-6.4-0.8c-2.3-0.5-4.6-0.9-6.9-0.8c-4.5,0.2-8.8,2.6-13,3
			c-2.2,0.2-4.4,0-6.5-0.2c-2.3-0.2-4.7-0.5-6.8-0.1c-4.6,0.7-8.6,3.4-12.7,4.2C12,27,9.7,27,7.5,27c-2.3,0-4.6,0-6.6,0.5l134.3,0.2
			c-4.2-1-9.1-0.1-13.9-1.1c-4.3-0.9-8.5-3.6-13.3-4.3c-2.3-0.3-4.7-0.1-7.2,0.1c-2.2,0.2-4.5,0.4-6.8,0.2c-4.4-0.4-8.9-2.7-13.6-3
			c-0.2,0-0.5,0-0.7,0C75.5,19.6,71.1,21.3,66.6,21.3"/>
	</defs>
	<clipPath id="XMLID_107_">
		<use xlink:href="#XMLID_936_"  style="overflow:visible;"/>
	</clipPath>
	<linearGradient id="XMLID_108_" gradientUnits="userSpaceOnUse" x1="4.253996e-003" y1="23.6239" x2="136.0587" y2="23.6239">
		<stop  offset="0" style="stop-color:#F9D2D4"/>
		<stop  offset="1" style="stop-color:#F091A0"/>
	</linearGradient>
	<rect id="XMLID_11_" x="0" y="19.4" class="st0" width="136.1" height="8.5"/>
</g>
<path id="XMLID_934_" class="st1" d="M0.9,27.5c4-1,8.7,0,13.3-0.9c4.1-0.8,8.1-3.5,12.7-4.2c4.2-0.6,8.8,0.8,13.4,0.3
	c4.3-0.4,8.5-2.7,13-3c4.3-0.2,8.8,1.6,13.3,1.6c4.7,0,9.4-1.9,13.8-1.7c4.7,0.2,9.2,2.5,13.6,3c4.8,0.5,9.6-0.9,13.9-0.3
	c4.8,0.7,9,3.5,13.3,4.3c4.8,1,9.7,0,13.9,1.1"/>
<g id="XMLID_3_">
	<defs>
		<path id="XMLID_806_" d="M49.8,1.1v1.3c0,0-0.1,0-0.1,0.1L48.5,1c-0.1-0.2-0.4-0.2-0.5-0.1c-0.2,0.1-0.2,0.4-0.1,0.5L49.1,3
			c0,0,0,0.1-0.1,0.1l-1.6-0.4C47.2,2.7,47,2.8,46.9,3c-0.1,0.2,0.1,0.4,0.3,0.5l1.6,0.4c0,0.1,0,0.1,0,0.2c0,0,0,0,0,0l-1.4,0.3
			c-0.2,0.1-0.3,0.3-0.3,0.5c0,0.2,0.2,0.3,0.4,0.3c0,0,0.1,0,0.1,0L49,4.8C49,4.9,49,4.9,49.1,5l-1.3,1.2c-0.2,0.1-0.2,0.4,0,0.5
			c0.1,0.1,0.2,0.1,0.3,0.1c0.1,0,0.2,0,0.3-0.1l1.3-1.2c0.1,0.1,0.2,0.1,0.4,0.2l-0.1,1.9c0,0.2,0.1,0.4,0.4,0.4c0,0,0,0,0,0
			c0.2,0,0.4-0.2,0.4-0.4l0.1-1.8c0.3,0,0.5-0.1,0.8-0.2l0.8,1c0.1,0.1,0.2,0.2,0.3,0.2c0.1,0,0.2,0,0.2-0.1
			c0.2-0.1,0.2-0.4,0.1-0.5l-0.8-1c0-0.1,0.1-0.1,0.1-0.2l1.6,0.3c0,0,0,0,0.1,0c0.2,0,0.3-0.1,0.4-0.3c0-0.2-0.1-0.4-0.3-0.5
			l-1.5-0.3c0-0.1,0-0.2,0-0.3c0-0.1,0-0.1,0-0.2l1.6-0.7c0.2-0.1,0.3-0.3,0.2-0.5c-0.1-0.2-0.3-0.3-0.5-0.2l-1.5,0.7
			c0-0.1-0.1-0.2-0.2-0.2l0.5-0.8c0.1-0.2,0.1-0.4-0.1-0.5c-0.2-0.1-0.4-0.1-0.5,0.1l-0.4,0.7c-0.1,0-0.2-0.1-0.3-0.1l0.2-1
			c0-0.2-0.1-0.4-0.3-0.5c-0.2,0-0.4,0.1-0.5,0.3l-0.1,0.4V1.1c0-0.2-0.2-0.4-0.4-0.4C50,0.7,49.8,0.9,49.8,1.1"/>
	</defs>
	<clipPath id="XMLID_109_">
		<use xlink:href="#XMLID_806_"  style="overflow:visible;"/>
	</clipPath>
	<radialGradient id="XMLID_110_" cx="50.6041" cy="4.3739" r="4.252" gradientUnits="userSpaceOnUse">
		<stop  offset="0.2" style="stop-color:#F9D2D4"/>
		<stop  offset="1" style="stop-color:#F091A0"/>
	</radialGradient>
	<rect id="XMLID_2_" x="46.4" y="0.1" class="st2" width="8.5" height="8.5"/>
</g>
<g id="XMLID_4_">
	<defs>
		<path id="XMLID_801_" d="M62,10.8v0.9c0,0-0.1,0-0.1,0.1l-0.8-1c-0.1-0.1-0.3-0.1-0.4,0c-0.1,0.1-0.1,0.3,0,0.4l0.9,1.1
			c0,0,0,0.1-0.1,0.1L60.3,12c-0.1,0-0.3,0.1-0.3,0.2c0,0.1,0.1,0.3,0.2,0.3l1.1,0.3c0,0,0,0.1,0,0.1c0,0,0,0,0,0l-1,0.2
			c-0.1,0-0.2,0.2-0.2,0.3c0,0.1,0.1,0.2,0.3,0.2c0,0,0,0,0.1,0l1-0.2c0,0,0,0.1,0.1,0.1l-0.9,0.8c-0.1,0.1-0.1,0.3,0,0.4
			c0.1,0.1,0.1,0.1,0.2,0.1c0.1,0,0.1,0,0.2-0.1l0.9-0.8c0.1,0.1,0.2,0.1,0.2,0.1L62,15.4c0,0.1,0.1,0.3,0.3,0.3c0,0,0,0,0,0
			c0.1,0,0.3-0.1,0.3-0.3l0.1-1.3c0.2,0,0.4-0.1,0.5-0.1l0.5,0.7c0.1,0.1,0.1,0.1,0.2,0.1c0.1,0,0.1,0,0.2-0.1
			c0.1-0.1,0.1-0.3,0.1-0.4l-0.5-0.7c0,0,0.1-0.1,0.1-0.1l1.1,0.2c0,0,0,0,0,0c0.1,0,0.2-0.1,0.3-0.2c0-0.1-0.1-0.3-0.2-0.3l-1-0.2
			c0-0.1,0-0.1,0-0.2c0-0.1,0-0.1,0-0.1l1.1-0.5c0.1-0.1,0.2-0.2,0.1-0.4c-0.1-0.1-0.2-0.2-0.4-0.1l-1.1,0.5c0-0.1-0.1-0.1-0.1-0.2
			l0.3-0.5c0.1-0.1,0-0.3-0.1-0.4c-0.1-0.1-0.3,0-0.4,0.1l-0.3,0.5c-0.1,0-0.1-0.1-0.2-0.1l0.1-0.7c0-0.1-0.1-0.3-0.2-0.3
			c-0.1,0-0.3,0.1-0.3,0.2l-0.1,0.3v-0.3c0-0.2-0.1-0.3-0.3-0.3C62.1,10.5,62,10.6,62,10.8"/>
	</defs>
	<clipPath id="XMLID_111_">
		<use xlink:href="#XMLID_801_"  style="overflow:visible;"/>
	</clipPath>
	<radialGradient id="XMLID_112_" cx="62.5805" cy="13.1017" r="2.8346" gradientUnits="userSpaceOnUse">
		<stop  offset="0.2" style="stop-color:#F9D2D4"/>
		<stop  offset="1" style="stop-color:#F091A0"/>
	</radialGradient>
	<rect id="XMLID_1_" x="59.7" y="10.3" class="st3" width="5.7" height="5.7"/>
</g>
<g id="XMLID_7_">
	<defs>
		<path id="XMLID_796_" d="M76.3,7v0.9c0,0-0.1,0-0.1,0.1l-0.8-1c-0.1-0.1-0.3-0.1-0.4,0c-0.1,0.1-0.1,0.3,0,0.4l0.9,1.1
			c0,0,0,0.1-0.1,0.1l-1.1-0.3c-0.1,0-0.3,0.1-0.3,0.2c0,0.1,0.1,0.3,0.2,0.3L75.6,9c0,0,0,0.1,0,0.1c0,0,0,0,0,0l-1,0.2
			c-0.1,0-0.2,0.2-0.2,0.3c0,0.1,0.1,0.2,0.3,0.2c0,0,0,0,0.1,0l1-0.2c0,0,0,0.1,0.1,0.1l-0.9,0.8c-0.1,0.1-0.1,0.3,0,0.4
			c0.1,0.1,0.1,0.1,0.2,0.1c0.1,0,0.1,0,0.2-0.1l0.9-0.8c0.1,0.1,0.2,0.1,0.2,0.1l-0.1,1.3c0,0.1,0.1,0.3,0.3,0.3c0,0,0,0,0,0
			c0.1,0,0.3-0.1,0.3-0.3l0.1-1.3c0.2,0,0.4-0.1,0.5-0.1l0.5,0.7c0.1,0.1,0.1,0.1,0.2,0.1c0.1,0,0.1,0,0.2-0.1
			c0.1-0.1,0.1-0.3,0.1-0.4l-0.5-0.7c0,0,0.1-0.1,0.1-0.1l1.1,0.2c0,0,0,0,0,0c0.1,0,0.2-0.1,0.3-0.2c0-0.1-0.1-0.3-0.2-0.3l-1-0.2
			c0-0.1,0-0.1,0-0.2c0,0,0-0.1,0-0.1l1.1-0.5c0.1-0.1,0.2-0.2,0.1-0.4c-0.1-0.1-0.2-0.2-0.4-0.1L78,8.4c0-0.1-0.1-0.1-0.1-0.2
			l0.3-0.5c0.1-0.1,0-0.3-0.1-0.4c-0.1-0.1-0.3,0-0.4,0.1l-0.3,0.5c-0.1,0-0.1-0.1-0.2-0.1l0.1-0.7c0-0.1-0.1-0.3-0.2-0.3
			c-0.1,0-0.3,0.1-0.3,0.2l-0.1,0.3V7c0-0.1-0.1-0.3-0.3-0.3C76.4,6.7,76.3,6.9,76.3,7"/>
	</defs>
	<clipPath id="XMLID_113_">
		<use xlink:href="#XMLID_796_"  style="overflow:visible;"/>
	</clipPath>
	<radialGradient id="XMLID_114_" cx="76.8302" cy="9.3061" r="2.8346" gradientUnits="userSpaceOnUse">
		<stop  offset="0.2" style="stop-color:#F9D2D4"/>
		<stop  offset="1" style="stop-color:#F091A0"/>
	</radialGradient>
	<rect id="XMLID_5_" x="74" y="6.5" class="st4" width="5.7" height="5.7"/>
</g>
<g id="XMLID_8_">
	<defs>
		<path id="XMLID_791_" d="M69.2,9.2v0.5c0,0,0,0-0.1,0l-0.5-0.6c-0.1-0.1-0.2-0.1-0.2,0c-0.1,0.1-0.1,0.1,0,0.2l0.5,0.6
			c0,0,0,0,0,0.1l-0.6-0.2c-0.1,0-0.2,0-0.2,0.1c0,0.1,0,0.2,0.1,0.2l0.6,0.2c0,0,0,0,0,0.1c0,0,0,0,0,0l-0.6,0.1
			c-0.1,0-0.1,0.1-0.1,0.2c0,0.1,0.1,0.1,0.1,0.1c0,0,0,0,0,0l0.5-0.1c0,0,0,0,0,0.1l-0.5,0.5c-0.1,0.1-0.1,0.2,0,0.2
			c0,0,0.1,0,0.1,0c0,0,0.1,0,0.1,0l0.5-0.5c0,0,0.1,0.1,0.1,0.1l-0.1,0.7c0,0.1,0.1,0.2,0.1,0.2c0,0,0,0,0,0c0.1,0,0.1-0.1,0.2-0.1
			l0.1-0.7c0.1,0,0.2,0,0.3-0.1l0.3,0.4c0,0,0.1,0.1,0.1,0.1c0,0,0.1,0,0.1,0c0.1-0.1,0.1-0.1,0-0.2l-0.3-0.4c0,0,0,0,0-0.1l0.6,0.1
			c0,0,0,0,0,0c0.1,0,0.1-0.1,0.1-0.1c0-0.1,0-0.2-0.1-0.2l-0.6-0.1c0,0,0-0.1,0-0.1c0,0,0-0.1,0-0.1l0.6-0.3C71,10,71,9.9,71,9.8
			c0-0.1-0.1-0.1-0.2-0.1L70.2,10c0,0,0-0.1-0.1-0.1l0.2-0.3c0-0.1,0-0.2,0-0.2c-0.1,0-0.2,0-0.2,0l-0.2,0.3c0,0-0.1,0-0.1,0
			l0.1-0.4c0-0.1,0-0.2-0.1-0.2c-0.1,0-0.2,0-0.2,0.1l0,0.1V9.2c0-0.1-0.1-0.2-0.2-0.2C69.3,9.1,69.2,9.1,69.2,9.2"/>
	</defs>
	<clipPath id="XMLID_115_">
		<use xlink:href="#XMLID_791_"  style="overflow:visible;"/>
	</clipPath>
	<radialGradient id="XMLID_116_" cx="69.5083" cy="10.525" r="1.5591" gradientUnits="userSpaceOnUse">
		<stop  offset="0.2" style="stop-color:#F9D2D4"/>
		<stop  offset="1" style="stop-color:#F091A0"/>
	</radialGradient>
	<rect id="XMLID_6_" x="67.9" y="9" class="st5" width="3.1" height="3.1"/>
</g>
<g id="XMLID_10_">
	<defs>
		<path id="XMLID_766_" d="M40.4,19.1c-0.1,0.3-0.1,0.7-0.1,1c0,0,0,0,0,0c0.1-0.1,0.3-0.1,0.4-0.2l0.6,1.5c0,0,0,0,0,0c0,0,0,0,0,0
			c0,0,0.1,0,0.1,0c0,0,0,0,0-0.1c-0.1-0.3-0.2-0.5-0.3-0.8c-0.1-0.2-0.2-0.5-0.3-0.7c0,0,0,0,0,0c0.1-0.1,0.3-0.1,0.4-0.2
			c0,0,0,0,0,0C41,19.5,40.7,19.3,40.4,19.1C40.4,19.1,40.4,19.1,40.4,19.1C40.4,19.1,40.4,19.1,40.4,19.1"/>
	</defs>
	<clipPath id="XMLID_117_">
		<use xlink:href="#XMLID_766_"  style="overflow:visible;"/>
	</clipPath>
	<radialGradient id="XMLID_118_" cx="40.8359" cy="20.3046" r="1.4173" gradientUnits="userSpaceOnUse">
		<stop  offset="0.3" style="stop-color:#F9D2D4"/>
		<stop  offset="1" style="stop-color:#F091A0"/>
	</radialGradient>
	<rect id="XMLID_9_" x="39.4" y="18.9" class="st6" width="2.8" height="2.8"/>
</g>
<g id="XMLID_12_">
	<defs>
		<path id="XMLID_13_" d="M48.1,17.3c-0.1,0.3-0.1,0.7-0.1,1c0,0,0,0,0,0c0.1-0.1,0.3-0.1,0.4-0.2l0.6,1.5c0,0,0,0,0,0c0,0,0,0,0,0
			c0,0,0.1,0,0.1,0c0,0,0,0,0-0.1c-0.1-0.3-0.2-0.5-0.3-0.8c-0.1-0.2-0.2-0.5-0.3-0.7c0,0,0,0,0,0c0.1-0.1,0.3-0.1,0.4-0.2
			c0,0,0,0,0,0C48.7,17.7,48.4,17.5,48.1,17.3C48.1,17.2,48.1,17.2,48.1,17.3C48.1,17.2,48.1,17.3,48.1,17.3"/>
	</defs>
	<clipPath id="XMLID_119_">
		<use xlink:href="#XMLID_13_"  style="overflow:visible;"/>
	</clipPath>
	<radialGradient id="XMLID_120_" cx="48.5269" cy="18.4446" r="1.4173" gradientUnits="userSpaceOnUse">
		<stop  offset="0.3" style="stop-color:#F9D2D4"/>
		<stop  offset="1" style="stop-color:#F091A0"/>
	</radialGradient>
	<rect id="XMLID_14_" x="47.1" y="17" class="st7" width="2.8" height="2.8"/>
</g>
<g id="XMLID_15_">
	<defs>
		<path id="XMLID_16_" d="M54.8,16.5c-0.2,0.3-0.3,0.6-0.5,0.9c0,0,0,0,0,0c0.1,0,0.3,0,0.4,0l0.1,1.6c0,0,0,0,0,0c0,0,0,0,0,0
			c0,0,0.1,0,0.1,0c0,0,0,0,0-0.1c0-0.3,0-0.5,0-0.8c0-0.3,0-0.5,0-0.8c0,0,0,0,0,0c0.1,0,0.3,0,0.4,0c0,0,0,0,0,0
			C55.2,17,55,16.7,54.8,16.5C54.8,16.5,54.8,16.4,54.8,16.5C54.8,16.4,54.8,16.4,54.8,16.5"/>
	</defs>
	<clipPath id="XMLID_121_">
		<use xlink:href="#XMLID_16_"  style="overflow:visible;"/>
	</clipPath>
	
		<radialGradient id="XMLID_122_" cx="54.895" cy="17.2281" r="1.4173" gradientTransform="matrix(0.9397 0.342 -0.342 0.9397 9.1215 -17.244)" gradientUnits="userSpaceOnUse">
		<stop  offset="0.3" style="stop-color:#F9D2D4"/>
		<stop  offset="1" style="stop-color:#F091A0"/>
	</radialGradient>
	<polygon id="XMLID_17_" class="st8" points="55.7,19.5 53,18.6 54,15.9 56.6,16.9 	"/>
</g>
<g id="XMLID_18_">
	<defs>
		<path id="XMLID_19_" d="M60.8,17.3c-0.2,0.2-0.5,0.5-0.7,0.7c0,0,0,0,0,0c0.1,0,0.3,0.1,0.4,0.1l-0.4,1.5c0,0,0,0,0,0c0,0,0,0,0,0
			c0,0,0.1,0,0.1,0c0,0,0,0,0.1,0c0.1-0.3,0.1-0.5,0.2-0.8c0.1-0.2,0.1-0.5,0.2-0.7c0,0,0,0,0,0c0.1,0,0.3,0.1,0.4,0.1c0,0,0,0,0,0
			C61,18,60.9,17.6,60.8,17.3C60.8,17.3,60.8,17.3,60.8,17.3C60.8,17.3,60.8,17.3,60.8,17.3"/>
	</defs>
	<clipPath id="XMLID_123_">
		<use xlink:href="#XMLID_19_"  style="overflow:visible;"/>
	</clipPath>
	
		<radialGradient id="XMLID_124_" cx="61.3558" cy="17.6225" r="1.4173" gradientTransform="matrix(0.8192 0.5736 -0.5736 0.8192 20.3202 -31.101)" gradientUnits="userSpaceOnUse">
		<stop  offset="0.3" style="stop-color:#F9D2D4"/>
		<stop  offset="1" style="stop-color:#F091A0"/>
	</radialGradient>
	<polygon id="XMLID_20_" class="st9" points="60.8,20.5 58.5,18.9 60.1,16.6 62.4,18.2 	"/>
</g>
<g id="XMLID_21_">
	<defs>
		<path id="XMLID_22_" d="M65.9,17.8c-0.2,0.3-0.3,0.6-0.5,0.9c0,0,0,0,0,0c0.1,0,0.3,0,0.4,0l0.1,1.6c0,0,0,0,0,0c0,0,0,0,0,0
			c0,0,0.1,0,0.1,0c0,0,0,0,0-0.1c0-0.3,0-0.5,0-0.8c0-0.3,0-0.5,0-0.8c0,0,0,0,0,0c0.1,0,0.3,0,0.4,0c0,0,0,0,0,0
			C66.4,18.3,66.2,18,65.9,17.8C66,17.7,66,17.7,65.9,17.8C66,17.7,66,17.7,65.9,17.8"/>
	</defs>
	<clipPath id="XMLID_125_">
		<use xlink:href="#XMLID_22_"  style="overflow:visible;"/>
	</clipPath>
	
		<radialGradient id="XMLID_126_" cx="66.6683" cy="18.4894" r="1.4173" gradientTransform="matrix(0.9397 0.342 -0.342 0.9397 9.6481 -21.1708)" gradientUnits="userSpaceOnUse">
		<stop  offset="0.3" style="stop-color:#F9D2D4"/>
		<stop  offset="1" style="stop-color:#F091A0"/>
	</radialGradient>
	<polygon id="XMLID_23_" class="st10" points="66.8,20.8 64.2,19.9 65.1,17.2 67.8,18.2 	"/>
</g>
<g id="XMLID_24_">
	<defs>
		<path id="XMLID_25_" d="M71,17.6c-0.1,0.3-0.1,0.7-0.1,1c0,0,0,0,0,0c0.1-0.1,0.3-0.1,0.4-0.2l0.6,1.5c0,0,0,0,0,0c0,0,0,0,0,0
			c0,0,0.1,0,0.1,0c0,0,0,0,0-0.1c-0.1-0.3-0.2-0.5-0.3-0.8c-0.1-0.2-0.2-0.5-0.3-0.7c0,0,0,0,0,0c0.1-0.1,0.3-0.1,0.4-0.2
			c0,0,0,0,0,0C71.6,18,71.3,17.8,71,17.6C71,17.6,71,17.6,71,17.6C71,17.6,71,17.6,71,17.6"/>
	</defs>
	<clipPath id="XMLID_127_">
		<use xlink:href="#XMLID_25_"  style="overflow:visible;"/>
	</clipPath>
	<radialGradient id="XMLID_128_" cx="71.4409" cy="18.8078" r="1.4173" gradientUnits="userSpaceOnUse">
		<stop  offset="0.3" style="stop-color:#F9D2D4"/>
		<stop  offset="1" style="stop-color:#F091A0"/>
	</radialGradient>
	<rect id="XMLID_26_" x="70" y="17.4" class="st11" width="2.8" height="2.8"/>
</g>
<g id="XMLID_27_">
	<defs>
		<path id="XMLID_28_" d="M77.1,16.6c-0.2,0.3-0.3,0.6-0.5,0.9c0,0,0,0,0,0c0.1,0,0.3,0,0.4,0l0.1,1.6c0,0,0,0,0,0c0,0,0,0,0,0
			c0,0,0.1,0,0.1,0c0,0,0,0,0-0.1c0-0.3,0-0.5,0-0.8c0-0.3,0-0.5,0-0.8c0,0,0,0,0,0c0.1,0,0.3,0,0.4,0c0,0,0,0,0,0
			C77.5,17.2,77.3,16.9,77.1,16.6C77.1,16.6,77.1,16.6,77.1,16.6C77.1,16.6,77.1,16.6,77.1,16.6"/>
	</defs>
	<clipPath id="XMLID_129_">
		<use xlink:href="#XMLID_28_"  style="overflow:visible;"/>
	</clipPath>
	
		<radialGradient id="XMLID_130_" cx="78.135" cy="17.6015" r="1.4173" gradientTransform="matrix(0.9397 0.342 -0.342 0.9397 9.7285 -25.3786)" gradientUnits="userSpaceOnUse">
		<stop  offset="0.3" style="stop-color:#F9D2D4"/>
		<stop  offset="1" style="stop-color:#F091A0"/>
	</radialGradient>
	<polygon id="XMLID_29_" class="st12" points="78,19.7 75.3,18.7 76.3,16.1 78.9,17 	"/>
</g>
<g id="XMLID_30_">
	<defs>
		<path id="XMLID_31_" d="M84.6,16.8c-0.2,0.2-0.5,0.4-0.7,0.7c0,0,0,0,0,0c0.1,0,0.3,0.1,0.4,0.1l-0.5,1.5c0,0,0,0,0,0c0,0,0,0,0,0
			c0,0,0.1,0,0.1,0c0,0,0,0,0.1,0c0.1-0.3,0.2-0.5,0.3-0.8c0.1-0.2,0.2-0.5,0.2-0.7c0,0,0,0,0,0c0.1,0,0.3,0.1,0.4,0.1c0,0,0,0,0,0
			C84.8,17.4,84.7,17.1,84.6,16.8C84.7,16.8,84.6,16.8,84.6,16.8C84.6,16.7,84.6,16.8,84.6,16.8"/>
	</defs>
	<clipPath id="XMLID_131_">
		<use xlink:href="#XMLID_31_"  style="overflow:visible;"/>
	</clipPath>
	
		<radialGradient id="XMLID_132_" cx="85.955" cy="17.3186" r="1.4173" gradientTransform="matrix(0.766 0.6428 -0.6428 0.766 29.4964 -50.5634)" gradientUnits="userSpaceOnUse">
		<stop  offset="0.3" style="stop-color:#F9D2D4"/>
		<stop  offset="1" style="stop-color:#F091A0"/>
	</radialGradient>
	<polygon id="XMLID_32_" class="st13" points="84.4,20 82.2,18.1 84,16 86.2,17.8 	"/>
</g>
<g id="XMLID_36_">
	<defs>
		<path id="XMLID_35_" d="M31.8,24c0,0.5,0.4,1,1,1l3.5,0c0.5,0,1-0.4,1-1c0-0.5-0.4-1-1-1l-3.5,0c0,0,0,0,0,0
			C32.2,23,31.8,23.5,31.8,24"/>
	</defs>
	<clipPath id="XMLID_133_">
		<use xlink:href="#XMLID_35_"  style="overflow:visible;"/>
	</clipPath>
	
		<radialGradient id="XMLID_134_" cx="34.512" cy="-10.1371" r="2.8346" gradientTransform="matrix(1 0 0 0.4114 0 28.1537)" gradientUnits="userSpaceOnUse">
		<stop  offset="0" style="stop-color:#F9D2D4"/>
		<stop  offset="1" style="stop-color:#F091A0"/>
	</radialGradient>
	<rect id="XMLID_34_" x="31.7" y="22.8" class="st14" width="5.7" height="2.3"/>
</g>
<g id="XMLID_44_">
	<defs>
		<path id="XMLID_45_" d="M35.2,26.1c0,0.5,0.3,1,0.9,1.1l3.5,0.3c0.5,0,1-0.3,1-0.9c0-0.5-0.3-1-0.9-1.1l-3.5-0.3c0,0,0,0,0,0
			C35.7,25.2,35.2,25.6,35.2,26.1"/>
	</defs>
	<clipPath id="XMLID_135_">
		<use xlink:href="#XMLID_45_"  style="overflow:visible;"/>
	</clipPath>
	
		<radialGradient id="XMLID_136_" cx="37.5396" cy="-4.269" r="2.8346" gradientTransform="matrix(0.9962 8.715574e-002 -3.585853e-002 0.4099 0.3371 24.8421)" gradientUnits="userSpaceOnUse">
		<stop  offset="0" style="stop-color:#F9D2D4"/>
		<stop  offset="1" style="stop-color:#F091A0"/>
	</radialGradient>
	<polygon id="XMLID_46_" class="st15" points="40.6,27.8 35,27.3 35.2,25 40.8,25.4 	"/>
</g>
<g id="XMLID_47_">
	<defs>
		<path id="XMLID_48_" d="M41.9,26.5c0,0.5,0.5,0.9,1,0.9l3.5-0.2c0.5,0,0.9-0.5,0.9-1c0-0.5-0.5-0.9-1-0.9l-3.5,0.2c0,0,0,0,0,0
			C42.3,25.5,41.9,26,41.9,26.5"/>
	</defs>
	<clipPath id="XMLID_137_">
		<use xlink:href="#XMLID_48_"  style="overflow:visible;"/>
	</clipPath>
	
		<radialGradient id="XMLID_138_" cx="44.9143" cy="-5.0968" r="2.8346" gradientTransform="matrix(0.9986 -5.233596e-002 2.153261e-002 0.4109 -6.643954e-002 30.8091)" gradientUnits="userSpaceOnUse">
		<stop  offset="0" style="stop-color:#F9D2D4"/>
		<stop  offset="1" style="stop-color:#F091A0"/>
	</radialGradient>
	<polygon id="XMLID_49_" class="st16" points="47.6,27.4 41.9,27.7 41.8,25.3 47.4,25.1 	"/>
</g>
<g id="XMLID_56_">
	<defs>
		<path id="XMLID_57_" d="M44.1,23.8c0.1,0.5,0.6,0.9,1.2,0.7l3.5-0.7c0.5-0.1,0.9-0.6,0.7-1.2c-0.1-0.5-0.6-0.9-1.2-0.7l-3.5,0.7
			c0,0,0,0,0,0C44.3,22.8,44,23.3,44.1,23.8"/>
	</defs>
	<clipPath id="XMLID_139_">
		<use xlink:href="#XMLID_57_"  style="overflow:visible;"/>
	</clipPath>
	
		<radialGradient id="XMLID_140_" cx="48.5159" cy="-12.2315" r="2.8346" gradientTransform="matrix(0.9781 -0.2079 8.554122e-002 0.4024 0.387 38.2169)" gradientUnits="userSpaceOnUse">
		<stop  offset="0" style="stop-color:#F9D2D4"/>
		<stop  offset="1" style="stop-color:#F091A0"/>
	</radialGradient>
	<polygon id="XMLID_58_" class="st17" points="49.8,23.8 44.3,24.9 43.8,22.7 49.3,21.5 	"/>
</g>
<g id="XMLID_59_">
	<defs>
		<path id="XMLID_60_" d="M50,22.4c0.1,0.5,0.6,0.9,1.2,0.7l3.5-0.7c0.5-0.1,0.9-0.6,0.7-1.2c-0.1-0.5-0.6-0.9-1.2-0.7l-3.5,0.7
			c0,0,0,0,0,0C50.2,21.4,49.9,21.9,50,22.4"/>
	</defs>
	<clipPath id="XMLID_141_">
		<use xlink:href="#XMLID_60_"  style="overflow:visible;"/>
	</clipPath>
	
		<radialGradient id="XMLID_142_" cx="54.5495" cy="-12.4662" r="2.8346" gradientTransform="matrix(0.9781 -0.2079 8.554122e-002 0.4024 0.387 38.2169)" gradientUnits="userSpaceOnUse">
		<stop  offset="0" style="stop-color:#F9D2D4"/>
		<stop  offset="1" style="stop-color:#F091A0"/>
	</radialGradient>
	<polygon id="XMLID_61_" class="st18" points="55.7,22.4 50.1,23.6 49.7,21.3 55.2,20.1 	"/>
</g>
<g id="XMLID_62_">
	<defs>
		<path id="XMLID_63_" d="M48.5,25.7c0.1,0.5,0.6,0.9,1.2,0.7l3.5-0.7c0.5-0.1,0.9-0.6,0.7-1.2c-0.1-0.5-0.6-0.9-1.2-0.7l-3.5,0.7
			c0,0,0,0,0,0C48.7,24.7,48.4,25.2,48.5,25.7"/>
	</defs>
	<clipPath id="XMLID_143_">
		<use xlink:href="#XMLID_63_"  style="overflow:visible;"/>
	</clipPath>
	
		<radialGradient id="XMLID_144_" cx="52.3967" cy="-5.3378" r="2.8346" gradientTransform="matrix(0.9781 -0.2079 8.554122e-002 0.4024 0.387 38.2169)" gradientUnits="userSpaceOnUse">
		<stop  offset="0" style="stop-color:#F9D2D4"/>
		<stop  offset="1" style="stop-color:#F091A0"/>
	</radialGradient>
	<polygon id="XMLID_64_" class="st19" points="54.2,25.7 48.7,26.9 48.2,24.6 53.7,23.4 	"/>
</g>
<g id="XMLID_53_">
	<defs>
		<path id="XMLID_54_" d="M37.7,24.1c0,0.5,0.4,1,0.9,1l3.5,0.2c0.5,0,1-0.4,1-0.9c0-0.5-0.4-1-0.9-1l-3.5-0.2c0,0,0,0,0,0
			C38.2,23.2,37.7,23.6,37.7,24.1"/>
	</defs>
	<clipPath id="XMLID_145_">
		<use xlink:href="#XMLID_54_"  style="overflow:visible;"/>
	</clipPath>
	
		<radialGradient id="XMLID_146_" cx="40.1318" cy="-9.3028" r="2.8346" gradientTransform="matrix(0.9986 5.233596e-002 -2.153261e-002 0.4109 0.1599 25.9917)" gradientUnits="userSpaceOnUse">
		<stop  offset="0" style="stop-color:#F9D2D4"/>
		<stop  offset="1" style="stop-color:#F091A0"/>
	</radialGradient>
	<polygon id="XMLID_55_" class="st20" points="43.2,25.6 37.5,25.3 37.7,23 43.3,23.3 	"/>
</g>
<g id="XMLID_50_">
	<defs>
		<path id="XMLID_51_" d="M54.6,24.1c-0.1,0.5,0.3,1,0.8,1.1l3.5,0.6c0.5,0.1,1-0.3,1.1-0.8c0.1-0.5-0.3-1-0.8-1.1l-3.5-0.6
			c0,0,0,0,0,0C55.2,23.2,54.7,23.6,54.6,24.1"/>
	</defs>
	<clipPath id="XMLID_147_">
		<use xlink:href="#XMLID_51_"  style="overflow:visible;"/>
	</clipPath>
	
		<radialGradient id="XMLID_148_" cx="56.1767" cy="-8.0623" r="2.8346" gradientTransform="matrix(0.9848 0.1736 -7.144417e-002 0.4052 1.4356 18.0623)" gradientUnits="userSpaceOnUse">
		<stop  offset="0" style="stop-color:#F9D2D4"/>
		<stop  offset="1" style="stop-color:#F091A0"/>
	</radialGradient>
	<polygon id="XMLID_52_" class="st21" points="59.9,26.2 54.3,25.2 54.7,22.9 60.3,23.9 	"/>
</g>
<g id="XMLID_71_">
	<defs>
		<path id="XMLID_72_" d="M56.4,21.6c-0.1,0.5,0.3,1,0.8,1.1l3.5,0.6c0.5,0.1,1-0.3,1.1-0.8c0.1-0.5-0.3-1-0.8-1.1l-3.5-0.6
			c0,0,0,0,0,0C57,20.8,56.5,21.1,56.4,21.6"/>
	</defs>
	<clipPath id="XMLID_149_">
		<use xlink:href="#XMLID_72_"  style="overflow:visible;"/>
	</clipPath>
	
		<radialGradient id="XMLID_150_" cx="57.469" cy="-14.6809" r="2.8346" gradientTransform="matrix(0.9848 0.1736 -7.144417e-002 0.4052 1.4356 18.0623)" gradientUnits="userSpaceOnUse">
		<stop  offset="0" style="stop-color:#F9D2D4"/>
		<stop  offset="1" style="stop-color:#F091A0"/>
	</radialGradient>
	<polygon id="XMLID_73_" class="st22" points="61.7,23.7 56.1,22.7 56.5,20.5 62.1,21.4 	"/>
</g>
<g id="XMLID_65_">
	<defs>
		<path id="XMLID_66_" d="M68.2,25.3c0,0.5,0.4,1,1,1l3.5,0c0.5,0,1-0.4,1-1c0-0.5-0.4-1-1-1l-3.5,0c0,0,0,0,0,0
			C68.6,24.4,68.2,24.8,68.2,25.3"/>
	</defs>
	<clipPath id="XMLID_151_">
		<use xlink:href="#XMLID_66_"  style="overflow:visible;"/>
	</clipPath>
	
		<radialGradient id="XMLID_152_" cx="70.9717" cy="-6.9084" r="2.8346" gradientTransform="matrix(1 0 0 0.4114 0 28.1537)" gradientUnits="userSpaceOnUse">
		<stop  offset="0" style="stop-color:#F9D2D4"/>
		<stop  offset="1" style="stop-color:#F091A0"/>
	</radialGradient>
	<rect id="XMLID_67_" x="68.1" y="24.1" class="st23" width="5.7" height="2.3"/>
</g>
<g id="XMLID_77_">
	<defs>
		<path id="XMLID_78_" d="M62.5,23c0,0.5,0.4,1,1,1l3.5,0c0.5,0,1-0.4,1-1c0-0.5-0.4-1-1-1l-3.5,0c0,0,0,0,0,0
			C62.9,22,62.5,22.5,62.5,23"/>
	</defs>
	<clipPath id="XMLID_153_">
		<use xlink:href="#XMLID_78_"  style="overflow:visible;"/>
	</clipPath>
	
		<radialGradient id="XMLID_154_" cx="65.254" cy="-12.5742" r="2.8346" gradientTransform="matrix(1 0 0 0.4114 0 28.1537)" gradientUnits="userSpaceOnUse">
		<stop  offset="0" style="stop-color:#F9D2D4"/>
		<stop  offset="1" style="stop-color:#F091A0"/>
	</radialGradient>
	<rect id="XMLID_79_" x="62.4" y="21.8" class="st24" width="5.7" height="2.3"/>
</g>
<g id="XMLID_74_">
	<defs>
		<path id="XMLID_75_" d="M61.7,25.2c0,0.5,0.4,1,1,1l3.5,0c0.5,0,1-0.4,1-1c0-0.5-0.4-1-1-1l-3.5,0c0,0,0,0,0,0
			C62.1,24.2,61.7,24.7,61.7,25.2"/>
	</defs>
	<clipPath id="XMLID_155_">
		<use xlink:href="#XMLID_75_"  style="overflow:visible;"/>
	</clipPath>
	
		<radialGradient id="XMLID_156_" cx="64.464" cy="-7.2206" r="2.8346" gradientTransform="matrix(1 0 0 0.4114 0 28.1537)" gradientUnits="userSpaceOnUse">
		<stop  offset="0" style="stop-color:#F9D2D4"/>
		<stop  offset="1" style="stop-color:#F091A0"/>
	</radialGradient>
	<rect id="XMLID_76_" x="61.6" y="24" class="st25" width="5.7" height="2.3"/>
</g>
<g id="XMLID_68_">
	<defs>
		<path id="XMLID_69_" d="M74.1,23.9c-0.1,0.5,0.3,1,0.8,1.1l3.5,0.6c0.5,0.1,1-0.3,1.1-0.8c0.1-0.5-0.3-1-0.8-1.1l-3.5-0.6
			c0,0,0,0,0,0C74.7,23,74.2,23.3,74.1,23.9"/>
	</defs>
	<clipPath id="XMLID_157_">
		<use xlink:href="#XMLID_69_"  style="overflow:visible;"/>
	</clipPath>
	
		<radialGradient id="XMLID_158_" cx="76.8289" cy="-9.2684" r="2.8346" gradientTransform="matrix(0.9848 0.1736 -7.144417e-002 0.4052 0.505 14.7546)" gradientUnits="userSpaceOnUse">
		<stop  offset="0" style="stop-color:#F9D2D4"/>
		<stop  offset="1" style="stop-color:#F091A0"/>
	</radialGradient>
	<polygon id="XMLID_70_" class="st26" points="79.4,26 73.8,25 74.2,22.7 79.8,23.7 	"/>
</g>
<g id="XMLID_83_">
	<defs>
		<path id="XMLID_84_" d="M101.1,24.3c0,0.5,0.5,0.9,1.1,0.9l3.5-0.3c0.5,0,0.9-0.5,0.9-1.1c0-0.5-0.5-0.9-1.1-0.9l-3.5,0.3
			c0,0,0,0,0,0C101.4,23.3,101.1,23.8,101.1,24.3"/>
	</defs>
	<clipPath id="XMLID_159_">
		<use xlink:href="#XMLID_84_"  style="overflow:visible;"/>
	</clipPath>
	
		<radialGradient id="XMLID_160_" cx="103.9842" cy="-9.9515" r="2.8346" gradientTransform="matrix(0.9962 -8.715574e-002 3.585853e-002 0.4099 0.6174 37.2233)" gradientUnits="userSpaceOnUse">
		<stop  offset="0" style="stop-color:#F9D2D4"/>
		<stop  offset="1" style="stop-color:#F091A0"/>
	</radialGradient>
	<polygon id="XMLID_85_" class="st27" points="106.8,25 101.1,25.5 100.9,23.2 106.6,22.7 	"/>
</g>
<g id="XMLID_104_">
	<defs>
		<path id="XMLID_105_" d="M108.1,23.9c-0.2,0.5,0,1.1,0.5,1.3l3.2,1.5c0.5,0.2,1.1,0,1.3-0.5c0.2-0.5,0-1.1-0.5-1.3l-3.2-1.5
			c0,0,0,0,0,0C108.9,23.2,108.4,23.4,108.1,23.9"/>
	</defs>
	<clipPath id="XMLID_161_">
		<use xlink:href="#XMLID_105_"  style="overflow:visible;"/>
	</clipPath>
	
		<radialGradient id="XMLID_162_" cx="110.3486" cy="-6.7972" r="2.8346" gradientTransform="matrix(0.9063 0.4226 -0.1739 0.3729 9.4331 -19.0476)" gradientUnits="userSpaceOnUse">
		<stop  offset="0" style="stop-color:#F9D2D4"/>
		<stop  offset="1" style="stop-color:#F091A0"/>
	</radialGradient>
	<polygon id="XMLID_106_" class="st28" points="112.7,27.3 107.6,24.9 108.5,22.8 113.7,25.2 	"/>
</g>
<g id="XMLID_101_">
	<defs>
		<path id="XMLID_102_" d="M94.3,24.4c-0.1,0.5,0.3,1,0.9,1.1l3.5,0.4c0.5,0.1,1-0.3,1.1-0.9c0.1-0.5-0.3-1-0.9-1.1l-3.5-0.4
			c0,0,0,0,0,0C94.9,23.5,94.4,23.8,94.3,24.4"/>
	</defs>
	<clipPath id="XMLID_163_">
		<use xlink:href="#XMLID_102_"  style="overflow:visible;"/>
	</clipPath>
	
		<radialGradient id="XMLID_164_" cx="96.9439" cy="-8.5139" r="2.8346" gradientTransform="matrix(0.9945 0.1045 -4.300620e-002 0.4092 0.2946 17.9973)" gradientUnits="userSpaceOnUse">
		<stop  offset="0" style="stop-color:#F9D2D4"/>
		<stop  offset="1" style="stop-color:#F091A0"/>
	</radialGradient>
	<polygon id="XMLID_103_" class="st29" points="99.8,26.1 94.1,25.5 94.4,23.2 100,23.8 	"/>
</g>
<g id="XMLID_95_">
	<defs>
		<path id="XMLID_96_" d="M86.5,25.1c-0.1,0.5,0.2,1,0.7,1.2l3.4,0.9c0.5,0.1,1-0.2,1.2-0.7c0.1-0.5-0.2-1-0.7-1.2l-3.4-0.9
			c0,0,0,0,0,0C87.1,24.3,86.6,24.6,86.5,25.1"/>
	</defs>
	<clipPath id="XMLID_165_">
		<use xlink:href="#XMLID_96_"  style="overflow:visible;"/>
	</clipPath>
	
		<radialGradient id="XMLID_166_" cx="89.1245" cy="-5.3754" r="2.8346" gradientTransform="matrix(0.9659 0.2588 -0.1065 0.3974 2.4494 4.8971)" gradientUnits="userSpaceOnUse">
		<stop  offset="0" style="stop-color:#F9D2D4"/>
		<stop  offset="1" style="stop-color:#F091A0"/>
	</radialGradient>
	<polygon id="XMLID_97_" class="st30" points="91.5,27.7 86.1,26.2 86.7,24 92.1,25.4 	"/>
</g>
<g id="XMLID_98_">
	<defs>
		<path id="XMLID_99_" d="M87.9,22.9c-0.1,0.5,0.2,1,0.7,1.2L92,25c0.5,0.1,1-0.2,1.2-0.7c0.1-0.5-0.2-1-0.7-1.2L89,22.2
			c0,0,0,0,0,0C88.5,22.1,88,22.4,87.9,22.9"/>
	</defs>
	<clipPath id="XMLID_167_">
		<use xlink:href="#XMLID_99_"  style="overflow:visible;"/>
	</clipPath>
	
		<radialGradient id="XMLID_168_" cx="89.9034" cy="-11.4266" r="2.8346" gradientTransform="matrix(0.9659 0.2588 -0.1065 0.3974 2.4494 4.8971)" gradientUnits="userSpaceOnUse">
		<stop  offset="0" style="stop-color:#F9D2D4"/>
		<stop  offset="1" style="stop-color:#F091A0"/>
	</radialGradient>
	<polygon id="XMLID_100_" class="st31" points="92.9,25.5 87.5,24 88.1,21.8 93.5,23.2 	"/>
</g>
<g id="XMLID_89_">
	<defs>
		<path id="XMLID_90_" d="M80.5,24.6c-0.1,0.5,0.3,1,0.8,1.1l3.5,0.5c0.5,0.1,1-0.3,1.1-0.8c0.1-0.5-0.3-1-0.8-1.1l-3.5-0.5
			c0,0,0,0,0,0C81,23.7,80.6,24.1,80.5,24.6"/>
	</defs>
	<clipPath id="XMLID_169_">
		<use xlink:href="#XMLID_90_"  style="overflow:visible;"/>
	</clipPath>
	
		<radialGradient id="XMLID_170_" cx="83.2634" cy="-7.7857" r="2.8346" gradientTransform="matrix(0.9903 0.1392 -5.726007e-002 0.4074 0.3125 16.5381)" gradientUnits="userSpaceOnUse">
		<stop  offset="0" style="stop-color:#F9D2D4"/>
		<stop  offset="1" style="stop-color:#F091A0"/>
	</radialGradient>
	<polygon id="XMLID_91_" class="st32" points="85.9,26.5 80.2,25.7 80.6,23.4 86.2,24.2 	"/>
</g>
<g id="XMLID_92_">
	<defs>
		<path id="XMLID_93_" d="M81.6,21.7c-0.1,0.5,0.3,1,0.8,1.1l3.5,0.6c0.5,0.1,1-0.3,1.1-0.8c0.1-0.5-0.3-1-0.8-1.1l-3.5-0.6
			c0,0,0,0,0,0C82.2,20.8,81.7,21.1,81.6,21.7"/>
	</defs>
	<clipPath id="XMLID_171_">
		<use xlink:href="#XMLID_93_"  style="overflow:visible;"/>
	</clipPath>
	
		<radialGradient id="XMLID_172_" cx="83.9849" cy="-14.9795" r="2.8346" gradientTransform="matrix(0.9848 0.1736 -7.144417e-002 0.4052 0.5574 13.6136)" gradientUnits="userSpaceOnUse">
		<stop  offset="0" style="stop-color:#F9D2D4"/>
		<stop  offset="1" style="stop-color:#F091A0"/>
	</radialGradient>
	<polygon id="XMLID_94_" class="st33" points="86.9,23.8 81.3,22.8 81.7,20.5 87.3,21.5 	"/>
</g>
<g id="XMLID_86_">
	<defs>
		<path id="XMLID_87_" d="M75,21.6c0,0.5,0.5,0.9,1,0.9l3.5-0.2c0.5,0,0.9-0.5,0.9-1c0-0.5-0.5-0.9-1-0.9l-3.5,0.2c0,0,0,0,0,0
			C75.3,20.7,74.9,21.1,75,21.6"/>
	</defs>
	<clipPath id="XMLID_173_">
		<use xlink:href="#XMLID_87_"  style="overflow:visible;"/>
	</clipPath>
	
		<radialGradient id="XMLID_174_" cx="77.7134" cy="-16.1974" r="2.8346" gradientTransform="matrix(0.9986 -5.233596e-002 2.153261e-002 0.4109 0.4554 32.2058)" gradientUnits="userSpaceOnUse">
		<stop  offset="0" style="stop-color:#F9D2D4"/>
		<stop  offset="1" style="stop-color:#F091A0"/>
	</radialGradient>
	<polygon id="XMLID_88_" class="st34" points="80.6,22.5 74.9,22.8 74.8,20.5 80.5,20.2 	"/>
</g>
<g id="XMLID_80_">
	<defs>
		<path id="XMLID_81_" d="M68.7,23c0.1,0.5,0.6,0.9,1.1,0.8l3.5-0.6c0.5-0.1,0.9-0.6,0.8-1.1c-0.1-0.5-0.6-0.9-1.1-0.8l-3.5,0.6
			c0,0,0,0,0,0C69,22,68.6,22.5,68.7,23"/>
	</defs>
	<clipPath id="XMLID_175_">
		<use xlink:href="#XMLID_81_"  style="overflow:visible;"/>
	</clipPath>
	
		<radialGradient id="XMLID_176_" cx="71.5185" cy="-13.6284" r="2.8346" gradientTransform="matrix(0.9848 -0.1736 7.144417e-002 0.4052 1.9822 40.4638)" gradientUnits="userSpaceOnUse">
		<stop  offset="0" style="stop-color:#F9D2D4"/>
		<stop  offset="1" style="stop-color:#F091A0"/>
	</radialGradient>
	<polygon id="XMLID_82_" class="st35" points="74.4,23.2 68.9,24.2 68.4,21.9 74,20.9 	"/>
</g>
<g id="XMLID_38_">
	<defs>
		<path id="XMLID_39_" d="M20,26.2c0.2,0.5,0.7,0.8,1.2,0.6l3.4-1.1c0.5-0.2,0.8-0.7,0.6-1.2C25,24,24.5,23.8,24,23.9L20.6,25
			c0,0,0,0,0,0C20.1,25.2,19.8,25.7,20,26.2"/>
	</defs>
	<clipPath id="XMLID_177_">
		<use xlink:href="#XMLID_39_"  style="overflow:visible;"/>
	</clipPath>
	
		<radialGradient id="XMLID_178_" cx="24.0043" cy="-7.0254" r="2.8346" gradientTransform="matrix(0.9511 -0.309 0.1271 0.3913 0.6473 35.5611)" gradientUnits="userSpaceOnUse">
		<stop  offset="0" style="stop-color:#F9D2D4"/>
		<stop  offset="1" style="stop-color:#F091A0"/>
	</radialGradient>
	<polygon id="XMLID_40_" class="st36" points="25.6,25.6 20.2,27.4 19.5,25.2 24.9,23.4 	"/>
</g>
<g id="XMLID_41_">
	<defs>
		<path id="XMLID_42_" d="M25.7,24.5c0.1,0.5,0.6,0.9,1.1,0.8l3.5-0.6c0.5-0.1,0.9-0.6,0.8-1.1C31,23,30.5,22.7,30,22.8l-3.5,0.6
			c0,0,0,0,0,0C25.9,23.5,25.6,24,25.7,24.5"/>
	</defs>
	<clipPath id="XMLID_179_">
		<use xlink:href="#XMLID_42_"  style="overflow:visible;"/>
	</clipPath>
	
		<radialGradient id="XMLID_180_" cx="29.7977" cy="-6.6594" r="2.8346" gradientTransform="matrix(0.9848 -0.1736 7.144417e-002 0.4052 -0.4667 31.9049)" gradientUnits="userSpaceOnUse">
		<stop  offset="0" style="stop-color:#F9D2D4"/>
		<stop  offset="1" style="stop-color:#F091A0"/>
	</radialGradient>
	<polygon id="XMLID_43_" class="st37" points="31.4,24.7 25.8,25.7 25.4,23.4 31,22.4 	"/>
</g>
</svg>
