<?xml version="1.0" encoding="utf-8"?>
<!-- Generator: Adobe Illustrator 19.0.0, SVG Export Plug-In . SVG Version: 6.00 Build 0)  -->
<svg version="1.1" id="图层_1" xmlns="http://www.w3.org/2000/svg" xmlns:xlink="http://www.w3.org/1999/xlink" x="0px" y="0px"
	 viewBox="0 0 34 34" style="enable-background:new 0 0 34 34;" xml:space="preserve">
<style type="text/css">
	.st0{fill-rule:evenodd;clip-rule:evenodd;fill:#FCE5E8;}
	.st1{fill:none;stroke:#EB6585;stroke-width:0.87;stroke-linecap:round;stroke-linejoin:round;}
	.st2{filter:url(#Adobe_OpacityMaskFilter);}
	.st3{enable-background:new    ;}
	.st4{clip-path:url(#XMLID_4_);fill-rule:evenodd;clip-rule:evenodd;fill:#FFFFFF;}
	.st5{opacity:0.3;mask:url(#XMLID_3_);enable-background:new    ;}
	.st6{clip-path:url(#XMLID_5_);}
	.st7{clip-path:url(#XMLID_6_);fill-rule:evenodd;clip-rule:evenodd;fill:#EB6585;}
	.st8{filter:url(#Adobe_OpacityMaskFilter_1_);}
	.st9{clip-path:url(#XMLID_8_);fill-rule:evenodd;clip-rule:evenodd;fill:#FFFFFF;}
	.st10{opacity:0.2029;mask:url(#XMLID_7_);enable-background:new    ;}
	.st11{clip-path:url(#XMLID_9_);}
	.st12{clip-path:url(#XMLID_10_);fill-rule:evenodd;clip-rule:evenodd;fill:#EB6585;}
	.st13{filter:url(#Adobe_OpacityMaskFilter_2_);}
	.st14{clip-path:url(#XMLID_12_);fill-rule:evenodd;clip-rule:evenodd;fill:#FFFFFF;}
	.st15{opacity:0.2029;mask:url(#XMLID_11_);enable-background:new    ;}
	.st16{clip-path:url(#XMLID_13_);}
	.st17{clip-path:url(#XMLID_14_);fill-rule:evenodd;clip-rule:evenodd;fill:#EB6585;}
	.st18{fill-rule:evenodd;clip-rule:evenodd;fill:#E8628B;}
	.st19{fill-rule:evenodd;clip-rule:evenodd;fill:#FFFFFF;}
</style>
<g id="XMLID_1_">
	<path id="XMLID_699_" class="st0" d="M17,28.3c6.6,0,12,6.5,12-0.2c0-6.6-5.4-25.8-12-25.8S5,21.5,5,28.2C5,34.8,10.3,28.3,17,28.3
		"/>
	<path id="XMLID_698_" class="st1" d="M17,28.3c6.6,0,12,6.5,12-0.2c0-6.6-5.4-25.8-12-25.8c-6.6,0-12,19.2-12,25.8
		C5,34.8,10.3,28.3,17,28.3z"/>
	<defs>
		<filter id="Adobe_OpacityMaskFilter" filterUnits="userSpaceOnUse" x="10" y="3.3" width="7.7" height="7.7">
			<feColorMatrix  type="matrix" values="1 0 0 0 0  0 1 0 0 0  0 0 1 0 0  0 0 0 1 0"/>
		</filter>
	</defs>
	<mask maskUnits="userSpaceOnUse" x="10" y="3.3" width="7.7" height="7.7" id="XMLID_3_">
		<g id="XMLID_82_" class="st2">
			<rect id="XMLID_88_" x="9" y="3.4" width="8.5" height="8.5"/>
			<g id="XMLID_83_" class="st3">
				<rect id="XMLID_87_" x="10.3" y="3.9" width="6.7" height="6.7"/>
				<g id="XMLID_84_">
					<defs>
						<rect id="XMLID_85_" x="10.3" y="3.9" width="6.7" height="6.7"/>
					</defs>
					<clipPath id="XMLID_4_">
						<use xlink:href="#XMLID_85_"  style="overflow:visible;"/>
					</clipPath>
					<path id="XMLID_86_" class="st4" d="M17,28.3c6.6,0,12,6.5,12-0.2c0-6.6-5.4-25.8-12-25.8c-6.6,0-12,19.2-12,25.8
						C5,34.8,10.3,28.3,17,28.3"/>
				</g>
			</g>
		</g>
	</mask>
	<g id="XMLID_692_" class="st5">
		<g id="XMLID_693_">
			<defs>
				<rect id="XMLID_694_" x="10" y="3.3" width="7.7" height="7.7"/>
			</defs>
			<clipPath id="XMLID_5_">
				<use xlink:href="#XMLID_694_"  style="overflow:visible;"/>
			</clipPath>
			<g id="XMLID_695_" class="st6">
				<defs>
					<rect id="XMLID_696_" x="10.3" y="3.9" width="6.7" height="6.7"/>
				</defs>
				<clipPath id="XMLID_6_">
					<use xlink:href="#XMLID_696_"  style="overflow:visible;"/>
				</clipPath>
				<path id="XMLID_697_" class="st7" d="M13.7,3.9c1.8,0,3.3,1.5,3.3,3.3c0,1.8-1.5,3.3-3.3,3.3c-1.8,0-3.3-1.5-3.3-3.3
					C10.3,5.4,11.8,3.9,13.7,3.9"/>
			</g>
		</g>
	</g>
	<defs>
		<filter id="Adobe_OpacityMaskFilter_1_" filterUnits="userSpaceOnUse" x="4" y="24.7" width="6.9" height="6.9">
			<feColorMatrix  type="matrix" values="1 0 0 0 0  0 1 0 0 0  0 0 1 0 0  0 0 0 1 0"/>
		</filter>
	</defs>
	<mask maskUnits="userSpaceOnUse" x="4" y="24.7" width="6.9" height="6.9" id="XMLID_7_">
		<g id="XMLID_69_" class="st8">
			<rect id="XMLID_75_" x="3.8" y="23.9" width="6.8" height="8.5"/>
			<g id="XMLID_70_" class="st3">
				<rect id="XMLID_74_" x="4.8" y="25.6" width="5.7" height="5.7"/>
				<g id="XMLID_71_">
					<defs>
						<rect id="XMLID_72_" x="4.8" y="25.6" width="5.7" height="5.7"/>
					</defs>
					<clipPath id="XMLID_8_">
						<use xlink:href="#XMLID_72_"  style="overflow:visible;"/>
					</clipPath>
					<path id="XMLID_73_" class="st9" d="M17,28.3c6.6,0,12,6.5,12-0.1c0-6.6-5.4-25.8-12-25.8c-6.6,0-12,19.2-12,25.8
						C5,34.8,10.3,28.3,17,28.3"/>
				</g>
			</g>
		</g>
	</mask>
	<g id="XMLID_679_" class="st10">
		<g id="XMLID_680_">
			<defs>
				<rect id="XMLID_681_" x="4" y="24.7" width="6.9" height="6.9"/>
			</defs>
			<clipPath id="XMLID_9_">
				<use xlink:href="#XMLID_681_"  style="overflow:visible;"/>
			</clipPath>
			<g id="XMLID_682_" class="st11">
				<defs>
					<rect id="XMLID_683_" x="4.8" y="25.6" width="5.7" height="5.7"/>
				</defs>
				<clipPath id="XMLID_10_">
					<use xlink:href="#XMLID_683_"  style="overflow:visible;"/>
				</clipPath>
				<path id="XMLID_684_" class="st12" d="M7.7,25.6c1.6,0,2.8,1.3,2.8,2.8c0,1.6-1.3,2.8-2.8,2.8c-1.6,0-2.8-1.3-2.8-2.8
					C4.8,26.8,6.1,25.6,7.7,25.6"/>
			</g>
		</g>
	</g>
	<defs>
		<filter id="Adobe_OpacityMaskFilter_2_" filterUnits="userSpaceOnUse" x="19.5" y="27.3" width="5.1" height="6">
			<feColorMatrix  type="matrix" values="1 0 0 0 0  0 1 0 0 0  0 0 1 0 0  0 0 0 1 0"/>
		</filter>
	</defs>
	<mask maskUnits="userSpaceOnUse" x="19.5" y="27.3" width="5.1" height="6" id="XMLID_11_">
		<g id="XMLID_35_" class="st13">
			<rect id="XMLID_48_" x="19.2" y="27.4" width="6.8" height="6.8"/>
			<g id="XMLID_43_" class="st3">
				<rect id="XMLID_47_" x="19.7" y="27.8" width="4.8" height="4.8"/>
				<g id="XMLID_44_">
					<defs>
						<rect id="XMLID_45_" x="19.7" y="27.8" width="4.8" height="4.8"/>
					</defs>
					<clipPath id="XMLID_12_">
						<use xlink:href="#XMLID_45_"  style="overflow:visible;"/>
					</clipPath>
					<path id="XMLID_46_" class="st14" d="M17,28.3c6.6,0,12,6.5,12-0.1c0-6.6-5.4-25.8-12-25.8c-6.6,0-12,19.2-12,25.8
						C5,34.8,10.3,28.3,17,28.3"/>
				</g>
			</g>
		</g>
	</mask>
	<g id="XMLID_666_" class="st15">
		<g id="XMLID_667_">
			<defs>
				<rect id="XMLID_668_" x="19.5" y="27.3" width="5.1" height="6"/>
			</defs>
			<clipPath id="XMLID_13_">
				<use xlink:href="#XMLID_668_"  style="overflow:visible;"/>
			</clipPath>
			<g id="XMLID_669_" class="st16">
				<defs>
					<rect id="XMLID_670_" x="19.7" y="27.8" width="4.8" height="4.8"/>
				</defs>
				<clipPath id="XMLID_14_">
					<use xlink:href="#XMLID_670_"  style="overflow:visible;"/>
				</clipPath>
				<path id="XMLID_671_" class="st17" d="M22.1,27.8c1.3,0,2.4,1.1,2.4,2.4c0,1.3-1.1,2.4-2.4,2.4c-1.3,0-2.4-1.1-2.4-2.4
					C19.7,28.9,20.8,27.8,22.1,27.8"/>
			</g>
		</g>
	</g>
	<path id="XMLID_658_" class="st1" d="M11,25.6c4-3.5,8.1-3.5,12.3,0"/>
	<path id="XMLID_657_" class="st1" d="M18.8,28.5c1.2,0.3,1.5,1,1.2,2c-0.4,1.1-0.1,1.6,1,1.6"/>
	<path id="XMLID_656_" class="st1" d="M15.2,28.5c-1.2,0.3-1.5,1-1.2,2c0.4,1.1,0.1,1.6-0.9,1.6"/>
	<polygon id="XMLID_655_" class="st18" points="21.2,24.2 20.8,21.7 19.8,23.3 	"/>
	<polygon id="XMLID_654_" class="st1" points="21.2,24.2 20.8,21.7 19.8,23.3 	"/>
	<polygon id="XMLID_653_" class="st18" points="12.9,24.2 13.3,21.7 14.3,23.3 	"/>
	<polygon id="XMLID_652_" class="st1" points="12.9,24.2 13.3,21.7 14.3,23.3 	"/>
	<path id="XMLID_651_" class="st19" d="M6.2,11.2c2.4,3.2,5.4,4.8,9,4.8C11,21.5,8,19.9,6.2,11.2"/>
	<path id="XMLID_650_" class="st1" d="M6.2,11.2c2.4,3.2,5.4,4.8,9,4.8C11,21.5,8,19.9,6.2,11.2z"/>
	<path id="XMLID_649_" class="st19" d="M27.7,11.2c-2.4,3.2-5.4,4.8-9,4.8C22.9,21.5,25.9,19.9,27.7,11.2"/>
	<path id="XMLID_648_" class="st1" d="M27.7,11.2c-2.4,3.2-5.4,4.8-9,4.8C22.9,21.5,25.9,19.9,27.7,11.2z"/>
	<line id="XMLID_647_" class="st1" x1="17" y1="2.3" x2="17" y2="0.7"/>
	<line id="XMLID_646_" class="st1" x1="21.2" y1="4.9" x2="22.5" y2="3.9"/>
	<line id="XMLID_645_" class="st1" x1="12.9" y1="4.9" x2="11.7" y2="3.9"/>
	<line id="XMLID_644_" class="st1" x1="9.7" y1="10" x2="8.2" y2="9.3"/>
	<line id="XMLID_643_" class="st1" x1="24.4" y1="10" x2="25.9" y2="9.3"/>
	<line id="XMLID_642_" class="st1" x1="27.9" y1="20.6" x2="29.4" y2="20.2"/>
	<line id="XMLID_641_" class="st1" x1="6" y1="20.6" x2="4.5" y2="20.2"/>
	<line id="XMLID_640_" class="st1" x1="29.1" y1="26.4" x2="30.7" y2="26.4"/>
	<line id="XMLID_639_" class="st1" x1="4.9" y1="26.4" x2="3.3" y2="26.4"/>
</g>
</svg>
