<?xml version="1.0" encoding="utf-8"?>
<!-- Generator: Adobe Illustrator 19.0.0, SVG Export Plug-In . SVG Version: 6.00 Build 0)  -->
<svg version="1.1" id="图层_1" xmlns="http://www.w3.org/2000/svg" xmlns:xlink="http://www.w3.org/1999/xlink" x="0px" y="0px"
	 viewBox="0 0 51 51" style="enable-background:new 0 0 51 51;" xml:space="preserve">
<style type="text/css">
	.st0{opacity:0.3;}
	.st1{opacity:0.7;clip-path:url(#XMLID_98_);fill:url(#XMLID_99_);stroke:#E8456C;stroke-width:0.25;stroke-miterlimit:10;}
	.st2{opacity:0.8;clip-path:url(#XMLID_100_);fill:url(#XMLID_101_);stroke:#E8456C;stroke-width:0.25;stroke-miterlimit:10;}
	.st3{opacity:0.8;clip-path:url(#XMLID_102_);fill:url(#XMLID_103_);stroke:#E8456C;stroke-width:0.25;stroke-miterlimit:10;}
	.st4{opacity:0.8;clip-path:url(#XMLID_104_);fill:url(#XMLID_105_);stroke:#E8456C;stroke-width:0.25;stroke-miterlimit:10;}
	.st5{opacity:0.8;clip-path:url(#XMLID_106_);fill:url(#XMLID_107_);stroke:#E8456C;stroke-width:0.25;stroke-miterlimit:10;}
	.st6{opacity:0.8;clip-path:url(#XMLID_108_);fill:url(#XMLID_109_);stroke:#E8456C;stroke-width:0.25;stroke-miterlimit:10;}
	.st7{opacity:0.8;clip-path:url(#XMLID_110_);fill:url(#XMLID_111_);stroke:#E8456C;stroke-width:0.25;stroke-miterlimit:10;}
	.st8{opacity:0.8;clip-path:url(#XMLID_112_);fill:url(#XMLID_113_);stroke:#E8456C;stroke-width:0.25;stroke-miterlimit:10;}
	.st9{opacity:0.8;clip-path:url(#XMLID_114_);fill:url(#XMLID_115_);stroke:#E8456C;stroke-width:0.25;stroke-miterlimit:10;}
	.st10{opacity:0.8;clip-path:url(#XMLID_116_);fill:url(#XMLID_117_);stroke:#E8456C;stroke-width:0.25;stroke-miterlimit:10;}
	.st11{opacity:0.8;clip-path:url(#XMLID_118_);fill:url(#XMLID_119_);stroke:#E8456C;stroke-width:0.25;stroke-miterlimit:10;}
	.st12{opacity:0.8;clip-path:url(#XMLID_120_);fill:url(#XMLID_121_);stroke:#E8456C;stroke-width:0.25;stroke-miterlimit:10;}
	.st13{opacity:0.8;clip-path:url(#XMLID_122_);fill:url(#XMLID_123_);stroke:#E8456C;stroke-width:0.25;stroke-miterlimit:10;}
	.st14{opacity:0.8;clip-path:url(#XMLID_124_);fill:url(#XMLID_125_);stroke:#E8456C;stroke-width:0.25;stroke-miterlimit:10;}
	.st15{opacity:0.8;clip-path:url(#XMLID_126_);fill:url(#XMLID_127_);stroke:#E8456C;stroke-width:0.25;stroke-miterlimit:10;}
	.st16{opacity:0.8;clip-path:url(#XMLID_128_);fill:url(#XMLID_129_);stroke:#E8456C;stroke-width:0.25;stroke-miterlimit:10;}
	.st17{opacity:0.8;clip-path:url(#XMLID_130_);fill:url(#XMLID_131_);stroke:#E8456C;stroke-width:0.25;stroke-miterlimit:10;}
	.st18{opacity:0.8;clip-path:url(#XMLID_132_);fill:url(#XMLID_133_);stroke:#E8456C;stroke-width:0.25;stroke-miterlimit:10;}
	.st19{opacity:0.8;clip-path:url(#XMLID_134_);fill:url(#XMLID_135_);stroke:#E8456C;stroke-width:0.25;stroke-miterlimit:10;}
	.st20{opacity:0.7;clip-path:url(#XMLID_136_);fill:url(#XMLID_137_);stroke:#E8456C;stroke-width:0.25;stroke-miterlimit:10;}
	.st21{opacity:0.8;clip-path:url(#XMLID_138_);fill:url(#XMLID_139_);stroke:#E8456C;stroke-width:0.25;stroke-miterlimit:10;}
	.st22{opacity:0.8;clip-path:url(#XMLID_140_);fill:url(#XMLID_141_);stroke:#E8456C;stroke-width:0.25;stroke-miterlimit:10;}
	.st23{opacity:0.8;clip-path:url(#XMLID_142_);fill:url(#XMLID_143_);stroke:#E8456C;stroke-width:0.25;stroke-miterlimit:10;}
	.st24{opacity:0.8;clip-path:url(#XMLID_144_);fill:url(#XMLID_145_);stroke:#E8456C;stroke-width:0.25;stroke-miterlimit:10;}
	.st25{opacity:0.8;clip-path:url(#XMLID_146_);fill:url(#XMLID_147_);stroke:#E8456C;stroke-width:0.25;stroke-miterlimit:10;}
	.st26{opacity:0.8;clip-path:url(#XMLID_148_);fill:url(#XMLID_149_);stroke:#E8456C;stroke-width:0.25;stroke-miterlimit:10;}
	.st27{opacity:0.8;clip-path:url(#XMLID_150_);fill:url(#XMLID_151_);stroke:#E8456C;stroke-width:0.25;stroke-miterlimit:10;}
	.st28{opacity:0.8;clip-path:url(#XMLID_152_);fill:url(#XMLID_153_);stroke:#E8456C;stroke-width:0.25;stroke-miterlimit:10;}
	.st29{opacity:0.8;clip-path:url(#XMLID_154_);fill:url(#XMLID_155_);stroke:#E8456C;stroke-width:0.25;stroke-miterlimit:10;}
	.st30{opacity:0.8;clip-path:url(#XMLID_156_);fill:url(#XMLID_157_);stroke:#E8456C;stroke-width:0.25;stroke-miterlimit:10;}
	.st31{opacity:0.8;clip-path:url(#XMLID_158_);fill:url(#XMLID_159_);stroke:#E8456C;stroke-width:0.25;stroke-miterlimit:10;}
	.st32{opacity:0.8;clip-path:url(#XMLID_160_);fill:url(#XMLID_161_);stroke:#E8456C;stroke-width:0.25;stroke-miterlimit:10;}
	.st33{opacity:0.8;clip-path:url(#XMLID_162_);fill:url(#XMLID_163_);stroke:#E8456C;stroke-width:0.25;stroke-miterlimit:10;}
	.st34{opacity:0.8;clip-path:url(#XMLID_164_);fill:url(#XMLID_165_);stroke:#E8456C;stroke-width:0.25;stroke-miterlimit:10;}
	.st35{opacity:0.8;clip-path:url(#XMLID_166_);fill:url(#XMLID_167_);stroke:#E8456C;stroke-width:0.25;stroke-miterlimit:10;}
	.st36{opacity:0.8;clip-path:url(#XMLID_168_);fill:url(#XMLID_169_);stroke:#E8456C;stroke-width:0.25;stroke-miterlimit:10;}
	.st37{opacity:0.8;clip-path:url(#XMLID_170_);fill:url(#XMLID_171_);stroke:#E8456C;stroke-width:0.25;stroke-miterlimit:10;}
	.st38{opacity:0.8;clip-path:url(#XMLID_172_);fill:url(#XMLID_173_);stroke:#E8456C;stroke-width:0.25;stroke-miterlimit:10;}
</style>
<g id="XMLID_53_">
	<g id="XMLID_94_" class="st0">
		<defs>
			<path id="XMLID_95_" class="st0" d="M42.3,19.9c0.2-0.2,0.3-0.3,0.4-0.4c0.1-0.1,0.2-0.1,0.2-0.3c0.3-0.6-0.2-1.5-0.7-2
				c-1.1-1.1-2.9-0.8-3.5-0.7c-0.5,0.1-2.8,0.4-3.7,2.3c-0.2,0.3-0.7,1.3-0.3,2.5c0,0.1,0.5,1.5,1.7,1.9c0.9,0.3,1.7-0.1,3.2-0.8
				c0.7-0.3,1-0.5,1.2-0.9c0.1-0.1,0.1-0.4,0.4-0.5c0.2-0.1,0.3,0,0.5-0.1c0.1,0,0.2-0.1,0.2-0.1C42,20.6,42,20.3,42.3,19.9"/>
		</defs>
		<clipPath id="XMLID_98_">
			<use xlink:href="#XMLID_95_"  style="overflow:visible;"/>
		</clipPath>
		
			<linearGradient id="XMLID_99_" gradientUnits="userSpaceOnUse" x1="3.283" y1="24.8701" x2="11.7869" y2="24.8701" gradientTransform="matrix(-0.6428 0.766 -0.766 -0.6428 62.3096 29.8697)">
			<stop  offset="0" style="stop-color:#F9D2D4"/>
			<stop  offset="1" style="stop-color:#F091A0"/>
		</linearGradient>
		<polygon id="XMLID_96_" class="st1" points="32.4,20.2 37.9,13.7 44.4,19.1 38.9,25.6 		"/>
		<use xlink:href="#XMLID_95_"  style="overflow:visible;fill:none;stroke:#E8456C;stroke-width:0.25;stroke-miterlimit:10;"/>
	</g>
	<g id="XMLID_91_" class="st0">
		<defs>
			<path id="XMLID_92_" class="st0" d="M36.9,40.2c0-0.3,0-1.1-0.5-1.7c-0.3-0.3-0.5-0.3-1.4-0.8c-1.4-0.6-1.3-0.8-1.8-0.9
				c-0.4-0.1-1.6-0.4-2.6,0.3c-0.7,0.6-1,1.6-0.8,2.4c0.3,1.1,1.3,1.8,2.1,2c0.3,0.1,0.5,0,0.8,0.2c0.5,0.4,0.3,1,0.7,1.4
				c0.5,0.5,1.7,0.1,2.4-0.4C36.8,41.8,36.9,40.5,36.9,40.2z"/>
		</defs>
		<clipPath id="XMLID_100_">
			<use xlink:href="#XMLID_92_"  style="overflow:visible;"/>
		</clipPath>
		
			<linearGradient id="XMLID_101_" gradientUnits="userSpaceOnUse" x1="22.8566" y1="15.7177" x2="29.3476" y2="15.7177" gradientTransform="matrix(-0.6428 0.766 -0.766 -0.6428 62.3096 29.8697)">
			<stop  offset="0" style="stop-color:#F9D2D4"/>
			<stop  offset="1" style="stop-color:#F091A0"/>
		</linearGradient>
		<polygon id="XMLID_93_" class="st2" points="28,39.4 32.2,34.4 39,40.1 34.8,45.1 		"/>
		<use xlink:href="#XMLID_92_"  style="overflow:visible;fill:none;stroke:#E8456C;stroke-width:0.25;stroke-miterlimit:10;"/>
	</g>
	<g id="XMLID_88_" class="st0">
		<defs>
			<path id="XMLID_89_" class="st0" d="M42.4,40.8c-1.8-1.5-1.4-3.6,0.5-5.8c1.9-2.2,4.5-3.9,6.3-2.3c1.8,1.5,1,3.9-0.9,6.2
				C46.4,41.1,44.2,42.4,42.4,40.8z"/>
		</defs>
		<clipPath id="XMLID_102_">
			<use xlink:href="#XMLID_89_"  style="overflow:visible;"/>
		</clipPath>
		
			<linearGradient id="XMLID_103_" gradientUnits="userSpaceOnUse" x1="10.1896" y1="7.812" x2="21.6047" y2="7.812" gradientTransform="matrix(-0.6428 0.766 -0.766 -0.6428 62.3096 29.8697)">
			<stop  offset="0" style="stop-color:#F9D2D4"/>
			<stop  offset="1" style="stop-color:#F091A0"/>
		</linearGradient>
		<polygon id="XMLID_90_" class="st3" points="39.2,38.7 46.5,29.9 53,35.4 45.7,44.1 		"/>
		<use xlink:href="#XMLID_89_"  style="overflow:visible;fill:none;stroke:#E8456C;stroke-width:0.25;stroke-miterlimit:10;"/>
	</g>
	<g id="XMLID_85_" class="st0">
		<defs>
			<path id="XMLID_86_" class="st0" d="M45.1,23.3c-0.2,0.1-0.4-0.2-0.7-0.3c-0.6-0.3-1.4-0.1-1.9,0.2c-1.2,0.8-0.8,2.7-0.7,3
				c0.2,0.9,0.8,2,1.3,2c0.3,0,0.4-0.3,0.6-0.2c0.2,0.1,0,0.6,0.2,1c0.3,0.5,1.5,0.5,2.2,0c0.4-0.2,0.3-0.4,1-1.1
				c0.5-0.5,0.6-0.5,0.8-0.8c0.1-0.1,0.4-0.7,0.2-1.3c-0.1-0.5-0.5-0.5-0.6-0.9c0-0.5,0.5-0.7,0.4-1.1c0-0.2-0.3-0.4-0.6-0.6
				c-0.2-0.1-1.5-0.9-2-0.4C45.3,23,45.4,23.2,45.1,23.3z"/>
		</defs>
		<clipPath id="XMLID_104_">
			<use xlink:href="#XMLID_86_"  style="overflow:visible;"/>
		</clipPath>
		
			<linearGradient id="XMLID_105_" gradientUnits="userSpaceOnUse" x1="3.4864" y1="15.9052" x2="11.9904" y2="15.9052" gradientTransform="matrix(-0.6428 0.766 -0.766 -0.6428 62.3096 29.8697)">
			<stop  offset="0" style="stop-color:#F9D2D4"/>
			<stop  offset="1" style="stop-color:#F091A0"/>
		</linearGradient>
		<polygon id="XMLID_87_" class="st4" points="39.2,26.1 44.6,19.6 51.1,25 45.7,31.6 		"/>
		<use xlink:href="#XMLID_86_"  style="overflow:visible;fill:none;stroke:#E8456C;stroke-width:0.25;stroke-miterlimit:10;"/>
	</g>
	<g id="XMLID_82_" class="st0">
		<defs>
			<path id="XMLID_83_" class="st0" d="M40.3,14.9c-0.4,1-0.6,1.6-1.3,2.1c-0.7,0.5-1.7,0.4-3.5,0.1c-1.4-0.2-1.8-0.4-1.9-0.5
				c-0.9-0.7-0.9-2-0.9-2.2c0-1.4,0.9-3,2.2-3.4c0.9-0.3,1.2,0.3,3.1,0c0.5-0.1,0.8-0.2,1.3,0c0.9,0.3,1.4,1.2,1.4,1.2
				C40.9,13,40.6,13.9,40.3,14.9z"/>
		</defs>
		<clipPath id="XMLID_106_">
			<use xlink:href="#XMLID_83_"  style="overflow:visible;"/>
		</clipPath>
		
			<linearGradient id="XMLID_107_" gradientUnits="userSpaceOnUse" x1="-1.369926e-002" y1="29.8874" x2="8.4902" y2="29.8874" gradientTransform="matrix(-0.6428 0.766 -0.766 -0.6428 62.3096 29.8697)">
			<stop  offset="0" style="stop-color:#F9D2D4"/>
			<stop  offset="1" style="stop-color:#F091A0"/>
		</linearGradient>
		<polygon id="XMLID_84_" class="st5" points="30.7,14.4 36.2,7.9 42.7,13.4 37.2,19.9 		"/>
		<use xlink:href="#XMLID_83_"  style="overflow:visible;fill:none;stroke:#E8456C;stroke-width:0.25;stroke-miterlimit:10;"/>
	</g>
	<g id="XMLID_79_" class="st0">
		<defs>
			<path id="XMLID_80_" class="st0" d="M42.1,8.3L42.1,8.3C42.1,8.3,42.1,8.3,42.1,8.3C41.5,9.2,41,9.6,41,9.6
				c-1.2,0.8-2.5,0.7-2.5,0.7c-0.3,0-1.5-0.2-2.3-1.3c-0.2-0.2-0.8-1.2-0.5-2.3c0.3-1.2,1.6-2,2.7-2c0.6,0,1,0.2,1.8,0.7
				c1.1,0.6,1.7,1.3,1.9,1.5c0.2,0.3,0.4,0.5,0.5,0.7"/>
		</defs>
		<clipPath id="XMLID_108_">
			<use xlink:href="#XMLID_80_"  style="overflow:visible;"/>
		</clipPath>
		
			<linearGradient id="XMLID_109_" gradientUnits="userSpaceOnUse" x1="-5.5356" y1="32.4272" x2="1.551" y2="32.4272" gradientTransform="matrix(-0.6428 0.766 -0.766 -0.6428 62.3096 29.8697)">
			<stop  offset="0" style="stop-color:#F9D2D4"/>
			<stop  offset="1" style="stop-color:#F091A0"/>
		</linearGradient>
		<polygon id="XMLID_81_" class="st6" points="33.8,7.9 38.3,2.5 43.7,7.1 39.2,12.5 		"/>
		<use xlink:href="#XMLID_80_"  style="overflow:visible;fill:none;stroke:#E8456C;stroke-width:0.25;stroke-miterlimit:10;"/>
	</g>
	<g id="XMLID_76_" class="st0">
		<defs>
			<path id="XMLID_77_" class="st0" d="M38.8,21.9c0.4-0.2,0.8-0.5,1.3-0.5c0.9,0.1,1.4,1,1.4,1c0.2,0.4,0.2,0.8,0.2,1.1
				c0,0.2,0,1-0.5,1.6c-0.4,0.6-0.7,0.3-1.9,1.2c-0.5,0.4-0.8,0.7-1.1,0.6c-0.3-0.1-0.5-0.3-0.7-0.5c-0.1-0.1-0.3-0.4-0.4-0.7
				c0-0.1-0.1-0.4,0.1-1.3c0.2-0.6,0.4-1.3,1-2C38.4,22.1,38.7,22,38.8,21.9z"/>
		</defs>
		<clipPath id="XMLID_110_">
			<use xlink:href="#XMLID_77_"  style="overflow:visible;"/>
		</clipPath>
		
			<linearGradient id="XMLID_111_" gradientUnits="userSpaceOnUse" x1="6.9459" y1="21.2584" x2="13.8674" y2="21.2584" gradientTransform="matrix(-0.6428 0.766 -0.766 -0.6428 62.3096 29.8697)">
			<stop  offset="0" style="stop-color:#F9D2D4"/>
			<stop  offset="1" style="stop-color:#F091A0"/>
		</linearGradient>
		<polygon id="XMLID_78_" class="st7" points="35.1,25.1 39.5,19.8 43.6,23.2 39.2,28.5 		"/>
		<use xlink:href="#XMLID_77_"  style="overflow:visible;fill:none;stroke:#E8456C;stroke-width:0.25;stroke-miterlimit:10;"/>
	</g>
	<g id="XMLID_73_" class="st0">
		<defs>
			<path id="XMLID_74_" class="st0" d="M34.6,28c0.1-0.2,0.3-0.2,0.7-0.3c0.5-0.1,0.8-0.1,1.2-0.1c1.5,0,1.3,0,1.5,0
				c1.1,0.2,1.9,1,2.2,1.4c0.3,0.3,0.9,1,1,2c0.1,0.5,0,0.5,0.1,1.4c0,0.4,0.1,0.6,0,0.9c-0.1,0.2-0.2,0.3-0.6,0.7
				c-0.4,0.4-0.6,0.6-0.9,0.6c-0.2,0-0.3,0-0.4,0.1c-0.3,0.1-0.4,0.3-0.5,0.4c-0.4,0.4-1.2,0.1-1.5,0c-0.2,0-0.5-0.2-1.3-0.9
				c-0.9-0.8-1.4-1.3-1.5-1.5c-0.7-1-0.7-1.4-0.6-1.5c0,0,0-0.1,0.2-0.3c0.6-0.9,0.8-0.9,0.8-1.2C35,28.9,34.3,28.4,34.6,28z"/>
		</defs>
		<clipPath id="XMLID_112_">
			<use xlink:href="#XMLID_74_"  style="overflow:visible;"/>
		</clipPath>
		
			<linearGradient id="XMLID_113_" gradientUnits="userSpaceOnUse" x1="12.6042" y1="17.9204" x2="21.1081" y2="17.9204" gradientTransform="matrix(-0.6428 0.766 -0.766 -0.6428 62.3096 29.8697)">
			<stop  offset="0" style="stop-color:#F9D2D4"/>
			<stop  offset="1" style="stop-color:#F091A0"/>
		</linearGradient>
		<polygon id="XMLID_75_" class="st8" points="31.4,31.4 36.8,24.9 44.1,31.1 38.7,37.6 		"/>
		<use xlink:href="#XMLID_74_"  style="overflow:visible;fill:none;stroke:#E8456C;stroke-width:0.25;stroke-miterlimit:10;"/>
	</g>
	<g id="XMLID_70_" class="st0">
		<defs>
			<path id="XMLID_71_" class="st0" d="M33.2,30.7c-0.7-0.4-1-0.6-1.5-0.6c-1.1,0-1.9,1.3-1.9,1.4c-0.9,1.6,0.1,3.6,0.3,3.8
				c0.2,0.4,1.1,1.9,2.5,1.9c1,0,1.7-0.6,1.9-0.7c0.6-0.6,0.8-1.2,0.9-1.6c0.1-0.4,0.4-1.4,0-2.4C35.1,31.8,34.5,31.4,33.2,30.7z"/>
		</defs>
		<clipPath id="XMLID_114_">
			<use xlink:href="#XMLID_71_"  style="overflow:visible;"/>
		</clipPath>
		
			<linearGradient id="XMLID_115_" gradientUnits="userSpaceOnUse" x1="18.639" y1="20.3932" x2="25.5612" y2="20.3932" gradientTransform="matrix(-0.6428 0.766 -0.766 -0.6428 62.3096 29.8697)">
			<stop  offset="0" style="stop-color:#F9D2D4"/>
			<stop  offset="1" style="stop-color:#F091A0"/>
		</linearGradient>
		<polygon id="XMLID_72_" class="st9" points="27.5,34 31.9,28.7 37.5,33.4 33.1,38.7 		"/>
		<use xlink:href="#XMLID_71_"  style="overflow:visible;fill:none;stroke:#E8456C;stroke-width:0.25;stroke-miterlimit:10;"/>
	</g>
	<g id="XMLID_67_" class="st0">
		<defs>
			<path id="XMLID_68_" class="st0" d="M28.5,42.6c0.5-0.1,0.8-0.5,1.1-0.8c1-1.1,1.5-1.7,1.5-2c0.2-1.3-0.8-2.7-1.9-3.1
				c-0.4-0.2-0.9-0.2-1.2-0.3c-0.7-0.1-1.1-0.1-1.5,0c-1,0.3-1.6,1.6-1.7,2.6c0,0.8,0.2,1.3,0.3,1.5c0.3,0.6,0.7,0.9,1.3,1.4
				c0.7,0.5,1.1,0.6,1.3,0.7C27.8,42.6,28.1,42.7,28.5,42.6z"/>
		</defs>
		<clipPath id="XMLID_116_">
			<use xlink:href="#XMLID_68_"  style="overflow:visible;"/>
		</clipPath>
		
			<linearGradient id="XMLID_117_" gradientUnits="userSpaceOnUse" x1="26.0269" y1="20.4306" x2="32.3165" y2="20.4306" gradientTransform="matrix(-0.6428 0.766 -0.766 -0.6428 62.3096 29.8697)">
			<stop  offset="0" style="stop-color:#F9D2D4"/>
			<stop  offset="1" style="stop-color:#F091A0"/>
		</linearGradient>
		<polygon id="XMLID_69_" class="st10" points="23.3,39.3 27.4,34.5 32.5,38.8 28.5,43.6 		"/>
		<use xlink:href="#XMLID_68_"  style="overflow:visible;fill:none;stroke:#E8456C;stroke-width:0.25;stroke-miterlimit:10;"/>
	</g>
	<g id="XMLID_64_" class="st0">
		<defs>
			<path id="XMLID_65_" class="st0" d="M23.9,37.9c0.2,0.7,0.6,0.7,0.8,1.3c0.3,1-0.6,2.2-1.4,2.8c-1.1,0.8-2.6,0.9-3.7,0.5
				c-0.3-0.1-1.1-0.5-1.6-1.3c-0.4-0.8-0.3-1.6-0.2-2.2c0.1-0.5,0.4-2.8,2.3-3.7c0.2-0.1,1.7-0.9,2.9-0.2c0.1,0.1,0.7,0.4,1,1.1
				C24.1,36.8,23.7,37.1,23.9,37.9z"/>
		</defs>
		<clipPath id="XMLID_118_">
			<use xlink:href="#XMLID_65_"  style="overflow:visible;"/>
		</clipPath>
		
			<linearGradient id="XMLID_119_" gradientUnits="userSpaceOnUse" x1="29.0142" y1="25.6194" x2="37.5181" y2="25.6194" gradientTransform="matrix(-0.6428 0.766 -0.766 -0.6428 62.3096 29.8697)">
			<stop  offset="0" style="stop-color:#F9D2D4"/>
			<stop  offset="1" style="stop-color:#F091A0"/>
		</linearGradient>
		<polygon id="XMLID_66_" class="st11" points="15.5,39.6 21,33.1 27.1,38.2 21.6,44.7 		"/>
		<use xlink:href="#XMLID_65_"  style="overflow:visible;fill:none;stroke:#E8456C;stroke-width:0.25;stroke-miterlimit:10;"/>
	</g>
	<g id="XMLID_61_" class="st0">
		<defs>
			<path id="XMLID_62_" class="st0" d="M26.4,35.6c0.6-0.2,0.9,0.2,1.3,0c0.6-0.2,0.9-1.2,0.7-1.9c-0.2-1.2-1.4-1.9-2.2-2.1
				c-1.3-0.3-2.9,0.1-3.2,0.9c-0.2,0.5,0.4,0.8,0.3,1.7c-0.1,0.9-0.7,1.1-0.6,1.6c0.2,0.7,2.1,1,3,0.3C26,35.9,26.1,35.7,26.4,35.6z
				"/>
		</defs>
		<clipPath id="XMLID_120_">
			<use xlink:href="#XMLID_62_"  style="overflow:visible;"/>
		</clipPath>
		
			<linearGradient id="XMLID_121_" gradientUnits="userSpaceOnUse" x1="23.9146" y1="25.5893" x2="30.3142" y2="25.5893" gradientTransform="matrix(-0.6428 0.766 -0.766 -0.6428 62.3096 29.8697)">
			<stop  offset="0" style="stop-color:#F9D2D4"/>
			<stop  offset="1" style="stop-color:#F091A0"/>
		</linearGradient>
		<polygon id="XMLID_63_" class="st12" points="20.8,34.6 24.9,29.7 29.7,33.8 25.6,38.7 		"/>
		<use xlink:href="#XMLID_62_"  style="overflow:visible;fill:none;stroke:#E8456C;stroke-width:0.25;stroke-miterlimit:10;"/>
	</g>
	<g id="XMLID_58_" class="st0">
		<defs>
			<path id="XMLID_59_" class="st0" d="M28.8,31c-0.2,1-1,1.8-1.7,2c-0.2,0.1-0.1,0-1.7,0.3c-0.8,0.2-0.9,0.2-1,0.2
				c-0.4,0-1.7,0.1-2-0.4c-0.2-0.4,0.1-1,0.6-1.8c0.5-0.8,1.1-2,2.4-2.3c0,0,0.4,0,1.1-0.1c1-0.1,1.6-0.2,1.7-0.1
				C28.8,29,29,30.1,28.8,31z"/>
		</defs>
		<clipPath id="XMLID_122_">
			<use xlink:href="#XMLID_59_"  style="overflow:visible;"/>
		</clipPath>
		
			<linearGradient id="XMLID_123_" gradientUnits="userSpaceOnUse" x1="20.7274" y1="27.0179" x2="28.4392" y2="27.0179" gradientTransform="matrix(-0.6428 0.766 -0.766 -0.6428 62.3096 29.8697)">
			<stop  offset="0" style="stop-color:#F9D2D4"/>
			<stop  offset="1" style="stop-color:#F091A0"/>
		</linearGradient>
		<polygon id="XMLID_60_" class="st13" points="21.2,32.5 26.1,26.6 30.4,30.2 25.5,36.1 		"/>
		<use xlink:href="#XMLID_59_"  style="overflow:visible;fill:none;stroke:#E8456C;stroke-width:0.25;stroke-miterlimit:10;"/>
	</g>
	<g id="XMLID_55_" class="st0">
		<defs>
			<path id="XMLID_56_" class="st0" d="M30.1,25c0.1,1-0.1,1.4-0.1,1.6c-0.2,0.5-0.5,0.7-0.9,1.1C27.8,29,28,29.5,27.3,30
				c-1,0.6-2.7,0.3-3.6-0.5c-0.6-0.6-0.3-0.9-1.3-2.3c-0.7-1-0.9-1-1.3-1.8c-0.3-0.6-0.7-1.3-0.7-2.2c0-1.3,0.8-2.8,1.9-3.1
				c0.7-0.2,0.9,0.1,1.9-0.2c0.8-0.3,0.9-0.7,1.5-0.8c0.8-0.1,1.5,0.4,2,0.8c1.1,0.9,1.6,2,1.9,2.9C29.8,23.3,30,24,30.1,25z"/>
		</defs>
		<clipPath id="XMLID_124_">
			<use xlink:href="#XMLID_56_"  style="overflow:visible;"/>
		</clipPath>
		
			<linearGradient id="XMLID_125_" gradientUnits="userSpaceOnUse" x1="14.2869" y1="31.9851" x2="24.8767" y2="31.9851" gradientTransform="matrix(-0.6428 0.766 -0.766 -0.6428 62.3096 29.8697)">
			<stop  offset="0" style="stop-color:#F9D2D4"/>
			<stop  offset="1" style="stop-color:#F091A0"/>
		</linearGradient>
		<polygon id="XMLID_57_" class="st14" points="17.5,24.7 24.3,16.6 33,23.9 26.2,32 		"/>
		<use xlink:href="#XMLID_56_"  style="overflow:visible;fill:none;stroke:#E8456C;stroke-width:0.25;stroke-miterlimit:10;"/>
	</g>
	<g id="XMLID_51_" class="st0">
		<defs>
			<path id="XMLID_52_" class="st0" d="M22.9,29.9c0.5-1.6-0.3-3-0.4-3.2c-0.8-1.3-2.1-1.7-2.8-1.9c-0.5-0.1-0.8-0.2-1.3-0.2
				c-0.5,0-0.7,0.2-1.4,0.2c-0.5,0-0.5-0.1-0.7,0c-0.9,0.1-1.6,2.1-1.5,3.9c0,0.7,0.1,2.7,1.5,3.6c0.7,0.4,1.4,0.4,2.4,0.3
				c1,0,2-0.1,3-0.8C22.6,31,22.9,30.1,22.9,29.9z"/>
		</defs>
		<clipPath id="XMLID_126_">
			<use xlink:href="#XMLID_52_"  style="overflow:visible;"/>
		</clipPath>
		
			<linearGradient id="XMLID_127_" gradientUnits="userSpaceOnUse" x1="22.6202" y1="34.3601" x2="31.6058" y2="34.3601" gradientTransform="matrix(-0.6428 0.766 -0.766 -0.6428 62.3096 29.8697)">
			<stop  offset="0" style="stop-color:#F9D2D4"/>
			<stop  offset="1" style="stop-color:#F091A0"/>
		</linearGradient>
		<polygon id="XMLID_54_" class="st15" points="12.1,29 17.8,22.1 25.1,28.1 19.3,35 		"/>
		<use xlink:href="#XMLID_52_"  style="overflow:visible;fill:none;stroke:#E8456C;stroke-width:0.25;stroke-miterlimit:10;"/>
	</g>
	<g id="XMLID_48_" class="st0">
		<defs>
			<path id="XMLID_49_" class="st0" d="M23.7,31.5c0-0.8-0.9-1.6-1.6-1.6c-0.2,0-0.5,0-1.5,0.9c-1.4,1.2-1.4,1.6-2.2,2
				c-1,0.4-1.3-0.1-2.3,0.3c-0.8,0.3-1.8,1.2-1.9,2.3c0,0.1-0.1,1.1,0.7,1.7c0.6,0.5,1.2,0.6,1.7,0.6c1.8,0.1,3.1-0.9,3.3-1.1
				c1.1-0.9,0.7-1.4,2.2-3.1C23.2,32.4,23.8,32.2,23.7,31.5z"/>
		</defs>
		<clipPath id="XMLID_128_">
			<use xlink:href="#XMLID_49_"  style="overflow:visible;"/>
		</clipPath>
		
			<linearGradient id="XMLID_129_" gradientUnits="userSpaceOnUse" x1="24.9794" y1="30.9388" x2="36.4392" y2="30.9388" gradientTransform="matrix(-0.6428 0.766 -0.766 -0.6428 62.3096 29.8697)">
			<stop  offset="0" style="stop-color:#F9D2D4"/>
			<stop  offset="1" style="stop-color:#F091A0"/>
		</linearGradient>
		<polygon id="XMLID_50_" class="st16" points="12.8,35.9 20.1,27.1 25,31.1 17.6,39.9 		"/>
		<use xlink:href="#XMLID_49_"  style="overflow:visible;fill:none;stroke:#E8456C;stroke-width:0.25;stroke-miterlimit:10;"/>
	</g>
	<g id="XMLID_45_" class="st0">
		<defs>
			<path id="XMLID_46_" class="st0" d="M14.7,26.4c-0.1,0.3-0.2,0.5-0.2,0.8c0.1,0.4,0.6,0.4,0.7,0.8c0.1,0.4-0.6,0.9-0.9,1.2
				c-0.4,0.3-1,0.8-2,0.8c-0.3,0-1.6,0.1-2.1-0.7c-0.5-0.7,0.1-1.4-0.5-2.4c-0.3-0.5-0.6-0.5-0.7-0.9c-0.2-0.8,0.6-1.9,1.5-2.4
				c0.3-0.2,0.8-0.5,1.5-0.5c1.6,0.1,2.4,1.8,2.5,2C14.6,25.4,14.8,25.8,14.7,26.4z"/>
		</defs>
		<clipPath id="XMLID_130_">
			<use xlink:href="#XMLID_46_"  style="overflow:visible;"/>
		</clipPath>
		
			<linearGradient id="XMLID_131_" gradientUnits="userSpaceOnUse" x1="26.4119" y1="40.5476" x2="33.2661" y2="40.5476" gradientTransform="matrix(-0.6428 0.766 -0.766 -0.6428 62.3096 29.8697)">
			<stop  offset="0" style="stop-color:#F9D2D4"/>
			<stop  offset="1" style="stop-color:#F091A0"/>
		</linearGradient>
		<polygon id="XMLID_47_" class="st17" points="7,26.9 11.4,21.6 17.1,26.4 12.7,31.7 		"/>
		<use xlink:href="#XMLID_46_"  style="overflow:visible;fill:none;stroke:#E8456C;stroke-width:0.25;stroke-miterlimit:10;"/>
	</g>
	<g id="XMLID_42_" class="st0">
		<defs>
			<path id="XMLID_43_" class="st0" d="M8.7,30.3c0.2-0.2,0.8-1,0.8-2.1c0-0.9-0.5-1.5-0.6-1.7c-0.7-0.9-1.9-1.4-3-1.3
				c-1.3,0.1-2.6,1-3,2.4c-0.4,1.2-0.2,2.7,0.8,3.6C5.1,32.5,7.6,31.6,8.7,30.3z"/>
		</defs>
		<clipPath id="XMLID_132_">
			<use xlink:href="#XMLID_43_"  style="overflow:visible;"/>
		</clipPath>
		
			<linearGradient id="XMLID_133_" gradientUnits="userSpaceOnUse" x1="31.5404" y1="44.0008" x2="38.9464" y2="44.0008" gradientTransform="matrix(-0.6428 0.766 -0.766 -0.6428 62.3096 29.8697)">
			<stop  offset="0" style="stop-color:#F9D2D4"/>
			<stop  offset="1" style="stop-color:#F091A0"/>
		</linearGradient>
		<polygon id="XMLID_44_" class="st18" points="0.9,29.2 5.7,23.5 11,28 6.2,33.6 		"/>
		<use xlink:href="#XMLID_43_"  style="overflow:visible;fill:none;stroke:#E8456C;stroke-width:0.25;stroke-miterlimit:10;"/>
	</g>
	<g id="XMLID_3_" class="st0">
		<defs>
			<path id="XMLID_40_" class="st0" d="M9.9,31c-0.2-0.1-0.5,0.1-0.9-0.2c-0.3-0.2-0.4-0.4-0.6-0.6c-0.7-0.6-3,0.4-4.1,1.8
				c-0.2,0.3-0.5,0.6-0.5,1.1c0,0.3,0,0.4,0.2,1.4c0.1,0.7,0.1,0.7,0.1,0.8c0.4,0.7,2.1,0.8,3.3,0.2C9.8,34.6,10.4,31.4,9.9,31z"/>
		</defs>
		<clipPath id="XMLID_134_">
			<use xlink:href="#XMLID_40_"  style="overflow:visible;"/>
		</clipPath>
		
			<linearGradient id="XMLID_135_" gradientUnits="userSpaceOnUse" x1="34.1492" y1="40.4216" x2="42.0515" y2="40.4216" gradientTransform="matrix(-0.6428 0.766 -0.766 -0.6428 62.3096 29.8697)">
			<stop  offset="0" style="stop-color:#F9D2D4"/>
			<stop  offset="1" style="stop-color:#F091A0"/>
		</linearGradient>
		<polygon id="XMLID_41_" class="st19" points="2.1,34.2 7.2,28.2 11.6,31.9 6.6,38 		"/>
		<use xlink:href="#XMLID_40_"  style="overflow:visible;fill:none;stroke:#E8456C;stroke-width:0.25;stroke-miterlimit:10;"/>
	</g>
</g>
<g id="XMLID_6_">
	<defs>
		<path id="XMLID_1306_" d="M10.9,21.3c-0.3,0-0.4,0-0.5,0c-0.1,0-0.2,0-0.3,0c-0.6,0.2-1,1.2-1.1,1.9c-0.1,1.5,1.2,2.7,1.7,3.1
			c0.3,0.3,2.1,1.9,4.2,1.4c0.3-0.1,1.4-0.3,2.1-1.4c0.1-0.1,0.8-1.3,0.3-2.5c-0.4-0.9-1.2-1.2-2.7-1.9c-0.7-0.3-1.1-0.5-1.5-0.3
			c-0.2,0-0.4,0.1-0.6,0c-0.2-0.1-0.2-0.2-0.4-0.3c-0.1,0-0.2-0.1-0.2-0.1C11.7,21.2,11.4,21.3,10.9,21.3"/>
	</defs>
	<clipPath id="XMLID_136_">
		<use xlink:href="#XMLID_1306_"  style="overflow:visible;"/>
	</clipPath>
	<linearGradient id="XMLID_137_" gradientUnits="userSpaceOnUse" x1="8.9688" y1="24.463" x2="17.4728" y2="24.463">
		<stop  offset="0" style="stop-color:#F9D2D4"/>
		<stop  offset="1" style="stop-color:#F091A0"/>
	</linearGradient>
	<rect id="XMLID_7_" x="9" y="20.2" class="st20" width="8.5" height="8.5"/>
	<use xlink:href="#XMLID_1306_"  style="overflow:visible;fill:none;stroke:#E8456C;stroke-width:0.25;stroke-miterlimit:10;"/>
</g>
<g id="XMLID_18_">
	<defs>
		<path id="XMLID_1244_" d="M29.9,12.5c-0.2,0.2-0.9,0.7-1,1.5c-0.1,0.4,0.1,0.6,0.3,1.6c0.4,1.5,0.2,1.5,0.5,2
			c0.2,0.3,0.7,1.5,1.9,1.8c0.9,0.2,1.9-0.3,2.4-1c0.7-0.9,0.6-2.1,0.2-2.9c-0.2-0.3-0.3-0.4-0.4-0.7c-0.1-0.6,0.6-0.9,0.6-1.4
			c0-0.7-1-1.4-1.9-1.6C31.2,11.4,30.2,12.2,29.9,12.5z"/>
	</defs>
	<clipPath id="XMLID_138_">
		<use xlink:href="#XMLID_1244_"  style="overflow:visible;"/>
	</clipPath>
	<linearGradient id="XMLID_139_" gradientUnits="userSpaceOnUse" x1="28.5424" y1="15.3106" x2="35.0334" y2="15.3106">
		<stop  offset="0" style="stop-color:#F9D2D4"/>
		<stop  offset="1" style="stop-color:#F091A0"/>
	</linearGradient>
	<rect id="XMLID_19_" x="28.5" y="10.9" class="st21" width="6.5" height="8.9"/>
	<use xlink:href="#XMLID_1244_"  style="overflow:visible;fill:none;stroke:#E8456C;stroke-width:0.25;stroke-miterlimit:10;"/>
</g>
<g id="XMLID_8_">
	<defs>
		<path id="XMLID_1324_" d="M26.9,7.8c0,2.4-1.8,3.3-4.8,3.3c-2.9,0-5.8-0.9-5.8-3.3c0-2.4,2.4-3.3,5.3-3.3
			C24.5,4.5,26.9,5.4,26.9,7.8z"/>
	</defs>
	<clipPath id="XMLID_140_">
		<use xlink:href="#XMLID_1324_"  style="overflow:visible;"/>
	</clipPath>
	<linearGradient id="XMLID_141_" gradientUnits="userSpaceOnUse" x1="15.8754" y1="7.4049" x2="27.2905" y2="7.4049">
		<stop  offset="0" style="stop-color:#F9D2D4"/>
		<stop  offset="1" style="stop-color:#F091A0"/>
	</linearGradient>
	<rect id="XMLID_9_" x="15.9" y="3.2" class="st22" width="11.4" height="8.5"/>
	<use xlink:href="#XMLID_1324_"  style="overflow:visible;fill:none;stroke:#E8456C;stroke-width:0.25;stroke-miterlimit:10;"/>
</g>
<g id="XMLID_10_">
	<defs>
		<path id="XMLID_1314_" d="M11.7,17c0.2,0.1,0.1,0.4,0.2,0.7c0.1,0.7,0.9,1.1,1.4,1.3c1.4,0.4,2.6-1.2,2.8-1.4
			c0.6-0.8,1-1.9,0.7-2.3c-0.2-0.2-0.5-0.2-0.5-0.3c-0.1-0.2,0.5-0.4,0.6-0.8c0.2-0.6-0.6-1.4-1.4-1.7c-0.4-0.1-0.4,0-1.5-0.1
			c-0.7-0.1-0.8-0.2-1.2-0.1c-0.2,0-0.8,0.1-1.1,0.6c-0.3,0.4-0.1,0.7-0.3,1c-0.3,0.3-0.9,0.1-1.1,0.4c-0.2,0.2-0.1,0.4,0,0.9
			c0,0.2,0.3,1.7,1,1.9C11.3,17.1,11.5,16.9,11.7,17z"/>
	</defs>
	<clipPath id="XMLID_142_">
		<use xlink:href="#XMLID_1314_"  style="overflow:visible;"/>
	</clipPath>
	<linearGradient id="XMLID_143_" gradientUnits="userSpaceOnUse" x1="9.1723" y1="15.4982" x2="17.6762" y2="15.4982">
		<stop  offset="0" style="stop-color:#F9D2D4"/>
		<stop  offset="1" style="stop-color:#F091A0"/>
	</linearGradient>
	<rect id="XMLID_11_" x="9.2" y="11.2" class="st23" width="8.5" height="8.5"/>
	<use xlink:href="#XMLID_1314_"  style="overflow:visible;fill:none;stroke:#E8456C;stroke-width:0.25;stroke-miterlimit:10;"/>
</g>
<g id="XMLID_4_">
	<defs>
		<path id="XMLID_1294_" d="M8.4,26.1c1-0.3,1.6-0.6,2.4-0.4c0.8,0.2,1.4,1,2.4,2.6c0.8,1.2,0.8,1.6,0.8,1.8c0,1.1-0.9,1.9-1.1,2.1
			c-1.1,0.9-2.9,1.2-4,0.5c-0.8-0.5-0.6-1.1-2-2.4c-0.4-0.3-0.7-0.5-0.8-1c-0.4-0.9,0-1.8,0.1-1.9C6.5,26.8,7.4,26.5,8.4,26.1z"/>
	</defs>
	<clipPath id="XMLID_144_">
		<use xlink:href="#XMLID_1294_"  style="overflow:visible;"/>
	</clipPath>
	<linearGradient id="XMLID_145_" gradientUnits="userSpaceOnUse" x1="5.6721" y1="29.4803" x2="14.1761" y2="29.4803">
		<stop  offset="0" style="stop-color:#F9D2D4"/>
		<stop  offset="1" style="stop-color:#F091A0"/>
	</linearGradient>
	<rect id="XMLID_5_" x="5.7" y="25.2" class="st24" width="8.5" height="8.5"/>
	<use xlink:href="#XMLID_1294_"  style="overflow:visible;fill:none;stroke:#E8456C;stroke-width:0.25;stroke-miterlimit:10;"/>
</g>
<g id="XMLID_2_">
	<defs>
		<path id="XMLID_1284_" d="M2.1,28.9L2.1,28.9C2.1,28.9,2.1,28.9,2.1,28.9C3.3,28.8,3.8,29,3.8,29c1.4,0.4,2.1,1.5,2.1,1.5
			c0.2,0.3,0.8,1.3,0.5,2.6c-0.1,0.3-0.4,1.4-1.4,1.9c-1.2,0.5-2.5,0-3.2-0.8c-0.4-0.4-0.5-0.9-0.6-1.8C0.8,31.1,1,30.2,1,29.9
			c0.1-0.4,0.2-0.7,0.2-0.9"/>
	</defs>
	<clipPath id="XMLID_146_">
		<use xlink:href="#XMLID_1284_"  style="overflow:visible;"/>
	</clipPath>
	<linearGradient id="XMLID_147_" gradientUnits="userSpaceOnUse" x1="0.1502" y1="32.0202" x2="7.2369" y2="32.0202">
		<stop  offset="0" style="stop-color:#F9D2D4"/>
		<stop  offset="1" style="stop-color:#F091A0"/>
	</linearGradient>
	<rect id="XMLID_1_" x="0.2" y="28.5" class="st25" width="7.1" height="7.1"/>
	<use xlink:href="#XMLID_1284_"  style="overflow:visible;fill:none;stroke:#E8456C;stroke-width:0.25;stroke-miterlimit:10;"/>
</g>
<g id="XMLID_12_">
	<defs>
		<path id="XMLID_1274_" d="M14.7,22.8c-0.4-0.1-0.9-0.3-1.2-0.7c-0.5-0.7-0.2-1.7-0.1-1.7c0.2-0.4,0.5-0.7,0.7-0.8
			c0.2-0.1,0.8-0.6,1.6-0.7c0.7,0,0.7,0.3,2.1,0.7c0.6,0.2,1,0.2,1.2,0.5c0.1,0.3,0.1,0.6,0,0.9c0,0.2-0.1,0.5-0.3,0.7
			c-0.1,0.1-0.2,0.4-1,0.7c-0.6,0.3-1.3,0.6-2.1,0.6C15.1,22.9,14.8,22.8,14.7,22.8z"/>
	</defs>
	<clipPath id="XMLID_148_">
		<use xlink:href="#XMLID_1274_"  style="overflow:visible;"/>
	</clipPath>
	<linearGradient id="XMLID_149_" gradientUnits="userSpaceOnUse" x1="12.6317" y1="20.8513" x2="19.5532" y2="20.8513">
		<stop  offset="0" style="stop-color:#F9D2D4"/>
		<stop  offset="1" style="stop-color:#F091A0"/>
	</linearGradient>
	<rect id="XMLID_13_" x="12.6" y="18.2" class="st26" width="6.9" height="5.3"/>
	<use xlink:href="#XMLID_1274_"  style="overflow:visible;fill:none;stroke:#E8456C;stroke-width:0.25;stroke-miterlimit:10;"/>
</g>
<g id="XMLID_14_">
	<defs>
		<path id="XMLID_1264_" d="M22.1,22c-0.2,0-0.4-0.1-0.7-0.3c-0.4-0.3-0.6-0.5-0.8-0.8c-1-1.2-0.9-1-1-1.2c-0.6-1-0.4-2.1-0.3-2.6
			c0.1-0.4,0.2-1.3,0.9-2.1c0.3-0.4,0.4-0.3,1-0.9c0.3-0.3,0.4-0.5,0.7-0.6c0.2-0.1,0.4,0,0.9,0c0.6,0.1,0.9,0.1,1.1,0.3
			c0.2,0.1,0.2,0.2,0.3,0.3c0.3,0.2,0.5,0.1,0.7,0.1c0.5,0.1,0.9,0.8,1,1.1c0.1,0.1,0.2,0.5,0.2,1.6c0,1.2-0.1,1.9-0.2,2.1
			c-0.3,1.2-0.6,1.4-0.8,1.5c0,0-0.1,0-0.4,0.1c-1.1,0.1-1.2,0-1.4,0.1C22.5,21.1,22.6,21.9,22.1,22z"/>
	</defs>
	<clipPath id="XMLID_150_">
		<use xlink:href="#XMLID_1264_"  style="overflow:visible;"/>
	</clipPath>
	<linearGradient id="XMLID_151_" gradientUnits="userSpaceOnUse" x1="18.29" y1="17.5133" x2="26.7939" y2="17.5133">
		<stop  offset="0" style="stop-color:#F9D2D4"/>
		<stop  offset="1" style="stop-color:#F091A0"/>
	</linearGradient>
	<rect id="XMLID_15_" x="18.3" y="12.7" class="st27" width="8.5" height="9.6"/>
	<use xlink:href="#XMLID_1264_"  style="overflow:visible;fill:none;stroke:#E8456C;stroke-width:0.25;stroke-miterlimit:10;"/>
</g>
<g id="XMLID_16_">
	<defs>
		<path id="XMLID_1254_" d="M25,21.3c0.1,0.8,0.2,1.2,0.5,1.5c0.8,0.8,2.2,0.6,2.3,0.6c1.9-0.3,2.6-2.4,2.7-2.6
			c0.2-0.4,0.7-2-0.2-3.2c-0.6-0.8-1.5-1-1.8-1c-0.8-0.1-1.5,0.2-1.9,0.3c-0.4,0.2-1.3,0.6-1.8,1.5C24.6,19.2,24.8,19.9,25,21.3z"/>
	</defs>
	<clipPath id="XMLID_152_">
		<use xlink:href="#XMLID_1254_"  style="overflow:visible;"/>
	</clipPath>
	<linearGradient id="XMLID_153_" gradientUnits="userSpaceOnUse" x1="24.3248" y1="19.9861" x2="31.247" y2="19.9861">
		<stop  offset="0" style="stop-color:#F9D2D4"/>
		<stop  offset="1" style="stop-color:#F091A0"/>
	</linearGradient>
	<rect id="XMLID_17_" x="24.3" y="16.3" class="st28" width="6.9" height="7.3"/>
	<use xlink:href="#XMLID_1254_"  style="overflow:visible;fill:none;stroke:#E8456C;stroke-width:0.25;stroke-miterlimit:10;"/>
</g>
<g id="XMLID_20_">
	<defs>
		<path id="XMLID_1234_" d="M37.2,17.3C36.8,17,36.3,17,35.9,17c-1.5,0-2.2,0-2.5,0.1c-1.1,0.6-1.5,2.3-1.2,3.4
			c0.1,0.4,0.4,0.8,0.6,1.1c0.4,0.6,0.6,0.9,1,1.2c0.9,0.6,2.2,0.2,3.1-0.4c0.6-0.5,0.9-1,0.9-1.1c0.3-0.6,0.3-1.1,0.2-1.9
			c0-0.9-0.2-1.3-0.3-1.4C37.6,17.8,37.5,17.5,37.2,17.3z"/>
	</defs>
	<clipPath id="XMLID_154_">
		<use xlink:href="#XMLID_1234_"  style="overflow:visible;"/>
	</clipPath>
	<linearGradient id="XMLID_155_" gradientUnits="userSpaceOnUse" x1="31.7127" y1="20.0236" x2="38.0023" y2="20.0236">
		<stop  offset="0" style="stop-color:#F9D2D4"/>
		<stop  offset="1" style="stop-color:#F091A0"/>
	</linearGradient>
	<rect id="XMLID_21_" x="31.7" y="16.7" class="st29" width="6.3" height="6.7"/>
	<use xlink:href="#XMLID_1234_"  style="overflow:visible;fill:none;stroke:#E8456C;stroke-width:0.25;stroke-miterlimit:10;"/>
</g>
<g id="XMLID_38_">
	<defs>
		<path id="XMLID_1224_" d="M36.6,23.8c0.4-0.6,0.2-0.9,0.5-1.4c0.6-0.8,2-0.9,3-0.7c1.3,0.3,2.4,1.4,2.7,2.5c0.1,0.3,0.4,1.2,0,2.1
			c-0.3,0.9-1,1.3-1.6,1.6c-0.5,0.3-2.4,1.5-4.3,0.7c-0.2-0.1-1.7-0.7-2-2.1c0-0.1-0.2-0.9,0.2-1.5C35.6,24.4,36.1,24.5,36.6,23.8z"
			/>
	</defs>
	<clipPath id="XMLID_156_">
		<use xlink:href="#XMLID_1224_"  style="overflow:visible;"/>
	</clipPath>
	<linearGradient id="XMLID_157_" gradientUnits="userSpaceOnUse" x1="34.7" y1="25.2123" x2="43.2039" y2="25.2123">
		<stop  offset="0" style="stop-color:#F9D2D4"/>
		<stop  offset="1" style="stop-color:#F091A0"/>
	</linearGradient>
	<rect id="XMLID_39_" x="34.7" y="21.3" class="st30" width="8.5" height="7.9"/>
	<use xlink:href="#XMLID_1224_"  style="overflow:visible;fill:none;stroke:#E8456C;stroke-width:0.25;stroke-miterlimit:10;"/>
</g>
<g id="XMLID_36_">
	<defs>
		<path id="XMLID_1214_" d="M33.2,23.4c-0.5-0.3-0.5-0.8-0.8-1c-0.5-0.3-1.4,0.1-2,0.7c-0.8,0.9-0.5,2.3-0.2,3.1
			c0.6,1.2,1.9,2.2,2.7,1.9c0.5-0.2,0.4-0.8,1.1-1.3c0.8-0.5,1.3-0.2,1.6-0.6c0.4-0.6-0.6-2.3-1.7-2.5
			C33.7,23.5,33.5,23.6,33.2,23.4z"/>
	</defs>
	<clipPath id="XMLID_158_">
		<use xlink:href="#XMLID_1214_"  style="overflow:visible;"/>
	</clipPath>
	<linearGradient id="XMLID_159_" gradientUnits="userSpaceOnUse" x1="29.6005" y1="25.1823" x2="36" y2="25.1823">
		<stop  offset="0" style="stop-color:#F9D2D4"/>
		<stop  offset="1" style="stop-color:#F091A0"/>
	</linearGradient>
	<rect id="XMLID_37_" x="29.6" y="22" class="st31" width="6.4" height="6.3"/>
	<use xlink:href="#XMLID_1214_"  style="overflow:visible;fill:none;stroke:#E8456C;stroke-width:0.25;stroke-miterlimit:10;"/>
</g>
<g id="XMLID_34_">
	<defs>
		<path id="XMLID_1204_" d="M28.1,24.5c0.9-0.5,2-0.4,2.7,0c0.2,0.1,0.1,0.1,1.3,1.1c0.7,0.5,0.7,0.5,0.8,0.7
			c0.3,0.3,1.2,1.2,0.9,1.8c-0.2,0.5-0.8,0.6-1.8,0.7c-0.9,0.2-2.3,0.4-3.3-0.3c0,0-0.3-0.2-0.8-0.7c-0.8-0.7-1.2-1.1-1.2-1.2
			C26.6,25.9,27.3,24.9,28.1,24.5z"/>
	</defs>
	<clipPath id="XMLID_160_">
		<use xlink:href="#XMLID_1204_"  style="overflow:visible;"/>
	</clipPath>
	<linearGradient id="XMLID_161_" gradientUnits="userSpaceOnUse" x1="26.4132" y1="26.6108" x2="34.125" y2="26.6108">
		<stop  offset="0" style="stop-color:#F9D2D4"/>
		<stop  offset="1" style="stop-color:#F091A0"/>
	</linearGradient>
	<rect id="XMLID_35_" x="26.4" y="23.8" class="st32" width="7.7" height="5.6"/>
	<use xlink:href="#XMLID_1204_"  style="overflow:visible;fill:none;stroke:#E8456C;stroke-width:0.25;stroke-miterlimit:10;"/>
</g>
<g id="XMLID_32_">
	<defs>
		<path id="XMLID_1194_" d="M22.6,27.4c0.7-0.7,1.1-0.9,1.3-0.9c0.5-0.2,0.9-0.1,1.4,0c1.9,0.2,2.1-0.4,3-0.1c1.2,0.4,2,1.9,2,3.1
			c0,0.8-0.4,0.8-0.9,2.5c-0.3,1.1-0.2,1.3-0.5,2.2c-0.2,0.6-0.5,1.4-1.3,2c-1,0.8-2.6,1.2-3.6,0.6c-0.6-0.4-0.5-0.8-1.3-1.3
			c-0.8-0.5-1.1-0.3-1.6-0.7c-0.6-0.5-0.6-1.4-0.6-2.1c0-1.4,0.5-2.5,0.9-3.3C21.6,28.7,22,28.1,22.6,27.4z"/>
	</defs>
	<clipPath id="XMLID_162_">
		<use xlink:href="#XMLID_1194_"  style="overflow:visible;"/>
	</clipPath>
	<linearGradient id="XMLID_163_" gradientUnits="userSpaceOnUse" x1="19.9727" y1="31.5781" x2="30.5625" y2="31.5781">
		<stop  offset="0" style="stop-color:#F9D2D4"/>
		<stop  offset="1" style="stop-color:#F091A0"/>
	</linearGradient>
	<rect id="XMLID_33_" x="20" y="25.9" class="st33" width="10.6" height="11.3"/>
	<use xlink:href="#XMLID_1194_"  style="overflow:visible;fill:none;stroke:#E8456C;stroke-width:0.25;stroke-miterlimit:10;"/>
</g>
<g id="XMLID_30_">
	<defs>
		<path id="XMLID_1184_" d="M31,29.8c-1.6,0.6-2.1,2.2-2.2,2.4c-0.5,1.5,0.1,2.7,0.4,3.4c0.2,0.5,0.3,0.8,0.7,1.1
			c0.3,0.3,0.6,0.4,1.1,0.9c0.3,0.3,0.3,0.4,0.4,0.6c0.7,0.6,2.6-0.2,3.9-1.3c0.5-0.5,2-1.8,1.8-3.5c-0.1-0.8-0.6-1.3-1.3-2.1
			c-0.7-0.7-1.4-1.5-2.6-1.8C32.1,29.3,31.2,29.7,31,29.8z"/>
	</defs>
	<clipPath id="XMLID_164_">
		<use xlink:href="#XMLID_1184_"  style="overflow:visible;"/>
	</clipPath>
	<linearGradient id="XMLID_165_" gradientUnits="userSpaceOnUse" x1="28.3061" y1="33.9531" x2="37.2917" y2="33.9531">
		<stop  offset="0" style="stop-color:#F9D2D4"/>
		<stop  offset="1" style="stop-color:#F091A0"/>
	</linearGradient>
	<rect id="XMLID_31_" x="28.3" y="29.2" class="st34" width="9" height="9.4"/>
	<use xlink:href="#XMLID_1184_"  style="overflow:visible;fill:none;stroke:#E8456C;stroke-width:0.25;stroke-miterlimit:10;"/>
</g>
<g id="XMLID_22_">
	<defs>
		<path id="XMLID_1174_" d="M31.7,28.1c-0.6,0.5-0.7,1.7-0.2,2.3c0.1,0.1,0.4,0.4,1.7,0.6c1.9,0.3,2.2,0,2.9,0.4
			c1,0.5,0.7,1.1,1.7,1.6c0.8,0.4,2.1,0.7,3,0c0.1-0.1,0.8-0.6,0.9-1.6c0.1-0.8-0.3-1.3-0.6-1.7c-1-1.4-2.7-1.8-3-1.9
			c-1.4-0.3-1.5,0.3-3.8,0.3C32.8,27.9,32.2,27.7,31.7,28.1z"/>
	</defs>
	<clipPath id="XMLID_166_">
		<use xlink:href="#XMLID_1174_"  style="overflow:visible;"/>
	</clipPath>
	<linearGradient id="XMLID_167_" gradientUnits="userSpaceOnUse" x1="30.6652" y1="30.5318" x2="42.125" y2="30.5318">
		<stop  offset="0" style="stop-color:#F9D2D4"/>
		<stop  offset="1" style="stop-color:#F091A0"/>
	</linearGradient>
	<rect id="XMLID_23_" x="30.7" y="27.4" class="st35" width="11.5" height="6.3"/>
	<use xlink:href="#XMLID_1174_"  style="overflow:visible;fill:none;stroke:#E8456C;stroke-width:0.25;stroke-miterlimit:10;"/>
</g>
<g id="XMLID_28_">
	<defs>
		<path id="XMLID_1164_" d="M33.6,38.3c0.3-0.2,0.5-0.1,0.7-0.4c0.3-0.4-0.1-0.8,0.1-1c0.3-0.4,1.1-0.2,1.5-0.1c0.5,0.1,1.3,0.3,2,1
			c0.2,0.2,1.1,1.2,0.8,2.1c-0.2,0.8-1.2,0.8-1.5,1.9c-0.2,0.6,0,0.8-0.2,1.1c-0.5,0.7-1.9,0.7-2.8,0.4c-0.3-0.1-0.9-0.3-1.3-0.8
			c-1-1.2-0.2-3-0.1-3.2C32.9,39,33.1,38.6,33.6,38.3z"/>
	</defs>
	<clipPath id="XMLID_168_">
		<use xlink:href="#XMLID_1164_"  style="overflow:visible;"/>
	</clipPath>
	<linearGradient id="XMLID_169_" gradientUnits="userSpaceOnUse" x1="32.0977" y1="40.1406" x2="38.952" y2="40.1406">
		<stop  offset="0" style="stop-color:#F9D2D4"/>
		<stop  offset="1" style="stop-color:#F091A0"/>
	</linearGradient>
	<rect id="XMLID_29_" x="32.1" y="36.4" class="st36" width="6.9" height="7.5"/>
	<use xlink:href="#XMLID_1164_"  style="overflow:visible;fill:none;stroke:#E8456C;stroke-width:0.25;stroke-miterlimit:10;"/>
</g>
<g id="XMLID_26_">
	<defs>
		<path id="XMLID_1154_" d="M40.5,40.4c-0.3,0-1.3,0-2.1,0.7c-0.7,0.6-0.9,1.4-0.9,1.6c-0.2,1.1,0.2,2.3,1,3.1
			c1,0.9,2.4,1.3,3.7,0.8c1.2-0.5,2.2-1.6,2.2-2.9C44.5,41.8,42.2,40.4,40.5,40.4z"/>
	</defs>
	<clipPath id="XMLID_170_">
		<use xlink:href="#XMLID_1154_"  style="overflow:visible;"/>
	</clipPath>
	<linearGradient id="XMLID_171_" gradientUnits="userSpaceOnUse" x1="37.2262" y1="43.5937" x2="44.6323" y2="43.5937">
		<stop  offset="0" style="stop-color:#F9D2D4"/>
		<stop  offset="1" style="stop-color:#F091A0"/>
	</linearGradient>
	<rect id="XMLID_27_" x="37.2" y="40.1" class="st37" width="7.4" height="6.9"/>
	<use xlink:href="#XMLID_1154_"  style="overflow:visible;fill:none;stroke:#E8456C;stroke-width:0.25;stroke-miterlimit:10;"/>
</g>
<g id="XMLID_24_">
	<defs>
		<path id="XMLID_1144_" d="M40.2,39c0,0.2,0.4,0.3,0.5,0.8c0.1,0.4-0.1,0.5-0.1,0.8c0,1,2.2,2.1,4,2c0.4,0,0.8-0.1,1.2-0.3
			c0.2-0.2,0.3-0.3,0.9-1c0.5-0.6,0.5-0.5,0.5-0.6c0.3-0.7-0.7-2.1-2-2.7C43.1,36.8,40.2,38.4,40.2,39z"/>
	</defs>
	<clipPath id="XMLID_172_">
		<use xlink:href="#XMLID_1144_"  style="overflow:visible;"/>
	</clipPath>
	<linearGradient id="XMLID_173_" gradientUnits="userSpaceOnUse" x1="39.8351" y1="40.0145" x2="47.7373" y2="40.0145">
		<stop  offset="0" style="stop-color:#F9D2D4"/>
		<stop  offset="1" style="stop-color:#F091A0"/>
	</linearGradient>
	<rect id="XMLID_25_" x="39.8" y="37.1" class="st38" width="7.9" height="5.8"/>
	<use xlink:href="#XMLID_1144_"  style="overflow:visible;fill:none;stroke:#E8456C;stroke-width:0.25;stroke-miterlimit:10;"/>
</g>
</svg>
