<?xml version="1.0" encoding="utf-8"?>
<!-- Generator: Adobe Illustrator 19.0.0, SVG Export Plug-In . SVG Version: 6.00 Build 0)  -->
<svg version="1.1" id="图层_1" xmlns="http://www.w3.org/2000/svg" xmlns:xlink="http://www.w3.org/1999/xlink" x="0px" y="0px"
	 viewBox="0 0 68 68" style="enable-background:new 0 0 68 68;" xml:space="preserve">
<style type="text/css">
	.st0{fill:#FCEAEE;}
	.st1{opacity:0.1;fill:#E8456C;}
	.st2{clip-path:url(#XMLID_7_);fill:url(#XMLID_8_);}
</style>
<path id="XMLID_1_" class="st0" d="M62.4,66.6H5.9c-2.4,0-4.3-1.9-4.3-4.3V5.7c0-2.4,1.9-4.3,4.3-4.3h56.6c2.4,0,4.3,1.9,4.3,4.3
	v56.6C66.7,64.7,64.8,66.6,62.4,66.6z"/>
<circle id="XMLID_5_" class="st1" cx="34" cy="34" r="21.3"/>
<g id="XMLID_3_">
	<defs>
		<path id="XMLID_2_" d="M30.8,27.2c0.8-0.5,1.8-0.7,2.7-0.7c1.6,0,3.3,0.7,4.3,1.7c0.9,0.9,1.2,2,1.1,3.2c-0.1,1.1-0.3,2.1-0.5,3.2
			c-0.3,1.9,0.4,3.4,1.6,4.8c0.8,0.8,1.7,1.4,2.7,2c0.6,0.4,1.3,0.8,1.7,1.4c1.2,1.5,1,3.4-0.4,4.6c-0.8,0.7-1.8,1-2.8,1
			c-0.4,0-0.9-0.1-1.3-0.2c-2.9-0.9-5.6-2.1-8-4c-2.5-2-4-4.7-4.8-7.8c-0.4-1.5-0.5-3-0.1-4.5C27.6,29.7,29,28.3,30.8,27.2
			 M35.8,20.5c-1,1.2-1,3.1-0.1,4.4c0.8,1.2,2.4,1.2,3.2,0c0.5-0.6,0.7-1.4,0.7-2.2c0-0.8-0.2-1.5-0.6-2.1c-0.4-0.6-1-1-1.6-1
			C36.8,19.7,36.2,20,35.8,20.5 M30.2,21.8c-0.4,1.1,0,2.5,0.9,3.3c1,0.8,2.2,0.4,2.6-0.7c0.1-0.3,0.2-0.6,0.1-1
			c0-0.8-0.4-1.6-1.1-2.2c-0.3-0.3-0.7-0.4-1.1-0.4C31,20.6,30.4,21,30.2,21.8 M26.3,24.6c-0.3,0.8,0.1,1.9,0.8,2.5
			c0.5,0.4,1,0.5,1.5,0.2c0.6-0.3,0.7-0.8,0.7-1.3c0-1-0.6-2-1.4-2.3c-0.2-0.1-0.4-0.1-0.5-0.1C26.9,23.7,26.5,24.1,26.3,24.6
			 M24,28.4c0,0.8,0.6,1.6,1.4,1.8c0.8,0.1,1.3-0.3,1.3-1.1c0-0.8-0.7-1.6-1.6-1.7c0,0-0.1,0-0.1,0C24.4,27.3,24,27.8,24,28.4
			 M23.7,31.2c-0.6,0.1-0.9,0.7-0.8,1.3c0.2,0.7,1,1.2,1.7,1.1c0.5-0.1,0.9-0.4,0.9-1c0-0.8-0.8-1.4-1.5-1.4
			C23.8,31.2,23.7,31.2,23.7,31.2"/>
	</defs>
	<clipPath id="XMLID_7_">
		<use xlink:href="#XMLID_2_"  style="overflow:visible;"/>
	</clipPath>
	<linearGradient id="XMLID_8_" gradientUnits="userSpaceOnUse" x1="-0.3962" y1="34.0161" x2="67.6353" y2="34.0161">
		<stop  offset="0" style="stop-color:#F9D2D4"/>
		<stop  offset="1" style="stop-color:#F091A0"/>
	</linearGradient>
	<rect id="XMLID_4_" x="-0.4" y="0" class="st2" width="68" height="68"/>
</g>
</svg>
