<?xml version="1.0" encoding="utf-8"?>
<!-- Generator: Adobe Illustrator 19.0.0, SVG Export Plug-In . SVG Version: 6.00 Build 0)  -->
<svg version="1.1" id="图层_1" xmlns="http://www.w3.org/2000/svg" xmlns:xlink="http://www.w3.org/1999/xlink" x="0px" y="0px"
	 viewBox="0 0 85 85" style="enable-background:new 0 0 85 85;" xml:space="preserve">
<style type="text/css">
	.st0{clip-path:url(#XMLID_2_);}
	.st1{clip-path:url(#XMLID_3_);fill:#F9D2D4;}
	.st2{clip-path:url(#XMLID_3_);fill:none;stroke:#E8456C;stroke-width:0.25;stroke-miterlimit:10;}
	.st3{fill:none;stroke:#E8456C;stroke-miterlimit:10;}
</style>
<g id="XMLID_1967_">
	<defs>
		<path id="XMLID_1968_" d="M0,42.5C0,66,19,85,42.5,85C66,85,85,66,85,42.5C85,19,66,0,42.5,0C19,0,0,19,0,42.5"/>
	</defs>
	<clipPath id="XMLID_2_">
		<use xlink:href="#XMLID_1968_"  style="overflow:visible;"/>
	</clipPath>
	<g id="XMLID_1969_" class="st0">
		<defs>
			<rect id="XMLID_1970_" x="-103.9" y="-261.5" width="589.1" height="825.5"/>
		</defs>
		<clipPath id="XMLID_3_">
			<use xlink:href="#XMLID_1970_"  style="overflow:visible;"/>
		</clipPath>
		<path id="XMLID_1981_" class="st1" d="M70,86.4H5.5V75.2H70c2.2,0,4-1.8,4-4c0-2.2-1.8-4-4-4H15c-8.3,0-15.1-6.8-15.1-15.2
			c0-8.4,6.8-15.2,15.2-15.2h55c2.2,0,4-1.8,4-4c0-2.2-1.8-4-4-4H15C6.6,29-0.2,22.2-0.2,13.8C-0.2,5.5,6.7-1.3,15-1.3h55V9.9H15
			c-2.1,0-4,1.8-4,4c0,2.1,1.8,4,4,4h55c8.4,0,15.2,6.8,15.2,15.2c0,8.4-6.8,15.1-15.1,15.2H15c-2.2,0-4,1.8-4,4c0,2.1,1.8,4,4,4h55
			c8.4,0,15.2,6.8,15.2,15.2C85.2,79.6,78.4,86.4,70,86.4"/>
		<path id="XMLID_1980_" class="st2" d="M70,86.4H5.5V75.2H70c2.2,0,4-1.8,4-4c0-2.2-1.8-4-4-4H15c-8.3,0-15.1-6.8-15.1-15.2
			c0-8.4,6.8-15.2,15.2-15.2h55c2.2,0,4-1.8,4-4c0-2.2-1.8-4-4-4H15C6.6,29-0.2,22.2-0.2,13.8C-0.2,5.5,6.7-1.3,15-1.3h55V9.9H15
			c-2.1,0-4,1.8-4,4c0,2.1,1.8,4,4,4h55c8.4,0,15.2,6.8,15.2,15.2c0,8.4-6.8,15.1-15.1,15.2H15c-2.2,0-4,1.8-4,4c0,2.1,1.8,4,4,4h55
			c8.4,0,15.2,6.8,15.2,15.2S78.4,86.4,70,86.4z"/>
		<circle id="XMLID_1979_" class="st2" cx="51.2" cy="24.6" r="2.4"/>
		<circle id="XMLID_1978_" class="st2" cx="27.1" cy="62.6" r="2.4"/>
		<circle id="XMLID_1977_" class="st2" cx="51.2" cy="3" r="2.4"/>
		<circle id="XMLID_1976_" class="st2" cx="21" cy="23.4" r="1.2"/>
		<circle id="XMLID_1975_" class="st2" cx="26.9" cy="43.4" r="1.2"/>
		<circle id="XMLID_1974_" class="st2" cx="68.8" cy="42.2" r="1.2"/>
		<circle id="XMLID_1973_" class="st2" cx="30.1" cy="40.3" r="1.2"/>
		<circle id="XMLID_1972_" class="st2" cx="76.6" cy="67.5" r="1.2"/>
		<circle id="XMLID_1971_" class="st2" cx="46.6" cy="5.7" r="1.2"/>
	</g>
</g>
<circle id="XMLID_1966_" class="st3" cx="42.5" cy="42.5" r="42.5"/>
</svg>
