<?xml version="1.0" encoding="utf-8"?>
<!-- Generator: Adobe Illustrator 19.0.0, SVG Export Plug-In . SVG Version: 6.00 Build 0)  -->
<svg version="1.1" id="图层_1" xmlns="http://www.w3.org/2000/svg" xmlns:xlink="http://www.w3.org/1999/xlink" x="0px" y="0px"
	 viewBox="0 0 51 51" style="enable-background:new 0 0 51 51;" xml:space="preserve">
<style type="text/css">
	.st0{fill:#FCEAEE;}
	.st1{clip-path:url(#XMLID_4_);fill:url(#XMLID_5_);}
</style>
<path id="XMLID_114_" class="st0" d="M45.4,51H5.7C2.6,51,0,48.5,0,45.4V5.7C0,2.6,2.6,0,5.7,0h39.7C48.5,0,51,2.6,51,5.7v39.7
	C51,48.5,48.5,51,45.4,51z"/>
<g id="XMLID_1_">
	<defs>
		<path id="XMLID_931_" d="M17.6,9.3c-0.2,0.1-0.3,0.2-0.5,0.1c-0.4-0.2-0.8-0.1-1.2,0.1c-0.2,0.1-0.3,0.1-0.5,0
			c-0.6-0.3-1.2-0.2-1.7,0.2c-0.2,0.2-0.3,0.3-0.5,0.4c-0.5,0.3-0.7,0.8-0.6,1.4c0.1,0.6,0.5,1,1.1,1.1c0.2,0,0.4,0.1,0.5,0.2
			c0.5,0.3,1,0.4,1.5,0.1c0.2-0.1,0.3-0.1,0.5,0c0.5,0.3,1,0.3,1.5,0c0.2-0.1,0.3-0.1,0.4,0.1c0.4,0.4,0.9,0.5,1.4,0.4
			c0.3-0.1,0.4,0,0.5,0.3c0.3,0.7,1,1.1,1.7,0.8c0.5-0.2,0.9-0.4,1.4-0.4c0.1,0,0.1,0,0.2-0.1c0.2-0.1,0.3-0.1,0.5,0.1
			c0.4,0.5,1,0.6,1.6,0.4c0.2-0.1,0.3-0.1,0.5,0.1c0.3,0.4,0.7,0.7,1.2,0.6c0.4-0.1,0.7,0,1,0.2c0.8,0.4,1.7-0.1,1.9-0.9
			c0-0.1,0-0.2,0.1-0.3c0.1,0,0.2,0.1,0.2,0.2c0.3,0.3,0.6,0.5,1.1,0.5c0.1,0,0.3-0.1,0.4-0.1c0.2-0.1,0.3-0.1,0.4-0.1
			c0.3,0,0.3,0.5,0.6,0.6c0.1,0,0.1,0.1,0.2,0.1c0.1,0,0.1,0.1,0.1,0.2c-0.1,0.1-0.1,0.1-0.2,0.1c-0.1-0.1-0.1-0.1-0.2-0.2
			c-0.6-0.5-1.4-0.5-2,0.1c-0.4,0.4-1,0.3-1.4,0.7c0,0-0.1-0.1-0.2-0.1c-0.5-0.4-1-0.4-1.6-0.1c-0.4,0.2-0.7,0.2-1-0.2
			c-0.4-0.5-1-0.6-1.5-0.3c-0.6,0.3-1.1,0.6-1.7,0.7c-0.3,0.1-0.4,0.1-0.6-0.1c-0.7-0.6-1.7-0.4-2.2,0.4c-0.1,0.1-0.1,0.2-0.2,0.3
			c-0.7-0.8-1-0.9-2-0.6c-0.2,0.1-0.2-0.1-0.3-0.2c-0.4-0.6-0.9-0.8-1.5-0.7c-0.6,0.1-1,0.6-1.1,1.2c0,0.2-0.1,0.3-0.3,0.2
			c-1-0.3-1.8,0.4-1.8,1.4c0,0.2,0,0.4-0.1,0.5c-0.2,0.5-0.1,0.9,0.2,1.3c0.1,0.2,0.1,0.4,0.1,0.6c0,0.9,0.3,1.7,0.6,2.5
			c0,0.1,0.1,0.1,0.2,0.2c0.1,0.1,0.2,0.3,0.2,0.5c0,0.7,0.5,1.2,1.2,1.3c0.2,0,0.3,0.1,0.4,0.3c0.4,0.7,1,0.9,1.7,0.7
			c0.2,0,0.3-0.1,0.4,0c0.6,0.2,1.1,0.1,1.5-0.4c0.1-0.2,0.2-0.2,0.4,0c0.4,0.5,0.9,0.6,1.5,0.4c0.2-0.1,0.4-0.1,0.7,0
			c0.5,0.2,0.9,0.1,1.3-0.2c0.2-0.2,0.3-0.1,0.4,0.1c0.3,0.5,0.7,0.8,1.3,0.8c0.6,0,1-0.3,1.3-0.9c0-0.1,0-0.2,0.2-0.3
			c0.6,0.5,0.7,0.5,1.5,0.4c0.3,0,0.3,0.1,0.3,0.3c0.3,1.1,1.2,1.4,2.2,0.9c0.2-0.1,0.3-0.1,0.5,0c0.9,0.5,1.7,0.2,2.1-0.7
			c0-0.1,0-0.3,0.2-0.2c0.1,0.1,0.3,0.1,0.2,0.4c-0.2,0.4-0.3,0.8-0.1,1.3c-1-0.4-1.5-0.3-2.1,0.5c-0.1,0.1-0.2,0.2-0.3,0.1
			c-0.5-0.2-1-0.2-1.4,0.1c-0.2,0.1-0.3,0.1-0.4,0c-0.5-0.2-1.1-0.6-1.6-0.6c-0.7,0.1-1.3,0.2-2,0c0,0-0.1,0-0.1,0
			c-0.2,0-0.3,0-0.4-0.2c-0.3-0.6-0.8-0.9-1.4-0.8c-0.6,0.1-1,0.4-1.2,1c0,0.1,0,0.2-0.2,0.2c-0.3-0.1-0.7-0.1-0.9-0.4
			c-0.3-0.4-0.8-0.6-1.4-0.5c-0.6,0.1-0.9,0.5-1,1c-0.1,0.3-0.2,0.3-0.4,0.2c-0.6-0.3-1.4-0.2-1.8,0.3c-0.4,0.5-0.4,1.2,0,1.8
			c0.1,0.2,0.1,0.3,0,0.5c-0.5,1,0.1,1.9,1.1,2c0.2,0,0.3,0.1,0.4,0.3c0.2,0.6,0.6,1,1.3,1.1c0.2,0,0.4,0.1,0.5,0.3
			c0.2,0.4,0.6,0.6,1,0.6c0.4,0,0.8,0.6,0.6,1c-0.2,0.5-0.2,1,0.2,1.5c0.1,0.1,0.1,0.3,0,0.4c-0.2,0.3-0.2,0.7-0.1,1.1
			c0.1,0.2,0,0.3,0,0.4c-0.2,0.6,0,1.2,0.5,1.6c0.5,0.4,1.1,0.4,1.7,0c0.5-0.3,0.7-0.9,0.5-1.5c0-0.1-0.1-0.3,0-0.4
			c0.1-0.3,0.1-0.7,0-1c-0.1-0.4,0.5-0.5,0.6-0.9c0-0.1,0-0.1,0-0.2c0-0.4,0.2-0.7,0.6-0.8c0.2-0.1,0.4-0.3,0.5-0.5
			c0.1-0.3,0.2-0.3,0.5-0.1c0.4,0.3,0.9,0.4,1.4,0.1c0.5-0.3,0.8-0.7,0.7-1.3c0-0.3,0-0.5,0.1-0.8c0.2-0.4,0.1-0.9-0.1-1.3
			c-0.1-0.1-0.3-0.2-0.1-0.4c0.1-0.1,0.3-0.1,0.4,0c0.5,0.2,0.9,0.2,1.4-0.1c0.2-0.1,0.3-0.1,0.4,0c0.5,0.3,1.1,0.3,1.6-0.1
			c0.2-0.1,0.3-0.1,0.5,0c0.4,0.3,0.8,0.3,1.2,0.2c0.2-0.1,0.3-0.1,0.5,0c1,0.3,1.8-0.3,1.9-1.3c0-0.2,0.1-0.3,0.3-0.4
			c0.8-0.3,1-1.1,0.7-1.8c-0.1-0.2-0.1-0.3,0-0.5c0.2-0.4,0.2-0.8,0-1.2c-0.1-0.2-0.1-0.3,0-0.5c0.2-0.4,0.2-0.9,0-1.3
			c-0.1-0.2-0.1-0.3,0-0.5c0.3-0.6,0.2-1.1-0.2-1.6c-0.4-0.4-1-0.6-1.6-0.3c-0.2,0.1-0.3,0.1-0.5-0.1c-0.5-0.4-1.1-0.5-1.6-0.1
			c-0.2,0.1-0.3,0.1-0.5,0c-0.5-0.3-2.3-0.3-2.8,0c-0.3,0.1-0.3,0.1-0.3-0.2c0-0.8-0.4-1.3-1.1-1.4C28.6,21,28,21.3,27.7,22
			c-0.1,0.2-0.2,0.3-0.4,0.1c-0.4-0.2-0.9-0.3-1.3,0c-0.3,0.2-0.6,0.2-1,0.2c-0.6,0-1.2-0.1-1.7-0.3c-0.2-0.1-0.3-0.1-0.4-0.2
			c-0.7-0.8-1.8-0.7-2.3,0.2c-0.2,0.3-0.3,0.3-0.6,0.1c-0.4-0.2-0.8-0.2-1.2-0.1c-0.4,0.2-0.9,0-1.2-0.4c-0.1-0.1-0.1-0.2,0-0.3
			c0.2-0.2,0.4-0.4,0.5-0.7c0.1-0.3,0.3-0.5,0.6-0.5c0.3-0.1,0.5-0.4,0.8-0.2c0.4,0.1,0.8,0.1,1.1-0.2c0.4-0.4,0.7-0.2,1.1,0
			c0.8,0.5,1.6,0.3,2.1-0.5c0.2-0.3,0.3-0.3,0.5,0c0.4,0.6,1,0.8,1.6,0.6c0.2-0.1,0.4-0.1,0.5,0c0.5,0.3,1,0.2,1.5-0.1
			c0.2-0.1,0.3-0.1,0.5,0c0.9,0.3,1.8,0.2,2.7,0.1c0.1,0,0.1-0.1,0.2-0.1c0.2-0.1,0.3-0.1,0.5-0.1c0.5,0.1,1,0,1.3-0.4
			c0.2-0.2,0.3-0.2,0.6-0.1c0.7,0.4,1.5,0.2,1.9-0.5c0.1-0.2,0.2-0.3,0.5-0.3c0.5,0,0.9-0.3,1.1-0.7c0.2-0.4,0-0.9,0.2-1.2
			c0.2-0.3,0.5-0.6,0.5-1.1c0-0.2,0.1-0.4,0.2-0.5c0.6-0.8,0.3-1.9-0.7-2.2c-0.3-0.1-0.4-0.2-0.4-0.5c0-0.5-0.3-0.9-0.7-1.1
			c-0.2-0.1-0.4-0.3-0.5-0.4c-0.6-0.6-1.6-0.7-2.1,0c-0.3,0.6-0.7,0.7-1.3,0.6c-0.3,0-0.4,0-0.6-0.3c-0.5-0.9-1.6-1-2.3-0.3
			c-0.1,0.1-0.2,0.3-0.3,0.5c-0.3-0.7-0.8-1.1-1.5-0.9c-0.7,0.2-1.4,0.4-2.1,0.6c-0.3,0.1-0.4,0.1-0.5-0.2c-0.2-0.4-0.6-0.8-1.1-0.7
			c-0.7,0.1-1.4,0.1-2.2,0c-0.2,0-0.4,0-0.5-0.1C21,9.2,20.5,9.2,20,9.6c-0.2,0.2-0.3,0.1-0.4-0.1C19.2,9.2,18.9,9,18.5,9
			C18.2,9,17.9,9.1,17.6,9.3"/>
	</defs>
	<clipPath id="XMLID_4_">
		<use xlink:href="#XMLID_931_"  style="overflow:visible;"/>
	</clipPath>
	
		<radialGradient id="XMLID_5_" cx="28.3612" cy="-11.5057" r="18.9167" gradientTransform="matrix(0.6703 0 0 0.8711 6.1302 35.5345)" gradientUnits="userSpaceOnUse">
		<stop  offset="0" style="stop-color:#FCE5E8"/>
		<stop  offset="1" style="stop-color:#F091A7"/>
	</radialGradient>
	<rect id="XMLID_3_" x="12.5" y="9" class="st1" width="25.4" height="33"/>
</g>
</svg>
