<?xml version="1.0" encoding="utf-8"?>
<!-- Generator: Adobe Illustrator 19.0.0, SVG Export Plug-In . SVG Version: 6.00 Build 0)  -->
<svg version="1.1" id="图层_1" xmlns="http://www.w3.org/2000/svg" xmlns:xlink="http://www.w3.org/1999/xlink" x="0px" y="0px"
	 viewBox="0 0 51 51" style="enable-background:new 0 0 51 51;" xml:space="preserve">
<style type="text/css">
	.st0{fill:#FCEAEE;}
	.st1{clip-path:url(#XMLID_6_);fill:url(#XMLID_7_);}
	.st2{clip-path:url(#XMLID_8_);fill:url(#XMLID_10_);}
</style>
<path id="XMLID_114_" class="st0" d="M45.4,51H5.7C2.6,51,0,48.5,0,45.4V5.7C0,2.6,2.6,0,5.7,0h39.7C48.5,0,51,2.6,51,5.7v39.7
	C51,48.5,48.5,51,45.4,51z"/>
<g id="XMLID_2_">
	<defs>
		<path id="XMLID_1642_" d="M11.1,20.8c0-2.8,0-5.6,0-8.4c0-0.8,0-0.8,0.8-0.8c2.9,0.1,5.7-0.1,8.4-1.1c1.9-0.7,3.7-1.6,5-3.2
			c0.2-0.3,0.4-0.2,0.6,0c2.3,2.6,5.3,3.5,8.6,4c1.6,0.3,3.3,0.3,4.9,0.2c0.5,0,0.6,0.2,0.6,0.6c0,5.5,0,11.1,0,16.6
			c0,3.7-1.6,6.8-4.3,9.3c-2.8,2.6-6.2,4.3-9.8,5.7c-0.2,0.1-0.5,0.1-0.7,0c-3.5-1.4-6.9-3-9.8-5.7c-2.7-2.6-4.3-5.7-4.3-9.4
			C11.1,26.2,11.1,23.5,11.1,20.8"/>
	</defs>
	<clipPath id="XMLID_6_">
		<use xlink:href="#XMLID_1642_"  style="overflow:visible;"/>
	</clipPath>
	<radialGradient id="XMLID_7_" cx="25.5118" cy="25.5118" r="17.5204" gradientUnits="userSpaceOnUse">
		<stop  offset="0" style="stop-color:#FEF7F9"/>
		<stop  offset="1" style="stop-color:#F091A7"/>
	</radialGradient>
	<rect id="XMLID_1_" x="9.4" y="6.7" class="st1" width="32.3" height="37.6"/>
</g>
<g id="XMLID_4_">
	<defs>
		<path id="XMLID_1630_" d="M23.3,14.6c-1.1,0.2-1.9,1.1-1.9,2.2c0,1.1,0.7,2.1,1.8,2.3c0.2,0.1,0.3,0.2,0.4,0.4
			c0.2,1.3,0.5,2.6,0.7,3.8c0,0.2,0,0.3-0.2,0.4c-0.5,0.3-0.8,0.8-1,1.3c-0.1,0.2-0.2,0.3-0.4,0.3c-0.5,0-1,0-1.5,0
			c-0.2,0-0.4-0.1-0.4-0.3c-0.4-1.1-1.4-1.8-2.5-1.8c-1.6,0.1-2.8,1.5-2.5,3.1c0.2,1.3,1.5,2.3,2.8,2.1c1.1-0.1,1.8-0.7,2.2-1.8
			c0.1-0.2,0.2-0.3,0.4-0.3c0.2,0,0.5,0,0.7,0c0.3,0,0.6,0,0.8,0c0.1,0,0.2,0.1,0.2,0.2c0.1,0.5,0.3,0.9,0.6,1.3
			c0.1,0.2,0.1,0.3,0,0.4c-0.4,0.4-0.8,0.8-1.2,1.2c-0.2,0.2-0.3,0.2-0.5,0.1c-1.3-0.4-2.6-0.2-3.6,0.7c-1.7,1.5-1.9,3.8-0.4,5.5
			c1.8,2.1,5.2,1.6,6.4-0.9c0.7-1.5,0.4-3.1-0.8-4.3c-0.1-0.1-0.2-0.2,0-0.4c0.4-0.4,0.8-0.8,1.3-1.3c0.1-0.1,0.2-0.1,0.3-0.1
			c1.2,0.4,2.3,0,3.1-1c0.2-0.2,0.3-0.2,0.5-0.1c1,0.4,2.1,0.7,3.1,1.1c0.4,0.1,0.7,0.3,0.6,0.8c0,0.1,0,0.1,0,0.2
			c0.2,1.2,1.3,2.2,2.6,2.3c1.3,0.1,2.5-0.7,2.9-1.9c0.4-1.3-0.3-2.7-1.2-3.3c-1.4-0.9-3.1-0.5-4,0.9c-0.1,0.1-0.2,0.2-0.4,0.2
			c-1.1-0.4-2.3-0.8-3.4-1.2c-0.1,0-0.2-0.1-0.2-0.3c0-0.4,0-0.8-0.1-1.1c-0.1-0.2,0-0.3,0.1-0.4c0.3-0.3,0.7-0.7,1-1
			c0.1-0.1,0.2-0.2,0.4,0c0.6,0.4,1.3,0.5,2,0.3c1.2-0.3,1.9-1.6,1.6-2.8c-0.3-1.3-1.6-2-2.9-1.6c-1.2,0.3-2,1.6-1.6,2.8
			c0,0.2,0,0.3-0.1,0.4c-0.3,0.3-0.7,0.7-1,1c-0.2,0.2-0.3,0.2-0.4,0c-0.5-0.5-1.1-0.7-1.8-0.7c-0.3,0-0.4-0.1-0.4-0.4
			c-0.2-1.1-0.4-2.3-0.6-3.4c-0.1-0.3,0-0.5,0.3-0.7c1-0.6,1.3-1.8,0.9-2.8c-0.4-0.9-1.2-1.5-2.2-1.5C23.6,14.6,23.4,14.6,23.3,14.6
			"/>
	</defs>
	<clipPath id="XMLID_8_">
		<use xlink:href="#XMLID_1630_"  style="overflow:visible;"/>
	</clipPath>
	<radialGradient id="XMLID_10_" cx="25.5118" cy="25.5118" r="17.5204" gradientUnits="userSpaceOnUse">
		<stop  offset="0" style="stop-color:#F6BEC8"/>
		<stop  offset="1" style="stop-color:#EA617C"/>
	</radialGradient>
	<rect id="XMLID_3_" x="9.4" y="6.7" class="st2" width="32.3" height="37.6"/>
</g>
</svg>
