<?xml version="1.0" encoding="utf-8"?>
<!-- Generator: Adobe Illustrator 19.0.0, SVG Export Plug-In . SVG Version: 6.00 Build 0)  -->
<svg version="1.1" id="图层_1" xmlns="http://www.w3.org/2000/svg" xmlns:xlink="http://www.w3.org/1999/xlink" x="0px" y="0px"
	 viewBox="0 0 51 51" style="enable-background:new 0 0 51 51;" xml:space="preserve">
<style type="text/css">
	.st0{opacity:0.1;fill:#E8456C;}
	.st1{clip-path:url(#XMLID_5_);fill:url(#XMLID_6_);}
	.st2{fill:#F7C1C3;}
</style>
<circle id="XMLID_1_" class="st0" cx="25.5" cy="25.5" r="24.1"/>
<g id="XMLID_4_">
	<defs>
		<path id="XMLID_3_" d="M12.6,29.4c3.8,0,7.5,0,11.3,0c3.4,0,6.8,0,10.1,0c0.5,0,0.5,0,0.5,0.5c0,0.9,0,1.8,0,2.7
			c0,0.4,0,0.4-0.4,0.4c-3.6,0-7.2,0-10.8,0H12.8c-0.7,0-0.6,0-0.6-0.6c0-0.9,0-1.7,0-2.6C12.2,29.5,12.2,29.4,12.6,29.4 M26.6,14.7
			c-2.5,0.5-3.3,3.7-2.1,5.5c0.6,0.8,1.3,1.4,2.3,1.6c0.3,0.1,0.5,0.2,0.4,0.5c-0.1,0.3,0,0.5,0,0.8c0.2,1.4,1.3,2.4,2.7,2.4
			c0.5,0,1,0,1.4,0c0.2,0,0.4,0,0.6,0c0.5,0,1.1,0,1.6,0c0.9,0.1,1.4,0.5,1.5,1.4c0.1,0.3,0,0.7,0,1c0,0.9-0.1,0.9,0.5,0.9
			c0.1,0,0.3,0,0.4,0c0.2,0,0.3-0.1,0.3-0.3c0-0.5,0-1,0-1.5c-0.1-1.5-0.9-2.5-2.4-2.7c-0.4-0.1-0.7-0.1-1.1-0.1c-1,0-2.1,0-3.1,0
			c-0.4,0-0.8-0.2-1-0.6c-0.4-0.6-0.4-1.3-0.1-2c0.3-0.6,0-1-0.7-1c0,0-0.1,0-0.1,0c-0.1,0-0.1,0-0.2,0c-1.5-0.1-2.5-1.1-2.5-2.6
			c0-1,0.6-1.9,1.5-2.1c0.2-0.1,0.5-0.1,0.7-0.1c0.4-0.1,0.6-0.3,0.6-0.6c0-0.3-0.3-0.6-0.7-0.6c0,0,0,0,0,0
			C27.1,14.6,26.8,14.6,26.6,14.7 M28.1,16.4c0,0.3,0.3,0.6,0.6,0.6c0.2,0,0.4,0,0.6,0.1c1.5,0.2,2.3,1.5,2.1,2.9
			c-0.1,0.6-0.3,1.1-0.6,1.6c-0.2,0.3-0.2,0.5,0,0.8c0.2,0.2,0.4,0.3,0.7,0.3c0.6,0,1.2,0,1.7,0c1.9,0,3.4,1.4,3.7,3.2
			c0.1,0.5,0,1,0.1,1.4c0,0.3,0,0.5,0,0.7c0,0.9-0.1,0.9,0.5,0.9c0.1,0,0.2,0,0.4,0c0.3,0,0.3-0.1,0.3-0.3c0-0.7,0-1.5,0-2.2
			c-0.1-1.9-1-3.4-2.7-4.3c-0.9-0.5-1.8-0.6-2.7-0.6c-0.4,0-0.4,0-0.3-0.4c0.3-0.9,0.3-1.9,0-2.8c-0.6-1.7-2.2-2.5-3.8-2.5
			c0,0,0,0,0,0C28.4,15.8,28.1,16,28.1,16.4 M35.2,29.7c0,0.8,0,1.7,0,2.5c0,1-0.2,0.8,0.9,0.9c0.3,0,0.4-0.1,0.4-0.4
			c0-0.5,0-1,0-1.5c0-0.3,0-0.7,0-1c0-0.9,0.1-0.9-0.6-0.9c-0.1,0-0.2,0-0.3,0c0,0,0,0,0,0C35.2,29.4,35.2,29.5,35.2,29.7 M37,29.8
			c0,0.8,0,1.6,0,2.4c0,0.9-0.1,0.9,0.6,0.9c0.1,0,0.2,0,0.3,0c0.2,0,0.3-0.1,0.3-0.3c0-0.5,0-1,0-1.5c0-0.3,0-0.7,0-1
			c0-1,0.2-0.8-0.9-0.9c0,0,0,0,0,0C37.1,29.4,37,29.5,37,29.8"/>
	</defs>
	<clipPath id="XMLID_5_">
		<use xlink:href="#XMLID_3_"  style="overflow:visible;"/>
	</clipPath>
	<linearGradient id="XMLID_6_" gradientUnits="userSpaceOnUse" x1="2.999" y1="23.9902" x2="45.9006" y2="23.9902">
		<stop  offset="0" style="stop-color:#F9D2D4"/>
		<stop  offset="1" style="stop-color:#F091A0"/>
	</linearGradient>
	<rect id="XMLID_7_" x="3" y="2.5" class="st1" width="42.9" height="42.9"/>
</g>
<rect id="XMLID_245_" x="1.6" y="24.1" transform="matrix(-0.7071 -0.7071 0.7071 -0.7071 25.5124 61.591)" class="st2" width="47.9" height="2.9"/>
</svg>
