<?xml version="1.0" encoding="utf-8"?>
<!-- Generator: Adobe Illustrator 19.0.0, SVG Export Plug-In . SVG Version: 6.00 Build 0)  -->
<svg version="1.1" id="图层_1" xmlns="http://www.w3.org/2000/svg" xmlns:xlink="http://www.w3.org/1999/xlink" x="0px" y="0px"
	 viewBox="0 0 34 34" style="enable-background:new 0 0 34 34;" xml:space="preserve">
<style type="text/css">
	.st0{fill-rule:evenodd;clip-rule:evenodd;fill:#57B370;}
	.st1{fill:#EB6585;}
	.st2{fill:none;stroke:#EB6585;}
	.st3{fill-rule:evenodd;clip-rule:evenodd;fill:#FCE5E8;}
	.st4{fill:none;stroke:#EB6585;stroke-width:0.87;}
	.st5{fill-rule:evenodd;clip-rule:evenodd;fill:#FFFFFF;}
	.st6{fill-rule:evenodd;clip-rule:evenodd;fill:#EB6585;}
	.st7{fill-rule:evenodd;clip-rule:evenodd;fill:#FAFAFB;}
	.st8{filter:url(#Adobe_OpacityMaskFilter);}
	.st9{clip-path:url(#XMLID_3_);}
	.st10{enable-background:new    ;}
	.st11{clip-path:url(#XMLID_4_);}
	.st12{clip-path:url(#XMLID_4_);fill-rule:evenodd;clip-rule:evenodd;fill:#FFFFFF;}
	.st13{mask:url(#XMLID_2_);enable-background:new    ;}
	.st14{clip-path:url(#XMLID_5_);}
	.st15{opacity:0.8;clip-path:url(#XMLID_6_);enable-background:new    ;}
	.st16{clip-path:url(#XMLID_7_);}
	.st17{clip-path:url(#XMLID_8_);fill-rule:evenodd;clip-rule:evenodd;fill:#EB6585;}
	.st18{opacity:0.5;enable-background:new    ;}
	.st19{clip-path:url(#XMLID_9_);}
	.st20{clip-path:url(#XMLID_10_);fill-rule:evenodd;clip-rule:evenodd;fill:#EB6585;}
	.st21{clip-path:url(#XMLID_11_);}
	.st22{clip-path:url(#XMLID_12_);fill-rule:evenodd;clip-rule:evenodd;fill:#EB6585;}
	.st23{clip-path:url(#XMLID_13_);}
	.st24{clip-path:url(#XMLID_14_);fill-rule:evenodd;clip-rule:evenodd;fill:#EB6585;}
</style>
<path id="XMLID_609_" class="st0" d="M17,0.9L17,0.9c1.1,0,1.9,0.9,1.9,1.9c0,1.1-0.9,1.9-1.9,1.9c-1.1,0-1.9-0.9-1.9-1.9
	C15,1.8,15.9,0.9,17,0.9"/>
<path id="XMLID_608_" class="st1" d="M17,0.9L17,0.9c1.1,0,1.9,0.9,1.9,1.9c0,1.1-0.9,1.9-1.9,1.9c-1.1,0-1.9-0.9-1.9-1.9
	C15,1.8,15.9,0.9,17,0.9"/>
<path id="XMLID_607_" class="st2" d="M17,0.9L17,0.9c1.1,0,1.9,0.9,1.9,1.9c0,1.1-0.9,1.9-1.9,1.9c-1.1,0-1.9-0.9-1.9-1.9
	C15,1.8,15.9,0.9,17,0.9z"/>
<path id="XMLID_606_" class="st0" d="M31.3,11.1L31.3,11.1c1.1,0,1.9,0.9,1.9,1.9c0,1.1-0.9,1.9-1.9,1.9c-1.1,0-1.9-0.9-1.9-1.9
	C29.4,12,30.3,11.1,31.3,11.1"/>
<path id="XMLID_605_" class="st1" d="M31.3,11.1L31.3,11.1c1.1,0,1.9,0.9,1.9,1.9c0,1.1-0.9,1.9-1.9,1.9c-1.1,0-1.9-0.9-1.9-1.9
	C29.4,12,30.3,11.1,31.3,11.1"/>
<path id="XMLID_604_" class="st2" d="M31.3,11.1L31.3,11.1c1.1,0,1.9,0.9,1.9,1.9c0,1.1-0.9,1.9-1.9,1.9c-1.1,0-1.9-0.9-1.9-1.9
	C29.4,12,30.3,11.1,31.3,11.1z"/>
<path id="XMLID_603_" class="st0" d="M26.2,28.1L26.2,28.1c1.1,0,1.9,0.9,1.9,1.9c0,1.1-0.9,1.9-1.9,1.9c-1.1,0-1.9-0.9-1.9-1.9
	C24.2,29,25.1,28.1,26.2,28.1"/>
<path id="XMLID_602_" class="st1" d="M26.2,28.1L26.2,28.1c1.1,0,1.9,0.9,1.9,1.9c0,1.1-0.9,1.9-1.9,1.9c-1.1,0-1.9-0.9-1.9-1.9
	C24.2,29,25.1,28.1,26.2,28.1"/>
<path id="XMLID_601_" class="st2" d="M26.2,28.1L26.2,28.1c1.1,0,1.9,0.9,1.9,1.9c0,1.1-0.9,1.9-1.9,1.9c-1.1,0-1.9-0.9-1.9-1.9
	C24.2,29,25.1,28.1,26.2,28.1z"/>
<path id="XMLID_600_" class="st1" d="M6.9,27.3L6.9,27.3c1.1,0,1.9,0.9,1.9,1.9c0,1.1-0.9,1.9-1.9,1.9c-1.1,0-1.9-0.9-1.9-1.9
	C5,28.2,5.9,27.3,6.9,27.3"/>
<path id="XMLID_599_" class="st2" d="M6.9,27.3L6.9,27.3c1.1,0,1.9,0.9,1.9,1.9c0,1.1-0.9,1.9-1.9,1.9c-1.1,0-1.9-0.9-1.9-1.9
	C5,28.2,5.9,27.3,6.9,27.3z"/>
<path id="XMLID_598_" class="st0" d="M2.7,11.2L2.7,11.2c1.1,0,1.9,0.9,1.9,1.9c0,1.1-0.9,1.9-1.9,1.9c-1.1,0-1.9-0.9-1.9-1.9
	C0.7,12.1,1.6,11.2,2.7,11.2"/>
<path id="XMLID_597_" class="st1" d="M2.7,11.2L2.7,11.2c1.1,0,1.9,0.9,1.9,1.9c0,1.1-0.9,1.9-1.9,1.9c-1.1,0-1.9-0.9-1.9-1.9
	C0.7,12.1,1.6,11.2,2.7,11.2"/>
<path id="XMLID_596_" class="st2" d="M2.7,11.2L2.7,11.2c1.1,0,1.9,0.9,1.9,1.9c0,1.1-0.9,1.9-1.9,1.9c-1.1,0-1.9-0.9-1.9-1.9
	C0.7,12.1,1.6,11.2,2.7,11.2z"/>
<path id="XMLID_595_" class="st3" d="M17,2.6c8.4,0,15.2,6.8,15.2,15.2c0,8.4-6.8,15.2-15.2,15.2c-8.4,0-15.2-6.8-15.2-15.2
	C1.8,9.5,8.6,2.6,17,2.6"/>
<circle id="XMLID_594_" class="st4" cx="17" cy="17.9" r="15.2"/>
<path id="XMLID_593_" class="st5" d="M17.2,6.3c2.7,0,4.9,2.8,4.9,6.2c0,3.4-2.2,6.2-4.9,6.2s-5-2.8-5-6.2C12.2,9,14.5,6.3,17.2,6.3
	"/>
<ellipse id="XMLID_592_" class="st4" cx="17.2" cy="12.5" rx="4.9" ry="6.2"/>
<path id="XMLID_591_" class="st6" d="M17.2,10.6c1,0,1.9,0.9,1.9,1.9c0,1-0.9,1.9-1.9,1.9c-1,0-1.9-0.8-1.9-1.9
	C15.3,11.4,16.1,10.6,17.2,10.6"/>
<path id="XMLID_590_" class="st7" d="M17.2,9.8c1,0,1.9,0.8,1.9,1.9c0,1-0.8,1.9-1.9,1.9c-1,0-1.9-0.8-1.9-1.9
	C15.3,10.7,16.1,9.8,17.2,9.8"/>
<path id="XMLID_589_" class="st4" d="M17.2,10.6c1,0,1.9,0.9,1.9,1.9c0,1-0.9,1.9-1.9,1.9c-1,0-1.9-0.8-1.9-1.9
	C15.3,11.4,16.1,10.6,17.2,10.6z"/>
<path id="XMLID_588_" class="st4" d="M9.8,20.8c0.7-0.4,1.4-0.5,2.2-0.2c0.3,0.1,0.6,0.2,1,0.4c0,0,0.8,0.3,1,0.4
	c1.3,0.5,2.4,0.8,3.7,0.8c1.4,0,2.5-0.3,3.8-0.9c0.2-0.1,0.9-0.5,1.1-0.6c0.4-0.2,0.8-0.4,1.1-0.5c0.5-0.1,1-0.1,1.6,0
	c1.8,0.4,1.8,3.2,0.5,5.6c-1.5,2.7-4.3,4.5-8.1,4.5c-3.8,0-6.5-1.6-8-4C8.4,24.2,8.4,21.6,9.8,20.8z"/>
<defs>
	<filter id="Adobe_OpacityMaskFilter" filterUnits="userSpaceOnUse" x="8.4" y="24.3" width="18.8" height="7.5">
		<feColorMatrix  type="matrix" values="1 0 0 0 0  0 1 0 0 0  0 0 1 0 0  0 0 0 1 0"/>
	</filter>
</defs>
<mask maskUnits="userSpaceOnUse" x="8.4" y="24.3" width="18.8" height="7.5" id="XMLID_2_">
	<g id="XMLID_34_" class="st8">
		<g id="XMLID_44_">
			<defs>
				<rect id="XMLID_45_" x="6.9" y="24.3" width="20.1" height="9"/>
			</defs>
			<clipPath id="XMLID_3_">
				<use xlink:href="#XMLID_45_"  style="overflow:visible;"/>
			</clipPath>
			<rect id="XMLID_51_" x="6.9" y="24.3" class="st9" width="22.5" height="9"/>
			<g id="XMLID_46_" class="st10">
				<g id="XMLID_47_">
					<defs>
						<rect id="XMLID_48_" x="8.6" y="25.2" width="18.3" height="6.1"/>
					</defs>
					<clipPath id="XMLID_4_" class="st9">
						<use xlink:href="#XMLID_48_"  style="overflow:visible;"/>
					</clipPath>
					<rect id="XMLID_50_" x="8.6" y="24.4" class="st11" width="20.8" height="7.3"/>
					<path id="XMLID_49_" class="st12" d="M10.2,21.5c1.6-1,3.3,1.5,7.4,1.5c4.1,0,5.4-2.5,7.4-2c2,0.5,0.4,8.5-7.4,8.5
						C9.7,29.5,8.6,22.5,10.2,21.5"/>
				</g>
			</g>
		</g>
	</g>
</mask>
<g id="XMLID_577_" class="st13">
	<g id="XMLID_578_">
		<defs>
			<rect id="XMLID_579_" x="8.4" y="24.3" width="18.8" height="7.5"/>
		</defs>
		<clipPath id="XMLID_5_">
			<use xlink:href="#XMLID_579_"  style="overflow:visible;"/>
		</clipPath>
		<g id="XMLID_580_" class="st14">
			<defs>
				<rect id="XMLID_581_" x="8.6" y="25.2" width="18.3" height="6.1"/>
			</defs>
			<clipPath id="XMLID_6_">
				<use xlink:href="#XMLID_581_"  style="overflow:visible;"/>
			</clipPath>
			<g id="XMLID_582_" class="st15">
				<g id="XMLID_583_">
					<defs>
						<rect id="XMLID_584_" x="8.4" y="24.3" width="18.8" height="7.5"/>
					</defs>
					<clipPath id="XMLID_7_">
						<use xlink:href="#XMLID_584_"  style="overflow:visible;"/>
					</clipPath>
					<g id="XMLID_585_" class="st16">
						<defs>
							<rect id="XMLID_586_" x="8.6" y="25.2" width="18.3" height="6.1"/>
						</defs>
						<clipPath id="XMLID_8_">
							<use xlink:href="#XMLID_586_"  style="overflow:visible;"/>
						</clipPath>
						<path id="XMLID_587_" class="st17" d="M10.3,27.7c5-3.2,9.8-3.3,14.5-0.2c4.7,3,1.9,4.3-8.3,3.8l-7.8-2.6L10.3,27.7z"/>
					</g>
				</g>
			</g>
		</g>
	</g>
</g>
<g id="XMLID_558_" class="st18">
	<g id="XMLID_559_">
		<defs>
			<rect id="XMLID_560_" x="7.4" y="6.4" width="4.7" height="4.7"/>
		</defs>
		<clipPath id="XMLID_9_">
			<use xlink:href="#XMLID_560_"  style="overflow:visible;"/>
		</clipPath>
		<g id="XMLID_561_" class="st19">
			<defs>
				<rect id="XMLID_562_" x="8.3" y="6.9" width="3.8" height="3.8"/>
			</defs>
			<clipPath id="XMLID_10_">
				<use xlink:href="#XMLID_562_"  style="overflow:visible;"/>
			</clipPath>
			<path id="XMLID_563_" class="st20" d="M10.2,6.9c1,0,1.9,0.8,1.9,1.9c0,1-0.8,1.9-1.9,1.9c-1,0-1.9-0.8-1.9-1.9
				C8.3,7.8,9.2,6.9,10.2,6.9"/>
		</g>
	</g>
</g>
<g id="XMLID_548_" class="st18">
	<g id="XMLID_549_">
		<defs>
			<rect id="XMLID_550_" x="24.4" y="11.1" width="4.7" height="4.7"/>
		</defs>
		<clipPath id="XMLID_11_">
			<use xlink:href="#XMLID_550_"  style="overflow:visible;"/>
		</clipPath>
		<g id="XMLID_551_" class="st21">
			<defs>
				<rect id="XMLID_552_" x="24.5" y="11.1" width="3.8" height="3.8"/>
			</defs>
			<clipPath id="XMLID_12_">
				<use xlink:href="#XMLID_552_"  style="overflow:visible;"/>
			</clipPath>
			<path id="XMLID_553_" class="st22" d="M26.4,11.1c1,0,1.9,0.9,1.9,1.9c0,1-0.8,1.9-1.9,1.9c-1,0-1.9-0.8-1.9-1.9
				C24.5,12,25.4,11.1,26.4,11.1"/>
		</g>
	</g>
</g>
<g id="XMLID_542_" class="st18">
	<g id="XMLID_543_">
		<defs>
			<rect id="XMLID_544_" x="0.8" y="17.7" width="6.6" height="6.6"/>
		</defs>
		<clipPath id="XMLID_13_">
			<use xlink:href="#XMLID_544_"  style="overflow:visible;"/>
		</clipPath>
		<g id="XMLID_545_" class="st23">
			<defs>
				<rect id="XMLID_546_" x="1.7" y="18" width="5.5" height="5.5"/>
			</defs>
			<clipPath id="XMLID_14_">
				<use xlink:href="#XMLID_546_"  style="overflow:visible;"/>
			</clipPath>
			<path id="XMLID_547_" class="st24" d="M4.4,18c1.5,0,2.8,1.2,2.8,2.8c0,1.5-1.2,2.8-2.8,2.8s-2.8-1.2-2.8-2.8
				C1.7,19.3,2.9,18,4.4,18"/>
		</g>
	</g>
</g>
<path id="XMLID_541_" class="st7" d="M17.2,9.8c1,0,1.9,0.8,1.9,1.9c0,1-0.8,1.9-1.9,1.9c-1,0-1.9-0.8-1.9-1.9
	C15.3,10.7,16.1,9.8,17.2,9.8"/>
</svg>
