<?xml version="1.0" encoding="utf-8"?>
<!-- Generator: Adobe Illustrator 19.0.0, SVG Export Plug-In . SVG Version: 6.00 Build 0)  -->
<svg version="1.1" id="图层_1" xmlns="http://www.w3.org/2000/svg" xmlns:xlink="http://www.w3.org/1999/xlink" x="0px" y="0px"
	 viewBox="0 0 48.2 34" style="enable-background:new 0 0 48.2 34;" xml:space="preserve">
<style type="text/css">
	.st0{clip-path:url(#XMLID_51_);fill:url(#XMLID_52_);}
	.st1{fill:url(#XMLID_53_);}
	.st2{fill:url(#XMLID_54_);}
	.st3{fill:url(#XMLID_55_);}
	.st4{opacity:0.8;clip-path:url(#XMLID_56_);fill:url(#XMLID_57_);}
	.st5{fill:url(#XMLID_58_);}
	.st6{fill:url(#XMLID_59_);}
	.st7{fill:url(#XMLID_60_);}
	.st8{fill:url(#XMLID_61_);}
	.st9{fill:url(#XMLID_62_);}
	.st10{fill:url(#XMLID_63_);}
	.st11{opacity:0.8;clip-path:url(#XMLID_64_);fill:url(#XMLID_65_);}
	.st12{clip-path:url(#XMLID_66_);fill:url(#XMLID_67_);}
	.st13{fill:url(#XMLID_68_);}
	.st14{fill:url(#XMLID_69_);}
	.st15{fill:url(#XMLID_70_);}
	.st16{fill:url(#XMLID_71_);}
	.st17{clip-path:url(#XMLID_72_);fill:url(#XMLID_73_);}
	.st18{clip-path:url(#XMLID_74_);fill:url(#XMLID_75_);}
	.st19{clip-path:url(#XMLID_76_);fill:url(#XMLID_77_);}
	.st20{clip-path:url(#XMLID_78_);fill:url(#XMLID_79_);}
	.st21{clip-path:url(#XMLID_80_);fill:url(#XMLID_81_);}
	.st22{clip-path:url(#XMLID_82_);fill:url(#XMLID_83_);}
	.st23{clip-path:url(#XMLID_84_);fill:url(#XMLID_85_);}
	.st24{clip-path:url(#XMLID_86_);fill:url(#XMLID_87_);}
	.st25{clip-path:url(#XMLID_88_);fill:url(#XMLID_89_);}
	.st26{clip-path:url(#XMLID_90_);fill:url(#XMLID_91_);}
	.st27{opacity:0.8;clip-path:url(#XMLID_92_);fill:url(#XMLID_93_);}
	.st28{opacity:0.8;clip-path:url(#XMLID_94_);fill:url(#XMLID_95_);}
	.st29{clip-path:url(#XMLID_96_);fill:url(#XMLID_97_);}
	.st30{clip-path:url(#XMLID_98_);fill:url(#XMLID_99_);}
</style>
<g id="XMLID_34_">
	<defs>
		<path id="XMLID_1101_" d="M26.9,19.7c-0.7,0.3-1,1.1-0.7,1.8c0.3,0.7,1.1,1,1.8,0.7c0.7-0.3,1-1.1,0.7-1.8
			c-0.2-0.5-0.7-0.8-1.2-0.8C27.2,19.6,27,19.7,26.9,19.7"/>
	</defs>
	<clipPath id="XMLID_51_">
		<use xlink:href="#XMLID_1101_"  style="overflow:visible;"/>
	</clipPath>
	
		<linearGradient id="XMLID_52_" gradientUnits="userSpaceOnUse" x1="-36.6626" y1="-29.4513" x2="-32.9775" y2="-29.4513" gradientTransform="matrix(0.9397 -0.342 0.342 0.9397 70.557 36.8246)">
		<stop  offset="0" style="stop-color:#F9D2D4"/>
		<stop  offset="1" style="stop-color:#F091A0"/>
	</linearGradient>
	<polygon id="XMLID_22_" class="st0" points="30.1,22.2 26.7,23.4 25.4,20 28.9,18.7 	"/>
</g>
<radialGradient id="XMLID_53_" cx="48.9963" cy="17.2406" r="3.1442" gradientTransform="matrix(0.4619 -0.2253 6.853066e-002 0.1405 8.9383 26.3143)" gradientUnits="userSpaceOnUse">
	<stop  offset="0.3" style="stop-color:#F9D2D4"/>
	<stop  offset="1" style="stop-color:#F091A0"/>
</radialGradient>
<polygon id="XMLID_46_" class="st1" points="34.4,17.4 31.5,18.8 31.1,18 34,16.5 "/>
<radialGradient id="XMLID_54_" cx="41.1706" cy="29.663" r="3.1442" gradientTransform="matrix(0.128 0.5542 -0.1712 3.951930e-002 30.2248 -1.7987)" gradientUnits="userSpaceOnUse">
	<stop  offset="0.3" style="stop-color:#F9D2D4"/>
	<stop  offset="1" style="stop-color:#F091A0"/>
</radialGradient>
<polygon id="XMLID_44_" class="st2" points="30.3,24.1 29.5,20.6 30.6,20.3 31.4,23.8 "/>
<radialGradient id="XMLID_55_" cx="34.5648" cy="-2.1316" r="3.1442" gradientTransform="matrix(0.6986 0.7759 -0.1914 0.1724 3.3173 -9.2481)" gradientUnits="userSpaceOnUse">
	<stop  offset="0.3" style="stop-color:#F9D2D4"/>
	<stop  offset="1" style="stop-color:#F091A0"/>
</radialGradient>
<polygon id="XMLID_45_" class="st3" points="29.5,20.2 25.1,15.3 26.3,14.2 30.7,19.1 "/>
<g id="XMLID_9_">
	<defs>
		<path id="XMLID_1131_" d="M12.3,5.3c-0.4,0.9-0.7,1.9-0.8,2.9c-0.1,0.7-0.1,1.4-0.3,2.2c-0.1,0.8-0.5,1.5-1.2,2
			c-0.7,0.4-1.6,0.4-2-0.5c-0.2-0.4-0.4-0.7-0.7-1c-0.3-0.3-0.6-0.6-1-0.6c-0.1,0-0.2-0.1-0.2-0.2C6,9.7,5.8,9.5,5.5,9.3
			C4.8,8.9,4.2,8.8,3.5,9.2c-0.4,0.2-0.7,0.5-1,0.8c-0.9,0.7-1.3,1.7-1.5,2.8c0,0.2,0,0.4,0.2,0.5c0.3,0.3,0.7,0.4,1.1,0.4
			c0.2,0,0.3-0.1,0.4-0.3c0.1-0.3,0.3-0.6,0.5-0.9c0.1-0.2,0.3-0.5,0.5-0.8c0.2-0.2,0.3-0.4,0.6-0.4c0.6-0.1,1,0.3,1,0.8
			c-0.1,0.5,0,1,0.1,1.6c0.4,1.5,1.3,2.6,2.7,3.3c1.4,0.8,2.9,1,4.5,0.5c2.2-0.7,4-2,5-4.2c0.5-1,0.6-2,0.6-3.1c-0.2-2-1.9-3-3.1-3
			c-0.4,0-0.8,0.1-1.2,0.3c-0.2,0.1-0.2,0-0.3-0.2c0-0.3,0-0.6,0.1-0.9c0.1-0.2,0.1-0.4,0.1-0.6c0-0.1,0-0.3-0.1-0.4
			C13.3,5.1,13.1,5,12.9,5c0,0-0.1,0-0.1,0C12.6,4.9,12.4,5.1,12.3,5.3"/>
	</defs>
	<clipPath id="XMLID_56_">
		<use xlink:href="#XMLID_1131_"  style="overflow:visible;"/>
	</clipPath>
	
		<linearGradient id="XMLID_57_" gradientUnits="userSpaceOnUse" x1="-6.03" y1="4.5671" x2="6.3701" y2="4.5671" gradientTransform="matrix(1.2343 0.5756 -0.4669 1.0013 12.027 6.1916)">
		<stop  offset="0" style="stop-color:#F9D2D4"/>
		<stop  offset="1" style="stop-color:#F091A0"/>
	</linearGradient>
	<polygon id="XMLID_3_" class="st4" points="14.9,20.6 -0.4,13.5 5.3,1.1 20.7,8.2 	"/>
</g>
<radialGradient id="XMLID_58_" cx="16.8549" cy="-0.5641" r="3.1442" gradientTransform="matrix(0.4111 0.4111 -0.1244 0.1244 7.9513 7.9033)" gradientUnits="userSpaceOnUse">
	<stop  offset="0.3" style="stop-color:#F9D2D4"/>
	<stop  offset="1" style="stop-color:#F091A0"/>
</radialGradient>
<polygon id="XMLID_37_" class="st5" points="15.9,16.4 13.3,13.9 14,13.1 16.6,15.7 "/>
<radialGradient id="XMLID_59_" cx="26.7986" cy="44.8665" r="3.1442" gradientTransform="matrix(4.974053e-002 0.5685 -0.1728 1.512175e-002 24.1958 4.7651)" gradientUnits="userSpaceOnUse">
	<stop  offset="0.3" style="stop-color:#F9D2D4"/>
	<stop  offset="1" style="stop-color:#F091A0"/>
</radialGradient>
<polygon id="XMLID_42_" class="st6" points="17.4,22.5 17.1,18.9 18.2,18.8 18.5,22.4 "/>
<radialGradient id="XMLID_60_" cx="33.096" cy="4.1271" r="3.1442" gradientTransform="matrix(0.9526 -0.4241 0.1026 0.2305 -10.3363 28.5717)" gradientUnits="userSpaceOnUse">
	<stop  offset="0.3" style="stop-color:#F9D2D4"/>
	<stop  offset="1" style="stop-color:#F091A0"/>
</radialGradient>
<polygon id="XMLID_47_" class="st7" points="24.9,14.9 18.9,17.5 18.3,16.1 24.3,13.4 "/>
<radialGradient id="XMLID_61_" cx="28.2005" cy="-44.4899" r="3.1442" gradientTransform="matrix(0.1601 0.7531 -0.2304 4.896437e-002 9.547 -8.031)" gradientUnits="userSpaceOnUse">
	<stop  offset="0.3" style="stop-color:#F9D2D4"/>
	<stop  offset="1" style="stop-color:#F091A0"/>
</radialGradient>
<polygon id="XMLID_48_" class="st8" points="24.1,13.5 23.1,8.8 24.5,8.5 25.5,13.2 "/>
<radialGradient id="XMLID_62_" cx="23.2871" cy="-66.2177" r="3.1442" gradientTransform="matrix(0.2979 0.4958 -0.1526 9.167417e-002 4.6656 4.026253e-002)" gradientUnits="userSpaceOnUse">
	<stop  offset="0.3" style="stop-color:#F9D2D4"/>
	<stop  offset="1" style="stop-color:#F091A0"/>
</radialGradient>
<polygon id="XMLID_49_" class="st9" points="22.2,7.4 20.3,4.2 21.2,3.7 23.1,6.8 "/>
<radialGradient id="XMLID_63_" cx="39.3516" cy="-48.4793" r="3.1442" gradientTransform="matrix(0.4615 -0.2251 6.851075e-002 0.1405 11.8237 22.4125)" gradientUnits="userSpaceOnUse">
	<stop  offset="0.3" style="stop-color:#F9D2D4"/>
	<stop  offset="1" style="stop-color:#F091A0"/>
</radialGradient>
<polygon id="XMLID_50_" class="st10" points="28.3,6.5 25.4,7.9 25,7 27.9,5.6 "/>
<g id="XMLID_7_">
	<defs>
		<path id="XMLID_1136_" d="M34.6,2.3C33.7,2.6,33,3,32.5,3.7c-0.2,0.3-0.4,0.5-0.6,0.8c-0.6,1-1,2.1-1.1,3.2
			c-0.1,1,0.2,1.9,0.8,2.7c0.5,0.7,1.1,0.8,1.9,0.6c0.6-0.2,1.1-0.5,1.5-1c0.3-0.4,0.5-0.8,0.3-1.3c0-0.1,0-0.1,0-0.2
			c0-0.2,0.1-0.3,0.2-0.4c0.1-0.1,0.3,0,0.4,0.1c0.1,0.1,0.2,0.1,0.2,0.2c0.4,0.5,0.5,1,0.3,1.6c-0.2,0.7-0.6,1.3-1,1.9
			c-0.3,0.4-0.6,0.8-1,1.2c-0.1,0.1-0.1,0.2,0,0.2c0.5,0.4,1,0.8,1.5,1.2c0.2,0.1,0.2,0.1,0.3,0c0.5-0.6,1-1.2,1.6-1.7
			c0.4-0.4,0.9-0.8,1.5-1c0.6-0.2,1.1,0,1.5,0.3c0.1,0.1,0.1,0.2,0.1,0.4c-0.1,0.2-0.2,0.3-0.5,0.3c-0.5,0-1,0.2-1.3,0.6
			c-0.4,0.5-0.6,1-0.6,1.6c0,0.6,0.1,1.2,0.7,1.5c0.4,0.2,0.8,0.4,1.3,0.5c0.8,0.1,1.5,0,2.2-0.2c1.3-0.5,2.4-1.3,3.2-2.3
			c0.1-0.2,0.3-0.4,0.4-0.6c0.4-0.6,0.6-1.3,0.6-2.1c0-1.2-0.4-2.2-1.3-3c-0.6-0.5-1.4-0.8-2.2-0.8c-0.8-0.1-1.9,0.5-1.9,1.7
			c0,0.1,0,0.3-0.1,0.4c-0.1,0.3-0.3,0.5-0.6,0.6c-0.2,0-0.3,0-0.5,0c-0.7-0.1-1.3-0.1-2,0c-0.5,0.1-0.8-0.1-0.9-0.6
			c0-0.1,0-0.1,0-0.2c0-0.4,0-0.8-0.1-1.1c-0.1-0.3-0.2-0.6-0.3-0.8c-0.2-0.6,0-1,0.6-1.2c0.1,0,0.2,0,0.2-0.1
			c0.8-0.2,1.3-1,1.2-1.9c-0.2-1-0.7-1.8-1.5-2.4c-0.6-0.4-1.3-0.6-2-0.6C35.5,2,35,2.1,34.6,2.3"/>
	</defs>
	<clipPath id="XMLID_64_">
		<use xlink:href="#XMLID_1136_"  style="overflow:visible;"/>
	</clipPath>
	
		<linearGradient id="XMLID_65_" gradientUnits="userSpaceOnUse" x1="19.9648" y1="-8.4291" x2="32.3649" y2="-8.4291" gradientTransform="matrix(1.3376 0.6238 -0.4516 0.9685 0.2373 1.6818)">
		<stop  offset="0" style="stop-color:#F9D2D4"/>
		<stop  offset="1" style="stop-color:#F091A0"/>
	</linearGradient>
	<polygon id="XMLID_8_" class="st11" points="44.5,19.7 27.9,12 33.5,0 50.1,7.7 	"/>
</g>
<g id="XMLID_36_">
	<defs>
		<path id="XMLID_1111_" d="M14.1,17.9c-0.7,0.3-1.1,1.2-0.8,1.9c0.3,0.7,1.2,1.1,1.9,0.8c0.7-0.3,1.1-1.2,0.8-1.9
			c-0.2-0.6-0.8-0.9-1.3-0.9C14.5,17.8,14.3,17.8,14.1,17.9"/>
	</defs>
	<clipPath id="XMLID_66_">
		<use xlink:href="#XMLID_1111_"  style="overflow:visible;"/>
	</clipPath>
	
		<linearGradient id="XMLID_67_" gradientUnits="userSpaceOnUse" x1="-48.3458" y1="-35.6452" x2="-44.6607" y2="-35.6452" gradientTransform="matrix(0.9397 -0.342 0.342 0.9397 70.557 36.8246)">
		<stop  offset="0" style="stop-color:#F9D2D4"/>
		<stop  offset="1" style="stop-color:#F091A0"/>
	</linearGradient>
	<polygon id="XMLID_29_" class="st12" points="17,20.3 13.6,21.6 12.3,18.1 15.8,16.9 	"/>
</g>
<radialGradient id="XMLID_68_" cx="31.1605" cy="63.1261" r="2.6151" gradientTransform="matrix(0.5263 -0.2454 8.227643e-002 0.1764 7.3922 16.6795)" gradientUnits="userSpaceOnUse">
	<stop  offset="0.3" style="stop-color:#F9D2D4"/>
	<stop  offset="1" style="stop-color:#F091A0"/>
</radialGradient>
<path id="XMLID_43_" class="st13" d="M30.1,20.2l-1.9,0.9c-0.2,0.1-0.5,0-0.7-0.2l0,0c-0.1-0.2,0-0.5,0.2-0.7l1.9-0.9
	c0.2-0.1,0.5,0,0.7,0.2l0,0C30.5,19.8,30.4,20.1,30.1,20.2z"/>
<radialGradient id="XMLID_69_" cx="31.2433" cy="63.3758" r="2.6151" gradientTransform="matrix(0.5277 -0.2461 7.943632e-002 0.1704 7.538 17.0621)" gradientUnits="userSpaceOnUse">
	<stop  offset="0.3" style="stop-color:#F9D2D4"/>
	<stop  offset="1" style="stop-color:#F091A0"/>
</radialGradient>
<path id="XMLID_39_" class="st14" d="M30.2,20.2l-1.9,0.9c-0.2,0.1-0.5,0-0.7-0.2v0c-0.1-0.2,0-0.5,0.2-0.7l1.9-0.9
	c0.2-0.1,0.5,0,0.7,0.2l0,0C30.6,19.8,30.4,20.1,30.2,20.2z"/>
<radialGradient id="XMLID_70_" cx="28.1477" cy="-4.8727" r="2.6151" gradientTransform="matrix(0.5197 -0.3375 0.1024 0.1576 7.7883 19.5782)" gradientUnits="userSpaceOnUse">
	<stop  offset="0.3" style="stop-color:#F9D2D4"/>
	<stop  offset="1" style="stop-color:#F091A0"/>
</radialGradient>
<path id="XMLID_40_" class="st15" d="M23.1,9.1l-1.9,1.2c-0.2,0.1-0.5,0.1-0.7-0.1l0,0c-0.1-0.2-0.1-0.5,0.1-0.7l1.9-1.2
	c0.2-0.1,0.5-0.1,0.7,0.1v0C23.4,8.7,23.4,9,23.1,9.1z"/>
<radialGradient id="XMLID_71_" cx="12.297" cy="27.2135" r="2.6151" gradientTransform="matrix(0.5595 -0.2609 8.227643e-002 0.1764 6.9741 16.8745)" gradientUnits="userSpaceOnUse">
	<stop  offset="0.3" style="stop-color:#F9D2D4"/>
	<stop  offset="1" style="stop-color:#F091A0"/>
</radialGradient>
<path id="XMLID_41_" class="st16" d="M17.3,18.5l-2,0.9c-0.2,0.1-0.5,0-0.7-0.2l0,0c-0.1-0.2,0-0.5,0.2-0.7l2-0.9
	c0.2-0.1,0.5,0,0.7,0.2l0,0C17.7,18,17.6,18.3,17.3,18.5z"/>
<g id="XMLID_26_">
	<defs>
		<path id="XMLID_1071_" d="M19.5,9.2c-0.7,0.4-0.9,1.3-0.4,2c0.4,0.7,1.3,0.9,2,0.4c0.7-0.4,0.9-1.3,0.4-2C21.3,9.2,20.8,9,20.3,9
			C20,9,19.7,9,19.5,9.2"/>
	</defs>
	<clipPath id="XMLID_72_">
		<use xlink:href="#XMLID_1071_"  style="overflow:visible;"/>
	</clipPath>
	
		<linearGradient id="XMLID_73_" gradientUnits="userSpaceOnUse" x1="-38.3204" y1="-45.6373" x2="-35.0123" y2="-45.6373" gradientTransform="matrix(0.9063 0.4226 -0.4226 0.9063 34.2385 67.2682)">
		<stop  offset="0" style="stop-color:#F9D2D4"/>
		<stop  offset="1" style="stop-color:#F091A0"/>
	</linearGradient>
	<polygon id="XMLID_30_" class="st17" points="21.1,12.6 18.1,11.2 19.5,8.2 22.5,9.6 	"/>
</g>
<g id="XMLID_16_">
	<defs>
		<path id="XMLID_1046_" d="M27.9,18.3c-0.5,1.1,0,2.4,1.1,2.9c1.1,0.5,2.4,0,2.9-1.1c0.5-1.1,0-2.4-1.1-2.9
			C30.5,17,30.2,17,29.9,17C29.1,17,28.3,17.5,27.9,18.3"/>
	</defs>
	<clipPath id="XMLID_74_">
		<use xlink:href="#XMLID_1046_"  style="overflow:visible;"/>
	</clipPath>
	
		<linearGradient id="XMLID_75_" gradientUnits="userSpaceOnUse" x1="-49.3576" y1="-17.2261" x2="-44.2552" y2="-17.2261" gradientTransform="matrix(-0.9397 0.342 -0.342 -0.9397 -20.0148 18.9883)">
		<stop  offset="0" style="stop-color:#F9D2D4"/>
		<stop  offset="1" style="stop-color:#F091A0"/>
	</linearGradient>
	<polygon id="XMLID_17_" class="st18" points="26.6,17.6 31.4,15.9 33.1,20.7 28.3,22.4 	"/>
</g>
<g id="XMLID_24_">
	<defs>
		<path id="XMLID_1041_" d="M33.8,15.5c-0.7,0.4-1,1.2-0.7,2s1.2,1,2,0.7c0.7-0.4,1-1.2,0.7-2c-0.3-0.5-0.8-0.8-1.3-0.8
			C34.3,15.3,34,15.4,33.8,15.5"/>
	</defs>
	<clipPath id="XMLID_76_">
		<use xlink:href="#XMLID_1041_"  style="overflow:visible;"/>
	</clipPath>
	
		<linearGradient id="XMLID_77_" gradientUnits="userSpaceOnUse" x1="-53.5211" y1="-16.5556" x2="-50.4018" y2="-16.5556" gradientTransform="matrix(-0.9397 0.342 -0.342 -0.9397 -20.0148 18.9883)">
		<stop  offset="0" style="stop-color:#F9D2D4"/>
		<stop  offset="1" style="stop-color:#F091A0"/>
	</linearGradient>
	<polygon id="XMLID_19_" class="st19" points="32.5,15.8 35.4,14.8 36.5,17.7 33.5,18.8 	"/>
</g>
<g id="XMLID_33_">
	<defs>
		<path id="XMLID_1036_" d="M30.6,22.7c-0.9,0.2-1.4,1.1-1.2,2c0.2,0.9,1.1,1.4,2,1.2c0.9-0.2,1.4-1.1,1.2-2
			c-0.2-0.7-0.8-1.2-1.6-1.2C30.9,22.7,30.8,22.7,30.6,22.7"/>
	</defs>
	<clipPath id="XMLID_78_">
		<use xlink:href="#XMLID_1036_"  style="overflow:visible;"/>
	</clipPath>
	
		<linearGradient id="XMLID_79_" gradientUnits="userSpaceOnUse" x1="-34.7143" y1="-25.3138" x2="-31.0293" y2="-25.3138" gradientTransform="matrix(0.9397 -0.342 0.342 0.9397 70.557 36.8246)">
		<stop  offset="0" style="stop-color:#F9D2D4"/>
		<stop  offset="1" style="stop-color:#F091A0"/>
	</linearGradient>
	<polygon id="XMLID_32_" class="st20" points="33.4,25.4 29.9,26.6 28.6,23.2 32.1,21.9 	"/>
</g>
<g id="XMLID_12_">
	<defs>
		<path id="XMLID_1031_" d="M22.9,13c-0.5,1.1,0,2.4,1.1,2.9c1.1,0.5,2.4,0,2.9-1.1c0.5-1.1,0-2.4-1.1-2.9c-0.3-0.1-0.6-0.2-0.9-0.2
			C24.1,11.7,23.3,12.2,22.9,13"/>
	</defs>
	<clipPath id="XMLID_80_">
		<use xlink:href="#XMLID_1031_"  style="overflow:visible;"/>
	</clipPath>
	
		<linearGradient id="XMLID_81_" gradientUnits="userSpaceOnUse" x1="-46.5428" y1="-10.5819" x2="-41.4404" y2="-10.5819" gradientTransform="matrix(-0.9397 0.342 -0.342 -0.9397 -20.0148 18.9883)">
		<stop  offset="0" style="stop-color:#F9D2D4"/>
		<stop  offset="1" style="stop-color:#F091A0"/>
	</linearGradient>
	<polygon id="XMLID_13_" class="st21" points="21.7,12.4 26.5,10.6 28.2,15.4 23.4,17.2 	"/>
</g>
<g id="XMLID_23_">
	<defs>
		<path id="XMLID_1021_" d="M27.8,4.5c-0.7,0.4-1,1.2-0.7,2c0.4,0.7,1.2,1,2,0.7c0.7-0.4,1-1.2,0.7-2c-0.3-0.5-0.8-0.8-1.3-0.8
			C28.2,4.3,28,4.4,27.8,4.5"/>
	</defs>
	<clipPath id="XMLID_82_">
		<use xlink:href="#XMLID_1021_"  style="overflow:visible;"/>
	</clipPath>
	
		<linearGradient id="XMLID_83_" gradientUnits="userSpaceOnUse" x1="-51.5649" y1="-4.1599" x2="-48.3043" y2="-4.1599" gradientTransform="matrix(-0.9397 0.342 -0.342 -0.9397 -20.0148 18.9883)">
		<stop  offset="0" style="stop-color:#F9D2D4"/>
		<stop  offset="1" style="stop-color:#F091A0"/>
	</linearGradient>
	<polygon id="XMLID_20_" class="st22" points="26.2,4.8 29.3,3.7 30.4,6.8 27.4,7.9 	"/>
</g>
<g id="XMLID_18_">
	<defs>
		<path id="XMLID_1016_" d="M19.7,2.2c-0.8,0.5-1,1.5-0.6,2.3c0.5,0.8,1.5,1,2.3,0.6c0.8-0.5,1-1.5,0.6-2.3C21.6,2.3,21.1,2,20.5,2
			C20.2,2,19.9,2.1,19.7,2.2"/>
	</defs>
	<clipPath id="XMLID_84_">
		<use xlink:href="#XMLID_1016_"  style="overflow:visible;"/>
	</clipPath>
	
		<linearGradient id="XMLID_85_" gradientUnits="userSpaceOnUse" x1="-45.12" y1="0.5524" x2="-41.435" y2="0.5524" gradientTransform="matrix(-0.9397 0.342 -0.342 -0.9397 -20.0148 18.9883)">
		<stop  offset="0" style="stop-color:#F9D2D4"/>
		<stop  offset="1" style="stop-color:#F091A0"/>
	</linearGradient>
	<polygon id="XMLID_5_" class="st23" points="18.1,2.6 21.6,1.3 22.8,4.8 19.4,6 	"/>
</g>
<g id="XMLID_25_">
	<defs>
		<path id="XMLID_1011_" d="M12.2,12.1c-0.7,0.6-0.7,1.7,0,2.3c0.6,0.7,1.7,0.7,2.3,0c0.7-0.6,0.7-1.7,0-2.3
			c-0.3-0.3-0.8-0.5-1.2-0.5C12.9,11.6,12.5,11.8,12.2,12.1"/>
	</defs>
	<clipPath id="XMLID_86_">
		<use xlink:href="#XMLID_1011_"  style="overflow:visible;"/>
	</clipPath>
	
		<linearGradient id="XMLID_87_" gradientUnits="userSpaceOnUse" x1="-35.1529" y1="-6.0253" x2="-31.4679" y2="-6.0253" gradientTransform="matrix(-0.9397 0.342 -0.342 -0.9397 -20.0148 18.9883)">
		<stop  offset="0" style="stop-color:#F9D2D4"/>
		<stop  offset="1" style="stop-color:#F091A0"/>
	</linearGradient>
	<polygon id="XMLID_21_" class="st24" points="11,12.2 14.4,10.9 15.7,14.4 12.2,15.6 	"/>
</g>
<g id="XMLID_35_">
	<defs>
		<path id="XMLID_1006_" d="M17.9,21.2c-0.9,0.1-1.6,0.9-1.5,1.8c0.1,0.9,0.9,1.6,1.8,1.5c0.9-0.1,1.6-0.9,1.5-1.8
			c-0.1-0.8-0.8-1.5-1.6-1.5C18,21.2,18,21.2,17.9,21.2"/>
	</defs>
	<clipPath id="XMLID_88_">
		<use xlink:href="#XMLID_1006_"  style="overflow:visible;"/>
	</clipPath>
	
		<linearGradient id="XMLID_89_" gradientUnits="userSpaceOnUse" x1="-46.4008" y1="-31.1007" x2="-42.7157" y2="-31.1007" gradientTransform="matrix(0.9397 -0.342 0.342 0.9397 70.557 36.8246)">
		<stop  offset="0" style="stop-color:#F9D2D4"/>
		<stop  offset="1" style="stop-color:#F091A0"/>
	</linearGradient>
	<polygon id="XMLID_28_" class="st25" points="20.4,23.9 16.9,25.2 15.7,21.7 19.2,20.5 	"/>
</g>
<g id="XMLID_10_">
	<defs>
		<path id="XMLID_1001_" d="M15.3,16.6c-0.5,1.1,0,2.4,1.1,2.9c1.1,0.5,2.4,0,2.9-1.1c0.5-1.1,0-2.4-1.1-2.9
			c-0.3-0.1-0.6-0.2-0.9-0.2C16.5,15.3,15.7,15.8,15.3,16.6"/>
	</defs>
	<clipPath id="XMLID_90_">
		<use xlink:href="#XMLID_1001_"  style="overflow:visible;"/>
	</clipPath>
	
		<linearGradient id="XMLID_91_" gradientUnits="userSpaceOnUse" x1="-38.7284" y1="-11.7745" x2="-33.1264" y2="-11.7745" gradientTransform="matrix(-0.876 0.3188 -0.2963 -0.814 -17.4944 19.3484)">
		<stop  offset="0" style="stop-color:#F9D2D4"/>
		<stop  offset="1" style="stop-color:#F091A0"/>
	</linearGradient>
	<polygon id="XMLID_11_" class="st26" points="14.2,16.1 19.1,14.3 20.8,18.9 15.8,20.7 	"/>
</g>
<g id="XMLID_2_">
	<defs>
		<path id="XMLID_993_" d="M25.4,27.4c-0.1-0.1-0.2-0.3-0.1-0.4c0.1-0.2,0.3-0.2,0.4-0.2c0.2,0.1,0.2,0.3,0.2,0.4
			c-0.1,0.1-0.2,0.2-0.3,0.2C25.5,27.5,25.5,27.5,25.4,27.4 M26,26.7c-0.1-0.1-0.2-0.2-0.1-0.4c0-0.1,0.1-0.2,0.2-0.3
			c0.4-0.4,0.9-0.6,1.4-0.6c0.2,0,0.4,0.1,0.4,0.3c0,0.2-0.1,0.3-0.3,0.4c-0.4,0-0.7,0.2-1,0.4c-0.1,0.1-0.1,0.1-0.2,0.2
			c-0.1,0.1-0.2,0.1-0.2,0.1C26.1,26.7,26.1,26.7,26,26.7 M25.8,25.2c-0.7,0.5-1.1,1.2-1.4,1.9c-0.5,1.1-0.8,2.1-1,3.2
			c-0.2,0.9-0.2,1.7,0,2.6c0.1,0.3,0.2,0.5,0.4,0.7c0.3,0.3,0.7,0.3,1.1,0.1c0.3-0.2,0.6-0.4,0.8-0.7c0.3-0.3,0.6-0.5,1-0.8
			c0.3-0.2,0.6-0.4,1-0.4c0.5,0,0.9-0.2,1.3-0.5c0.2-0.1,0.3-0.3,0.4-0.5c0.2-0.4,0.3-0.8,0.5-1.2c0.3-0.8,0.5-1.6,0.6-2.4
			c0.1-0.5,0-0.9-0.1-1.4c-0.1-0.3-0.3-0.5-0.5-0.7c-0.3-0.2-0.6-0.3-0.9-0.4c-0.4-0.2-0.9-0.3-1.3-0.3C27,24.5,26.4,24.7,25.8,25.2
			"/>
	</defs>
	<clipPath id="XMLID_92_">
		<use xlink:href="#XMLID_993_"  style="overflow:visible;"/>
	</clipPath>
	<linearGradient id="XMLID_93_" gradientUnits="userSpaceOnUse" x1="21.8995" y1="29.1279" x2="31.0147" y2="29.1279">
		<stop  offset="0" style="stop-color:#F9D2D4"/>
		<stop  offset="1" style="stop-color:#F091A0"/>
	</linearGradient>
	<rect id="XMLID_1_" x="21.9" y="24.2" class="st27" width="9.1" height="9.9"/>
</g>
<g id="XMLID_4_">
	<defs>
		<path id="XMLID_988_" d="M31.5,26.6c-0.4,0.3-0.6,0.7-0.7,1.2c-0.1,0.7-0.4,1.4-0.6,2.1c-0.1,0.3-0.2,0.6-0.3,0.8
			c-0.1,0.2,0,0.3,0.1,0.4c0,0,0.1,0,0.1,0c0.5,0.2,1.1,0.3,1.7,0.3c1.4-0.1,2.6-0.5,3.7-1.3c0.4-0.3,0.8-0.6,1-1.1
			c0.1-0.2,0.1-0.3,0-0.4c-0.2-0.2-0.4-0.4-0.6-0.6c-0.8-0.6-1.7-1-2.5-1.4c-0.1,0-0.1-0.1-0.2-0.1c-0.2-0.1-0.4-0.2-0.6-0.2
			C32.1,26.3,31.8,26.4,31.5,26.6"/>
	</defs>
	<clipPath id="XMLID_94_">
		<use xlink:href="#XMLID_988_"  style="overflow:visible;"/>
	</clipPath>
	
		<linearGradient id="XMLID_95_" gradientUnits="userSpaceOnUse" x1="29.217" y1="16.5176" x2="41.6171" y2="16.5176" gradientTransform="matrix(0.4716 0.2199 -0.2013 0.4316 19.8583 14.6642)">
		<stop  offset="0" style="stop-color:#F9D2D4"/>
		<stop  offset="1" style="stop-color:#F091A0"/>
	</linearGradient>
	<polygon id="XMLID_6_" class="st28" points="34.9,33.6 29.1,30.9 31.6,25.5 37.4,28.3 	"/>
</g>
<g id="XMLID_31_">
	<defs>
		<path id="XMLID_983_" d="M30.8,25.7c0.1,0.2,0.1,0.4,0.1,0.7c0,0.1,0.1,0.2,0.2,0.1c0.2-0.1,0.3-0.3,0.5-0.3c0,0,0.1,0,0.1-0.1
			c0-0.1,0-0.1-0.1-0.1c-0.1,0-0.2-0.1-0.3-0.1c0,0,0,0,0,0c-0.1-0.1-0.2-0.1-0.4-0.2c0,0,0,0-0.1,0C30.8,25.5,30.8,25.6,30.8,25.7"
			/>
	</defs>
	<clipPath id="XMLID_96_">
		<use xlink:href="#XMLID_983_"  style="overflow:visible;"/>
	</clipPath>
	
		<linearGradient id="XMLID_97_" gradientUnits="userSpaceOnUse" x1="-33.8454" y1="-23.5321" x2="-32.1885" y2="-23.5321" gradientTransform="matrix(0.9397 -0.342 0.342 0.9397 70.557 36.8246)">
		<stop  offset="0" style="stop-color:#F9D2D4"/>
		<stop  offset="1" style="stop-color:#F091A0"/>
	</linearGradient>
	<polygon id="XMLID_27_" class="st29" points="32.5,26.5 31,27.1 30.4,25.5 32,24.9 	"/>
</g>
<g id="XMLID_14_">
	<defs>
		<path id="XMLID_1026_" d="M23.1,6.1c-1.2,0.3-1.9,1.4-1.7,2.6c0.3,1.2,1.4,1.9,2.6,1.7c1.2-0.3,1.9-1.4,1.7-2.6
			c-0.2-1-1.1-1.7-2.1-1.7C23.4,6,23.3,6,23.1,6.1"/>
	</defs>
	<clipPath id="XMLID_98_">
		<use xlink:href="#XMLID_1026_"  style="overflow:visible;"/>
	</clipPath>
	
		<linearGradient id="XMLID_99_" gradientUnits="userSpaceOnUse" x1="-47.3042" y1="-4.8054" x2="-42.2018" y2="-4.8054" gradientTransform="matrix(-0.9397 0.342 -0.342 -0.9397 -20.0148 18.9883)">
		<stop  offset="0" style="stop-color:#F9D2D4"/>
		<stop  offset="1" style="stop-color:#F091A0"/>
	</linearGradient>
	<polygon id="XMLID_15_" class="st30" points="20.4,6.7 25.2,4.9 27,9.7 22.2,11.5 	"/>
</g>
</svg>
