<?xml version="1.0" encoding="utf-8"?>
<!-- Generator: Adobe Illustrator 19.0.0, SVG Export Plug-In . SVG Version: 6.00 Build 0)  -->
<svg version="1.1" id="图层_1" xmlns="http://www.w3.org/2000/svg" xmlns:xlink="http://www.w3.org/1999/xlink" x="0px" y="0px"
	 viewBox="0 0 51 51" style="enable-background:new 0 0 51 51;" xml:space="preserve">
<style type="text/css">
	.st0{fill:#FCEAEE;}
	.st1{clip-path:url(#XMLID_36_);fill:url(#XMLID_37_);}
	.st2{clip-path:url(#XMLID_38_);fill:url(#XMLID_39_);}
	.st3{clip-path:url(#XMLID_40_);fill:url(#XMLID_41_);}
	.st4{clip-path:url(#XMLID_42_);fill:url(#XMLID_43_);}
	.st5{clip-path:url(#XMLID_44_);fill:url(#XMLID_45_);}
	.st6{clip-path:url(#XMLID_46_);fill:url(#XMLID_47_);}
	.st7{clip-path:url(#XMLID_48_);fill:url(#XMLID_49_);}
	.st8{clip-path:url(#XMLID_50_);fill:url(#XMLID_51_);}
	.st9{clip-path:url(#XMLID_52_);fill:url(#XMLID_53_);}
	.st10{clip-path:url(#XMLID_54_);fill:url(#XMLID_55_);}
	.st11{clip-path:url(#XMLID_56_);fill:url(#XMLID_57_);}
	.st12{clip-path:url(#XMLID_58_);fill:url(#XMLID_59_);}
</style>
<path id="XMLID_114_" class="st0" d="M45.4,51H5.7C2.6,51,0,48.5,0,45.4V5.7C0,2.6,2.6,0,5.7,0h39.7C48.5,0,51,2.6,51,5.7v39.7
	C51,48.5,48.5,51,45.4,51z"/>
<g id="XMLID_5_">
	<defs>
		<path id="XMLID_1619_" d="M37.6,26.1c-1.1,0.1-2.1,0.1-3.2,0.1c-0.3,0-0.6,0-1,0c-0.5,0-1,0-1.4,0c-0.7,0-1.4,0-2.2,0.2
			c-1.2,0.3-1.7,0.9-1.8,2.1c-0.1,0.9,0,1.9,0.1,2.8c0,0.5,0.1,1,0.2,1.5c0.1,0.5,0.3,0.6,0.8,0.4c0.3-0.2,0.5-0.4,0.6-0.7
			c0.1-0.4,0.2-0.8,0.2-1.2c0-0.5,0.2-0.8,0.5-0.9c0.7-0.2,1.2,0.1,1.2,0.9c0,0.5,0,1,0.3,1.4c0.3,0.7,0.9,1,1.7,0.9
			c0.7-0.1,1.2-0.5,1.4-1.2c0.1-0.3,0.1-0.7,0.1-1c0-0.6,0.4-1.1,1-1c0.5,0,0.8,0.4,0.8,1.1c0,1.2,0.4,1.8,1.5,2.2
			c0.2,0.1,0.3,0.2,0.3,0.3c0.2,1.2,0.3,2.3,0.2,3.5c-0.1,1.1-0.1,2.3,0,3.4c0,0.8,0.5,1.2,1.3,1.2c0.2,0,0.4,0,0.5-0.1
			c0.4-0.1,0.7-0.4,0.7-0.8c0.1-0.4,0-0.8,0-1.3c0-2.3,0.1-4.6,0.1-7.2c0-1.7-0.1-3.6-0.2-5.6c0-0.3-0.2-0.5-0.4-0.6
			c-0.9-0.3-1.9-0.5-2.9-0.5C38,26.1,37.8,26.1,37.6,26.1"/>
	</defs>
	<clipPath id="XMLID_36_">
		<use xlink:href="#XMLID_1619_"  style="overflow:visible;"/>
	</clipPath>
	
		<radialGradient id="XMLID_37_" cx="39.3042" cy="31.5115" r="11.4621" gradientTransform="matrix(0.705 0 0 0.8997 7.3117 6.9294)" gradientUnits="userSpaceOnUse">
		<stop  offset="0" style="stop-color:#FFFFFF"/>
		<stop  offset="1" style="stop-color:#F091A7"/>
	</radialGradient>
	<rect id="XMLID_4_" x="26.9" y="25" class="st1" width="16.2" height="20.6"/>
</g>
<g id="XMLID_2_">
	<defs>
		<path id="XMLID_1333_" d="M11.2,26.2c-1.1,0-1.7,0.6-1.9,1.7c0,0.3-0.1,0.6-0.1,0.9c0,1.1,0.1,2.2,0.1,3.3c0,2.2,0,4.4,0,6.6H9.3
			c0,0.8,0,1.7,0,2.5c0,0.2,0,0.3,0.2,0.4c0.4,0.2,0.9,0.4,1.3,0.4c0.5,0.1,0.9-0.2,1.1-0.7c0-0.1,0.1-0.3,0.1-0.4
			c0.1-0.4,0.1-0.8,0.1-1.2c0-1.9,0.2-3.7-0.2-5.6c-0.1-0.3,0.1-0.5,0.4-0.6c0.1-0.1,0.3-0.1,0.4-0.1c0.8-0.3,1.3-1,1.3-1.9
			c0-0.2,0-0.4,0-0.6c0.1-0.4,0.3-0.6,0.8-0.7c0.4,0,0.7,0.2,0.9,0.6c0.1,0.3,0.1,0.7,0.2,1c0.1,1,0.7,1.6,1.6,1.6
			c1,0,1.6-0.5,1.8-1.5c0-0.2,0.1-0.4,0.1-0.5c0-0.3,0.1-0.6,0.3-0.9c0.2-0.3,0.5-0.4,0.8-0.3c0.2,0.1,0.4,0.2,0.6,0.4
			c0.4,0.3,0.6,0.2,0.8-0.3c0.3-1,0.5-1.9,0.9-2.9c0.1-0.1,0.1-0.3,0.1-0.5c0.1-0.4-0.1-0.6-0.4-0.7c-0.2-0.1-0.3-0.1-0.5-0.1
			c-1.5,0-2.9,0-4.4,0c-0.6,0-1.3,0-1.9,0c-1,0-1.9-0.1-2.9-0.1C12.1,26.2,11.7,26.2,11.2,26.2"/>
	</defs>
	<clipPath id="XMLID_38_">
		<use xlink:href="#XMLID_1333_"  style="overflow:visible;"/>
	</clipPath>
	
		<radialGradient id="XMLID_39_" cx="13.325" cy="31.2694" r="11.4621" gradientTransform="matrix(0.705 0 0 0.8997 7.3117 6.9294)" gradientUnits="userSpaceOnUse">
		<stop  offset="0" style="stop-color:#FFFFFF"/>
		<stop  offset="1" style="stop-color:#F091A7"/>
	</radialGradient>
	<rect id="XMLID_3_" x="8.6" y="24.8" class="st2" width="16.2" height="20.6"/>
</g>
<g id="XMLID_6_">
	<defs>
		<path id="XMLID_1322_" d="M34.6,14.6c-0.8,0.1-1.5,0.3-2.2,0.8c-2.4,1.5-4.3,3.5-5.7,5.9c-1.4,2.3-2.2,4.7-2.8,7.3
			c-0.3,1.3-0.8,2.5-1.5,3.6c-0.5,0.8-1,1.5-1.4,2.4c-0.3,0.8-0.6,1.6-0.7,2.4c0,1.2,0.6,1.9,1.5,2c0.3,0,0.7,0,1-0.1
			c1.7-0.6,2.8-1.8,3.6-3.3c0.4-0.7,0.5-1.5,0.4-2.4c-0.2-1.8-0.2-3.7-0.2-5.5c0-0.1,0-0.2,0.1-0.3c0.8-3.2,2.3-6,4.3-8.5
			c1.1-1.4,2.4-2.7,3.7-3.9c0.1-0.1,0.2-0.1,0.1-0.2c0,0-0.1,0-0.1,0C34.7,14.6,34.6,14.6,34.6,14.6"/>
	</defs>
	<clipPath id="XMLID_40_">
		<use xlink:href="#XMLID_1322_"  style="overflow:visible;"/>
	</clipPath>
	
		<radialGradient id="XMLID_41_" cx="21.0802" cy="17.9765" r="11.4621" gradientTransform="matrix(0.8615 0 0 1.1931 8.2042 5.3485)" gradientUnits="userSpaceOnUse">
		<stop  offset="0" style="stop-color:#FCE5E8"/>
		<stop  offset="1" style="stop-color:#F091A7"/>
	</radialGradient>
	<rect id="XMLID_1_" x="16.5" y="13.1" class="st3" width="19.8" height="27.4"/>
</g>
<g id="XMLID_8_">
	<defs>
		<path id="XMLID_1272_" d="M36.8,37.8c-0.6,0-1,0.4-1,1c0,0.6,0.5,1.1,1.1,1c0.5,0,1-0.5,1-1.1C37.9,38.3,37.4,37.8,36.8,37.8
			C36.8,37.8,36.8,37.8,36.8,37.8"/>
	</defs>
	<clipPath id="XMLID_42_">
		<use xlink:href="#XMLID_1272_"  style="overflow:visible;"/>
	</clipPath>
	<radialGradient id="XMLID_43_" cx="36.8511" cy="38.8523" r="1.1339" gradientUnits="userSpaceOnUse">
		<stop  offset="0" style="stop-color:#FCE5E8"/>
		<stop  offset="1" style="stop-color:#F091A7"/>
	</radialGradient>
	<rect id="XMLID_7_" x="35.7" y="37.7" class="st4" width="2.3" height="2.3"/>
</g>
<g id="XMLID_12_">
	<defs>
		<path id="XMLID_13_" d="M14.8,37c-0.6,0-1,0.4-1,1c0,0.6,0.5,1.1,1.1,1c0.5,0,1-0.5,1-1.1C15.9,37.4,15.4,37,14.8,37
			C14.8,37,14.8,37,14.8,37"/>
	</defs>
	<clipPath id="XMLID_44_">
		<use xlink:href="#XMLID_13_"  style="overflow:visible;"/>
	</clipPath>
	<radialGradient id="XMLID_45_" cx="14.8546" cy="37.9968" r="1.1339" gradientUnits="userSpaceOnUse">
		<stop  offset="0" style="stop-color:#FCE5E8"/>
		<stop  offset="1" style="stop-color:#F091A7"/>
	</radialGradient>
	<rect id="XMLID_14_" x="13.7" y="36.9" class="st5" width="2.3" height="2.3"/>
</g>
<g id="XMLID_33_">
	<defs>
		<path id="XMLID_34_" d="M17.5,34.4c-0.6,0-1,0.4-1,1c0,0.6,0.5,1.1,1.1,1c0.5,0,1-0.5,1-1.1C18.6,34.9,18.1,34.4,17.5,34.4
			C17.5,34.4,17.5,34.4,17.5,34.4"/>
	</defs>
	<clipPath id="XMLID_46_">
		<use xlink:href="#XMLID_34_"  style="overflow:visible;"/>
	</clipPath>
	<radialGradient id="XMLID_47_" cx="17.5392" cy="35.4464" r="1.1339" gradientUnits="userSpaceOnUse">
		<stop  offset="0" style="stop-color:#FCE5E8"/>
		<stop  offset="1" style="stop-color:#F091A7"/>
	</radialGradient>
	<rect id="XMLID_35_" x="16.4" y="34.3" class="st6" width="2.3" height="2.3"/>
</g>
<g id="XMLID_30_">
	<defs>
		<path id="XMLID_31_" d="M18.3,39.4c-0.6,0-1,0.4-1,1c0,0.6,0.5,1.1,1.1,1c0.5,0,1-0.5,1-1.1C19.4,39.9,18.9,39.4,18.3,39.4
			C18.3,39.4,18.3,39.4,18.3,39.4"/>
	</defs>
	<clipPath id="XMLID_48_">
		<use xlink:href="#XMLID_31_"  style="overflow:visible;"/>
	</clipPath>
	<radialGradient id="XMLID_49_" cx="18.3516" cy="40.4542" r="1.1339" gradientUnits="userSpaceOnUse">
		<stop  offset="0" style="stop-color:#FCE5E8"/>
		<stop  offset="1" style="stop-color:#F091A7"/>
	</radialGradient>
	<rect id="XMLID_32_" x="17.2" y="39.3" class="st7" width="2.3" height="2.3"/>
</g>
<g id="XMLID_27_">
	<defs>
		<path id="XMLID_28_" d="M24.8,39.7c-0.6,0-1,0.4-1,1c0,0.6,0.5,1.1,1.1,1c0.5,0,1-0.5,1-1.1C25.8,40.1,25.4,39.7,24.8,39.7
			C24.8,39.7,24.8,39.7,24.8,39.7"/>
	</defs>
	<clipPath id="XMLID_50_">
		<use xlink:href="#XMLID_28_"  style="overflow:visible;"/>
	</clipPath>
	<radialGradient id="XMLID_51_" cx="24.7871" cy="40.6943" r="1.1339" gradientUnits="userSpaceOnUse">
		<stop  offset="0" style="stop-color:#FCE5E8"/>
		<stop  offset="1" style="stop-color:#F091A7"/>
	</radialGradient>
	<rect id="XMLID_29_" x="23.7" y="39.6" class="st8" width="2.3" height="2.3"/>
</g>
<g id="XMLID_24_">
	<defs>
		<path id="XMLID_25_" d="M28.6,37.9c-0.6,0-1,0.4-1,1c0,0.6,0.5,1.1,1.1,1c0.5,0,1-0.5,1-1.1C29.7,38.4,29.2,37.9,28.6,37.9
			C28.6,37.9,28.6,37.9,28.6,37.9"/>
	</defs>
	<clipPath id="XMLID_52_">
		<use xlink:href="#XMLID_25_"  style="overflow:visible;"/>
	</clipPath>
	<radialGradient id="XMLID_53_" cx="28.6371" cy="38.9858" r="1.1339" gradientUnits="userSpaceOnUse">
		<stop  offset="0" style="stop-color:#FCE5E8"/>
		<stop  offset="1" style="stop-color:#F091A7"/>
	</radialGradient>
	<rect id="XMLID_26_" x="27.5" y="37.9" class="st9" width="2.3" height="2.3"/>
</g>
<g id="XMLID_21_">
	<defs>
		<path id="XMLID_22_" d="M30.4,34.2c-0.6,0-1,0.4-1,1c0,0.6,0.5,1.1,1.1,1c0.5,0,1-0.5,1-1.1C31.5,34.7,31,34.2,30.4,34.2
			C30.4,34.2,30.4,34.2,30.4,34.2"/>
	</defs>
	<clipPath id="XMLID_54_">
		<use xlink:href="#XMLID_22_"  style="overflow:visible;"/>
	</clipPath>
	<radialGradient id="XMLID_55_" cx="30.4596" cy="35.2803" r="1.1339" gradientUnits="userSpaceOnUse">
		<stop  offset="0" style="stop-color:#FCE5E8"/>
		<stop  offset="1" style="stop-color:#F091A7"/>
	</radialGradient>
	<rect id="XMLID_23_" x="29.3" y="34.1" class="st10" width="2.3" height="2.3"/>
</g>
<g id="XMLID_18_">
	<defs>
		<path id="XMLID_19_" d="M35,34.5c-0.6,0-1,0.4-1,1c0,0.6,0.5,1.1,1.1,1c0.5,0,1-0.5,1-1.1C36.1,35,35.6,34.5,35,34.5
			C35,34.5,35,34.5,35,34.5"/>
	</defs>
	<clipPath id="XMLID_56_">
		<use xlink:href="#XMLID_19_"  style="overflow:visible;"/>
	</clipPath>
	<radialGradient id="XMLID_57_" cx="35.022" cy="35.5868" r="1.1339" gradientUnits="userSpaceOnUse">
		<stop  offset="0" style="stop-color:#FCE5E8"/>
		<stop  offset="1" style="stop-color:#F091A7"/>
	</radialGradient>
	<rect id="XMLID_20_" x="33.9" y="34.5" class="st11" width="2.3" height="2.3"/>
</g>
<g id="XMLID_15_">
	<defs>
		<path id="XMLID_16_" d="M32.9,39.3c-0.6,0-1,0.4-1,1c0,0.6,0.5,1.1,1.1,1c0.5,0,1-0.5,1-1.1C34,39.7,33.5,39.3,32.9,39.3
			C32.9,39.3,32.9,39.3,32.9,39.3"/>
	</defs>
	<clipPath id="XMLID_58_">
		<use xlink:href="#XMLID_16_"  style="overflow:visible;"/>
	</clipPath>
	<radialGradient id="XMLID_59_" cx="32.9585" cy="40.3114" r="1.1339" gradientUnits="userSpaceOnUse">
		<stop  offset="0" style="stop-color:#FCE5E8"/>
		<stop  offset="1" style="stop-color:#F091A7"/>
	</radialGradient>
	<rect id="XMLID_17_" x="31.8" y="39.2" class="st12" width="2.3" height="2.3"/>
</g>
</svg>
