<?xml version="1.0" encoding="utf-8"?>
<!-- Generator: Adobe Illustrator 19.0.0, SVG Export Plug-In . SVG Version: 6.00 Build 0)  -->
<svg version="1.1" id="图层_1" xmlns="http://www.w3.org/2000/svg" xmlns:xlink="http://www.w3.org/1999/xlink" x="0px" y="0px"
	 viewBox="0 0 51 51" style="enable-background:new 0 0 51 51;" xml:space="preserve">
<style type="text/css">
	.st0{fill:#FCEAEE;}
	.st1{clip-path:url(#XMLID_2_);fill:url(#XMLID_3_);}
	.st2{clip-path:url(#XMLID_4_);fill:url(#XMLID_5_);}
	.st3{fill:none;}
</style>
<path id="XMLID_114_" class="st0" d="M45.4,51H5.7C2.6,51,0,48.5,0,45.4V5.7C0,2.6,2.6,0,5.7,0h39.7C48.5,0,51,2.6,51,5.7v39.7
	C51,48.5,48.5,51,45.4,51z"/>
<g id="XMLID_104_">
	<defs>
		<path id="XMLID_1728_" d="M31.1,35.8c1.6-0.3,3.1-1.1,4.3-2.2c0.1-0.1,0.3-0.3,0.4-0.4c0.4-0.3,0.9-0.4,1.3,0
			c0.4,0.4,0.4,0.9,0,1.3c-0.8,0.9-1.7,1.5-2.7,2c-1.6,0.8-3.3,1.3-4.9,1.2c-1.9,0-3.5-0.3-5.1-1c-0.7-0.3-0.9-0.8-0.7-1.3
			c0.2-0.5,0.8-0.7,1.4-0.4c0.2,0.1,0.4,0.2,0.6,0.2c1.1,0.4,2.3,0.6,3.5,0.6C29.8,35.9,30.4,35.9,31.1,35.8 M23.6,9.6
			c-0.5,0.3-0.6,0.7-0.6,1.3c0.3,2.5,1,4.9,2,7.2c0.7,1.7,1.5,3.3,2.2,5.1c0.7,1.9,0.8,3.7-0.2,5.5c-1.1,1.8-3.2,2.7-5.1,1.4
			c-0.7-0.5-1.5-0.9-2.3-1.2c-1.1-0.5-2.3-0.8-3.5-0.4c-0.4,0.1-0.7,0.1-1.1-0.1c-1.2-0.5-2.3-0.7-3.6-0.5c-2.1,0.3-3.3,1.3-3.8,3.5
			c0,0.2-0.1,0.3-0.2,0.4c-0.5,0.4-0.7,1-0.9,1.6c-0.8,2.5-0.6,4.9,0.2,7.3c0.2,0.6,0.6,0.9,1.2,1.1c1,0.2,2,0.1,3-0.5
			c0.4-0.3,0.7-0.6,0.5-1.2c-0.4-1.6-0.1-3.2,0-4.8c0-0.3,0.1-0.7,0.3-1c0.4-0.9,1.1-1.3,2.1-1.3c0.9,0,1.4,0.4,1.7,1.2
			c0.7,1.6,1.7,2.9,3.1,4c4.6,3.5,9.7,4,15.1,2.1C40.8,37.6,45,29.5,45,22.9c-0.1-3.1-1-6.2-3.1-9c-3-3.9-10-4.3-12.9-0.3
			c-0.4,0.5-0.6,0.4-0.9,0c-0.8-0.9-1-2.1-1.4-3.2c-0.1-0.3-0.2-0.7-0.5-0.9c-0.4-0.2-0.9-0.3-1.3-0.3C24.5,9.2,24.1,9.3,23.6,9.6"
			/>
	</defs>
	<clipPath id="XMLID_2_">
		<use xlink:href="#XMLID_1728_"  style="overflow:visible;"/>
	</clipPath>
	<radialGradient id="XMLID_3_" cx="25.5118" cy="25.5118" r="21.2598" gradientUnits="userSpaceOnUse">
		<stop  offset="0" style="stop-color:#FBE5EB"/>
		<stop  offset="1" style="stop-color:#F091A7"/>
	</radialGradient>
	<rect id="XMLID_110_" x="4.3" y="4.3" class="st1" width="42.5" height="42.5"/>
</g>
<g id="XMLID_44_">
	<defs>
		<path id="XMLID_50_" d="M36,25.8c0,0.8-0.6,1.2-1.7,1.2c-1,0-2-0.3-2-1.2c0-0.8,0.8-1.1,1.8-1.1C35.2,24.6,36,24.9,36,25.8
			 M30.8,28.9c0.1,0,0,0.2,0.1,0.3c0,0.2,0.3,0.4,0.5,0.4c0.5,0.1,0.9-0.4,1-0.5c0.2-0.3,0.4-0.7,0.2-0.8c-0.1-0.1-0.2-0.1-0.2-0.1
			c0-0.1,0.2-0.1,0.2-0.3c0.1-0.2-0.2-0.5-0.5-0.6c-0.1,0-0.1,0-0.5,0c-0.2,0-0.3-0.1-0.4,0c-0.1,0-0.3,0-0.4,0.2
			c-0.1,0.2,0,0.3-0.1,0.4c-0.1,0.1-0.3,0-0.4,0.1c-0.1,0.1,0,0.2,0,0.3c0,0.1,0.1,0.6,0.3,0.6C30.6,29,30.7,28.9,30.8,28.9
			 M31.3,30.5c-0.1,0-0.1,0.1-0.2,0c-0.1,0-0.1-0.1-0.1-0.1c-0.1-0.1-0.2,0-0.4,0c-0.2,0-0.2,0-0.3,0c-0.2,0.1-0.4,0.4-0.4,0.6
			c0,0.5,0.4,0.9,0.6,1.1c0.1,0.1,0.7,0.6,1.5,0.5c0.1,0,0.5-0.1,0.7-0.5c0,0,0.3-0.5,0.1-0.9c-0.1-0.3-0.4-0.4-0.9-0.7
			C31.5,30.5,31.4,30.5,31.3,30.5 M29.6,32.1c-0.3,0.1-0.6,0.2-0.8,0.5c0,0-0.2,0.3,0,0.6c0.1,0.2,0.2,0.2,0.3,0.3
			c0.5,0.4,0.4,0.6,0.7,0.8c0.4,0.2,1,0.1,1.4-0.2c0.1-0.1,0.4-0.3,0.4-0.7c0-0.1,0-0.2-0.3-0.6c-0.4-0.6-0.5-0.8-0.8-0.9
			C30.2,31.9,29.9,32,29.6,32.1 M27.1,33.1c0,0.1-0.1,0.2-0.1,0.3c0,0.1-0.1,0.4,0,0.8c0.1,0.3,0.1,0.5,0.2,0.6
			c0.2,0.3,0.7,0.5,1.1,0.3c0.4-0.2,0.5-0.6,0.5-0.7c0.1-0.4-0.1-0.8-0.2-0.9c0,0-0.2-0.4-0.7-0.5c0,0-0.2,0-0.6,0c0,0,0,0,0,0l0,0
			 M31.8,30.9c0,0,0.1,0,0.3,0c0.3,0,0.5-0.1,0.7-0.2c0.3-0.1,0.3-0.2,0.4-0.3c0.1-0.1,0.1-0.2,0.1-0.3c0-0.1,0-0.2,0-0.3
			c-0.1-0.1-0.2-0.1-0.4-0.2c-0.5-0.1-0.5-0.2-0.7-0.2c-0.3,0-0.5,0.2-0.6,0.2c-0.1,0.1-0.2,0.1-0.2,0.3c0,0-0.1,0.3,0,0.6
			C31.5,30.8,31.7,30.9,31.8,30.9 M34.4,30.7c0.2,0,0.1-0.3,0.4-0.4c0.1,0,0.1,0,0.5,0c0.1,0,0.1,0,0.1,0c0.1,0,0.2-0.1,0.3-0.5
			c0-0.1,0.1-0.3,0.1-0.7c0-0.4,0-0.5-0.1-0.6c0-0.1-0.1-0.3-0.3-0.4c-0.1,0-0.1,0-0.2,0c-0.1,0-0.1-0.1-0.1-0.1
			c-0.1-0.1-0.2-0.1-0.4-0.1c-0.2,0-0.2,0-0.3,0c-0.1,0-0.1,0.1-0.2,0.2c-0.2,0.2-0.2,0.2-0.3,0.3c-0.2,0.3-0.3,0.6-0.3,0.7
			c0,0.2-0.1,0.6,0.1,0.9c0,0.1,0,0,0.3,0.4c0.1,0.1,0.2,0.2,0.3,0.3C34.2,30.7,34.3,30.7,34.4,30.7"/>
	</defs>
	<clipPath id="XMLID_4_">
		<use xlink:href="#XMLID_50_"  style="overflow:visible;"/>
	</clipPath>
	
		<radialGradient id="XMLID_5_" cx="30.499" cy="30.6816" r="11.2092" gradientTransform="matrix(1.1189 0 0 1.1189 -3.5827 -4.0788)" gradientUnits="userSpaceOnUse">
		<stop  offset="0" style="stop-color:#FDEEF1"/>
		<stop  offset="1" style="stop-color:#F9D2DC"/>
	</radialGradient>
	<rect id="XMLID_99_" x="18" y="17.8" class="st2" width="25.1" height="25"/>
</g>
<rect id="XMLID_1719_" x="27" y="24.6" class="st3" width="9" height="10.6"/>
<rect id="XMLID_1717_" x="26.3" y="23.9" class="st3" width="10" height="12"/>
</svg>
