<?xml version="1.0" encoding="utf-8"?>
<!-- Generator: Adobe Illustrator 19.0.0, SVG Export Plug-In . SVG Version: 6.00 Build 0)  -->
<svg version="1.1" id="图层_1" xmlns="http://www.w3.org/2000/svg" xmlns:xlink="http://www.w3.org/1999/xlink" x="0px" y="0px"
	 viewBox="0 0 51 51" style="enable-background:new 0 0 51 51;" xml:space="preserve">
<style type="text/css">
	.st0{opacity:0.1;fill:#E8456C;}
	.st1{clip-path:url(#XMLID_28_);fill:url(#XMLID_29_);}
	.st2{clip-path:url(#XMLID_30_);fill:url(#XMLID_31_);}
	.st3{clip-path:url(#XMLID_32_);fill:url(#XMLID_33_);}
	.st4{clip-path:url(#XMLID_34_);fill:url(#XMLID_35_);}
	.st5{clip-path:url(#XMLID_36_);fill:url(#XMLID_37_);}
	.st6{clip-path:url(#XMLID_38_);fill:url(#XMLID_39_);}
	.st7{clip-path:url(#XMLID_40_);fill:url(#XMLID_41_);}
	.st8{clip-path:url(#XMLID_42_);fill:url(#XMLID_43_);}
	.st9{fill:#F7C1C3;}
</style>
<circle id="XMLID_1_" class="st0" cx="25.5" cy="25.5" r="24.1"/>
<g id="XMLID_23_">
	<g id="XMLID_4_">
		<defs>
			<path id="XMLID_298_" d="M12.5,23.7c0,1.7,0.6,3.1,1.7,4.3c1.8,1.9,3.7,3.7,5.5,5.6c0.1,0.1,0.3,0.2,0.4,0
				c0.2-0.2,0.3-0.4,0.5-0.5c2.2-2.2,4.4-4.4,6.7-6.7c0.1-0.1,0.3-0.2,0.1-0.5c-1.8-1.8-3.6-3.7-5.5-5.5c-1.2-1.2-2.7-1.7-4.1-1.8
				c0,0,0,0,0,0C14.5,18.8,12.4,20.9,12.5,23.7"/>
		</defs>
		<clipPath id="XMLID_28_">
			<use xlink:href="#XMLID_298_"  style="overflow:visible;"/>
		</clipPath>
		<radialGradient id="XMLID_29_" cx="19.9422" cy="26.2664" r="8.5039" gradientUnits="userSpaceOnUse">
			<stop  offset="0" style="stop-color:#F9D2DC"/>
			<stop  offset="0.8" style="stop-color:#F091A0"/>
		</radialGradient>
		<rect id="XMLID_2_" x="11.4" y="17.8" class="st1" width="17" height="17"/>
	</g>
	<g id="XMLID_8_">
		<defs>
			<path id="XMLID_284_" d="M23,35.5c0-0.8,0.6-1.4,1.4-1.4c0.7,0,1.4,0.7,1.4,1.4c0,0.7-0.6,1.3-1.4,1.4c0,0,0,0,0,0
				C23.6,36.9,23,36.3,23,35.5 M21.8,35.5c0,1.4,1.1,2.6,2.5,2.6c1.4,0,2.5-1.1,2.5-2.5c0-1.4-1.1-2.6-2.5-2.6c0,0,0,0,0,0
				C23,33,21.8,34.2,21.8,35.5"/>
		</defs>
		<clipPath id="XMLID_30_">
			<use xlink:href="#XMLID_284_"  style="overflow:visible;"/>
		</clipPath>
		<radialGradient id="XMLID_31_" cx="24.3179" cy="35.5386" r="2.8346" gradientUnits="userSpaceOnUse">
			<stop  offset="0" style="stop-color:#F9D2DC"/>
			<stop  offset="0.8" style="stop-color:#F091A0"/>
		</radialGradient>
		<rect id="XMLID_3_" x="21.5" y="32.7" class="st2" width="5.7" height="5.7"/>
	</g>
	<g id="XMLID_15_">
		<defs>
			<path id="XMLID_270_" d="M34.9,30c-0.4,0-0.8-0.3-0.7-0.8c0-0.4,0.3-0.7,0.8-0.7c0.4,0,0.8,0.4,0.8,0.8
				C35.6,29.7,35.3,30,34.9,30C34.9,30,34.9,30,34.9,30 M33.5,29.2c0,0.8,0.6,1.4,1.4,1.4c0.8,0,1.4-0.6,1.4-1.4
				c0-0.8-0.6-1.4-1.4-1.4c0,0,0,0,0,0C34.1,27.9,33.5,28.5,33.5,29.2"/>
		</defs>
		<clipPath id="XMLID_32_">
			<use xlink:href="#XMLID_270_"  style="overflow:visible;"/>
		</clipPath>
		<radialGradient id="XMLID_33_" cx="34.8855" cy="29.2655" r="1.4173" gradientUnits="userSpaceOnUse">
			<stop  offset="0.4" style="stop-color:#F9D2DC"/>
			<stop  offset="1" style="stop-color:#F091A0"/>
		</radialGradient>
		<rect id="XMLID_9_" x="33.5" y="27.8" class="st3" width="2.8" height="2.8"/>
	</g>
	<g id="XMLID_22_">
		<defs>
			<path id="XMLID_260_" d="M29,35.6c-0.5,0-0.9,0.4-0.9,0.9c0,0.5,0.4,0.9,0.9,0.9c0.5,0,1-0.4,0.9-0.9C29.9,36,29.5,35.6,29,35.6
				C29,35.6,29,35.6,29,35.6"/>
		</defs>
		<clipPath id="XMLID_34_">
			<use xlink:href="#XMLID_260_"  style="overflow:visible;"/>
		</clipPath>
		<radialGradient id="XMLID_35_" cx="28.9687" cy="36.5247" r="1.4173" gradientUnits="userSpaceOnUse">
			<stop  offset="0.2" style="stop-color:#F9D2DC"/>
			<stop  offset="0.7" style="stop-color:#F091A0"/>
		</radialGradient>
		<rect id="XMLID_16_" x="27.6" y="35.1" class="st4" width="2.8" height="2.8"/>
	</g>
	<g id="XMLID_24_">
		<defs>
			<path id="XMLID_25_" d="M28.3,27.9c-0.5,0-0.9,0.4-0.9,0.9c0,0.5,0.4,0.9,0.9,0.9c0.5,0,1-0.4,0.9-0.9
				C29.3,28.3,28.8,27.9,28.3,27.9C28.3,27.9,28.3,27.9,28.3,27.9"/>
		</defs>
		<clipPath id="XMLID_36_">
			<use xlink:href="#XMLID_25_"  style="overflow:visible;"/>
		</clipPath>
		<radialGradient id="XMLID_37_" cx="28.3366" cy="28.8258" r="1.4173" gradientUnits="userSpaceOnUse">
			<stop  offset="0.2" style="stop-color:#F9D2DC"/>
			<stop  offset="0.7" style="stop-color:#F091A0"/>
		</radialGradient>
		<rect id="XMLID_26_" x="26.9" y="27.4" class="st5" width="2.8" height="2.8"/>
	</g>
	<g id="XMLID_5_">
		<defs>
			<path id="XMLID_6_" d="M33.6,12.9c-1.7,0-3.1,0.6-4.3,1.7c-1.9,1.8-3.7,3.7-5.6,5.5c-0.1,0.1-0.2,0.3,0,0.4
				c0.2,0.2,0.4,0.3,0.5,0.5c2.2,2.2,4.4,4.4,6.7,6.7c0.1,0.1,0.2,0.3,0.5,0.1c1.8-1.8,3.7-3.6,5.5-5.5c1.2-1.2,1.7-2.7,1.8-4.1
				c0,0,0,0,0,0C38.6,15,36.5,12.9,33.6,12.9"/>
		</defs>
		<clipPath id="XMLID_38_">
			<use xlink:href="#XMLID_6_"  style="overflow:visible;"/>
		</clipPath>
		
			<radialGradient id="XMLID_39_" cx="122.0716" cy="101.9528" r="8.5039" gradientTransform="matrix(0 1 -1 0 133.0276 -101.6389)" gradientUnits="userSpaceOnUse">
			<stop  offset="0" style="stop-color:#F9D2DC"/>
			<stop  offset="0.8" style="stop-color:#F091A0"/>
		</radialGradient>
		<rect id="XMLID_7_" x="22.6" y="11.9" class="st6" width="17" height="17"/>
	</g>
	<g id="XMLID_10_">
		<defs>
			<path id="XMLID_11_" d="M28.3,32.3c0-0.8,0.6-1.4,1.4-1.4c0.7,0,1.4,0.7,1.4,1.4c0,0.7-0.6,1.3-1.4,1.4c0,0,0,0,0,0
				C28.9,33.7,28.3,33.1,28.3,32.3 M27.1,32.3c0,1.4,1.1,2.6,2.5,2.6c1.4,0,2.5-1.1,2.5-2.5c0-1.4-1.1-2.6-2.5-2.6c0,0,0,0,0,0
				C28.3,29.8,27.1,30.9,27.1,32.3"/>
		</defs>
		<clipPath id="XMLID_40_">
			<use xlink:href="#XMLID_11_"  style="overflow:visible;"/>
		</clipPath>
		<radialGradient id="XMLID_41_" cx="29.6477" cy="32.2941" r="2.8346" gradientUnits="userSpaceOnUse">
			<stop  offset="0" style="stop-color:#F9D2DC"/>
			<stop  offset="0.8" style="stop-color:#F091A0"/>
		</radialGradient>
		<rect id="XMLID_14_" x="26.8" y="29.5" class="st7" width="5.7" height="5.7"/>
	</g>
	<g id="XMLID_17_">
		<defs>
			<path id="XMLID_18_" d="M25.2,32c-0.4,0-0.8-0.3-0.7-0.8c0-0.4,0.3-0.7,0.8-0.7c0.4,0,0.8,0.4,0.8,0.8C25.9,31.6,25.6,32,25.2,32
				C25.2,32,25.2,32,25.2,32 M23.8,31.2c0,0.8,0.6,1.4,1.4,1.4c0.8,0,1.4-0.6,1.4-1.4c0-0.8-0.6-1.4-1.4-1.4c0,0,0,0,0,0
				C24.4,29.8,23.8,30.4,23.8,31.2"/>
		</defs>
		<clipPath id="XMLID_42_">
			<use xlink:href="#XMLID_18_"  style="overflow:visible;"/>
		</clipPath>
		<radialGradient id="XMLID_43_" cx="25.1925" cy="31.2106" r="1.4173" gradientUnits="userSpaceOnUse">
			<stop  offset="0.4" style="stop-color:#F9D2DC"/>
			<stop  offset="1" style="stop-color:#F091A0"/>
		</radialGradient>
		<rect id="XMLID_21_" x="23.8" y="29.8" class="st8" width="2.8" height="2.8"/>
	</g>
</g>
<rect id="XMLID_245_" x="1.6" y="24.1" transform="matrix(-0.7071 -0.7071 0.7071 -0.7071 25.5124 61.591)" class="st9" width="47.9" height="2.9"/>
</svg>
