<?xml version="1.0" encoding="utf-8"?>
<!-- Generator: Adobe Illustrator 19.0.0, SVG Export Plug-In . SVG Version: 6.00 Build 0)  -->
<svg version="1.1" id="图层_1" xmlns="http://www.w3.org/2000/svg" xmlns:xlink="http://www.w3.org/1999/xlink" x="0px" y="0px"
	 viewBox="0 0 68 68" style="enable-background:new 0 0 68 68;" xml:space="preserve">
<style type="text/css">
	.st0{fill:#FCEAEE;}
	.st1{clip-path:url(#XMLID_6_);fill:url(#XMLID_11_);}
	.st2{clip-path:url(#XMLID_12_);fill:url(#XMLID_14_);}
</style>
<path id="XMLID_1_" class="st0" d="M62.4,66.7H5.9c-2.4,0-4.3-1.9-4.3-4.3V5.8c0-2.4,1.9-4.3,4.3-4.3h56.6c2.4,0,4.3,1.9,4.3,4.3
	v56.6C66.7,64.8,64.8,66.7,62.4,66.7z"/>
<g id="XMLID_13_">
	<g id="XMLID_7_">
		<defs>
			<path id="XMLID_8_" d="M46.8,23.3c1.9-0.5,4.9,0.7,5.9,3.5c1,2.8-0.7,5.8-2.7,6.5C53.6,30.4,51.5,23.7,46.8,23.3 M20.1,22
				c2.2-2.2,6.3-2.5,8.6-0.5c-3-1.3-5.8-1-8.1,1.3c-2.3,2.3-2.6,5-1.3,8C17.5,28.5,17.4,24.6,20.1,22 M29.2,12.1
				c-1.9,0.2-3.7,0.4-5.5,1.1c-1.9,0.7-3.5,1.9-4,4.1C19.5,18,19.5,18,18.6,18c-1.9,0-3.5,0.5-4.5,2.3c-0.6,1.1-0.6,2.3-0.5,3.6
				c0.1,0.5-0.1,0.6-0.5,0.7c-0.6,0.2-1.2,0.5-1.7,0.9C9.4,27,8.9,29.8,9.7,32c0.9,2.8,3,4.5,5.7,5.4c1.7,0.6,3.4,0.4,4.9-0.5
				c1.1-0.6,1.9-1.6,2.5-2.7c0.5-0.9,0.8-1.8,1.3-2.7c0.1,0.1,0.1,0.3,0.2,0.4c1.6,3.3,3.9,5.8,7.6,6.7c3.3,0.7,6.4,0.2,9.3-1.5
				c1.5-0.9,2.5-2.1,3.2-3.6c0.1-0.2,0.2-0.4,0.3-0.7c0.1,0.3,0.1,0.4,0.1,0.6c0.3,1.6,0.8,3.2,1.9,4.5c1.2,1.5,2.8,2.1,4.7,1.9
				c1.6-0.2,3.1-0.8,4.5-1.7c1.8-1.2,2.8-2.8,2.8-5.1c-0.1-1.8-2-5-3.9-5.2c-0.3,0-0.3-0.2-0.3-0.4c0.1-0.5,0.2-1,0.3-1.5
				c0.4-2.8-1-4.9-3.7-5.6c-0.6-0.2-1.3-0.2-1.9-0.3c-0.3,0-0.5-0.2-0.7-0.5c-0.5-1-1.1-1.9-1.9-2.8c-2.9-3-6.5-4.2-10.6-4.7
				c-1.1-0.1-2.1-0.2-3.2-0.2C31.6,11.9,30.4,12,29.2,12.1"/>
		</defs>
		<clipPath id="XMLID_6_">
			<use xlink:href="#XMLID_8_"  style="overflow:visible;"/>
		</clipPath>
		<linearGradient id="XMLID_11_" gradientUnits="userSpaceOnUse" x1="-0.1249" y1="34.0161" x2="67.9066" y2="34.0161">
			<stop  offset="0" style="stop-color:#F9D2D4"/>
			<stop  offset="1" style="stop-color:#F091A0"/>
		</linearGradient>
		<rect id="XMLID_17_" x="-0.1" y="0" class="st1" width="68" height="68"/>
	</g>
	<g id="XMLID_4_">
		<defs>
			<path id="XMLID_3_" d="M23.9,34.2c-0.4,0.8-0.8,1.5-1.4,2.2c-0.3,0.3-0.3,0.5,0,0.9c1.2,1.7,2.2,3.5,2.8,5.6
				c1.1,3.5,1.3,7.1,1.1,10.7c0,0.4,0.1,0.6,0.3,0.9c0.8,0.8,1.7,1.3,2.8,1.5c2,0.5,3.9,0,5.8-0.8c0.5-0.2,0.7-0.5,0.8-1
				c0.5-2.2,1.4-4.2,2.5-6.1c2-3.3,4.6-6,8-7.7c0.3-0.1,0.5-0.3,0.1-0.6c-1.3-1.2-1.9-2.7-2.3-4.3c0-0.2,0-0.3-0.2-0.4
				c-0.2,0.6-0.4,1.1-0.8,1.6c-1,1.4-2.4,2.2-4.1,2.7c-0.4,0.1-0.7,0.3-0.9,0.7c-0.8,1.4-1.6,2.8-2.2,4.3c-0.3,0.7-0.6,1.4-0.9,2.1
				c0-0.2,0-0.3,0-0.4c0.4-1.7,0.8-3.5,1.2-5.2c0.2-0.8,0.1-0.8-0.6-0.7c-1.7,0.2-3.4,0.1-5.1-0.3c-0.4-0.1-0.5,0-0.5,0.4
				c-0.4,2.5-0.7,5.1-0.9,7.7c-0.2-3-0.6-5.9-1.3-8.8c-0.1-0.3-0.2-0.6-0.5-0.8c-1.5-1-2.6-2.4-3.5-4c-0.1-0.1-0.1-0.3-0.2-0.3
				c0,0,0,0,0,0C24,33.9,23.9,34.1,23.9,34.2"/>
		</defs>
		<clipPath id="XMLID_12_">
			<use xlink:href="#XMLID_3_"  style="overflow:visible;"/>
		</clipPath>
		<linearGradient id="XMLID_14_" gradientUnits="userSpaceOnUse" x1="-0.1249" y1="34.0157" x2="67.9066" y2="34.0157">
			<stop  offset="0" style="stop-color:#F9D2D4"/>
			<stop  offset="1" style="stop-color:#F091A0"/>
		</linearGradient>
		<rect id="XMLID_5_" x="-0.1" y="0" class="st2" width="68" height="68"/>
	</g>
</g>
</svg>
