<?xml version="1.0" encoding="utf-8"?>
<!-- Generator: Adobe Illustrator 19.0.0, SVG Export Plug-In . SVG Version: 6.00 Build 0)  -->
<svg version="1.1" id="图层_1" xmlns="http://www.w3.org/2000/svg" xmlns:xlink="http://www.w3.org/1999/xlink" x="0px" y="0px"
	 viewBox="0 0 51 51" style="enable-background:new 0 0 51 51;" xml:space="preserve">
<style type="text/css">
	.st0{opacity:0.1;fill:#E8456C;}
	.st1{clip-path:url(#XMLID_11_);fill:url(#XMLID_12_);}
	.st2{clip-path:url(#XMLID_13_);fill:url(#XMLID_14_);}
	.st3{clip-path:url(#XMLID_15_);fill:url(#XMLID_16_);}
	.st4{clip-path:url(#XMLID_17_);fill:url(#XMLID_18_);}
</style>
<circle id="XMLID_718_" class="st0" cx="25.5" cy="25.5" r="25.5"/>
<g id="XMLID_6_">
	<defs>
		<path id="XMLID_1751_" d="M37.2,23.3c0.5,0,0.5,0,0.5,0.5c0,5,0,9.9,0,14.9c0,0.5,0,0.5-0.5,0.5H14c-0.5,0-0.5,0-0.5-0.5V23.8
			c0-0.5,0-0.5,0.5-0.5c3.9,0,7.8,0,11.7,0C29.5,23.3,33.4,23.3,37.2,23.3 M21.4,16.3c0,0.6,0,1.2-0.1,1.8c-0.3,1.3-1.6,2.5-3.5,2.4
			c-1.4-0.1-2.4-0.9-2.7-2.2c-0.1-0.7-0.1-1.3-0.1-2c0-0.2,0-0.4-0.3-0.4c-0.3,0-0.6,0-0.9,0c-0.5,0-1.1,0-1.6,0
			c-0.9,0-1.5,0.8-1.5,1.6c0,7.7,0,15.4,0,23c0,0.3,0.1,0.6,0.3,0.8c0.4,0.6,0.9,0.8,1.6,0.8c4.4,0,8.7,0,13.1,0c4.4,0,8.7,0,13.1,0
			c1.3,0,1.9-0.7,1.9-1.9V17.5c0-0.1,0-0.3,0-0.4c-0.1-0.8-0.6-1.3-1.4-1.3c-0.4,0-0.9,0-1.3,0c-0.4,0-0.9,0-1.3,0
			c-0.3,0-0.4,0.1-0.4,0.4c0,0.4,0,0.9,0,1.3c0,0.8-0.3,1.5-0.8,2.1c-0.8,0.8-1.8,1-2.8,0.8c-1.4-0.2-2.6-1.2-2.7-2.6
			c-0.1-0.5-0.1-1,0-1.5c0-0.4-0.1-0.5-0.5-0.5c-2.5,0-5,0-7.4,0c0,0,0,0,0,0C21.5,15.8,21.4,15.9,21.4,16.3"/>
	</defs>
	<clipPath id="XMLID_11_">
		<use xlink:href="#XMLID_1751_"  style="overflow:visible;"/>
	</clipPath>
	
		<radialGradient id="XMLID_12_" cx="-0.2257" cy="8.3918" r="12.3798" gradientTransform="matrix(1.2479 0 0 1.1196 25.8959 19.4308)" gradientUnits="userSpaceOnUse">
		<stop  offset="0" style="stop-color:#FCE5E2"/>
		<stop  offset="1" style="stop-color:#ED7A94"/>
	</radialGradient>
	<rect id="XMLID_716_" x="10.2" y="15" class="st1" width="30.9" height="27.7"/>
</g>
<g id="XMLID_4_">
	<defs>
		<path id="XMLID_1746_" d="M16.8,13.4c0,1.3,0,2.7,0,4c0,0.7,0.7,1.3,1.6,1.3c0.8,0,1.3-0.5,1.3-1.2c0-0.7,0-1.3,0-2
			c0-0.7,0-1.4,0-2.1c0-0.8-0.5-1.2-1.3-1.2c0,0,0,0,0,0C17.5,12.1,16.8,12.7,16.8,13.4"/>
	</defs>
	<clipPath id="XMLID_13_">
		<use xlink:href="#XMLID_1746_"  style="overflow:visible;"/>
	</clipPath>
	
		<radialGradient id="XMLID_14_" cx="-222.1202" cy="29.7329" r="12.3798" gradientTransform="matrix(0.133 0 0 0.2978 47.7804 6.543)" gradientUnits="userSpaceOnUse">
		<stop  offset="0" style="stop-color:#FCE5E2"/>
		<stop  offset="1" style="stop-color:#ED7A94"/>
	</radialGradient>
	<rect id="XMLID_5_" x="16.6" y="11.7" class="st2" width="3.3" height="7.4"/>
</g>
<g id="XMLID_7_">
	<defs>
		<path id="XMLID_8_" d="M31.8,13.4c0,1.3,0,2.7,0,4c0,0.7,0.7,1.3,1.6,1.3c0.8,0,1.3-0.5,1.3-1.2c0-0.7,0-1.3,0-2
			c0-0.7,0-1.4,0-2.1c0-0.8-0.5-1.2-1.3-1.2c0,0,0,0,0,0C32.4,12.1,31.8,12.7,31.8,13.4"/>
	</defs>
	<clipPath id="XMLID_15_">
		<use xlink:href="#XMLID_8_"  style="overflow:visible;"/>
	</clipPath>
	
		<radialGradient id="XMLID_16_" cx="-109.8416" cy="29.7329" r="12.3798" gradientTransform="matrix(0.133 0 0 0.2978 47.7804 6.543)" gradientUnits="userSpaceOnUse">
		<stop  offset="0" style="stop-color:#FCE5E2"/>
		<stop  offset="1" style="stop-color:#ED7A94"/>
	</radialGradient>
	<rect id="XMLID_9_" x="31.5" y="11.7" class="st3" width="3.3" height="7.4"/>
</g>
<g id="XMLID_3_">
	<defs>
		<path id="XMLID_1_" d="M23.3,28v7.3h-1.2v-5.5c-0.6,0.5-1.3,1-2.3,1.3V30c1.2-0.5,2-1.2,2.5-2H23.3z M24.8,29.9l1.1,0.3
			c0.2-0.9,0.7-1.3,1.4-1.3c0.8,0,1.3,0.4,1.3,1.2c0.1,0.5-0.5,1.2-1.7,2c-1,0.7-1.7,1.5-2.3,2.5v0.7h5.1v-0.9h-3.7
			c0.4-0.6,1-1.2,2-1.9c1.3-0.8,1.8-1.6,1.7-2.5c-0.1-1.3-0.9-2-2.4-2C26,27.9,25.1,28.6,24.8,29.9"/>
	</defs>
	<clipPath id="XMLID_17_">
		<use xlink:href="#XMLID_1_"  style="overflow:visible;"/>
	</clipPath>
	
		<radialGradient id="XMLID_18_" cx="3.2847" cy="0.9227" r="12.3798" gradientTransform="matrix(0.5509 0 0 0.2967 23.2564 31.2945)" gradientUnits="userSpaceOnUse">
		<stop  offset="0" style="stop-color:#FCE5E2"/>
		<stop  offset="1" style="stop-color:#ED7A94"/>
	</radialGradient>
	<rect id="XMLID_2_" x="18.2" y="27.9" class="st4" width="13.6" height="7.3"/>
</g>
</svg>
