<?xml version="1.0" encoding="utf-8"?>
<!-- Generator: Adobe Illustrator 19.0.0, SVG Export Plug-In . SVG Version: 6.00 Build 0)  -->
<svg version="1.1" id="图层_1" xmlns="http://www.w3.org/2000/svg" xmlns:xlink="http://www.w3.org/1999/xlink" x="0px" y="0px"
	 viewBox="0 0 51 51" style="enable-background:new 0 0 51 51;" xml:space="preserve">
<style type="text/css">
	.st0{clip-path:url(#XMLID_22_);fill:url(#XMLID_23_);}
	.st1{fill:#EB6585;}
	.st2{font-family:'SimHei';}
	.st3{font-size:9px;}
	.st4{clip-path:url(#XMLID_24_);fill:url(#XMLID_25_);}
	.st5{font-size:11px;}
	.st6{clip-path:url(#XMLID_26_);fill:url(#XMLID_27_);}
	.st7{clip-path:url(#XMLID_28_);fill:url(#XMLID_29_);}
	.st8{clip-path:url(#XMLID_30_);fill:url(#XMLID_31_);}
	.st9{clip-path:url(#XMLID_32_);fill:url(#XMLID_33_);}
	.st10{clip-path:url(#XMLID_34_);fill:url(#XMLID_35_);}
	.st11{clip-path:url(#XMLID_36_);fill:url(#XMLID_37_);}
</style>
<g id="XMLID_3_">
	<defs>
		<path id="XMLID_978_" d="M2.7,30c0,5.1,4.2,9.3,9.3,9.3c5.1,0,9.3-4.2,9.3-9.3c0-5.1-4.2-9.3-9.3-9.3C6.9,20.7,2.7,24.9,2.7,30"/>
	</defs>
	<clipPath id="XMLID_22_">
		<use xlink:href="#XMLID_978_"  style="overflow:visible;"/>
	</clipPath>
	<radialGradient id="XMLID_23_" cx="12.0444" cy="30.0019" r="9.9213" gradientUnits="userSpaceOnUse">
		<stop  offset="0.3" style="stop-color:#F9D2D4"/>
		<stop  offset="1" style="stop-color:#F091A0"/>
	</radialGradient>
	<rect id="XMLID_2_" x="2.1" y="20.1" class="st0" width="19.8" height="19.8"/>
</g>
<text id="XMLID_976_" transform="matrix(1 0 0 1 7.8054 33.166)"><tspan x="0" y="0" class="st1 st2 st3">V</tspan><tspan x="4" y="0" class="st1 st2 st3">C</tspan></text>
<g id="XMLID_4_">
	<defs>
		<path id="XMLID_972_" d="M25,38.1c0,6.4,5.2,11.6,11.6,11.6c6.4,0,11.6-5.2,11.6-11.6s-5.2-11.6-11.6-11.6
			C30.2,26.5,25,31.7,25,38.1"/>
	</defs>
	<clipPath id="XMLID_24_">
		<use xlink:href="#XMLID_972_"  style="overflow:visible;"/>
	</clipPath>
	<radialGradient id="XMLID_25_" cx="36.652" cy="38.1487" r="12.7559" gradientUnits="userSpaceOnUse">
		<stop  offset="0.4" style="stop-color:#F9D2D4"/>
		<stop  offset="1" style="stop-color:#F091A0"/>
	</radialGradient>
	<rect id="XMLID_1_" x="23.9" y="25.4" class="st4" width="25.5" height="25.5"/>
</g>
<text id="XMLID_970_" transform="matrix(1 0 0 1 31.4708 42.0159)"><tspan x="0" y="0" class="st1 st2 st5">V</tspan><tspan x="4.9" y="0" class="st1 st2 st5">B</tspan></text>
<g id="XMLID_6_">
	<defs>
		<path id="XMLID_966_" d="M17.9,12.9c0,6.4,5.2,11.6,11.6,11.6c6.4,0,11.6-5.2,11.6-11.6c0-6.4-5.2-11.6-11.6-11.6
			C23.1,1.2,17.9,6.4,17.9,12.9"/>
	</defs>
	<clipPath id="XMLID_26_">
		<use xlink:href="#XMLID_966_"  style="overflow:visible;"/>
	</clipPath>
	<radialGradient id="XMLID_27_" cx="29.503" cy="12.875" r="12.7559" gradientUnits="userSpaceOnUse">
		<stop  offset="0.6" style="stop-color:#F9D2D4"/>
		<stop  offset="1" style="stop-color:#F091A0"/>
	</radialGradient>
	<rect id="XMLID_5_" x="16.7" y="0.1" class="st6" width="25.5" height="25.5"/>
</g>
<g id="XMLID_8_">
	<defs>
		<path id="XMLID_941_" d="M27.9,9.1c0,0.8,0.6,1.4,1.4,1.4c0.8,0,1.4-0.6,1.4-1.4c0-0.8-0.6-1.4-1.4-1.4
			C28.5,7.7,27.9,8.3,27.9,9.1"/>
	</defs>
	<clipPath id="XMLID_28_">
		<use xlink:href="#XMLID_941_"  style="overflow:visible;"/>
	</clipPath>
	<radialGradient id="XMLID_29_" cx="29.2535" cy="9.1134" r="1.4173" gradientUnits="userSpaceOnUse">
		<stop  offset="0.4" style="stop-color:#F9D2D4;stop-opacity:0.8"/>
		<stop  offset="1" style="stop-color:#F091A0;stop-opacity:0.8"/>
	</radialGradient>
	<rect id="XMLID_7_" x="27.8" y="7.7" class="st7" width="2.8" height="2.8"/>
</g>
<g id="XMLID_10_">
	<defs>
		<path id="XMLID_11_" d="M32.4,11.7c0,1.5,1.2,2.8,2.8,2.8c1.5,0,2.8-1.2,2.8-2.8c0-1.5-1.2-2.8-2.8-2.8
			C33.6,8.9,32.4,10.1,32.4,11.7"/>
	</defs>
	<clipPath id="XMLID_30_">
		<use xlink:href="#XMLID_11_"  style="overflow:visible;"/>
	</clipPath>
	
		<radialGradient id="XMLID_31_" cx="35.1555" cy="11.6694" r="2.8347" gradientTransform="matrix(0.9999 0 0 1 5.315404e-003 0)" gradientUnits="userSpaceOnUse">
		<stop  offset="0.4" style="stop-color:#F9D2D4;stop-opacity:0.8"/>
		<stop  offset="1" style="stop-color:#F091A0;stop-opacity:0.8"/>
	</radialGradient>
	<rect id="XMLID_12_" x="32.3" y="8.8" class="st8" width="5.7" height="5.7"/>
</g>
<g id="XMLID_16_">
	<defs>
		<path id="XMLID_17_" d="M29.1,12.6c0,0.9,0.7,1.6,1.6,1.6c0.9,0,1.6-0.7,1.6-1.6c0-0.9-0.7-1.6-1.6-1.6
			C29.9,11,29.1,11.7,29.1,12.6"/>
	</defs>
	<clipPath id="XMLID_32_">
		<use xlink:href="#XMLID_17_"  style="overflow:visible;"/>
	</clipPath>
	
		<radialGradient id="XMLID_33_" cx="30.7569" cy="12.5825" r="1.6489" gradientTransform="matrix(1.0004 0 0 0.9996 -1.789276e-002 4.936941e-003)" gradientUnits="userSpaceOnUse">
		<stop  offset="0.4" style="stop-color:#F9D2D4;stop-opacity:0.8"/>
		<stop  offset="1" style="stop-color:#F091A0;stop-opacity:0.8"/>
	</radialGradient>
	<rect id="XMLID_18_" x="29.1" y="10.9" class="st9" width="3.3" height="3.3"/>
</g>
<g id="XMLID_19_">
	<defs>
		<path id="XMLID_20_" d="M24.1,14.7c0,1.5,1.2,2.8,2.8,2.8c1.5,0,2.8-1.2,2.8-2.8c0-1.5-1.2-2.8-2.8-2.8
			C25.3,12,24.1,13.2,24.1,14.7"/>
	</defs>
	<clipPath id="XMLID_34_">
		<use xlink:href="#XMLID_20_"  style="overflow:visible;"/>
	</clipPath>
	
		<radialGradient id="XMLID_35_" cx="26.841" cy="14.745" r="2.8347" gradientTransform="matrix(0.9999 0 0 1 4.877736e-003 0)" gradientUnits="userSpaceOnUse">
		<stop  offset="0.4" style="stop-color:#F9D2D4;stop-opacity:0.8"/>
		<stop  offset="1" style="stop-color:#F091A0;stop-opacity:0.8"/>
	</radialGradient>
	<rect id="XMLID_21_" x="24" y="11.9" class="st10" width="5.7" height="5.7"/>
</g>
<g id="XMLID_13_">
	<defs>
		<path id="XMLID_14_" d="M32.2,14.6c0,0.9,0.7,1.6,1.6,1.6c0.9,0,1.6-0.7,1.6-1.6c0-0.9-0.7-1.6-1.6-1.6
			C32.9,13,32.2,13.7,32.2,14.6"/>
	</defs>
	<clipPath id="XMLID_36_">
		<use xlink:href="#XMLID_14_"  style="overflow:visible;"/>
	</clipPath>
	
		<radialGradient id="XMLID_37_" cx="33.8316" cy="14.5809" r="1.6503" gradientTransform="matrix(1.0004 0 0 0.9996 -1.825117e-002 5.721024e-003)" gradientUnits="userSpaceOnUse">
		<stop  offset="0.4" style="stop-color:#F9D2D4;stop-opacity:0.8"/>
		<stop  offset="1" style="stop-color:#F091A0;stop-opacity:0.8"/>
	</radialGradient>
	<rect id="XMLID_15_" x="32.2" y="12.9" class="st11" width="3.3" height="3.3"/>
</g>
</svg>
