<?xml version="1.0" encoding="utf-8"?>
<!-- Generator: Adobe Illustrator 19.0.0, SVG Export Plug-In . SVG Version: 6.00 Build 0)  -->
<svg version="1.1" id="图层_1" xmlns="http://www.w3.org/2000/svg" xmlns:xlink="http://www.w3.org/1999/xlink" x="0px" y="0px"
	 viewBox="0 0 51 51" style="enable-background:new 0 0 51 51;" xml:space="preserve">
<style type="text/css">
	.st0{opacity:0.1;fill:#E8456C;}
	.st1{clip-path:url(#XMLID_2_);fill:url(#XMLID_3_);}
	.st2{clip-path:url(#XMLID_4_);fill:url(#XMLID_5_);}
	.st3{clip-path:url(#XMLID_6_);fill:url(#XMLID_7_);}
	.st4{clip-path:url(#XMLID_8_);fill:url(#XMLID_9_);}
</style>
<g id="XMLID_719_">
	<circle id="XMLID_718_" class="st0" cx="25.5" cy="25.5" r="25.5"/>
	<g id="XMLID_714_">
		<defs>
			<path id="XMLID_1868_" d="M37.1,35.7c-2.9,0-5.7,0-8.6,0c-0.2,0-0.3-0.1-0.3-0.3c0-1.4,0-2.9,0-4.3c0-0.2,0.1-0.2,0.2-0.2
				c0.5,0,0.9,0,1.4,0c0.2,0,0.2,0.1,0.2,0.3c0,0.8,0,1.6,0,2.4c0,0.3,0.1,0.5,0.4,0.7c0.3,0.1,0.5,0.1,0.8-0.1
				c0.2-0.2,0.3-0.4,0.3-0.7c0-0.7,0-1.5,0-2.2c0-0.3,0.1-0.3,0.3-0.3c0.4,0,0.8,0,1.2,0c0.2,0,0.3,0.1,0.2,0.3c0,0.6,0,1.2,0,1.8
				c0,0.5,0.3,0.8,0.7,0.8c0.4,0,0.7-0.3,0.7-0.8c0-0.6,0-1.3,0-1.9c0-0.2,0.1-0.2,0.2-0.2c0.3,0,0.5,0,0.8,0c0.5,0,1,0,1.6,0
				c1,0.1,1.7,0.6,2.1,1.6c0.3,0.9,0.1,1.8-0.7,2.7C38.3,35.5,37.7,35.7,37.1,35.7C37.1,35.7,37.1,35.7,37.1,35.7 M26.4,35.6
				c-3,0-5.9,0-8.9-0.1c-0.6,0-1.2-0.3-1.8-0.9c-0.6-0.6-0.8-1.5-0.4-2.5c0.4-0.9,1.1-1.4,2.2-1.5c0.5,0,1,0,1.4,0
				c0.3,0,0.7,0,1.1,0c0.2,0,0.3,0.1,0.3,0.3c0,0.6,0,1.2,0,1.8c0,0.5,0.3,0.8,0.7,0.8c0.4,0,0.7-0.3,0.7-0.8c0-0.6,0-1.2,0-1.8
				c0-0.2,0-0.3,0.3-0.3c0.4,0,0.8,0,1.3,0c0.2,0,0.3,0.1,0.3,0.3c0,0.6,0,1.3,0,1.9c0,0.6,0.6,0.9,1.1,0.6c0.3-0.2,0.3-0.5,0.4-0.8
				c0-0.6,0-1.2,0-1.8c0-0.2,0-0.3,0.3-0.3c0.4,0,0.8,0,1.3,0c0.2,0,0.2,0,0.2,0.2c0,1.4,0,2.8,0,4.2C26.7,35.5,26.7,35.6,26.4,35.6
				C26.4,35.6,26.4,35.6,26.4,35.6 M13.8,31.6c-0.1,0.2-0.2,0.3-0.4,0.3c-1,0-2,0-3.1,0c-0.3,0-0.6,0-0.9,0.2
				C9,32.4,8.9,33,9.1,33.6c0.2,0.5,0.6,0.8,1.1,0.8c1,0,2.1,0,3.2,0c0.3,0,0.4,0.1,0.5,0.3c0.6,1.6,2.1,2.6,3.6,2.6
				c6.5,0.1,13,0.1,19.5,0.1c1.1,0,2.1-0.3,2.9-1.2c0.2-0.2,0.4-0.4,0.5-0.6c0.9-1.3,1-2.7,0.3-4.1c-0.8-1.5-2-2.2-3.7-2.2
				c-6.4,0-12.8-0.1-19.2-0.1c0,0,0,0,0,0C15.9,29.1,14.5,30,13.8,31.6"/>
		</defs>
		<clipPath id="XMLID_2_">
			<use xlink:href="#XMLID_1868_"  style="overflow:visible;"/>
		</clipPath>
		
			<radialGradient id="XMLID_3_" cx="39.3008" cy="34.9088" r="12.3798" gradientTransform="matrix(1.368 0 0 0.4645 -28.6603 16.3712)" gradientUnits="userSpaceOnUse">
			<stop  offset="0" style="stop-color:#FCE5E8"/>
			<stop  offset="1" style="stop-color:#F091A7"/>
		</radialGradient>
		<rect id="XMLID_716_" x="8.2" y="26.8" class="st1" width="33.9" height="11.5"/>
	</g>
	<g id="XMLID_710_">
		<defs>
			<path id="XMLID_712_" d="M9.2,17.1c0.5-1.8,1.8-2.8,3.9-2.8c2.2,0.1,3.3,1,3.4,2.8c0,1.3-0.7,2.2-2.1,2.5v0.1
				c1.6,0.3,2.4,1.1,2.5,2.6c-0.1,2-1.4,3-4,3.1c-2.2,0.1-3.5-0.8-3.9-2.8l1.8-0.4c0.2,1.2,1,1.9,2.1,1.9c1.3,0,2-0.7,2-1.9
				c0-1.2-0.8-1.8-2.5-1.8h-1V19h0.8c1.6,0,2.4-0.6,2.4-1.7c0-1.1-0.6-1.6-1.7-1.6c-1.1,0-1.8,0.6-2,1.8L9.2,17.1 M18,14.5V16h5.6
				c-2.1,3-3.4,6.1-3.8,9.1h1.9c0.2-3.1,1.5-6.2,3.9-9.3v-1.3H18z"/>
		</defs>
		<clipPath id="XMLID_4_">
			<use xlink:href="#XMLID_712_"  style="overflow:visible;"/>
		</clipPath>
		
			<radialGradient id="XMLID_5_" cx="17.3798" cy="30.7629" r="12.3798" gradientTransform="matrix(1 0 0 0.5583 0 2.6501)" gradientUnits="userSpaceOnUse">
			<stop  offset="0" style="stop-color:#FCE5E8"/>
			<stop  offset="1" style="stop-color:#F091A7"/>
		</radialGradient>
		<rect id="XMLID_713_" x="5" y="12.9" class="st2" width="24.8" height="13.8"/>
	</g>
	<g id="XMLID_707_">
		<defs>
			<path id="XMLID_1851_" d="M27.7,15.7c0-0.6,0.4-1,1-1c0.7,0.1,1,0.4,1.1,1c0,0.6-0.4,1-1.1,1C28.1,16.7,27.7,16.3,27.7,15.7
				 M26.7,15.7c0.1,1.2,0.8,1.9,2,2c1.3-0.1,1.9-0.8,2-2c-0.1-1.2-0.8-1.8-2-2C27.5,13.8,26.9,14.4,26.7,15.7"/>
		</defs>
		<clipPath id="XMLID_6_">
			<use xlink:href="#XMLID_1851_"  style="overflow:visible;"/>
		</clipPath>
		<radialGradient id="XMLID_7_" cx="28.7551" cy="15.6585" r="2.2034" gradientUnits="userSpaceOnUse">
			<stop  offset="0" style="stop-color:#FFFFFF"/>
			<stop  offset="1" style="stop-color:#F091A7"/>
		</radialGradient>
		<rect id="XMLID_708_" x="26.6" y="13.5" class="st3" width="4.4" height="4.4"/>
	</g>
	<g id="XMLID_704_">
		<defs>
			<path id="XMLID_1846_" d="M32.3,19.8c0.2,3.5,1.9,5.3,5.1,5.5c2.6,0,4.1-1.2,4.6-3.6l-1.8-0.6c-0.3,1.8-1.2,2.7-2.8,2.7
				c-2-0.2-3-1.5-3.1-4c0.1-2.5,1.2-3.8,3.1-4c1.4,0.1,2.3,0.8,2.7,2.1l1.8-0.5c-0.7-2-2.2-3.1-4.5-3.2
				C34.2,14.5,32.5,16.3,32.3,19.8"/>
		</defs>
		<clipPath id="XMLID_8_">
			<use xlink:href="#XMLID_1846_"  style="overflow:visible;"/>
		</clipPath>
		
			<radialGradient id="XMLID_9_" cx="37.1661" cy="19.7758" r="7.6069" gradientTransform="matrix(0.6403 0 0 0.7292 13.3671 5.3779)" gradientUnits="userSpaceOnUse">
			<stop  offset="0" style="stop-color:#FFFFFF"/>
			<stop  offset="1" style="stop-color:#F091A7"/>
		</radialGradient>
		<rect id="XMLID_705_" x="32.3" y="14.3" class="st4" width="9.7" height="11.1"/>
	</g>
</g>
</svg>
