<?xml version="1.0" encoding="utf-8"?>
<!-- Generator: Adobe Illustrator 19.0.0, SVG Export Plug-In . SVG Version: 6.00 Build 0)  -->
<svg version="1.1" id="图层_1" xmlns="http://www.w3.org/2000/svg" xmlns:xlink="http://www.w3.org/1999/xlink" x="0px" y="0px"
	 viewBox="0 0 51 51" style="enable-background:new 0 0 51 51;" xml:space="preserve">
<style type="text/css">
	.st0{opacity:0.1;fill:#E8456C;}
	.st1{clip-path:url(#XMLID_4_);fill:url(#XMLID_5_);}
</style>
<circle id="XMLID_718_" class="st0" cx="25.5" cy="25.5" r="25.5"/>
<g id="XMLID_2_">
	<defs>
		<path id="XMLID_1_" d="M10.9,22.3c0.2,0,0.4,0,0.7,0c0.3,0,0.5,0,0.8,0c9.2,0,18.3,0,27.5,0c1,0,1.8,0.6,1.8,1.5
			c0,0.5,0,0.9,0,1.4c-0.3,3.3-1.4,6.3-3.5,8.9c-1.4,1.8-3.2,3.2-5.2,4.3c-0.1,0.1-0.3,0.1-0.4,0.3c0.7,0.3,1.1,0.8,1.1,1.6
			c0,0.8-0.7,1.5-1.5,1.6c-0.1,0-0.2,0-0.4,0c-4.2,0-8.3,0-12.5,0c-1,0-1.6-0.4-1.8-1.2c-0.2-0.7,0.1-1.6,0.9-1.9c0,0,0,0,0.1-0.1
			c-0.1-0.2-0.2-0.2-0.3-0.2c-4.9-2.7-7.8-6.8-8.7-12.4c-0.1-0.7-0.1-1.3-0.1-2C9.3,23,10,22.3,10.9,22.3 M24.4,9.4
			c-1.9,0.4-3.4,1.4-4.4,3.1c-0.2,0.3-0.4,0.5-0.8,0.3c-0.6-0.2-1.2-0.3-1.7-0.3c-3.4,0-6.2,2.5-6.5,5.8c0,0.4-0.1,0.9,0.1,1.3
			c0.3,0.8,1.1,1.2,1.8,1c0.8-0.1,1.3-0.8,1.3-1.6c0-1,0.4-1.9,1.3-2.6c1.3-1,2.8-0.9,4.1,0.2c0.8,0.7,2,0.5,2.5-0.4
			c0.2-0.3,0.2-0.6,0.3-1c0.3-2,2.4-3.2,4.3-2.5c1.2,0.5,1.9,1.4,2,2.6c0.1,0.7,0.4,1.3,1.1,1.6c0.7,0.2,1.2,0,1.8-0.4
			c0.9-0.7,1.9-0.9,2.9-0.6c1.4,0.4,2.3,1.6,2.3,3.1c0,0.9,0.7,1.6,1.6,1.6c0.9,0,1.6-0.7,1.6-1.6c0-0.8-0.1-1.6-0.4-2.3
			c-1.2-3.2-4.5-4.9-7.9-3.9c-0.3,0.1-0.5,0-0.7-0.3c-1.1-2-3.3-3.2-5.6-3.2C25.2,9.3,24.8,9.4,24.4,9.4"/>
	</defs>
	<clipPath id="XMLID_4_">
		<use xlink:href="#XMLID_1_"  style="overflow:visible;"/>
	</clipPath>
	
		<radialGradient id="XMLID_5_" cx="46.0575" cy="10.6455" r="12.3798" gradientTransform="matrix(1.7173 0 0 1.7173 -53.5828 7.2303)" gradientUnits="userSpaceOnUse">
		<stop  offset="0" style="stop-color:#F9D2D4"/>
		<stop  offset="1" style="stop-color:#F091A7"/>
	</radialGradient>
	<rect id="XMLID_716_" x="4.3" y="4.3" class="st1" width="42.5" height="42.5"/>
</g>
</svg>
