<?xml version="1.0" encoding="utf-8"?>
<!-- Generator: Adobe Illustrator 19.0.0, SVG Export Plug-In . SVG Version: 6.00 Build 0)  -->
<svg version="1.1" id="图层_1" xmlns="http://www.w3.org/2000/svg" xmlns:xlink="http://www.w3.org/1999/xlink" x="0px" y="0px"
	 viewBox="0 0 51 51" style="enable-background:new 0 0 51 51;" xml:space="preserve">
<style type="text/css">
	.st0{fill:#FCEAEE;}
	.st1{fill:none;}
	.st2{clip-path:url(#XMLID_2_);fill:url(#XMLID_3_);}
	.st3{fill:#EB6585;}
	.st4{font-family:'SimHei';}
	.st5{font-size:7.3567px;}
	.st6{clip-path:url(#XMLID_4_);fill:url(#XMLID_5_);}
	.st7{font-size:8.9916px;}
	.st8{clip-path:url(#XMLID_6_);fill:url(#XMLID_7_);}
	.st9{clip-path:url(#XMLID_8_);fill:url(#XMLID_10_);}
	.st10{clip-path:url(#XMLID_12_);fill:url(#XMLID_13_);}
	.st11{clip-path:url(#XMLID_14_);fill:url(#XMLID_15_);}
	.st12{clip-path:url(#XMLID_16_);fill:url(#XMLID_17_);}
	.st13{clip-path:url(#XMLID_18_);fill:url(#XMLID_19_);}
</style>
<path id="XMLID_32_" class="st0" d="M45.4,51H5.7C2.6,51,0,48.5,0,45.4V5.7C0,2.6,2.6,0,5.7,0h39.7C48.5,0,51,2.6,51,5.7v39.7
	C51,48.5,48.5,51,45.4,51z"/>
<rect id="XMLID_1719_" x="27" y="24.6" class="st1" width="9" height="10.6"/>
<g id="XMLID_306_">
	<g id="XMLID_324_">
		<defs>
			<path id="XMLID_978_" d="M6.9,29.2c0,4.2,3.4,7.6,7.6,7.6c4.2,0,7.6-3.4,7.6-7.6c0-4.2-3.4-7.6-7.6-7.6
				C10.3,21.6,6.9,25,6.9,29.2"/>
		</defs>
		<clipPath id="XMLID_2_">
			<use xlink:href="#XMLID_978_"  style="overflow:visible;"/>
		</clipPath>
		
			<radialGradient id="XMLID_3_" cx="13.7171" cy="29.4442" r="8.689" gradientTransform="matrix(0.9333 0 0 0.9333 1.7008 1.7008)" gradientUnits="userSpaceOnUse">
			<stop  offset="0.3" style="stop-color:#F9D2D4"/>
			<stop  offset="1" style="stop-color:#F091A0"/>
		</radialGradient>
		<rect id="XMLID_325_" x="6.4" y="21.1" class="st2" width="16.2" height="16.2"/>
	</g>
	<text id="XMLID_976_" transform="matrix(1 0 0 1 11.0381 31.7685)"><tspan x="0" y="0" class="st3 st4 st5">V</tspan><tspan x="3.3" y="0" class="st3 st4 st5">C</tspan></text>
	<g id="XMLID_322_">
		<defs>
			<path id="XMLID_972_" d="M25.1,35.8c0,5.3,4.3,9.5,9.5,9.5c5.3,0,9.5-4.3,9.5-9.5s-4.3-9.5-9.5-9.5
				C29.4,26.3,25.1,30.6,25.1,35.8"/>
		</defs>
		<clipPath id="XMLID_4_">
			<use xlink:href="#XMLID_972_"  style="overflow:visible;"/>
		</clipPath>
		
			<radialGradient id="XMLID_5_" cx="35.2684" cy="36.5792" r="11.1716" gradientTransform="matrix(0.9333 0 0 0.9333 1.7008 1.7008)" gradientUnits="userSpaceOnUse">
			<stop  offset="0.4" style="stop-color:#F9D2D4"/>
			<stop  offset="1" style="stop-color:#F091A0"/>
		</radialGradient>
		<rect id="XMLID_323_" x="24.2" y="25.4" class="st6" width="20.9" height="20.9"/>
	</g>
	<text id="XMLID_970_" transform="matrix(1 0 0 1 30.3838 39.0029)"><tspan x="0" y="0" class="st3 st4 st7">V</tspan><tspan x="4" y="0" class="st3 st4 st7">B</tspan></text>
	<g id="XMLID_320_">
		<defs>
			<path id="XMLID_966_" d="M19.3,15.2c0,5.3,4.3,9.5,9.5,9.5c5.3,0,9.5-4.3,9.5-9.5c0-5.3-4.3-9.5-9.5-9.5
				C23.5,5.7,19.3,9.9,19.3,15.2"/>
		</defs>
		<clipPath id="XMLID_6_">
			<use xlink:href="#XMLID_966_"  style="overflow:visible;"/>
		</clipPath>
		
			<radialGradient id="XMLID_7_" cx="29.0073" cy="14.4444" r="11.1716" gradientTransform="matrix(0.9333 0 0 0.9333 1.7008 1.7008)" gradientUnits="userSpaceOnUse">
			<stop  offset="0.6" style="stop-color:#F9D2D4"/>
			<stop  offset="1" style="stop-color:#F091A0"/>
		</radialGradient>
		<rect id="XMLID_321_" x="18.3" y="4.8" class="st8" width="20.9" height="20.9"/>
	</g>
	<g id="XMLID_318_">
		<defs>
			<path id="XMLID_941_" d="M27.4,12.1c0,0.6,0.5,1.1,1.1,1.1c0.6,0,1.1-0.5,1.1-1.1c0-0.6-0.5-1.1-1.1-1.1
				C27.9,11,27.4,11.5,27.4,12.1"/>
		</defs>
		<clipPath id="XMLID_8_">
			<use xlink:href="#XMLID_941_"  style="overflow:visible;"/>
		</clipPath>
		
			<radialGradient id="XMLID_10_" cx="28.7888" cy="11.1501" r="1.2413" gradientTransform="matrix(0.9333 0 0 0.9333 1.7008 1.7008)" gradientUnits="userSpaceOnUse">
			<stop  offset="0.4" style="stop-color:#F9D2D4;stop-opacity:0.8"/>
			<stop  offset="1" style="stop-color:#F091A0;stop-opacity:0.8"/>
		</radialGradient>
		<rect id="XMLID_319_" x="27.4" y="10.9" class="st9" width="2.3" height="2.3"/>
	</g>
	<g id="XMLID_315_">
		<defs>
			<path id="XMLID_316_" d="M31.1,14.2c0,1.3,1,2.3,2.3,2.3c1.3,0,2.3-1,2.3-2.3c0-1.3-1-2.3-2.3-2.3C32.1,11.9,31.1,12.9,31.1,14.2
				"/>
		</defs>
		<clipPath id="XMLID_12_">
			<use xlink:href="#XMLID_316_"  style="overflow:visible;"/>
		</clipPath>
		
			<radialGradient id="XMLID_13_" cx="33.9575" cy="13.3886" r="2.4826" gradientTransform="matrix(0.9332 0 0 0.9333 1.7057 1.7008)" gradientUnits="userSpaceOnUse">
			<stop  offset="0.4" style="stop-color:#F9D2D4;stop-opacity:0.8"/>
			<stop  offset="1" style="stop-color:#F091A0;stop-opacity:0.8"/>
		</radialGradient>
		<rect id="XMLID_317_" x="31.1" y="11.9" class="st10" width="4.6" height="4.6"/>
	</g>
	<g id="XMLID_312_">
		<defs>
			<path id="XMLID_313_" d="M28.5,14.9c0,0.7,0.6,1.3,1.3,1.3c0.7,0,1.3-0.6,1.3-1.3c0-0.7-0.6-1.3-1.3-1.3
				C29.1,13.6,28.5,14.2,28.5,14.9"/>
		</defs>
		<clipPath id="XMLID_14_">
			<use xlink:href="#XMLID_313_"  style="overflow:visible;"/>
		</clipPath>
		
			<radialGradient id="XMLID_15_" cx="30.1064" cy="14.1889" r="1.4441" gradientTransform="matrix(0.9337 0 0 0.933 1.6841 1.7054)" gradientUnits="userSpaceOnUse">
			<stop  offset="0.4" style="stop-color:#F9D2D4;stop-opacity:0.8"/>
			<stop  offset="1" style="stop-color:#F091A0;stop-opacity:0.8"/>
		</radialGradient>
		<rect id="XMLID_314_" x="28.4" y="13.6" class="st11" width="2.7" height="2.7"/>
	</g>
	<g id="XMLID_309_">
		<defs>
			<path id="XMLID_310_" d="M24.3,16.7c0,1.3,1,2.3,2.3,2.3c1.3,0,2.3-1,2.3-2.3c0-1.3-1-2.3-2.3-2.3C25.3,14.4,24.3,15.5,24.3,16.7
				"/>
		</defs>
		<clipPath id="XMLID_16_">
			<use xlink:href="#XMLID_310_"  style="overflow:visible;"/>
		</clipPath>
		
			<radialGradient id="XMLID_17_" cx="26.6756" cy="16.0822" r="2.4826" gradientTransform="matrix(0.9332 0 0 0.9333 1.7053 1.7008)" gradientUnits="userSpaceOnUse">
			<stop  offset="0.4" style="stop-color:#F9D2D4;stop-opacity:0.8"/>
			<stop  offset="1" style="stop-color:#F091A0;stop-opacity:0.8"/>
		</radialGradient>
		<rect id="XMLID_311_" x="24.3" y="14.4" class="st12" width="4.6" height="4.6"/>
	</g>
	<g id="XMLID_307_">
		<defs>
			<path id="XMLID_326_" d="M31,16.6c0,0.7,0.6,1.3,1.3,1.3c0.7,0,1.3-0.6,1.3-1.3c0-0.7-0.6-1.3-1.3-1.3C31.6,15.3,31,15.8,31,16.6
				"/>
		</defs>
		<clipPath id="XMLID_18_">
			<use xlink:href="#XMLID_326_"  style="overflow:visible;"/>
		</clipPath>
		
			<radialGradient id="XMLID_19_" cx="32.7994" cy="15.9391" r="1.4454" gradientTransform="matrix(0.9337 0 0 0.933 1.6838 1.7061)" gradientUnits="userSpaceOnUse">
			<stop  offset="0.4" style="stop-color:#F9D2D4;stop-opacity:0.8"/>
			<stop  offset="1" style="stop-color:#F091A0;stop-opacity:0.8"/>
		</radialGradient>
		<rect id="XMLID_308_" x="31" y="15.2" class="st13" width="2.7" height="2.7"/>
	</g>
</g>
</svg>
