<?xml version="1.0" encoding="utf-8"?>
<!-- Generator: Adobe Illustrator 19.0.0, SVG Export Plug-In . SVG Version: 6.00 Build 0)  -->
<svg version="1.1" id="图层_1" xmlns="http://www.w3.org/2000/svg" xmlns:xlink="http://www.w3.org/1999/xlink" x="0px" y="0px"
	 viewBox="0 0 51 51" style="enable-background:new 0 0 51 51;" xml:space="preserve">
<style type="text/css">
	.st0{opacity:0.1;fill:#E8456C;}
	.st1{clip-path:url(#XMLID_12_);fill:url(#XMLID_13_);}
	.st2{clip-path:url(#XMLID_14_);fill:url(#XMLID_15_);}
	.st3{clip-path:url(#XMLID_16_);fill:url(#XMLID_17_);}
	.st4{clip-path:url(#XMLID_18_);fill:url(#XMLID_19_);}
</style>
<circle id="XMLID_718_" class="st0" cx="25.5" cy="25.5" r="25.5"/>
<g id="XMLID_1_">
	<defs>
		<path id="XMLID_1831_" d="M22.1,20.9c0,5.9,4.8,10.8,10.8,10.8c5.9,0,10.8-4.8,10.8-10.8c0-5.9-4.8-10.8-10.8-10.8
			C26.9,10.1,22.1,14.9,22.1,20.9"/>
	</defs>
	<clipPath id="XMLID_12_">
		<use xlink:href="#XMLID_1831_"  style="overflow:visible;"/>
	</clipPath>
	
		<radialGradient id="XMLID_13_" cx="12.1251" cy="2.4706" r="12.3798" gradientTransform="matrix(0.9159 0 0 0.9159 21.7114 18.6183)" gradientUnits="userSpaceOnUse">
		<stop  offset="0" style="stop-color:#FCE5E2"/>
		<stop  offset="1" style="stop-color:#ED7A94"/>
	</radialGradient>
	<rect id="XMLID_716_" x="21.5" y="9.5" class="st1" width="22.7" height="22.7"/>
</g>
<g id="XMLID_3_">
	<defs>
		<path id="XMLID_4_" d="M7.5,16.4c0,3.3,2.7,6,6,6c3.3,0,6-2.7,6-6c0-3.3-2.7-6-6-6C10.2,10.3,7.5,13,7.5,16.4"/>
	</defs>
	<clipPath id="XMLID_14_">
		<use xlink:href="#XMLID_4_"  style="overflow:visible;"/>
	</clipPath>
	
		<radialGradient id="XMLID_15_" cx="-8.9632" cy="-2.4565" r="6.9633" gradientTransform="matrix(0.9159 0 0 0.9159 21.7114 18.6183)" gradientUnits="userSpaceOnUse">
		<stop  offset="0" style="stop-color:#FCE5E2"/>
		<stop  offset="1" style="stop-color:#ED7A94"/>
	</radialGradient>
	<rect id="XMLID_5_" x="7.1" y="10" class="st2" width="12.8" height="12.8"/>
</g>
<g id="XMLID_6_">
	<defs>
		<path id="XMLID_7_" d="M19.4,26.3c0,1.7,1.4,3.1,3.1,3.1c1.7,0,3.1-1.4,3.1-3.1c0-1.7-1.4-3.1-3.1-3.1
			C20.8,23.2,19.4,24.6,19.4,26.3"/>
	</defs>
	<clipPath id="XMLID_16_">
		<use xlink:href="#XMLID_7_"  style="overflow:visible;"/>
	</clipPath>
	
		<radialGradient id="XMLID_17_" cx="0.8694" cy="8.4014" r="3.5739" gradientTransform="matrix(0.9159 0 0 0.9159 21.7114 18.6183)" gradientUnits="userSpaceOnUse">
		<stop  offset="0" style="stop-color:#FCE5E2"/>
		<stop  offset="1" style="stop-color:#ED7A94"/>
	</radialGradient>
	<rect id="XMLID_8_" x="19.2" y="23" class="st3" width="6.5" height="6.5"/>
</g>
<g id="XMLID_9_">
	<defs>
		<path id="XMLID_10_" d="M23.3,38.7c0,1.2,1,2.2,2.2,2.2c1.2,0,2.2-1,2.2-2.2c0-1.2-1-2.2-2.2-2.2C24.3,36.5,23.3,37.5,23.3,38.7"
			/>
	</defs>
	<clipPath id="XMLID_18_">
		<use xlink:href="#XMLID_10_"  style="overflow:visible;"/>
	</clipPath>
	
		<radialGradient id="XMLID_19_" cx="4.1164" cy="21.9332" r="2.518" gradientTransform="matrix(0.9159 0 0 0.9159 21.7114 18.6183)" gradientUnits="userSpaceOnUse">
		<stop  offset="0" style="stop-color:#FCE5E2"/>
		<stop  offset="1" style="stop-color:#ED7A94"/>
	</radialGradient>
	<rect id="XMLID_11_" x="23.2" y="36.4" class="st4" width="4.6" height="4.6"/>
</g>
</svg>
