<?xml version="1.0" encoding="utf-8"?>
<!-- Generator: Adobe Illustrator 19.0.0, SVG Export Plug-In . SVG Version: 6.00 Build 0)  -->
<svg version="1.1" id="图层_1" xmlns="http://www.w3.org/2000/svg" xmlns:xlink="http://www.w3.org/1999/xlink" x="0px" y="0px"
	 viewBox="0 0 34 34" style="enable-background:new 0 0 34 34;" xml:space="preserve">
<style type="text/css">
	.st0{fill-rule:evenodd;clip-rule:evenodd;fill:#FCE5E8;}
	.st1{fill:none;stroke:#EB6585;stroke-width:0.87;stroke-linecap:round;stroke-linejoin:round;}
	.st2{opacity:0.1892;enable-background:new    ;}
	.st3{clip-path:url(#XMLID_2_);}
	.st4{clip-path:url(#XMLID_3_);fill-rule:evenodd;clip-rule:evenodd;fill:#E8456C;}
	.st5{clip-path:url(#XMLID_4_);}
	.st6{clip-path:url(#XMLID_5_);fill-rule:evenodd;clip-rule:evenodd;fill:#E8456C;}
	.st7{fill-rule:evenodd;clip-rule:evenodd;fill:#FFFFFF;}
	.st8{fill-rule:evenodd;clip-rule:evenodd;fill:#E8456C;}
</style>
<path id="XMLID_633_" class="st0" d="M26.6,4.1L26.6,4.1c3.2,3.2,3.2,8.4,0,11.6L18.2,24c-3.2,3.2-8.4,3.2-11.6,0
	c-3.2-3.2-3.2-8.4,0-11.6L15,4.1C18.2,0.9,23.4,0.9,26.6,4.1"/>
<path id="XMLID_632_" class="st1" d="M26.6,4.1L26.6,4.1c3.2,3.2,3.2,8.4,0,11.6L18.2,24c-3.2,3.2-8.4,3.2-11.6,0
	c-3.2-3.2-3.2-8.4,0-11.6L15,4.1C18.2,0.9,23.4,0.9,26.6,4.1z"/>
<g id="XMLID_626_" class="st2">
	<g id="XMLID_627_">
		<defs>
			<rect id="XMLID_628_" x="7.5" y="21.1" width="5.1" height="5.1"/>
		</defs>
		<clipPath id="XMLID_2_">
			<use xlink:href="#XMLID_628_"  style="overflow:visible;"/>
		</clipPath>
		<g id="XMLID_629_" class="st3">
			<defs>
				<rect id="XMLID_630_" x="7.6" y="21.4" width="4.7" height="4.7"/>
			</defs>
			<clipPath id="XMLID_3_">
				<use xlink:href="#XMLID_630_"  style="overflow:visible;"/>
			</clipPath>
			<path id="XMLID_631_" class="st4" d="M11.7,22.1c0.9,0.9,0.9,2.4,0,3.3c-0.9,0.9-2.4,0.9-3.3,0c-0.9-0.9-0.9-2.4,0-3.3
				C9.3,21.2,10.8,21.2,11.7,22.1"/>
		</g>
	</g>
</g>
<g id="XMLID_620_" class="st2">
	<g id="XMLID_621_">
		<defs>
			<rect id="XMLID_622_" x="19.5" y="2.3" width="5.1" height="4.3"/>
		</defs>
		<clipPath id="XMLID_4_">
			<use xlink:href="#XMLID_622_"  style="overflow:visible;"/>
		</clipPath>
		<g id="XMLID_623_" class="st5">
			<defs>
				<rect id="XMLID_624_" x="20.1" y="2.6" width="3.8" height="3.8"/>
			</defs>
			<clipPath id="XMLID_5_">
				<use xlink:href="#XMLID_624_"  style="overflow:visible;"/>
			</clipPath>
			<path id="XMLID_625_" class="st6" d="M23.3,3.1c0.7,0.7,0.7,1.9,0,2.7c-0.7,0.7-1.9,0.7-2.7,0c-0.7-0.7-0.7-1.9,0-2.7
				C21.4,2.4,22.6,2.4,23.3,3.1"/>
		</g>
	</g>
</g>
<path id="XMLID_619_" class="st7" d="M23.8,14.4c-2.1,2.1-5.5,2.1-7.6,0c-2.1-2.1-2.1-5.5,0-7.6c2.1-2.1,5.5-2.1,7.6,0
	C25.8,8.9,25.8,12.3,23.8,14.4"/>
<path id="XMLID_618_" class="st1" d="M23.8,14.4c-2.1,2.1-5.5,2.1-7.6,0c-2.1-2.1-2.1-5.5,0-7.6c2.1-2.1,5.5-2.1,7.6,0
	C25.8,8.9,25.8,12.3,23.8,14.4"/>
<path id="XMLID_617_" class="st8" d="M21.3,13.7c-0.8,0.8-2.1,0.8-2.9,0c-0.8-0.8-0.8-2.1,0-2.9c0.8-0.8,2.1-0.8,2.9,0
	C22.1,11.6,22.1,12.9,21.3,13.7"/>
<path id="XMLID_616_" class="st7" d="M20.9,10.1c0.6,0.6,0.6,1.6,0,2.2c-0.6,0.6-1.6,0.6-2.2,0c-0.6-0.6-0.6-1.6,0-2.2
	C19.3,9.4,20.3,9.4,20.9,10.1"/>
<path id="XMLID_615_" class="st7" d="M14.8,22.2l-6.5-6.5c-0.6-0.6-0.6-1.6,0-2.2L8.8,13c0.6-0.6,1.6-0.6,2.2,0l6.5,6.5
	c0.6,0.6,0.6,1.6,0,2.2l-0.5,0.5C16.3,22.8,15.4,22.8,14.8,22.2"/>
<path id="XMLID_614_" class="st1" d="M14.8,22.2l-6.5-6.5c-0.6-0.6-0.6-1.6,0-2.2L8.8,13c0.6-0.6,1.6-0.6,2.2,0l6.5,6.5
	c0.6,0.6,0.6,1.6,0,2.2l-0.5,0.5C16.3,22.8,15.4,22.8,14.8,22.2"/>
<path id="XMLID_613_" class="st8" d="M10.2,17.6l-1.3-1.3l0.4-0.4c0.3-0.3,0.8-0.3,1.1,0l0.2,0.2c0.3,0.3,0.3,0.8,0,1.1L10.2,17.6z"
	/>
<path id="XMLID_612_" class="st8" d="M14.5,21.9l-1.3-1.3l0.4-0.4c0.3-0.3,0.8-0.3,1.1,0l0.2,0.2c0.3,0.3,0.3,0.8,0,1.1L14.5,21.9z"
	/>
<path id="XMLID_611_" class="st8" d="M12.4,19.8L11,18.4l0.9-0.9c0.3-0.3,0.8-0.3,1.1,0l0.2,0.2c0.3,0.3,0.3,0.8,0,1.1L12.4,19.8z"
	/>
<line id="XMLID_610_" class="st1" x1="26.7" y1="3.8" x2="27.8" y2="2.6"/>
<line id="XMLID_567_" class="st1" x1="29.1" y1="9.6" x2="30.8" y2="9.6"/>
<line id="XMLID_566_" class="st1" x1="22" y1="0.7" x2="20.4" y2="0.7"/>
<line id="XMLID_565_" class="st1" x1="3.2" y1="18.1" x2="3.2" y2="19.7"/>
<line id="XMLID_564_" class="st1" x1="27.1" y1="15.3" x2="28.3" y2="16.5"/>
<line id="XMLID_557_" class="st1" x1="14.2" y1="2.3" x2="15.4" y2="3.5"/>
<line id="XMLID_556_" class="st1" x1="23" y1="19.5" x2="24.1" y2="20.7"/>
<line id="XMLID_555_" class="st1" x1="10.1" y1="6.5" x2="11.3" y2="7.7"/>
<line id="XMLID_554_" class="st1" x1="18.2" y1="24.3" x2="19.4" y2="25.4"/>
<line id="XMLID_540_" class="st1" x1="5.3" y1="11.2" x2="6.5" y2="12.4"/>
<path id="XMLID_537_" class="st1" d="M8.3,29.2c-0.9,0.9-2.4,0.9-3.3,0c-0.9-0.9-0.9-2.4,0-3.3l1.6-1.6 M8.2,29.3l0.2-0.2
	c0.9-0.9,2.4-0.9,3.3,0c0.9,0.9,0.9,2.4,0,3.3l-1,1"/>
</svg>
