<?xml version="1.0" encoding="utf-8"?>
<!-- Generator: Adobe Illustrator 19.0.0, SVG Export Plug-In . SVG Version: 6.00 Build 0)  -->
<svg version="1.1" id="图层_1" xmlns="http://www.w3.org/2000/svg" xmlns:xlink="http://www.w3.org/1999/xlink" x="0px" y="0px"
	 viewBox="0 0 51 51" style="enable-background:new 0 0 51 51;" xml:space="preserve">
<style type="text/css">
	.st0{fill:#FCEAEE;}
	.st1{clip-path:url(#XMLID_8_);fill:url(#XMLID_10_);}
	.st2{clip-path:url(#XMLID_12_);fill:url(#XMLID_13_);}
	.st3{clip-path:url(#XMLID_14_);fill:url(#XMLID_15_);}
</style>
<path id="XMLID_114_" class="st0" d="M45.4,51H5.7C2.6,51,0,48.5,0,45.4V5.7C0,2.6,2.6,0,5.7,0h39.7C48.5,0,51,2.6,51,5.7v39.7
	C51,48.5,48.5,51,45.4,51z"/>
<g id="XMLID_4_">
	<defs>
		<path id="XMLID_1182_" d="M24.1,16.4c-1.2,0-2.3,0.5-3.1,1.4c-1.4,1.5-2.8,3.1-4.2,4.7c-0.4,0.4-0.3,0.7,0,1.1
			c0.3,0.4,0.7,0.7,1.1,1.1c0.6,0.6,0.8,0.5,1.4-0.1c0.9-1,1.7-2,2.6-3c0,0,0.1,0,0.1,0v0.5c0,4.7,0,9.5,0,14.2
			c0,0.7,0.2,0.9,0.9,0.9c0.4,0,0.9,0,1.3,0c0.8,0,1-0.2,1-1c0-2.7,0-5.3,0-8c0-0.3,0.1-0.5,0.4-0.5c0.4,0,0.3,0.3,0.3,0.5
			c0,2.7,0,5.4,0,8.1c0,0.7,0.2,0.9,0.9,0.9c0.4,0,0.9,0,1.3,0c0.8,0,1-0.2,1-1c0-4.7,0-9.4,0-14.1c0-0.2,0-0.3,0-0.5
			c0.1,0,0.2,0.1,0.2,0.2c0.8,1,1.7,1.9,2.5,2.9c0.4,0.5,0.7,0.5,1.2,0.1c0.4-0.4,0.8-0.8,1.1-1.2c0.4-0.5,0.4-0.7,0-1.2
			c-1.3-1.5-2.7-3.1-4.1-4.6c-0.7-0.8-1.6-1.3-2.7-1.4c-0.5-0.1-1.1-0.1-1.6-0.1C25.2,16.3,24.7,16.3,24.1,16.4"/>
	</defs>
	<clipPath id="XMLID_8_">
		<use xlink:href="#XMLID_1182_"  style="overflow:visible;"/>
	</clipPath>
	
		<radialGradient id="XMLID_10_" cx="4.8979" cy="7.5247" r="18.9167" gradientTransform="matrix(0.4716 0 0 0.6099 23.2017 22.5413)" gradientUnits="userSpaceOnUse">
		<stop  offset="0" style="stop-color:#FCE5E8"/>
		<stop  offset="1" style="stop-color:#F091A7"/>
	</radialGradient>
	<rect id="XMLID_3_" x="16.6" y="15.6" class="st1" width="17.8" height="23.1"/>
</g>
<g id="XMLID_2_">
	<defs>
		<path id="XMLID_1171_" d="M30.6,33.5c-0.1,0.7,0.2,1.2,0.9,1.3c0.1,0,0.3,0.1,0.4,0.1c1.3,0.2,2.5,0.6,3.7,1.2
			c0.3,0.2,0.6,0.4,0.9,0.6c0.4,0.4,0.4,0.8,0,1.2c-0.3,0.3-0.7,0.5-1.1,0.7c-3.2,1.4-6.7,1.6-10.1,1.6c-1,0-1.9,0-2.9-0.1
			c-1.9-0.2-3.9-0.5-5.7-1.2c-0.6-0.2-1.3-0.5-1.8-1c-0.5-0.4-0.5-0.8-0.1-1.2c0.4-0.4,0.9-0.7,1.5-0.9c1.1-0.5,2.3-0.7,3.5-1
			c0.6-0.1,0.9-0.7,0.8-1.2c-0.1-0.6-0.6-0.9-1.2-0.8c-1.5,0.2-2.9,0.6-4.3,1.3c-0.7,0.3-1.4,0.7-1.9,1.3c-0.8,0.9-1,2-0.5,3
			c0.3,0.6,0.7,1,1.3,1.4c0.9,0.7,2,1.1,3.1,1.4c2.8,0.9,5.8,1.1,8.9,1.1c1.5,0,3.3-0.1,5-0.3c2-0.3,3.9-0.7,5.7-1.7
			c0.7-0.3,1.2-0.8,1.7-1.4c0.8-0.9,0.8-2,0.2-3c-0.4-0.6-0.9-1-1.4-1.4c-0.7-0.5-1.5-0.8-2.3-1.1c-0.9-0.3-1.8-0.5-2.8-0.7
			c-0.1,0-0.2,0-0.3,0C31.1,32.6,30.7,33,30.6,33.5"/>
	</defs>
	<clipPath id="XMLID_12_">
		<use xlink:href="#XMLID_1171_"  style="overflow:visible;"/>
	</clipPath>
	
		<radialGradient id="XMLID_13_" cx="25.4942" cy="34.7202" r="18.9167" gradientTransform="matrix(0.7043 0 0 0.4978 7.5484 21.2997)" gradientUnits="userSpaceOnUse">
		<stop  offset="0" style="stop-color:#FFFFFF"/>
		<stop  offset="1" style="stop-color:#F091A7"/>
	</radialGradient>
	<rect id="XMLID_1_" x="12.2" y="29.2" class="st2" width="26.6" height="18.8"/>
</g>
<g id="XMLID_6_">
	<defs>
		<path id="XMLID_1160_" d="M22.2,12.1c0,1.9,1.5,3.5,3.3,3.5c1.8,0,3.2-1.5,3.3-3.4c0-1.9-1.4-3.3-3.2-3.4c0,0,0,0,0,0
			C23.7,8.8,22.2,10.3,22.2,12.1"/>
	</defs>
	<clipPath id="XMLID_14_">
		<use xlink:href="#XMLID_1160_"  style="overflow:visible;"/>
	</clipPath>
	
		<radialGradient id="XMLID_15_" cx="-252.2412" cy="-20.3678" r="15.7639" gradientTransform="matrix(0.2248 0 0 0.2248 82.209 16.7905)" gradientUnits="userSpaceOnUse">
		<stop  offset="0" style="stop-color:#FCE5E8"/>
		<stop  offset="1" style="stop-color:#F091A7"/>
	</radialGradient>
	<rect id="XMLID_5_" x="22" y="8.7" class="st3" width="7.1" height="7.1"/>
</g>
</svg>
