<?xml version="1.0" encoding="utf-8"?>
<!-- Generator: Adobe Illustrator 19.0.0, SVG Export Plug-In . SVG Version: 6.00 Build 0)  -->
<svg version="1.1" id="图层_1" xmlns="http://www.w3.org/2000/svg" xmlns:xlink="http://www.w3.org/1999/xlink" x="0px" y="0px"
	 viewBox="0 0 51 51" style="enable-background:new 0 0 51 51;" xml:space="preserve">
<style type="text/css">
	.st0{opacity:0.1;fill:#E8456C;}
	.st1{clip-path:url(#XMLID_8_);fill:url(#XMLID_9_);}
	.st2{clip-path:url(#XMLID_10_);fill:url(#XMLID_11_);}
	.st3{clip-path:url(#XMLID_12_);fill:url(#XMLID_13_);}
</style>
<path id="XMLID_731_" class="st0" d="M38.6,23.5c-2.7-2.3-5.5-4.5-8.9-3.6c-4.3,1.2-5.2,6.3-10.4,8.1c-4.7,1.6-7-1.5-10.8,0.2
	c-3.4,1.6-5,5.7-5,8.4c0,3.4,2.7,5.1,6.8,7.7c4.6,2.9,7.8,4.9,12.2,3.9c3.8-0.9,4.2-3,9.9-5.5c7.1-3.1,10.4-1.5,12.9-3.6
	C49.8,35.3,43,27.2,38.6,23.5"/>
<g id="XMLID_2_">
	<defs>
		<path id="XMLID_746_" d="M11.9,1.9c-0.5,0-0.6,0.2-0.6,0.7c0,0.8,0,1.6,0,2.4c0,1.4,0,2.8,0,4.2c0,0.2,0.1,0.6-0.3,0.5
			c-0.3-0.1-0.7-0.2-0.8-0.6C10,8.6,9.8,8.2,9.7,7.8C9.1,6.4,8.5,5.1,7.5,3.9C7.4,3.8,7.2,3.5,7,3.6C6.4,3.8,5.9,3.8,5.3,3.8
			c-0.3,0-0.5,0-0.8,0C4.2,3.8,4.1,4,4.1,4.3C4,5.2,4.1,6.1,4.8,6.8c0.3,0.3,0.6,0.7,0.8,1.1C5.8,8,6,8.2,5.8,8.5
			C5.5,8.3,5.2,8.1,4.9,7.9C4.7,7.8,4.5,7.7,4.3,7.7c-0.7,0-1.5,0-2.2,0c-0.4,0-0.5,0.1-0.5,0.5c0,0.7,0,1.5,0,2.2
			c0,0.1,0,0.4,0.1,0.4C2.5,11,3,11.7,3.9,11.7C5,11.8,6,12,7.2,12.2C7,12.3,7,12.4,6.9,12.5c-1.6,1.8-2.2,3.9-1.9,6.2
			c0.1,0.9,0.2,0.9,1.1,1c1.4,0.1,2.8,0.1,4.2,0.1c0.5,0,0.7,0.2,0.8,0.6c0.1,0.5-0.3,0.5-0.6,0.6c-1.4,0.3-2.9,0.7-4.3,0.9
			c-0.5,0.1-0.6,0.3-0.5,0.7c0.3,1.5,0.7,3,1.3,4.4c0.2,0.4,0.4,0.6,0.8,0.5c0.6,0,1.1,0,1.7,0c1,0,1.9,0,2.9-0.1
			c0.1,0,0.2,0,0.2,0.2c-1.4,0-2.8,0.4-4.2,0.5c-0.5,0.1-0.6,0.2-0.4,0.7c0.9,1.9,1.7,3.7,2.6,5.6c0.2,0.4,0.4,0.5,0.8,0.5
			c0.8,0,1.6,0,2.4,0c0,0,0.1,0,0.1,0c0.2,0,0.4,0,0.5,0.2c-0.1,0.2-0.2,0.2-0.3,0.1c0,0,0,0-0.1,0c-0.7,0-1.3,0-2,0.1
			c-0.3,0.1-0.4,0.2-0.2,0.5c0.7,1,1.4,2,2.2,2.9c0.2,0.2,0.3,0.3,0.4-0.1c0.1-0.3,0.3-0.3,0.4-0.1c0.4,0.6,1,0.6,1.7,0.6
			c0.7,0,1.3,0,2,0c0.6,0,1-0.1,1.3-0.8c0.6-1.6,1.1-3.3,1.4-5c0.1-0.8,0.1-0.8-0.7-0.6c-0.6,0.2-1.2,0.4-1.8,0.4
			c-0.1,0-0.3,0-0.3-0.2c0-0.1,0.1-0.1,0.2-0.2c0.7-0.1,1.4-0.6,2.1-0.6c0.2,0,0.3-0.1,0.3-0.3c0-0.6,0.4-1.1,0.4-1.7
			c0.2-1.8,0.2-3.7,0.3-5.5c0-0.5-0.2-0.6-0.6-0.5c-1,0.3-2.1,0.6-3.1,0.9c-0.3,0.1-0.7,0.1-1,0.1c0.2-0.2,0.4-0.2,0.6-0.3
			c1.4-0.4,2.6-1,3.8-1.8c0.2-0.2,0.4-0.3,0.4-0.7c-0.1-1.6-0.3-3.1-0.6-4.7c-0.1-0.5-0.3-0.6-0.8-0.5c-1.4,0.3-2.8,0.6-4.2,0.9
			c-0.2,0-0.5,0.3-0.7-0.1c-0.1-0.4,0.3-0.4,0.4-0.5c1.4-0.6,2.7-1.3,4-2c0.5-0.3,0.6-0.6,0.5-1.1c-0.7-2.2-2-3.9-4.1-4.9
			c-0.2-0.1-0.5-0.1-0.5-0.3c0-0.2,0.3-0.3,0.5-0.4c1-0.6,2-1.3,2.9-2c0.7-0.6,0.9-1.2,0.9-2c0-0.4-0.2-0.6-0.6-0.6
			c-0.7,0-1.4,0-2.1,0c-0.6,0-0.9,0.2-1.3,0.6c-0.3,0.4-0.6,1-0.9,1.4c0-0.5,0.1-1,0.3-1.5c0.1-0.4,0-0.6-0.4-0.6
			c-0.4,0-0.8-0.1-1.2-0.1c-0.6,0-0.9-0.3-0.8-1c0-0.1,0-0.2,0-0.2c0-1,0-1.1-0.8-1.1C12.1,1.9,12,1.9,11.9,1.9"/>
	</defs>
	<clipPath id="XMLID_8_">
		<use xlink:href="#XMLID_746_"  style="overflow:visible;"/>
	</clipPath>
	<linearGradient id="XMLID_9_" gradientUnits="userSpaceOnUse" x1="0.923" y1="20.5569" x2="22.25" y2="20.5569">
		<stop  offset="0" style="stop-color:#F9D2D4"/>
		<stop  offset="1" style="stop-color:#F091A0"/>
	</linearGradient>
	<rect id="XMLID_1_" x="0.9" y="0.7" class="st1" width="21.3" height="39.7"/>
</g>
<g id="XMLID_5_">
	<defs>
		<path id="XMLID_738_" d="M43,22.3c1-0.3,2.7,0.4,3.2,1.9c0.5,1.5-0.4,3.1-1.5,3.5C46.7,26.2,45.6,22.6,43,22.3 M28.6,21.6
			c1.2-1.2,3.4-1.3,4.7-0.3c-1.6-0.7-3.1-0.6-4.4,0.7c-1.3,1.3-1.4,2.7-0.7,4.3C27.2,25.2,27.2,23,28.6,21.6 M33.5,16.3
			c-1,0.1-2,0.2-3,0.6c-1.1,0.4-1.9,1-2.2,2.2c-0.1,0.5-0.1,0.4-0.6,0.4c-1,0-1.9,0.3-2.4,1.2c-0.3,0.6-0.3,1.3-0.3,1.9
			c0,0.2,0,0.3-0.3,0.4c-0.3,0.1-0.6,0.3-0.9,0.5c-1.1,0.8-1.4,2.3-1,3.5c0.5,1.5,1.6,2.4,3.1,2.9c0.9,0.3,1.8,0.2,2.7-0.3
			c0.6-0.4,1-0.9,1.4-1.5c0.3-0.5,0.4-1,0.7-1.4c0,0.1,0.1,0.2,0.1,0.2c0.9,1.8,2.1,3.2,4.1,3.6c1.8,0.4,3.5,0.1,5-0.8
			c0.8-0.5,1.4-1.1,1.7-2c0.1-0.1,0.1-0.2,0.2-0.4c0,0.2,0,0.2,0.1,0.3c0.2,0.9,0.5,1.7,1,2.4c0.7,0.8,1.5,1.1,2.6,1
			c0.9-0.1,1.7-0.5,2.4-0.9c1-0.6,1.5-1.5,1.5-2.7c0-1-1.1-2.7-2.1-2.8c-0.1,0-0.2-0.1-0.1-0.2c0.1-0.3,0.1-0.5,0.2-0.8
			c0.2-1.5-0.5-2.6-2-3c-0.3-0.1-0.7-0.1-1-0.2c-0.2,0-0.3-0.1-0.4-0.3c-0.3-0.6-0.6-1-1-1.5c-1.6-1.6-3.5-2.3-5.7-2.5
			c-0.6-0.1-1.1-0.1-1.7-0.1C34.9,16.2,34.2,16.2,33.5,16.3"/>
	</defs>
	<clipPath id="XMLID_10_">
		<use xlink:href="#XMLID_738_"  style="overflow:visible;"/>
	</clipPath>
	<linearGradient id="XMLID_11_" gradientUnits="userSpaceOnUse" x1="21.977" y1="23.3511" x2="50.3235" y2="23.3511">
		<stop  offset="0" style="stop-color:#F9D2D4"/>
		<stop  offset="1" style="stop-color:#F091A0"/>
	</linearGradient>
	<rect id="XMLID_3_" x="22" y="14" class="st2" width="28.3" height="18.8"/>
</g>
<g id="XMLID_6_">
	<defs>
		<path id="XMLID_733_" d="M30.7,28.2c-0.2,0.4-0.5,0.8-0.7,1.2c-0.1,0.2-0.1,0.3,0,0.5c0.7,0.9,1.2,1.9,1.5,3
			c0.6,1.9,0.7,3.8,0.6,5.8c0,0.2,0,0.3,0.2,0.5c0.4,0.4,0.9,0.7,1.5,0.8c1.1,0.3,2.1,0,3.1-0.4c0.2-0.1,0.4-0.3,0.4-0.5
			c0.3-1.2,0.7-2.3,1.4-3.3c1.1-1.8,2.5-3.2,4.3-4.2c0.2-0.1,0.3-0.1,0.1-0.3c-0.7-0.6-1-1.4-1.2-2.3c0-0.1,0-0.2-0.1-0.2
			c-0.1,0.3-0.2,0.6-0.4,0.9c-0.6,0.8-1.3,1.2-2.2,1.5c-0.2,0.1-0.4,0.2-0.5,0.4c-0.4,0.8-0.9,1.5-1.2,2.3c-0.2,0.4-0.3,0.7-0.5,1.1
			c0-0.1,0-0.2,0-0.2c0.2-0.9,0.4-1.9,0.7-2.8c0.1-0.4,0.1-0.4-0.3-0.4c-0.9,0.1-1.9,0.1-2.8-0.2c-0.2-0.1-0.3,0-0.3,0.2
			c-0.2,1.4-0.4,2.7-0.5,4.2c-0.1-1.6-0.3-3.2-0.7-4.8c0-0.2-0.1-0.3-0.3-0.4c-0.8-0.6-1.4-1.3-1.9-2.2c0-0.1,0-0.2-0.1-0.2h0
			C30.7,28.1,30.7,28.1,30.7,28.2"/>
	</defs>
	<clipPath id="XMLID_12_">
		<use xlink:href="#XMLID_733_"  style="overflow:visible;"/>
	</clipPath>
	<linearGradient id="XMLID_13_" gradientUnits="userSpaceOnUse" x1="21.9768" y1="34.2502" x2="50.3233" y2="34.2502">
		<stop  offset="0" style="stop-color:#F9D2D4"/>
		<stop  offset="1" style="stop-color:#F091A0"/>
	</linearGradient>
	<rect id="XMLID_4_" x="22" y="27.1" class="st3" width="28.3" height="14.2"/>
</g>
</svg>
