<?xml version="1.0" encoding="utf-8"?>
<!-- Generator: Adobe Illustrator 19.0.0, SVG Export Plug-In . SVG Version: 6.00 Build 0)  -->
<svg version="1.1" id="图层_1" xmlns="http://www.w3.org/2000/svg" xmlns:xlink="http://www.w3.org/1999/xlink" x="0px" y="0px"
	 viewBox="0 0 113.4 73.7" style="enable-background:new 0 0 113.4 73.7;" xml:space="preserve">
<style type="text/css">
	.st0{fill:#8BC777;}
	.st1{fill:#90B949;}
	.st2{fill:#649B6F;}
	.st3{clip-path:url(#XMLID_3_);fill:url(#XMLID_4_);}
	.st4{clip-path:url(#XMLID_5_);fill:url(#XMLID_6_);}
	.st5{clip-path:url(#XMLID_7_);fill:url(#XMLID_11_);}
	.st6{clip-path:url(#XMLID_14_);fill:url(#XMLID_15_);}
	.st7{fill:url(#XMLID_31_);}
	.st8{fill:url(#XMLID_32_);}
	.st9{fill:url(#XMLID_34_);}
	.st10{fill:url(#XMLID_35_);}
	.st11{fill:url(#XMLID_36_);}
	.st12{fill:url(#XMLID_37_);}
</style>
<path id="XMLID_27_" class="st0" d="M58.8,25.2l5.7,6.1L58,35.6c3.3,0.2,6.3,0.6,8.8,1.6l3.1-10.1C67.2,26.2,63.5,25.5,58.8,25.2z"
	/>
<path id="XMLID_28_" class="st1" d="M62,30.8l-6.1-5.6c-3.9,0.1-7.6,0.6-11,1.5L47,37.1c3.3-0.8,6.4-1.5,8.8-1.5L62,30.8z"/>
<path id="XMLID_26_" class="st2" d="M58.2,63.4c0,0-5.3,4.5-5.1,4.5c0,0,5.2,5.3,5.2,5.3c18-1.2,31.4-10.7,32.1-22.5
	c0.5-8.8-4.6-18.5-21.1-23.8L66.1,37c9.6,3.5,12.8,8.7,12.1,13.9C77.3,57,70.4,62.5,58.2,63.4z"/>
<path id="XMLID_25_" class="st2" d="M55,63.4l-5.1,4.5l5.1,5.3C36.6,72,23.8,61.9,23.1,50.4C22.5,40.1,29.6,31.8,43.8,27l3.6,9.9
	c-9.3,3.1-13,8.7-12.1,14C36.1,56.6,42.6,62.1,55,63.4z"/>
<g id="XMLID_10_">
	<defs>
		<path id="XMLID_9_" d="M46.1,71.6c-7.2-6.3-16.2-10.5-20-24.1c-1.3-4.7-2.8-11-5.5-20.5c-1.1-3.8-2.8-7.1-4-8.9
			c-0.9-1.4-2-2.4-3-3.2C9.8,12,4.9,11.1,0,11.1c4.4-0.3,8.7,3.6,10.7,7.3c0.9,1.7,2.3,4.7,3.6,10.1c0.9,3.5,2.1,7.4,3.2,11.8
			c1.6,6.2,3.5,11.3,5.9,15.6C29.8,67.3,40.9,70.5,46.1,71.6z"/>
	</defs>
	<clipPath id="XMLID_3_">
		<use xlink:href="#XMLID_9_"  style="overflow:visible;"/>
	</clipPath>
	<linearGradient id="XMLID_4_" gradientUnits="userSpaceOnUse" x1="3.858299e-004" y1="41.3806" x2="46.1499" y2="41.3806">
		<stop  offset="0" style="stop-color:#6FA795"/>
		<stop  offset="1" style="stop-color:#649B6F"/>
	</linearGradient>
	<rect id="XMLID_8_" x="0" y="11.1" class="st3" width="46.1" height="60.5"/>
</g>
<g id="XMLID_13_">
	<defs>
		<path id="XMLID_1_" d="M46.1,71.6c-7.2-6.3-16.2-10.5-20-24.1c-1.3-4.7-2.8-11-5.5-20.5c-1.1-3.8-2.8-7.1-4-8.9
			c-0.9-1.4-2-2.4-3-3.2C9.8,12,4.9,11.1,0,11.1c2.7-1,9.4-1,14.2,0.1c2.1,0.6,4.6,1.3,7,4c2.1,2.5,4,6.3,5,9.6
			c1.2,4.3,3.1,11.2,5.2,19C35.1,57.7,42,67.5,46.1,71.6z"/>
	</defs>
	<clipPath id="XMLID_5_">
		<use xlink:href="#XMLID_1_"  style="overflow:visible;"/>
	</clipPath>
	<linearGradient id="XMLID_6_" gradientUnits="userSpaceOnUse" x1="3.858299e-004" y1="40.6861" x2="46.1499" y2="40.6861">
		<stop  offset="0" style="stop-color:#93BD5B"/>
		<stop  offset="1" style="stop-color:#9BBC4B"/>
	</linearGradient>
	<rect id="XMLID_12_" x="0" y="9.8" class="st4" width="46.1" height="61.9"/>
</g>
<g id="XMLID_19_">
	<defs>
		<path id="XMLID_20_" d="M67.2,71.6c7.2-6.3,16.2-10.5,20-24.1c1.3-4.7,2.8-11,5.5-20.5c1.1-3.8,2.8-7.1,4-8.9c0.9-1.4,2-2.4,3-3.2
			c3.8-2.9,8.7-3.8,13.6-3.7c-4.4-0.3-8.7,3.6-10.7,7.3c-0.9,1.7-2.3,4.7-3.6,10.1c-0.9,3.5-2.1,7.4-3.2,11.8
			c-1.6,6.2-3.5,11.3-5.9,15.6C83.6,67.3,72.5,70.5,67.2,71.6z"/>
	</defs>
	<clipPath id="XMLID_7_">
		<use xlink:href="#XMLID_20_"  style="overflow:visible;"/>
	</clipPath>
	
		<linearGradient id="XMLID_11_" gradientUnits="userSpaceOnUse" x1="-336.0104" y1="41.3806" x2="-289.861" y2="41.3806" gradientTransform="matrix(-1 0 0 1 -222.625 0)">
		<stop  offset="0" style="stop-color:#6FA795"/>
		<stop  offset="1" style="stop-color:#649B6F"/>
	</linearGradient>
	<rect id="XMLID_21_" x="67.2" y="11.1" class="st5" width="46.1" height="60.5"/>
</g>
<g id="XMLID_16_">
	<defs>
		<path id="XMLID_17_" d="M67.2,71.6c7.2-6.3,16.2-10.5,20-24.1c1.3-4.7,2.8-11,5.5-20.5c1.1-3.8,2.8-7.1,4-8.9c0.9-1.4,2-2.4,3-3.2
			c3.8-2.9,8.7-3.8,13.6-3.7c-2.7-1-9.4-1-14.2,0.1c-2.1,0.6-4.6,1.3-7,4c-2.1,2.5-4,6.3-5,9.6c-1.2,4.3-3.1,11.2-5.2,19
			C78.3,57.7,71.4,67.5,67.2,71.6z"/>
	</defs>
	<clipPath id="XMLID_14_">
		<use xlink:href="#XMLID_17_"  style="overflow:visible;"/>
	</clipPath>
	
		<linearGradient id="XMLID_15_" gradientUnits="userSpaceOnUse" x1="-336.0104" y1="40.6861" x2="-289.861" y2="40.6861" gradientTransform="matrix(-1 0 0 1 -222.625 0)">
		<stop  offset="0" style="stop-color:#93BD5B"/>
		<stop  offset="1" style="stop-color:#9BBC4B"/>
	</linearGradient>
	<rect id="XMLID_18_" x="67.2" y="9.8" class="st6" width="46.1" height="61.9"/>
</g>
<linearGradient id="XMLID_31_" gradientUnits="userSpaceOnUse" x1="27.607" y1="31.596" x2="56.6929" y2="31.596">
	<stop  offset="0" style="stop-color:#8FB954"/>
	<stop  offset="1" style="stop-color:#74A842"/>
</linearGradient>
<path id="XMLID_23_" class="st7" d="M55.2,50.1c-1.8-3.6-3.8-10.2-4.9-15.3c-2.5-11-3.9-12.8-4-13.1c-3.4-7-9.7-9.7-18.7-7.9
	c7.8-1.6,14.6-0.8,18.2,3.8c1.9,2.4,3.9,6.2,5.2,11.9c1.1,5.3,2.7,12.5,5.7,19.3L55.2,50.1z"/>
<linearGradient id="XMLID_32_" gradientUnits="userSpaceOnUse" x1="50.9342" y1="35.1485" x2="85.2036" y2="35.1485">
	<stop  offset="0" style="stop-color:#C3D113"/>
	<stop  offset="1" style="stop-color:#CED759"/>
</linearGradient>
<path id="XMLID_29_" class="st8" d="M50.9,56.3c7.9,1.7,15.2,0.7,18-6.7c1.9-5.3,2.4-12.5,4.3-20.9c1.4-7.7,5.4-14.5,12-14.9
	c-18.4-3.4-21.6,8.2-25,25.8C58.5,48.3,54.7,53.4,50.9,56.3z"/>
<linearGradient id="XMLID_34_" gradientUnits="userSpaceOnUse" x1="27.6071" y1="34.7211" x2="85.2036" y2="34.7211">
	<stop  offset="0" style="stop-color:#9DBE52"/>
	<stop  offset="1" style="stop-color:#90BB3D"/>
</linearGradient>
<path id="XMLID_24_" class="st9" d="M50.9,56.3c2.4-1.4,4.6-3.5,6.7-6.3c1.8-2.7,3.8-9.5,4.9-15.3c2.2-11.1,3.9-12.8,4-13.1
	c3.4-7,9.7-9.7,18.7-7.9C77.4,12.3,70.6,13,67,17.7c-1.9,2.4-3.9,6.2-5.2,11.9c-1.1,5.3-2.7,12.5-5.7,19.3c-0.3,0.7-0.7,1.1-0.9,1.2
	c-1.8-3.6-3.8-10.2-4.9-15.3c-2.5-11-3.9-12.8-4-13.1c-3.4-7-9.7-9.7-18.7-7.9c4.4,0,8.6,3.5,10.6,9.6c3.4,10.3,3.1,14.4,4,18.7
	C43.8,49.3,45.3,54.1,50.9,56.3z"/>
<linearGradient id="XMLID_35_" gradientUnits="userSpaceOnUse" x1="34.8671" y1="11.0011" x2="52.4178" y2="11.0011">
	<stop  offset="0" style="stop-color:#AAC467"/>
	<stop  offset="1" style="stop-color:#E3EBA4"/>
</linearGradient>
<path id="XMLID_30_" class="st10" d="M52.4,12.3c-3,1.8-6.9,3-10.8-0.5c-1.7-1.6-3.6-3-6.8-2.8c2.2-1.1,5.5-2,8.9,0.4
	C45.9,11,48.5,12.5,52.4,12.3z"/>
<linearGradient id="XMLID_36_" gradientUnits="userSpaceOnUse" x1="0.7308" y1="11.0011" x2="18.2815" y2="11.0011" gradientTransform="matrix(-1 0 0 1 79.25 0)">
	<stop  offset="0" style="stop-color:#AAC467"/>
	<stop  offset="1" style="stop-color:#E3EBA4"/>
</linearGradient>
<path id="XMLID_22_" class="st11" d="M61,12.3c3,1.8,6.9,3,10.8-0.5c1.7-1.6,3.6-3,6.8-2.8c-2.2-1.1-5.5-2-8.9,0.4
	C67.5,11,64.9,12.5,61,12.3z"/>
<radialGradient id="XMLID_37_" cx="56.4071" cy="7.8171" r="7.2419" gradientTransform="matrix(1 0 0 1 -1.426043e-003 0)" gradientUnits="userSpaceOnUse">
	<stop  offset="0" style="stop-color:#E3E496"/>
	<stop  offset="1" style="stop-color:#90B83D"/>
</radialGradient>
<path id="XMLID_33_" class="st12" d="M49.2,7.8c4.3,0.6,6.7,3,7.2,7.2c0.6-4.3,3-6.7,7.2-7.2c-4.3-0.6-6.7-3-7.2-7.2
	C55.8,4.8,53.4,7.2,49.2,7.8z"/>
</svg>
