<?xml version="1.0" encoding="utf-8"?>
<!-- Generator: Adobe Illustrator 19.0.0, SVG Export Plug-In . SVG Version: 6.00 Build 0)  -->
<svg version="1.1" id="图层_1" xmlns="http://www.w3.org/2000/svg" xmlns:xlink="http://www.w3.org/1999/xlink" x="0px" y="0px"
	 viewBox="0 0 158.7 42.5" style="enable-background:new 0 0 158.7 42.5;" xml:space="preserve">
<style type="text/css">
	.st0{fill:#595758;stroke:#595758;stroke-width:0.5;stroke-miterlimit:10;}
	.st1{fill:#595758;}
	.st2{fill:#8BC777;}
	.st3{fill:#90B949;}
	.st4{fill:#649B6F;}
	.st5{clip-path:url(#XMLID_3_);fill:url(#XMLID_4_);}
	.st6{clip-path:url(#XMLID_5_);fill:url(#XMLID_6_);}
	.st7{clip-path:url(#XMLID_7_);fill:url(#XMLID_30_);}
	.st8{clip-path:url(#XMLID_31_);fill:url(#XMLID_32_);}
	.st9{fill:url(#XMLID_33_);}
	.st10{fill:url(#XMLID_34_);}
	.st11{fill:url(#XMLID_35_);}
	.st12{fill:url(#XMLID_36_);}
	.st13{fill:url(#XMLID_37_);}
	.st14{fill:url(#XMLID_38_);}
</style>
<g id="XMLID_75_">
	<path id="XMLID_76_" class="st0" d="M75.4,2.4c0.3-0.5,0.7-0.5,1,0v5.4h2c0.5,0.3,0.5,0.7,0,1h-2v12c-0.3,0.4-0.7,0.4-1,0v-12h-2.1
		c-0.4-0.3-0.4-0.7,0-1h2.1V2.4z M89.8,13.3v2h2.6c0.5,0.3,0.5,0.7,0,1h-2.6v3.3c0,1.4-1.5,1.7-4.4,1c-0.3-0.4-0.3-0.8,0.2-1
		c2.3,0.8,3.4,0.7,3.3-0.3v-3H78.3c-0.5-0.3-0.5-0.7,0-1h10.5v-2C89.2,12.7,89.5,12.7,89.8,13.3z M85.6,2.4v2h5.1
		c-0.3-0.7-0.7-1.2-1-1.6c0-0.5,0.3-0.7,0.8-0.5c1,1.3,1.7,2.7,2.3,4.1c-0.1,0.7-0.4,0.8-1,0.3l-0.7-1.3h-5.6v1h4.1
		c1.1,0,1.6,0.5,1.5,1.5v6.1c-0.3,0.5-0.7,0.5-1,0v-2h-4.6v2.3c-0.3,0.4-0.7,0.4-1,0V12h-4.3v2.3c-0.5,0.4-0.9,0.4-1,0V7.9
		c0.1-1,0.7-1.5,1.6-1.5h3.6v-1H79c-0.5-0.3-0.5-0.7,0-1h5.6v-2C84.9,2,85.2,2,85.6,2.4z M84.6,7.4h-3.3c-0.7,0-1,0.3-1,1v0.3h4.3
		V7.4z M84.6,9.7h-4.3V11h4.3V9.7z M82.1,16.5c0.9,1,1.6,2,2.3,3c0,0.7-0.3,0.9-0.8,0.7c-0.7-1.1-1.4-2.1-2.3-3.1
		C81.4,16.5,81.7,16.3,82.1,16.5z M89.2,7.4h-3.6v1.3h4.6V8.3C90.3,7.7,89.9,7.4,89.2,7.4z M90.1,9.7h-4.6V11h4.6V9.7z"/>
	<path id="XMLID_85_" class="st0" d="M104.1,14.6l0.2-1c0.4-0.4,0.8-0.4,1,0.2l-0.2,0.8h9c0.5,0.3,0.5,0.7,0,1h-8.5
		c2.3,2.7,5.3,4.3,8.9,4.6c0.4,0.4,0.4,0.8-0.2,1c-4-0.4-7.2-2.1-9.5-5.1c-1.5,3.2-4.6,4.9-9.2,5.1c-0.5-0.3-0.5-0.7,0-1
		c4.2-0.2,6.9-1.8,8.4-4.6h-8.4c-0.4-0.3-0.4-0.7,0-1H104.1z M96.9,4.7c0-1.1,0.6-1.6,1.8-1.6h3.6c0.4-0.4,0.9-1,1.3-1.6
		c0.5-0.3,0.9-0.2,1,0.3c-0.3,0.5-0.7,1-1,1.3h7.2c1.3,0,1.9,0.5,1.8,1.6v8.9c-0.3,0.5-0.7,0.5-1,0V5.1c0.1-0.7-0.2-1-1-1H98.9
		c-0.7,0-1,0.3-1,1v8.5c-0.3,0.5-0.7,0.5-1,0V4.7z M98.5,9.3c-0.4-0.3-0.4-0.7,0-1h5.6V4.9c0.3-0.5,0.7-0.5,1,0v3.4h5.9
		c0.5,0.3,0.5,0.7,0,1h-5.3c2.5,1.5,4.2,2.7,5.1,3.4c0.2,0.5,0,0.8-0.7,0.8c-1.4-1.1-3.1-2.3-5.1-3.6v2.6c-0.3,0.5-0.7,0.5-1,0v-2.5
		c-1.6,1.5-3.3,2.7-4.9,3.4c-0.7,0-0.8-0.3-0.5-0.8c1.7-0.9,3.4-2,4.9-3.4H98.5z M102,8c-0.5-0.7-1.2-1.4-2-2.3
		c-0.1-0.5,0.1-0.8,0.7-0.7c0.8,0.8,1.4,1.5,2,2.3C102.7,7.9,102.5,8.1,102,8z M108.7,5.1c0.7-0.2,0.9,0,0.8,0.7
		c-0.7,0.9-1.4,1.6-2.1,2.3c-0.5,0.2-0.8,0.1-0.8-0.5C107.3,6.8,108.1,5.9,108.7,5.1z"/>
	<path id="XMLID_91_" class="st0" d="M122,13.3c0.5-0.3,0.8-0.2,0.8,0.5c-1,2.1-2.5,4.3-4.6,6.6c-0.7,0.2-0.9,0-0.8-0.7
		C119.3,17.8,120.8,15.7,122,13.3z M118.1,7.7c1.5,0.8,2.9,1.6,4.1,2.5c0.3,0.7,0.2,0.9-0.5,0.8c-1.2-0.8-2.6-1.6-4.1-2.5
		C117.4,8,117.5,7.7,118.1,7.7z M118.6,2.4c1.4,0.9,2.6,1.7,3.6,2.5c0.2,0.5,0.1,0.8-0.5,0.8c-1.4-1-2.6-1.8-3.6-2.5
		C117.8,2.7,117.9,2.4,118.6,2.4z M125.5,2.8h9.7c0.4,0.3,0.4,0.7,0,1h-9.5c-0.7,0-1,0.3-1,1v13.5c0,0.8,0.3,1.1,1,1h10.2
		c0.4,0.3,0.4,0.7,0,1h-10.3c-1.2,0.1-1.8-0.4-1.8-1.6V4.7C123.7,3.4,124.3,2.8,125.5,2.8z"/>
	<path id="XMLID_96_" class="st0" d="M139.9,3.4h6.4c0.4,0.3,0.4,0.7,0,1h-2.5V10h2.3c0.4,0.3,0.4,0.7,0,1h-2.3v5.7
		c0.9-0.3,1.9-0.9,3-1.6c0.7-0.1,0.9,0.2,0.7,0.8c-2.4,1.5-5,2.7-7.9,3.6c-0.5-0.1-0.7-0.4-0.3-1c0.8-0.2,2-0.7,3.6-1.3V11h-3.1
		c-0.4-0.3-0.4-0.7,0-1h3.1V4.4h-3C139.4,4.1,139.4,3.8,139.9,3.4z M150.1,1.8c0.4-0.4,0.8-0.4,1,0.2c-0.1,0.8-0.3,1.7-0.5,2.8h2.8
		c1.4,0,2.1,0.5,2,1.6c0,0.8-0.3,2.2-1,4.3c1.1,3.9,2.5,7.1,4.1,9.4c0.1,0.8-0.2,1-0.8,0.7c-1.6-2.4-3-5.2-3.9-8.5
		c-1.6,3.5-4,6.3-7.1,8.4c-0.7,0-0.8-0.3-0.5-0.8c4.7-3.7,7.4-8.1,8.2-13.1c0-0.5-0.3-0.8-1-0.8h-3.1c-0.5,2.2-1.4,4.3-2.6,6.2
		c-0.5,0.2-0.8,0.1-0.8-0.5C148.5,8.8,149.5,5.6,150.1,1.8z"/>
</g>
<g id="XMLID_57_">
	<path id="XMLID_58_" class="st1" d="M75.6,39.9V27h4.8c1,0,1.8,0.1,2.4,0.4s1.1,0.7,1.4,1.2s0.5,1.1,0.5,1.7c0,0.6-0.1,1.1-0.4,1.6
		c-0.3,0.5-0.8,0.9-1.4,1.2c0.8,0.2,1.4,0.6,1.8,1.2s0.6,1.2,0.6,2c0,0.6-0.1,1.2-0.4,1.7S84.4,38.7,84,39s-0.8,0.5-1.4,0.6
		s-1.3,0.2-2.1,0.2H75.6z M77.3,32.4h2.8c0.8,0,1.3,0,1.6-0.1c0.4-0.1,0.8-0.3,1-0.6s0.3-0.7,0.3-1.1c0-0.4-0.1-0.8-0.3-1.1
		s-0.5-0.5-0.9-0.7s-1-0.2-2-0.2h-2.6V32.4z M77.3,38.3h3.2c0.6,0,0.9,0,1.2-0.1c0.4-0.1,0.7-0.2,1-0.4s0.5-0.4,0.7-0.7
		s0.3-0.7,0.3-1.1c0-0.5-0.1-0.9-0.4-1.3s-0.6-0.6-1-0.7s-1.1-0.2-1.9-0.2h-3V38.3z"/>
	<path id="XMLID_62_" class="st1" d="M88.3,39.9V27H90v12.9H88.3z"/>
	<path id="XMLID_64_" class="st1" d="M92.9,33.6c0-2.1,0.6-3.8,1.7-5s2.6-1.8,4.4-1.8c1.2,0,2.3,0.3,3.2,0.9s1.7,1.4,2.2,2.4
		s0.8,2.2,0.8,3.5c0,1.3-0.3,2.5-0.8,3.5s-1.3,1.8-2.2,2.3s-2,0.8-3.1,0.8c-1.2,0-2.3-0.3-3.3-0.9s-1.7-1.4-2.2-2.4
		S92.9,34.7,92.9,33.6z M94.6,33.6c0,1.6,0.4,2.8,1.3,3.7s1.9,1.3,3.1,1.3c1.3,0,2.3-0.5,3.2-1.4s1.2-2.2,1.2-3.8c0-1-0.2-2-0.5-2.7
		s-0.9-1.4-1.6-1.8s-1.4-0.6-2.3-0.6c-1.2,0-2.2,0.4-3.1,1.2S94.6,31.7,94.6,33.6z"/>
	<path id="XMLID_67_" class="st1" d="M107.8,39.9V27h1.7v5.3h6.7V27h1.7v12.9h-1.7v-6.1h-6.7v6.1H107.8z"/>
	<path id="XMLID_69_" class="st1" d="M129.6,27h1.7v7.4c0,1.3-0.1,2.3-0.4,3.1s-0.8,1.4-1.6,1.9c-0.8,0.5-1.8,0.7-3,0.7
		c-1.2,0-2.2-0.2-3-0.6s-1.3-1-1.6-1.8s-0.5-1.9-0.5-3.2V27h1.7v7.4c0,1.1,0.1,1.9,0.3,2.5s0.6,0.9,1.1,1.2s1.1,0.4,1.9,0.4
		c1.3,0,2.1-0.3,2.7-0.9s0.8-1.7,0.8-3.3V27z"/>
	<path id="XMLID_71_" class="st1" d="M140.5,34.8v-1.5l5.5,0v4.8c-0.8,0.7-1.7,1.2-2.6,1.5s-1.8,0.5-2.7,0.5c-1.3,0-2.4-0.3-3.4-0.8
		c-1-0.5-1.8-1.3-2.3-2.4s-0.8-2.2-0.8-3.4c0-1.3,0.3-2.4,0.8-3.5s1.3-1.9,2.3-2.4s2.1-0.8,3.4-0.8c0.9,0,1.8,0.2,2.5,0.5
		s1.3,0.7,1.8,1.3s0.8,1.2,1,2.1l-1.5,0.4c-0.2-0.7-0.4-1.2-0.7-1.5s-0.7-0.7-1.2-0.9s-1.1-0.3-1.8-0.3c-0.8,0-1.5,0.1-2,0.4
		s-1,0.5-1.4,0.9c-0.3,0.4-0.6,0.8-0.8,1.3c-0.3,0.8-0.5,1.7-0.5,2.6c0,1.1,0.2,2.1,0.6,2.9c0.4,0.8,1,1.3,1.7,1.7s1.6,0.6,2.4,0.6
		c0.7,0,1.5-0.1,2.2-0.4s1.2-0.6,1.6-0.9v-2.4H140.5z"/>
	<path id="XMLID_73_" class="st1" d="M148.9,39.9V27h9.3v1.5h-7.6v3.9h7.1v1.5h-7.1v4.4h7.9v1.5H148.9z"/>
</g>
<g id="XMLID_2_">
	<path id="XMLID_29_" class="st2" d="M34.7,14.4l3.4,3.5l-3.9,2.6c1.9,0.1,3.7,0.4,5.1,0.9l1.8-5.9C39.6,15,37.5,14.6,34.7,14.4z"/>
	<path id="XMLID_28_" class="st3" d="M36.6,17.7L33,14.4c-2.3,0-4.4,0.3-6.5,0.9l1.2,6.1c1.9-0.5,3.8-0.9,5.1-0.9L36.6,17.7z"/>
	<path id="XMLID_27_" class="st4" d="M34.3,36.8c0,0-3.1,2.6-3,2.6c0,0,3,3.1,3,3.1c10.5-0.7,18.4-6.3,18.8-13.2
		c0.3-5.2-2.7-10.9-12.3-13.9L39,21.3c5.6,2,7.5,5.1,7.1,8.1C45.6,33.1,41.5,36.3,34.3,36.8z"/>
	<path id="XMLID_26_" class="st4" d="M32.5,36.8l-3,2.6l3,3.1C21.7,41.8,14.2,36,13.8,29.2c-0.3-6.1,3.8-10.9,12.1-13.7l2.1,5.8
		c-5.5,1.8-7.6,5.1-7.1,8.2C21.4,32.9,25.2,36.1,32.5,36.8z"/>
	<g id="XMLID_23_">
		<defs>
			<path id="XMLID_24_" d="M27.3,41.6c-4.2-3.7-9.5-6.1-11.7-14.1c-0.8-2.8-1.6-6.5-3.2-12c-0.6-2.2-1.6-4.2-2.3-5.2
				C9.5,9.4,8.8,8.8,8.2,8.4C6,6.7,3.2,6.2,0.3,6.2C2.8,6,5.4,8.3,6.5,10.4c0.5,1,1.3,2.7,2.1,5.9c0.5,2.1,1.2,4.3,1.9,6.9
				c1,3.6,2.1,6.6,3.4,9.1C17.7,39.1,24.2,41,27.3,41.6z"/>
		</defs>
		<clipPath id="XMLID_3_">
			<use xlink:href="#XMLID_24_"  style="overflow:visible;"/>
		</clipPath>
		<linearGradient id="XMLID_4_" gradientUnits="userSpaceOnUse" x1="0.2579" y1="23.9149" x2="27.3048" y2="23.9149">
			<stop  offset="0" style="stop-color:#6FA795"/>
			<stop  offset="1" style="stop-color:#649B6F"/>
		</linearGradient>
		<rect id="XMLID_25_" x="0.3" y="6.2" class="st5" width="27" height="35.4"/>
	</g>
	<g id="XMLID_20_">
		<defs>
			<path id="XMLID_21_" d="M27.3,41.6c-4.2-3.7-9.5-6.1-11.7-14.1c-0.8-2.8-1.6-6.5-3.2-12c-0.6-2.2-1.6-4.2-2.3-5.2
				C9.5,9.4,8.8,8.8,8.2,8.4C6,6.7,3.2,6.2,0.3,6.2c1.6-0.6,5.5-0.6,8.3,0.1c1.2,0.3,2.7,0.7,4.1,2.4c1.2,1.5,2.4,3.7,2.9,5.6
				c0.7,2.5,1.8,6.6,3,11.2C20.8,33.5,24.9,39.2,27.3,41.6z"/>
		</defs>
		<clipPath id="XMLID_5_">
			<use xlink:href="#XMLID_21_"  style="overflow:visible;"/>
		</clipPath>
		<linearGradient id="XMLID_6_" gradientUnits="userSpaceOnUse" x1="0.2579" y1="23.5078" x2="27.3048" y2="23.5078">
			<stop  offset="0" style="stop-color:#93BD5B"/>
			<stop  offset="1" style="stop-color:#9BBC4B"/>
		</linearGradient>
		<rect id="XMLID_22_" x="0.3" y="5.4" class="st6" width="27" height="36.3"/>
	</g>
	<g id="XMLID_17_">
		<defs>
			<path id="XMLID_18_" d="M39.7,41.6c4.2-3.7,9.5-6.1,11.7-14.1c0.8-2.8,1.6-6.5,3.2-12c0.6-2.2,1.6-4.2,2.3-5.2
				c0.5-0.8,1.2-1.4,1.8-1.9c2.3-1.7,5.1-2.2,8-2.2c-2.5-0.2-5.1,2.1-6.3,4.3c-0.5,1-1.3,2.7-2.1,5.9c-0.5,2.1-1.2,4.3-1.9,6.9
				c-1,3.6-2.1,6.6-3.4,9.1C49.2,39.1,42.8,41,39.7,41.6z"/>
		</defs>
		<clipPath id="XMLID_7_">
			<use xlink:href="#XMLID_18_"  style="overflow:visible;"/>
		</clipPath>
		
			<linearGradient id="XMLID_30_" gradientUnits="userSpaceOnUse" x1="-245.3346" y1="23.9149" x2="-218.2877" y2="23.9149" gradientTransform="matrix(-1 0 0 1 -178.625 0)">
			<stop  offset="0" style="stop-color:#6FA795"/>
			<stop  offset="1" style="stop-color:#649B6F"/>
		</linearGradient>
		<rect id="XMLID_19_" x="39.7" y="6.2" class="st7" width="27" height="35.4"/>
	</g>
	<g id="XMLID_14_">
		<defs>
			<path id="XMLID_15_" d="M39.7,41.6c4.2-3.7,9.5-6.1,11.7-14.1c0.8-2.8,1.6-6.5,3.2-12c0.6-2.2,1.6-4.2,2.3-5.2
				c0.5-0.8,1.2-1.4,1.8-1.9c2.3-1.7,5.1-2.2,8-2.2c-1.6-0.6-5.5-0.6-8.3,0.1c-1.2,0.3-2.7,0.7-4.1,2.4c-1.2,1.5-2.4,3.7-2.9,5.6
				c-0.7,2.5-1.8,6.6-3,11.2C46.2,33.5,42.1,39.2,39.7,41.6z"/>
		</defs>
		<clipPath id="XMLID_31_">
			<use xlink:href="#XMLID_15_"  style="overflow:visible;"/>
		</clipPath>
		
			<linearGradient id="XMLID_32_" gradientUnits="userSpaceOnUse" x1="-245.3346" y1="23.5078" x2="-218.2877" y2="23.5078" gradientTransform="matrix(-1 0 0 1 -178.625 0)">
			<stop  offset="0" style="stop-color:#93BD5B"/>
			<stop  offset="1" style="stop-color:#9BBC4B"/>
		</linearGradient>
		<rect id="XMLID_16_" x="39.7" y="5.4" class="st8" width="27" height="36.3"/>
	</g>
	<linearGradient id="XMLID_33_" gradientUnits="userSpaceOnUse" x1="16.4373" y1="18.1804" x2="33.4837" y2="18.1804">
		<stop  offset="0" style="stop-color:#8FB954"/>
		<stop  offset="1" style="stop-color:#74A842"/>
	</linearGradient>
	<path id="XMLID_13_" class="st9" d="M32.6,29c-1-2.1-2.2-6-2.9-9c-1.5-6.4-2.3-7.5-2.3-7.7c-2-4.1-5.7-5.7-10.9-4.6
		C21,6.8,25,7.3,27.1,10c1.1,1.4,2.3,3.7,3,7c0.7,3.1,1.6,7.3,3.3,11.3L32.6,29z"/>
	<linearGradient id="XMLID_34_" gradientUnits="userSpaceOnUse" x1="30.1087" y1="20.2624" x2="50.193" y2="20.2624">
		<stop  offset="0" style="stop-color:#C3D113"/>
		<stop  offset="1" style="stop-color:#CED759"/>
	</linearGradient>
	<path id="XMLID_12_" class="st10" d="M30.1,32.7c4.6,1,8.9,0.4,10.5-3.9c1.1-3.1,1.4-7.3,2.5-12.2c0.8-4.5,3.2-8.5,7-8.7
		c-10.8-2-12.6,4.8-14.7,15.1C34.6,28,32.3,30.9,30.1,32.7z"/>
	<linearGradient id="XMLID_35_" gradientUnits="userSpaceOnUse" x1="16.4374" y1="20.0119" x2="50.193" y2="20.0119">
		<stop  offset="0" style="stop-color:#9DBE52"/>
		<stop  offset="1" style="stop-color:#90BB3D"/>
	</linearGradient>
	<path id="XMLID_11_" class="st11" d="M30.1,32.7c1.4-0.8,2.7-2.1,3.9-3.7c1.1-1.6,2.2-5.6,2.9-9c1.3-6.5,2.3-7.5,2.3-7.7
		c2-4.1,5.7-5.7,10.9-4.6c-4.6-0.9-8.5-0.5-10.7,2.3c-1.1,1.4-2.3,3.7-3,7c-0.7,3.1-1.6,7.3-3.3,11.3c-0.2,0.4-0.4,0.6-0.5,0.7
		c-1-2.1-2.2-6-2.9-9c-1.5-6.4-2.3-7.5-2.3-7.7c-2-4.1-5.7-5.7-10.9-4.6c2.6,0,5,2.1,6.2,5.6c2,6,1.8,8.4,2.4,11
		C25.9,28.6,26.8,31.4,30.1,32.7z"/>
	<linearGradient id="XMLID_36_" gradientUnits="userSpaceOnUse" x1="20.6923" y1="6.1103" x2="30.9782" y2="6.1103">
		<stop  offset="0" style="stop-color:#AAC467"/>
		<stop  offset="1" style="stop-color:#E3EBA4"/>
	</linearGradient>
	<path id="XMLID_10_" class="st12" d="M31,6.9c-1.8,1.1-4,1.8-6.3-0.3c-1-0.9-2.1-1.8-4-1.7c1.3-0.6,3.2-1.2,5.2,0.3
		C27.2,6.1,28.7,7,31,6.9z"/>
	
		<linearGradient id="XMLID_37_" gradientUnits="userSpaceOnUse" x1="76.9745" y1="6.1103" x2="87.2605" y2="6.1103" gradientTransform="matrix(-1 0 0 1 123.25 0)">
		<stop  offset="0" style="stop-color:#AAC467"/>
		<stop  offset="1" style="stop-color:#E3EBA4"/>
	</linearGradient>
	<path id="XMLID_9_" class="st13" d="M36,6.9c1.8,1.1,4,1.8,6.3-0.3c1-0.9,2.1-1.8,4-1.7c-1.3-0.6-3.2-1.2-5.2,0.3
		C39.8,6.1,38.3,7,36,6.9z"/>
	
		<radialGradient id="XMLID_38_" cx="33.3167" cy="4.2443" r="4.2443" gradientTransform="matrix(1 0 0 1 -1.276319e-003 0)" gradientUnits="userSpaceOnUse">
		<stop  offset="0" style="stop-color:#E3E496"/>
		<stop  offset="1" style="stop-color:#90B83D"/>
	</radialGradient>
	<path id="XMLID_8_" class="st14" d="M29.1,4.2C31.6,4.6,33,6,33.3,8.5c0.3-2.5,1.8-3.9,4.2-4.2c-2.5-0.3-3.9-1.8-4.2-4.2
		C33,2.5,31.6,3.9,29.1,4.2z"/>
</g>
</svg>
