<?xml version="1.0" standalone="no"?><!DOCTYPE svg PUBLIC "-//W3C//DTD SVG 1.1//EN" "http://www.w3.org/Graphics/SVG/1.1/DTD/svg11.dtd"><svg t="1603245354140" class="icon" viewBox="0 0 1024 1024" version="1.1" xmlns="http://www.w3.org/2000/svg" p-id="28905" width="64" height="64" xmlns:xlink="http://www.w3.org/1999/xlink"><defs><style type="text/css"></style></defs><path d="M512 1024c282.774588 0 512-229.225412 512-512S794.774588 0 512 0 0 229.225412 0 512s229.225412 512 512 512z m0-45.176471C254.192941 978.823529 45.176471 769.807059 45.176471 512 45.176471 254.192941 254.192941 45.176471 512 45.176471c257.807059 0 466.823529 209.016471 466.823529 466.823529 0 257.807059-209.016471 466.823529-466.823529 466.823529z" fill="#de335e" p-id="28906"></path><path d="M432.609882 646.324706l314.127059-314.127059a22.588235 22.588235 0 1 1 31.924706 31.954824l-330.089412 330.089411a22.588235 22.588235 0 0 1-31.924706 0L256.903529 534.528a22.588235 22.588235 0 1 1 31.939765-31.954824l143.75153 143.75153z" fill="#de335e" p-id="28907"></path></svg>