<?xml version="1.0" standalone="no"?><!DOCTYPE svg PUBLIC "-//W3C//DTD SVG 1.1//EN" "http://www.w3.org/Graphics/SVG/1.1/DTD/svg11.dtd"><svg t="1603247429053" class="icon" viewBox="0 0 1024 1024" version="1.1" xmlns="http://www.w3.org/2000/svg" p-id="37031" width="64" height="64" xmlns:xlink="http://www.w3.org/1999/xlink"><defs><style type="text/css"></style></defs><path d="M716.8 477.867c-150.562 0-273.067 122.504-273.067 273.066S566.238 1024 716.8 1024s273.067-122.505 273.067-273.067S867.362 477.867 716.8 477.867z m0 477.866c-112.913 0-204.8-91.887-204.8-204.8s91.887-204.8 204.8-204.8 204.8 91.887 204.8 204.8-91.887 204.8-204.8 204.8zM175.787 426.701h31.402v-48.708h34.714v48.674h25.941v36.01h-25.941v20.139c14.848 9.694 26.965 18.534 36.318 26.385l-19.695 30.822a366.694 366.694 0 0 0-16.623-16.725v125.235h-34.714V535.381a359.56 359.56 0 0 1-26.214 55.057 1834.325 1834.325 0 0 0-10.308-50.585c13.653-21.709 24.849-47.446 33.621-77.04h-28.501v-36.146z m88.815 130.39h69.359v-32.974h-53.01V491.11h53.01v-31.983h-58.164v-32.972h37.684a521.182 521.182 0 0 0-21.846-32.768l26.488-17.92c9.489 11.57 19.422 24.37 29.764 38.536l-17.647 12.05h33.212c10.99-17.818 20.685-34.544 28.979-50.313l32.529 14.609c-7.714 12.56-15.258 24.508-22.699 35.806h31.13v32.972h-61.167v31.915h56.252v33.007h-56.32v32.973h71.577v33.007h-71.509v58.3h-38.23v-58.3h-69.427V557.09z" p-id="37032" fill="#dfe2e5"></path><path d="M341.333 887.467h-204.8c-18.807 0-34.133-15.292-34.133-34.134V273.067h682.667v102.4a34.133 34.133 0 0 0 68.266 0V102.4c0-56.49-45.943-102.4-102.4-102.4h-614.4c-56.49 0-102.4 45.91-102.4 102.4v750.933c0 56.457 45.91 102.4 102.4 102.4h204.8a34.133 34.133 0 0 0 0-68.266z m-204.8-819.2h614.4c18.842 0 34.134 15.326 34.134 34.133v102.4H102.4V102.4c0-18.807 15.326-34.133 34.133-34.133z m710.895 623.377l-149.299 153.6a24.85 24.85 0 0 1-36.66 0l-73.352-75.435a26.556 26.556 0 0 1 0-37.751 24.85 24.85 0 0 1 36.694 0l54.988 56.593 130.97-132.028a24.85 24.85 0 0 1 36.66 0c7.85 8.09 7.85 24.235 0 35.02z" p-id="37033" fill="#dfe2e5"></path></svg>