<?xml version="1.0" standalone="no"?><!DOCTYPE svg PUBLIC "-//W3C//DTD SVG 1.1//EN" "http://www.w3.org/Graphics/SVG/1.1/DTD/svg11.dtd"><svg t="1603244558580" class="icon" viewBox="0 0 1024 1024" version="1.1" xmlns="http://www.w3.org/2000/svg" p-id="7326" width="64" height="64" xmlns:xlink="http://www.w3.org/1999/xlink"><defs><style type="text/css"></style></defs><path d="M516.652261 900.640268H161.421921a44.54657 44.54657 0 0 1-41.691021-43.97546V133.63971a44.54657 44.54657 0 0 1 41.691021-46.2599h647.638594a44.54657 44.54657 0 0 1 41.691021 46.2599v432.330173a25.128834 25.128834 0 0 0 20.559955 25.128834 276.988288 276.988288 0 0 1 30.268824 5.711099 23.415505 23.415505 0 0 0 27.984383-19.417736 27.984384 27.984384 0 0 0 0-5.139989V133.63971A127.928611 127.928611 0 0 0 809.060515 0H161.421921A127.357501 127.357501 0 0 0 40.917738 133.63971V856.664808a127.928611 127.928611 0 0 0 120.504183 131.35527h357.51478a24.557724 24.557724 0 0 0 23.415504-25.699944v-33.695483a24.557724 24.557724 0 0 0-23.415504-25.128834z" fill="#de335e" p-id="7327"></path><path d="M622.878697 426.619074H238.521753a35.123257 35.123257 0 1 0 0 70.246514h383.785834a35.123257 35.123257 0 0 0 0-70.246514z m-384.356944 158.197435a35.123257 35.123257 0 1 0 0 70.246514h165.050753a35.123257 35.123257 0 1 0 0-70.246514z m383.785834-310.112661H238.521753a34.837702 34.837702 0 1 0 0 67.962075h383.785834a35.123257 35.123257 0 0 0 0-70.246514z m151.344116 333.528165a207.883993 207.883993 0 1 0 207.883994 207.883994 208.455103 208.455103 0 0 0-207.883994-207.883994z m0 362.654769a153.057446 153.057446 0 1 1 153.057446-153.057446A153.057446 153.057446 0 0 1 773.651703 970.886782z m91.37758-147.917457h-62.822086v-94.233129a28.555494 28.555494 0 1 0-57.110987 0v119.933073a27.413274 27.413274 0 0 0 27.413274 27.413274h91.377579a28.555494 28.555494 0 0 0 0-57.110987z" fill="#de335e" p-id="7328"></path></svg>