<?xml version="1.0" encoding="utf-8"?>
<!-- Generator: Adobe Illustrator 19.0.0, SVG Export Plug-In . SVG Version: 6.00 Build 0)  -->
<svg version="1.1" id="图层_1" xmlns="http://www.w3.org/2000/svg" xmlns:xlink="http://www.w3.org/1999/xlink" x="0px" y="0px"
	 viewBox="0 0 22.7 34" style="enable-background:new 0 0 22.7 34;" xml:space="preserve" transform="translate(90,90)">
<style type="text/css">
	.st0{fill:#F9D2D4;}
</style>
<path id="XMLID_1911_" class="st0" d="M5.8,34c-0.1,0-0.2-0.1-0.3-0.2c-1.8-1.7-3.5-3.4-5.3-5.2c-0.3-0.3-0.1-0.5,0.1-0.7
	c3.1-3.1,6.2-6.2,9.3-9.3c0.5-0.5,0.9-0.9,1.4-1.4c0.3-0.3,0.2-0.4,0-0.7c-3.5-3.5-7-7-10.6-10.6c-0.5-0.5-0.5-0.5,0-1
	c1.7-1.6,3.4-3.2,5-4.9c0.3-0.3,0.5-0.3,0.8,0c4.9,5,9.9,10,14.8,14.9c0.5,0.5,1,1,1.5,1.5c0.3,0.3,0.2,0.4,0,0.7
	c-3,3-5.9,6-8.9,8.9c-2.5,2.5-4.9,5-7.4,7.5C6.1,33.8,6,34,5.8,34"/>
</svg>
