<?xml version="1.0" encoding="utf-8"?>
<!-- Generator: Adobe Illustrator 19.0.0, SVG Export Plug-In . SVG Version: 6.00 Build 0)  -->
<svg version="1.1" id="图层_1" xmlns="http://www.w3.org/2000/svg" xmlns:xlink="http://www.w3.org/1999/xlink" x="0px" y="0px"
	 viewBox="0 0 85 85" style="enable-background:new 0 0 85 85;" xml:space="preserve">
<style type="text/css">
	.st0{clip-path:url(#XMLID_2_);}
	.st1{clip-path:url(#XMLID_3_);fill:#F9D2D4;}
	.st2{clip-path:url(#XMLID_3_);fill:none;stroke:#E8456C;stroke-width:0.25;stroke-miterlimit:10;}
	.st3{clip-path:url(#XMLID_3_);fill:none;stroke:#E8456C;stroke-miterlimit:10;}
	.st4{fill:none;stroke:#E8456C;stroke-miterlimit:10;}
</style>
<g id="XMLID_1940_">
	<defs>
		<path id="XMLID_1941_" d="M0,42.5C0,66,19,85,42.5,85S85,66,85,42.5C85,19,66,0,42.5,0S0,19,0,42.5"/>
	</defs>
	<clipPath id="XMLID_2_">
		<use xlink:href="#XMLID_1941_"  style="overflow:visible;"/>
	</clipPath>
	<g id="XMLID_1942_" class="st0">
		<defs>
			<rect id="XMLID_1943_" x="-243.6" y="-261.5" width="589.1" height="825.5"/>
		</defs>
		<clipPath id="XMLID_3_">
			<use xlink:href="#XMLID_1943_"  style="overflow:visible;"/>
		</clipPath>
		<path id="XMLID_1960_" class="st1" d="M70,86.4H5.5V75.2H70c2.2,0,4-1.8,4-4c0-2.2-1.8-4-4-4H15c-8.3,0-15.1-6.8-15.1-15.2
			c0-8.4,6.8-15.2,15.2-15.2h55c2.2,0,4-1.8,4-4c0-2.2-1.8-4-4-4H15C6.6,29-0.2,22.2-0.2,13.8C-0.2,5.5,6.7-1.3,15-1.3h55V9.9H15
			c-2.1,0-4,1.8-4,4c0,2.1,1.8,4,4,4h55c8.4,0,15.2,6.8,15.2,15.2c0,8.4-6.8,15.1-15.1,15.2H15c-2.2,0-4,1.8-4,4c0,2.1,1.8,4,4,4h55
			c8.4,0,15.2,6.8,15.2,15.2C85.2,79.6,78.4,86.4,70,86.4"/>
		<path id="XMLID_1959_" class="st2" d="M70,86.4H5.5V75.2H70c2.2,0,4-1.8,4-4c0-2.2-1.8-4-4-4H15c-8.3,0-15.1-6.8-15.1-15.2
			c0-8.4,6.8-15.2,15.2-15.2h55c2.2,0,4-1.8,4-4c0-2.2-1.8-4-4-4H15C6.6,29-0.2,22.2-0.2,13.8C-0.2,5.5,6.7-1.3,15-1.3h55V9.9H15
			c-2.1,0-4,1.8-4,4c0,2.1,1.8,4,4,4h55c8.4,0,15.2,6.8,15.2,15.2c0,8.4-6.8,15.1-15.1,15.2H15c-2.2,0-4,1.8-4,4c0,2.1,1.8,4,4,4h55
			c8.4,0,15.2,6.8,15.2,15.2S78.4,86.4,70,86.4z"/>
		<circle id="XMLID_1958_" class="st3" cx="27.1" cy="62.6" r="2.4"/>
		<circle id="XMLID_1957_" class="st3" cx="51.2" cy="3" r="2.4"/>
		<circle id="XMLID_1956_" class="st3" cx="21" cy="23.4" r="1.2"/>
		<circle id="XMLID_1955_" class="st3" cx="26.9" cy="43.4" r="1.2"/>
		<circle id="XMLID_1954_" class="st3" cx="68.8" cy="42.2" r="1.2"/>
		<circle id="XMLID_1953_" class="st3" cx="30.1" cy="40.3" r="1.2"/>
		<circle id="XMLID_1952_" class="st3" cx="76.6" cy="67.5" r="1.2"/>
		<circle id="XMLID_1951_" class="st3" cx="46.6" cy="5.7" r="1.2"/>
		<path id="XMLID_1950_" class="st3" d="M49.3,27.2H38.5c-1.4,0-2.6-1.2-2.6-2.6s1.2-2.6,2.6-2.6h10.8c1.4,0,2.6,1.2,2.6,2.6
			S50.7,27.2,49.3,27.2z"/>
		<path id="XMLID_1949_" class="st3" d="M42.8,45.8h-6.6c-0.9,0-1.6-0.7-1.6-1.6c0-0.9,0.7-1.6,1.6-1.6h6.6c0.9,0,1.6,0.7,1.6,1.6
			C44.4,45.1,43.7,45.8,42.8,45.8z"/>
		<path id="XMLID_1948_" class="st3" d="M60.1,45.4l-6-2.5c-0.8-0.3-1.2-1.3-0.8-2.1c0.3-0.8,1.3-1.2,2.1-0.8l6,2.5
			c0.8,0.3,1.2,1.3,0.8,2.1C61.9,45.3,61,45.7,60.1,45.4z"/>
		<path id="XMLID_1947_" class="st3" d="M75.2,27.6l-6-2.5c-0.8-0.3-1.2-1.3-0.8-2.1c0.3-0.8,1.3-1.2,2.1-0.8l6,2.5
			c0.8,0.3,1.2,1.3,0.8,2.1C77,27.6,76.1,28,75.2,27.6z"/>
		<path id="XMLID_1946_" class="st3" d="M22.2,5.8l-6.5,1c-0.9,0.1-1.7-0.5-1.8-1.3c-0.1-0.9,0.5-1.7,1.3-1.8l6.5-1
			c0.9-0.1,1.7,0.5,1.8,1.3C23.6,4.8,23,5.6,22.2,5.8z"/>
		<path id="XMLID_1945_" class="st3" d="M54.6,65.8l-6-2.5c-0.8-0.3-1.2-1.3-0.8-2.1c0.3-0.8,1.3-1.2,2.1-0.8l6,2.5
			c0.8,0.3,1.2,1.3,0.8,2.1C56.3,65.7,55.4,66.1,54.6,65.8z"/>
		<path id="XMLID_1944_" class="st3" d="M49.4,80l-5.7,3.3c-0.8,0.4-1.7,0.2-2.2-0.6c-0.4-0.8-0.2-1.7,0.6-2.2l5.7-3.3
			c0.8-0.4,1.7-0.2,2.2,0.6C50.4,78.6,50.1,79.6,49.4,80z"/>
	</g>
</g>
<circle id="XMLID_1939_" class="st4" cx="42.5" cy="42.5" r="42.5"/>
</svg>
