<?xml version="1.0" standalone="no"?><!DOCTYPE svg PUBLIC "-//W3C//DTD SVG 1.1//EN" "http://www.w3.org/Graphics/SVG/1.1/DTD/svg11.dtd"><svg t="1603244994338" class="icon" viewBox="0 0 1024 1024" version="1.1" xmlns="http://www.w3.org/2000/svg" p-id="24052" width="64" height="64" xmlns:xlink="http://www.w3.org/1999/xlink"><defs><style type="text/css"></style></defs><path d="M1013.221053 910.821053l-274.863158-431.157895V185.936842c35.031579-2.694737 64.673684-32.336842 64.673684-67.368421 0-37.726316-29.642105-67.368421-67.368421-67.368421h-256c-37.726316 0-67.368421 29.642105-67.368421 67.368421 0 32.336842 24.252632 61.978947 56.589474 64.673684v293.726316L344.926316 673.684211c-5.389474 2.694737-8.084211 5.389474-10.778948 10.778947V347.621053c35.031579-5.389474 64.673684-35.031579 64.673685-70.063158 0-37.726316-35.031579-70.063158-75.452632-70.063158H86.231579C45.810526 207.494737 10.778947 239.831579 10.778947 277.557895c0 35.031579 26.947368 64.673684 64.673685 70.063158v549.726315c0 67.368421 59.284211 121.263158 129.347368 121.263158 10.778947 0 21.557895-2.694737 32.336842-5.389473 2.694737 2.694737 8.084211 5.389474 13.473684 5.389473h706.021053c24.252632 0 45.810526-13.473684 59.28421-35.031579 10.778947-21.557895 10.778947-51.2-2.694736-72.757894zM512 498.526316c2.694737-5.389474 5.389474-10.778947 2.694737-16.168421V161.684211c0-13.473684-10.778947-24.252632-24.252632-24.252632h-13.473684c-10.778947 0-21.557895-8.084211-21.557895-18.863158 0-10.778947 8.084211-18.863158 21.557895-18.863158h256c10.778947 0 21.557895 8.084211 21.557895 18.863158 0 10.778947-8.084211 18.863158-21.557895 18.863158h-21.557895c-13.473684 0-24.252632 10.778947-24.252631 24.252632v317.978947c-2.694737 5.389474 0 13.473684 2.694737 18.863158l110.48421 172.463158H404.210526l107.789474-172.463158zM59.284211 280.252632c0-13.473684 13.473684-21.557895 26.947368-21.557895H323.368421c16.168421 0 26.947368 10.778947 26.947368 21.557895 0 13.473684-13.473684 21.557895-26.947368 21.557894h-13.473684c-13.473684 0-24.252632 10.778947-24.252632 24.252632v245.221053H121.263158v-245.221053c0-13.473684-10.778947-24.252632-24.252632-24.252632h-10.778947c-16.168421 0-26.947368-10.778947-26.947368-21.557894z m61.978947 619.789473V617.094737h164.378947v282.947368c0 40.421053-37.726316 72.757895-80.842105 72.757895-45.810526 0-83.536842-32.336842-83.536842-72.757895z m851.536842 61.978948c-2.694737 2.694737-8.084211 10.778947-16.168421 10.778947H307.2c16.168421-18.863158 26.947368-45.810526 26.947368-72.757895V781.473684l40.421053-61.978947H835.368421l137.431579 218.273684c5.389474 8.084211 2.694737 16.168421 0 24.252632zM194.021053 706.021053H148.210526v-35.031579h48.505263v35.031579zM816.505263 943.157895H754.526316v-45.810527h61.978947V943.157895z m-83.536842-148.210527h-61.978947v-45.810526h61.978947v45.810526z m-226.357895 72.757895h-61.978947v-45.810526h61.978947v45.810526zM194.021053 918.905263H148.210526v-35.031579h48.505263v35.031579zM242.526316 813.810526H194.021053v-35.031579H242.526316v35.031579z m0 0" fill="#5ead1c" p-id="24053"></path></svg>