<?xml version="1.0" standalone="no"?><!DOCTYPE svg PUBLIC "-//W3C//DTD SVG 1.1//EN" "http://www.w3.org/Graphics/SVG/1.1/DTD/svg11.dtd"><svg t="1603245612831" class="icon" viewBox="0 0 1024 1024" version="1.1" xmlns="http://www.w3.org/2000/svg" p-id="30388" width="64" height="64" xmlns:xlink="http://www.w3.org/1999/xlink"><defs><style type="text/css"></style></defs><path d="M511.829333 451.584L329.642667 269.397333a42.666667 42.666667 0 1 0-60.330667 60.330667l182.186667 182.186667-182.186667 182.186666a42.666667 42.666667 0 1 0 60.330667 60.330667l182.186666-182.186667 182.272 182.186667a42.666667 42.666667 0 0 0 60.330667-60.330667L572.16 512l182.272-182.186667a42.666667 42.666667 0 1 0-60.330667-60.330666L511.829333 451.584zM512 1.024a510.72 510.72 0 1 1 0 1021.44A510.72 510.72 0 0 1 512 0.938667z" fill="#a4000f" p-id="30389"></path></svg>