<?xml version="1.0" standalone="no"?><!DOCTYPE svg PUBLIC "-//W3C//DTD SVG 1.1//EN" "http://www.w3.org/Graphics/SVG/1.1/DTD/svg11.dtd"><svg t="1603244715569" class="icon" viewBox="0 0 1024 1024" version="1.1" xmlns="http://www.w3.org/2000/svg" p-id="18981" width="64" height="64" xmlns:xlink="http://www.w3.org/1999/xlink"><defs><style type="text/css"></style></defs><path d="M266.048 440.96H201.728v59.392h64.448V440.96h-0.128z m51.968 0h326.08v59.392H318.016V440.96z" fill="#dfe2e5" p-id="18982"></path><path d="M162.368 944.128c-27.52 0-53.888-10.432-73.408-28.864a96.256 96.256 0 0 1-30.4-69.76V155.264c0-54.464 46.464-98.624 103.808-98.624h622.656c27.52 0 53.888 10.432 73.408 28.8 19.392 18.496 30.4 43.584 30.4 69.76v350.144c17.6 2.432 34.944 6.208 51.904 11.008V105.856c0-54.4-46.464-98.56-103.744-98.56H110.592C53.184 7.232 6.656 51.392 6.656 105.792V894.72c0 26.24 11.008 51.2 30.4 69.76 19.392 18.432 45.824 28.864 73.408 28.864H510.08a328.32 328.32 0 0 1-19.392-49.28H162.368z" fill="#dfe2e5" p-id="18983"></path><path d="M110.4 999.424c-29.376 0-57.024-10.88-77.888-30.72a101.504 101.504 0 0 1-32.256-73.984V105.856C0.256 48.128 49.664 1.152 110.4 1.152h726.4c60.8 0 110.208 46.976 110.208 104.704v418.688l-8.32-2.432a363.2 363.2 0 0 0-51.008-10.944l-5.504-0.704v-355.2c0-24.768-10.112-47.936-28.48-65.536A99.392 99.392 0 0 0 784.896 62.72H162.368c-53.76 0-97.408 41.536-97.408 92.608V845.44c0 24.768 10.112 47.936 28.608 65.408 17.92 16.96 41.472 26.56 66.752 27.008h335.168l1.28 4.416c4.928 16.448 11.52 32.832 19.008 48.384l4.224 8.576h-409.6v0.128z m0-986.112C56.64 13.312 12.992 54.784 12.992 105.856V894.72c0 24.768 10.112 48 28.608 65.408 18.368 17.472 42.88 27.072 68.8 27.072h389.632a338.56 338.56 0 0 1-14.272-37.12H162.368c-29.376 0-57.088-10.88-77.888-30.72a101.504 101.504 0 0 1-32.256-73.984V155.136c0-57.728 49.408-104.704 110.144-104.704h622.656c29.376 0 57.024 10.88 77.888 30.72 20.8 19.712 32.256 46.08 32.256 73.984v344.896c13.184 2.048 26.304 4.736 39.232 8.192V105.856c0-51.072-43.648-92.544-97.408-92.544H110.4z" fill="#dfe2e5" p-id="18984"></path><path d="M347.968 272.768h393.856v59.456H347.968v-59.52zM201.728 614.08h64.32v59.456H201.728v-59.456z m562.112-83.328c-143.36 0-259.456 110.4-259.456 246.464 0 136.256 116.224 246.528 259.456 246.528 143.232 0 259.392-110.4 259.392-246.528 0-136.064-116.16-246.464-259.392-246.464z m0 443.712c-55.04 0-107.904-20.736-146.816-57.728a192.256 192.256 0 0 1-60.8-139.52c0-70.464 39.616-135.616 103.808-170.816a217.344 217.344 0 0 1 207.616 0c64.192 35.2 103.744 100.352 103.744 170.88-0.128 108.864-92.928 197.184-207.552 197.184z" fill="#dfe2e5" p-id="18985"></path><path d="M712.32 678.4v196.864l207.104-98.56-207.04-98.368zM275.392 614.016h207.104v59.456H275.328v-59.456z m-9.28-341.312H201.728v59.456h64.448v-59.52h-0.128z" fill="#dfe2e5" p-id="18986"></path></svg>