<?xml version="1.0" standalone="no"?><!DOCTYPE svg PUBLIC "-//W3C//DTD SVG 1.1//EN" "http://www.w3.org/Graphics/SVG/1.1/DTD/svg11.dtd"><svg t="1603249046906" class="icon" viewBox="0 0 1024 1024" version="1.1" xmlns="http://www.w3.org/2000/svg" p-id="45451" width="64" height="64" xmlns:xlink="http://www.w3.org/1999/xlink"><defs><style type="text/css"></style></defs><path d="M1013.586812 617.638154c-6.104717-12.209435-18.314152-19.375842-32.381545-19.375842h-0.265423l-1.06169 0.265423c-1.857957 0.796267-3.981337 1.327112-5.839294 1.592535-2.654225 0.530845-5.573872 1.327112-8.228098 2.919647-4.777605 2.919647-8.49352 7.166407-12.209435 11.147745-1.06169 1.327112-2.12338 2.388802-3.450492 3.715915l-98.206325 102.453084c-44.060135 45.918092-72.460342 76.176257-100.064282 105.372732-27.073095 28.931052-55.20788 58.923795-98.471747 103.780197l-64.76309-67.417314c-24.684292-25.745982-49.103162-51.226542-73.787454-76.707102-1.592535-1.592535-3.18507-3.450492-4.777605-5.30845-10.351477-11.67859-24.41887-27.60394-46.183515-19.906688-7.43183 2.654225-12.74028 6.37014-16.190772 11.147745-19.906687 26.807672 3.18507 49.634007 18.579574 64.76309l5.573873 5.573872 60.781752 63.170555 60.781752 63.170555c2.654225 2.654225 5.573872 6.104717 9.024365 10.086055 12.74028 14.598237 30.258165 34.770347 46.448938 37.689995 1.857957 0.265422 3.715915 0.530845 5.573872 0.530845 13.80197 0 22.560912-9.820632 29.196475-17.252463 1.327112-1.592535 2.654225-2.919647 3.981337-4.24676l73.25661-76.176257c51.226542-53.349922 87.05858-91.30534 122.094349-128.199067 35.832037-37.955417 72.725765-76.972525 126.075687-132.445827 9.289787-12.474857 10.882322-27.60394 4.512183-40.34422z" fill="#5ead1c" p-id="45452"></path><path d="M576.170534 202.251944H216.788471a35.566615 35.566615 0 0 0 0 71.13323h359.382063c19.641265 0 35.566615-15.92535 35.566615-35.566615s-16.190772-35.566615-35.566615-35.566615zM372.326055 403.973043H216.788471a35.566615 35.566615 0 0 0 0 71.13323h155.537584a35.566615 35.566615 0 0 0 0-71.13323z" fill="#5ead1c" p-id="45453"></path><path d="M755.861566 0H134.242074C64.701379 0 7.635542 55.473302 6.573852 123.686884v776.626232c1.06169 68.213582 58.127527 123.686884 127.668222 123.686884h213.134266c21.499222 0 39.017107-17.517885 39.017107-39.017107 0-21.499222-17.517885-39.017107-39.017107-39.017108H133.711229c-12.474857 0-24.41887-4.777605-33.443235-13.536547-9.024365-9.024365-14.067392-20.968377-14.067393-33.708657V125.279419c0-26.011405 21.499222-46.979782 48.041473-46.979782h621.884914c26.54225 0 48.041472 20.968377 48.041472 46.979782v377.430794c0 21.499222 17.517885 39.017107 39.017108 39.017107 22.29549 0 40.609642-18.314152 40.609642-40.609642V125.279419c0-69.00985-57.33126-125.279419-127.933644-125.279419z" fill="#5ead1c" p-id="45454"></path></svg>