<?xml version="1.0" encoding="utf-8"?>
<!-- Generator: Adobe Illustrator 19.0.0, SVG Export Plug-In . SVG Version: 6.00 Build 0)  -->
<svg version="1.1" id="图层_1" xmlns="http://www.w3.org/2000/svg" xmlns:xlink="http://www.w3.org/1999/xlink" x="0px" y="0px"
	 viewBox="0 0 68 68" style="enable-background:new 0 0 68 68;" xml:space="preserve">
<style type="text/css">
	.st0{fill:#FCEAEE;}
	.st1{clip-path:url(#XMLID_7_);fill:url(#XMLID_8_);}
</style>
<path id="XMLID_1_" class="st0" d="M62.4,66.7H5.9c-2.4,0-4.3-1.9-4.3-4.3V5.8c0-2.4,1.9-4.3,4.3-4.3h56.6c2.4,0,4.3,1.9,4.3,4.3
	v56.6C66.7,64.8,64.8,66.7,62.4,66.7z"/>
<g id="XMLID_3_">
	<defs>
		<path id="XMLID_2_" d="M26.7,13.6c0.6-2.2,2.5-3.6,4.7-3.6c0.4,0,0.8,0.1,1.2,0.2c2.6,0.7,4.1,3.3,3.4,5.9L25.9,54.4
			c-0.7,2.6-3.3,4.1-5.9,3.4c-2.6-0.7-4.1-3.3-3.4-5.9L26.7,13.6 M44.1,20.4l-6.4,6.4c-1.4,1.4-1.4,3.8,0,5.2c1.4,1.4,3.8,1.4,5.2,0
			l6.4-6.4c1.4-1.4,1.4-3.8,0-5.2c-0.7-0.7-1.7-1.1-2.6-1.1C45.7,19.3,44.8,19.7,44.1,20.4 M39,44.8c0,3.5,2.8,6.3,6.3,6.3
			c3.5,0,6.3-2.8,6.3-6.3c0-3.5-2.8-6.3-6.3-6.3C41.8,38.5,39,41.4,39,44.8"/>
	</defs>
	<clipPath id="XMLID_7_">
		<use xlink:href="#XMLID_2_"  style="overflow:visible;"/>
	</clipPath>
	<linearGradient id="XMLID_8_" gradientUnits="userSpaceOnUse" x1="-1.104993e-006" y1="34.0157" x2="68.0315" y2="34.0157">
		<stop  offset="0" style="stop-color:#F9D2D4"/>
		<stop  offset="1" style="stop-color:#F091A0"/>
	</linearGradient>
	<rect id="XMLID_5_" x="0" y="0" class="st1" width="68" height="68"/>
</g>
</svg>
