<?xml version="1.0" encoding="utf-8"?>
<!-- Generator: Adobe Illustrator 19.0.0, SVG Export Plug-In . SVG Version: 6.00 Build 0)  -->
<svg version="1.1" id="图层_1" xmlns="http://www.w3.org/2000/svg" xmlns:xlink="http://www.w3.org/1999/xlink" x="0px" y="0px"
	 viewBox="0 0 68 68" style="enable-background:new 0 0 68 68;" xml:space="preserve">
<style type="text/css">
	.st0{opacity:0.1;fill:#E8456C;}
	.st1{fill:url(#XMLID_6_);}
	.st2{fill:url(#XMLID_7_);}
	.st3{fill:url(#XMLID_8_);}
</style>
<circle id="XMLID_1_" class="st0" cx="34" cy="34" r="32.6"/>
<linearGradient id="XMLID_6_" gradientUnits="userSpaceOnUse" x1="18.3718" y1="34.0157" x2="32.8011" y2="34.0157">
	<stop  offset="0" style="stop-color:#F9D2D4"/>
	<stop  offset="1" style="stop-color:#F3A8B4"/>
</linearGradient>
<path id="XMLID_2_" class="st1" d="M18.7,51c0,0-1.1,2.2,0.5,4.3l0.5,0.5c0,0,3,2.4,5.7-0.7s7.3-12,7.3-23.2c0,0-0.2-11.5-6.3-19.7
	c0,0-2.4-2.1-5.2,0c0,0-2.2,1.5-1.2,4.4C20.2,16.7,31.4,32.9,18.7,51z"/>
<linearGradient id="XMLID_7_" gradientUnits="userSpaceOnUse" x1="184.2018" y1="132.6997" x2="194.5652" y2="132.6997" gradientTransform="matrix(-1.2424 0.3329 -0.2588 -0.9659 311.3816 90.4742)">
	<stop  offset="0" style="stop-color:#F9D2D4"/>
	<stop  offset="1" style="stop-color:#F3A8B4"/>
</linearGradient>
<path id="XMLID_3_" class="st2" d="M45.3,14.2c0,0,0.6-1.5-1.1-2.2l-0.6-0.2c0,0-3-0.6-5,1.7c-2,2.4-4.7,8.4-3,14.7
	c0,0,1.9,6.4,8.5,9.5c0,0,2.5,0.6,4.6-1.2c0,0,1.7-1.4,0.4-2.8C49.2,33.7,36.8,27.3,45.3,14.2z"/>
<linearGradient id="XMLID_8_" gradientUnits="userSpaceOnUse" x1="346.1146" y1="129.2345" x2="356.4781" y2="129.2345" gradientTransform="matrix(-0.4665 0.125 -0.1281 -0.4781 221.4324 67.5925)">
	<stop  offset="0" style="stop-color:#F9D2D4"/>
	<stop  offset="1" style="stop-color:#F3A8B4"/>
</linearGradient>
<path id="XMLID_4_" class="st3" d="M42,44.4c0,0,0.2-0.7-0.5-1.1l-0.2-0.1c0,0-1.2-0.4-1.9,0.7s-1.6,4-0.7,7.1c0,0,0.9,3.2,3.6,4.9
	c0,0,1,0.4,1.7-0.5c0,0,0.6-0.6,0.1-1.3C44.1,54,39.1,50.5,42,44.4z"/>
</svg>
