<?xml version="1.0" encoding="utf-8"?>
<!-- Generator: Adobe Illustrator 19.0.0, SVG Export Plug-In . SVG Version: 6.00 Build 0)  -->
<svg version="1.1" id="图层_1" xmlns="http://www.w3.org/2000/svg" xmlns:xlink="http://www.w3.org/1999/xlink" x="0px" y="0px"
	 viewBox="0 0 51 51" style="enable-background:new 0 0 51 51;" xml:space="preserve">
<style type="text/css">
	.st0{opacity:0.1;fill:#E8456C;}
	.st1{clip-path:url(#XMLID_6_);fill:url(#XMLID_7_);}
</style>
<circle id="XMLID_1_" class="st0" cx="25.5" cy="25.5" r="24.1"/>
<g id="XMLID_4_">
	<defs>
		<path id="XMLID_2_" d="M30.8,10.5c0.3-0.1,0.5-0.1,0.8-0.1c1.6,0,3,1.1,3.2,2.8c0.3,2-1.3,3.7-3.3,3.6c-0.5,0-1-0.1-1.5-0.3
			c0,0.2,0.2,0.4,0.3,0.5c0.8,0.9,1.4,2,1.8,3.2c0.1,0.4,0.4,0.7,0.6,1c0.4,0.4,0.8,0.6,1.3,0.3c0.8-0.4,1.6-0.4,2.5-0.5
			c0.8-0.1,1.3,0.4,1.5,1.2c0.1,0.7-0.3,1.4-1,1.6c-1.6,0.4-3.2,0.8-4.9,1c-0.6,0.1-1-0.1-1.3-0.6c-0.3-0.5-0.6-0.9-0.9-1.4
			c-0.3-0.5-0.5-0.5-0.9-0.1c-0.6,0.5-1.1,1-1.6,1.6c-0.5,0.6-0.6,1.1-0.2,1.8c0.8,1.3,1.7,2.4,2.6,3.6c0.1,0.1,0.1,0.2,0.2,0.2
			c0.8,1.1,0.4,2.3-0.9,2.7c-0.8,0.2-1.7,0.4-2.5,0.6c-1.5,0.3-3,0.7-4.5,1c-0.3,0.1-0.6,0.1-1,0.1c-0.8-0.1-1.4-0.7-1.5-1.3
			c-0.1-0.6,0.4-1.4,1.2-1.6c0.7-0.2,1.5-0.4,2.3-0.6c0.6-0.1,1.2-0.2,1.8-0.4c0.5-0.1,0.6-0.3,0.2-0.7c-1-0.9-1.9-1.8-2.9-2.7
			c-0.3-0.3-0.6-0.6-1-0.9c-1-1-1.1-2.1-0.2-3.3c0.7-0.9,1.4-1.7,2.2-2.4c0.6-0.6,1.2-1.1,1.8-1.7c0.5-0.5,0.5-0.9-0.1-1.3
			c-1.1-0.8-2.3-0.9-3.5-0.3c-0.8,0.4-1.7,0.8-2.6,1.2c-0.5,0.2-1,0.3-1.5,0.1c-0.6-0.2-0.9-0.6-1-1.2c-0.1-0.6,0.1-1,0.6-1.3
			c1.1-0.7,2.3-1.1,3.5-1.6c0.7-0.3,1.4-0.6,2.1-0.9c0.5-0.2,1-0.2,1.5,0.1c1.5,0.7,3,1.4,4.6,2c0.1,0,0.3,0.2,0.4,0.1
			c0.1-0.1,0-0.3-0.1-0.4c-0.1-0.5-0.3-1-0.4-1.5C28.3,12.1,29.2,10.9,30.8,10.5 M28.7,33c-0.5,0.3-1,0.3-1.6,0.4
			c-0.9,0.1-1.7,0.3-2.2,1.1c-0.8,1.3-1.7,2.6-2.5,3.9c-0.1,0.2-0.2,0.5-0.2,0.8c0,0.6,0.4,1.2,1.1,1.4c0.7,0.2,1.2,0.1,1.7-0.6
			c1.5-2,3-4.1,4.4-6.1c0.2-0.2,0.3-0.5,0.1-0.7c-0.1-0.1-0.3-0.2-0.5-0.2C28.9,32.9,28.8,32.9,28.7,33 M19.9,27.2
			c-1.3,0-2.6,0-3.9,0c-0.5,0-1.1,0-1.6,0c-0.3,0-0.5,0-0.8,0.1c-0.4,0.1-0.6,0.4-0.6,0.7c0,0.4,0.2,0.6,0.5,0.8
			c0.3,0.1,0.5,0.1,0.8,0.1c1.2,0,2.3,0,3.5,0v0c1.2,0,2.3,0,3.5,0c0.2,0,0.3,0,0.5,0c0.3-0.1,0.4-0.2,0.2-0.5
			C21.5,27.8,20.9,27.2,19.9,27.2C19.9,27.2,19.9,27.2,19.9,27.2 M13.8,20.7c-0.4,0.1-0.7,0.2-0.7,0.7c0,0.5,0.2,0.7,0.6,0.9
			c0.2,0.1,0.5,0.1,0.8,0.1c0,0,0.1,0,0.1,0c0.3,0,0.7,0,1,0c0.8,0,1.5,0,2.2,0c1.3,0.1,2.4-0.3,3.2-1.3c0.1-0.1,0.3-0.2,0.2-0.4
			c-0.1-0.1-0.2-0.1-0.3-0.1c0,0-0.1,0-0.1,0c-1.1,0-2.2,0-3.2,0v0c-0.6,0-1.3,0-1.9,0c-0.2,0-0.4,0-0.6,0c-0.1,0-0.3,0-0.4,0
			C14.3,20.6,14.1,20.6,13.8,20.7 M14.9,23.8c-0.4,0-0.9,0-1.3,0.2c-0.5,0.2-0.7,0.6-0.4,1.1c0.2,0.3,0.5,0.5,0.9,0.5
			c0.7,0,1.5,0,2.2,0c0.7,0,1.4,0,2.1,0c0.7,0,0.9-0.2,0.7-0.9c-0.1-0.5-0.4-0.7-0.9-0.8c-0.7-0.1-1.4-0.1-2-0.1
			C15.7,23.8,15.3,23.8,14.9,23.8"/>
	</defs>
	<clipPath id="XMLID_6_">
		<use xlink:href="#XMLID_2_"  style="overflow:visible;"/>
	</clipPath>
	<linearGradient id="XMLID_7_" gradientUnits="userSpaceOnUse" x1="9.9213" y1="25.5118" x2="41.1024" y2="25.5118">
		<stop  offset="0" style="stop-color:#F9D2D4"/>
		<stop  offset="1" style="stop-color:#F091A0"/>
	</linearGradient>
	<rect id="XMLID_3_" x="9.9" y="9.9" class="st1" width="31.2" height="31.2"/>
</g>
</svg>
