<?xml version="1.0" encoding="utf-8"?>
<!-- Generator: Adobe Illustrator 19.0.0, SVG Export Plug-In . SVG Version: 6.00 Build 0)  -->
<svg version="1.1" id="图层_1" xmlns="http://www.w3.org/2000/svg" xmlns:xlink="http://www.w3.org/1999/xlink" x="0px" y="0px"
	 viewBox="0 0 51 51" style="enable-background:new 0 0 51 51;" xml:space="preserve">
<style type="text/css">
	.st0{opacity:0.1;fill:#E8456C;}
	.st1{clip-path:url(#XMLID_6_);fill:url(#XMLID_7_);}
</style>
<circle id="XMLID_1_" class="st0" cx="25.5" cy="25.5" r="24.1"/>
<g id="XMLID_4_">
	<defs>
		<path id="XMLID_2_" d="M29.3,13.8c0.1-0.1,0.4-0.2,0.6-0.2c0.1,0,0.3,0,0.4,0.1c0.8,0.4,1.5,0.8,2.2,1.3c3.3,2.4,5.3,5.6,5.7,9.7
			c0.7,5.9-2.6,11.4-8.1,13.7c-3.5,1.5-7,1.6-10.6,0.2c-2.1-0.8-3.7-2.3-5.1-4c-0.6-0.7-1.1-1.5-1.5-2.2c-0.2-0.3-0.3-0.6,0-0.9
			c0.3-0.3,0.6-0.2,0.9-0.1c3.3,1.2,6.6,1.2,9.8-0.4c2.7-1.3,4.6-3.4,5.8-6.2c0.7-1.5,1.1-3.2,1-4.8c0-2-0.4-3.7-1.2-5.4
			C29.1,14.4,29,14.1,29.3,13.8 M19,17.6c-0.3,0.8-0.6,1.6-0.9,2.3c-0.1,0.3-0.2,0.4-0.5,0.4c-0.8,0-1.7,0-2.5,0c-0.1,0-0.3,0-0.4,0
			c-0.1,0-0.3,0.1-0.3,0.2c0,0.1,0,0.3,0.1,0.3c0.1,0.1,0.2,0.1,0.3,0.2c0.7,0.5,1.3,1,2,1.4c0.3,0.2,0.3,0.4,0.2,0.6
			c-0.3,0.7-0.5,1.5-0.7,2.2c0,0.1-0.1,0.2-0.1,0.3c0,0.3,0.2,0.4,0.4,0.4c0.1,0,0.3-0.1,0.4-0.2c0.7-0.5,1.5-0.9,2.2-1.4
			c0.2-0.1,0.4-0.1,0.6,0c0.8,0.5,1.6,1,2.3,1.5c0.2,0.1,0.3,0.2,0.5,0c0.2-0.1,0.1-0.3,0.1-0.5c-0.3-0.8-0.5-1.7-0.8-2.5
			c-0.1-0.2,0-0.3,0.2-0.5c0.7-0.5,1.5-1,2.2-1.6c0.2-0.1,0.4-0.2,0.3-0.5c-0.1-0.3-0.3-0.3-0.5-0.3c-0.1,0-0.2,0-0.4,0
			c-0.8,0-1.6,0-2.4,0c-0.3,0-0.4-0.1-0.5-0.3c-0.3-0.8-0.6-1.6-0.9-2.3c-0.1-0.2-0.1-0.5-0.4-0.5c0,0,0,0,0,0
			C19.1,17.2,19.1,17.4,19,17.6 M15.5,11.4c-0.1,0-0.2,0.1-0.2,0.2c-0.1,0.3-0.2,0.5-0.3,0.8c-0.1,0.2-0.2,0.3-0.4,0.3
			c-0.3,0-0.5,0-0.8,0c-0.1,0-0.2,0-0.2,0.1c0,0.1,0,0.2,0.1,0.2c0.2,0.2,0.4,0.4,0.7,0.5c0.2,0.1,0.2,0.2,0.1,0.4
			c-0.1,0.3-0.2,0.6-0.2,0.8c0,0.1,0,0.2,0,0.2c0.1,0.1,0.2,0,0.3,0c0.2-0.2,0.5-0.3,0.7-0.5c0.1-0.1,0.3-0.1,0.4,0
			c0.2,0.2,0.5,0.3,0.7,0.5c0.1,0,0.1,0.1,0.2,0c0.1-0.1,0.1-0.2,0.1-0.3c-0.1-0.3-0.2-0.5-0.2-0.8c-0.1-0.2,0-0.3,0.2-0.4
			c0.2-0.1,0.4-0.3,0.6-0.4c0.1-0.1,0.2-0.1,0.2-0.3c0-0.1-0.2-0.1-0.3-0.1c0,0,0,0-0.1,0c-0.2,0-0.4,0-0.5,0
			c-0.4,0-0.6-0.1-0.6-0.5c0-0.2-0.1-0.4-0.2-0.6C15.7,11.5,15.6,11.4,15.5,11.4C15.5,11.4,15.5,11.4,15.5,11.4"/>
	</defs>
	<clipPath id="XMLID_6_">
		<use xlink:href="#XMLID_2_"  style="overflow:visible;"/>
	</clipPath>
	<linearGradient id="XMLID_7_" gradientUnits="userSpaceOnUse" x1="10.8972" y1="25.5118" x2="40.1264" y2="25.5118">
		<stop  offset="0" style="stop-color:#F9D2D4"/>
		<stop  offset="1" style="stop-color:#F091A0"/>
	</linearGradient>
	<rect id="XMLID_3_" x="10.9" y="10.9" class="st1" width="29.2" height="29.2"/>
</g>
</svg>
