<?xml version="1.0" encoding="utf-8"?>
<!-- Generator: Adobe Illustrator 19.0.0, SVG Export Plug-In . SVG Version: 6.00 Build 0)  -->
<svg version="1.1" id="图层_1" xmlns="http://www.w3.org/2000/svg" xmlns:xlink="http://www.w3.org/1999/xlink" x="0px" y="0px"
	 viewBox="0 0 70.9 70.9" style="enable-background:new 0 0 70.9 70.9;" xml:space="preserve">
<style type="text/css">
	.st0{fill:url(#XMLID_2_);}
	.st1{opacity:0.6;fill:url(#XMLID_3_);}
	.st2{opacity:0.8;fill:url(#XMLID_4_);}
</style>
<g id="XMLID_1914_">
	
		<linearGradient id="XMLID_2_" gradientUnits="userSpaceOnUse" x1="-107.5071" y1="20.7289" x2="-51.2878" y2="20.7289" gradientTransform="matrix(0.7071 -0.7071 0.7071 0.7071 77.3858 -41.2731)">
		<stop  offset="0" style="stop-color:#FFFFFF"/>
		<stop  offset="1" style="stop-color:#F4B3C2;stop-opacity:0.8"/>
	</linearGradient>
	<path id="XMLID_1917_" class="st0" d="M55.8,9.7c11,11,11,28.8,0,39.8c-11,11-28.8,11-39.8,0C5,38.4,5,20.6,16,9.7
		C27-1.3,44.8-1.3,55.8,9.7"/>
	
		<linearGradient id="XMLID_3_" gradientUnits="userSpaceOnUse" x1="-86.4727" y1="64.8633" x2="-42.0517" y2="64.8633" gradientTransform="matrix(0.7071 -0.7071 0.7071 0.7071 26.9626 -44.0674)">
		<stop  offset="0" style="stop-color:#FFFFFF"/>
		<stop  offset="1" style="stop-color:#F4B3C2;stop-opacity:0.8"/>
	</linearGradient>
	<path id="XMLID_1916_" class="st1" d="M43.1,31.5c8.7,8.7,8.7,22.7,0,31.4c-8.7,8.7-22.7,8.7-31.4,0C3,54.3,3,40.2,11.7,31.5
		C20.4,22.9,34.4,22.9,43.1,31.5"/>
	
		<linearGradient id="XMLID_4_" gradientUnits="userSpaceOnUse" x1="-39.0394" y1="-119.329" x2="-14.6585" y2="-119.329" gradientTransform="matrix(-0.7071 -0.7071 0.7071 -0.7071 118.8919 -55.4623)">
		<stop  offset="0" style="stop-color:#FFFFFF"/>
		<stop  offset="1" style="stop-color:#F4B3C2;stop-opacity:0.8"/>
	</linearGradient>
	<path id="XMLID_1915_" class="st2" d="M53.5,60.1c-6.7,0-12.2-5.5-12.2-12.2c0-6.7,5.5-12.2,12.2-12.2c6.7,0,12.2,5.5,12.2,12.2
		C65.7,54.6,60.2,60.1,53.5,60.1"/>
</g>
</svg>
