<?xml version="1.0" encoding="utf-8"?>
<!-- Generator: Adobe Illustrator 19.0.0, SVG Export Plug-In . SVG Version: 6.00 Build 0)  -->
<svg version="1.1" id="图层_1" xmlns="http://www.w3.org/2000/svg" xmlns:xlink="http://www.w3.org/1999/xlink" x="0px" y="0px"
	 viewBox="0 0 85 85" style="enable-background:new 0 0 85 85;" xml:space="preserve">
<style type="text/css">
	.st0{clip-path:url(#XMLID_2_);}
	.st1{clip-path:url(#XMLID_3_);fill:#F9D2D4;}
	.st2{clip-path:url(#XMLID_3_);fill:none;stroke:#E8456C;stroke-width:0.25;stroke-miterlimit:10;}
	.st3{clip-path:url(#XMLID_3_);fill:none;stroke:#E8456C;stroke-miterlimit:10;}
	.st4{fill:none;stroke:#E8456C;stroke-miterlimit:10;}
</style>
<g id="XMLID_1919_">
	<defs>
		<path id="XMLID_1920_" d="M0,42.5C0,66,19,85,42.5,85C66,85,85,66,85,42.5C85,19,66,0,42.5,0C19,0,0,19,0,42.5"/>
	</defs>
	<clipPath id="XMLID_2_">
		<use xlink:href="#XMLID_1920_"  style="overflow:visible;"/>
	</clipPath>
	<g id="XMLID_1921_" class="st0">
		<defs>
			<rect id="XMLID_1922_" x="-383.4" y="-261.5" width="589.1" height="825.5"/>
		</defs>
		<clipPath id="XMLID_3_">
			<use xlink:href="#XMLID_1922_"  style="overflow:visible;"/>
		</clipPath>
		<path id="XMLID_1932_" class="st1" d="M70,86.4H5.5V75.2H70c2.2,0,4-1.8,4-4c0-2.2-1.8-4-4-4H15c-8.3,0-15.1-6.8-15.1-15.2
			c0-8.4,6.8-15.2,15.2-15.2h55c2.2,0,4-1.8,4-4c0-2.2-1.8-4-4-4H15C6.6,29-0.2,22.2-0.2,13.8C-0.2,5.5,6.7-1.3,15-1.3h55V9.9H15
			c-2.1,0-4,1.8-4,4c0,2.1,1.8,4,4,4h55c8.4,0,15.2,6.8,15.2,15.2c0,8.4-6.8,15.1-15.1,15.2H15c-2.2,0-4,1.8-4,4c0,2.1,1.8,4,4,4h55
			c8.4,0,15.2,6.8,15.2,15.2C85.2,79.6,78.4,86.4,70,86.4"/>
		<path id="XMLID_1931_" class="st2" d="M70,86.4H5.5V75.2H70c2.2,0,4-1.8,4-4c0-2.2-1.8-4-4-4H15c-8.3,0-15.1-6.8-15.1-15.2
			c0-8.4,6.8-15.2,15.2-15.2h55c2.2,0,4-1.8,4-4c0-2.2-1.8-4-4-4H15C6.6,29-0.2,22.2-0.2,13.8C-0.2,5.5,6.7-1.3,15-1.3h55V9.9H15
			c-2.1,0-4,1.8-4,4c0,2.1,1.8,4,4,4h55c8.4,0,15.2,6.8,15.2,15.2c0,8.4-6.8,15.1-15.1,15.2H15c-2.2,0-4,1.8-4,4c0,2.1,1.8,4,4,4h55
			c8.4,0,15.2,6.8,15.2,15.2S78.4,86.4,70,86.4z"/>
		<path id="XMLID_1930_" class="st3" d="M46.8,27.2H36.5c-1.6,0-2.9-1.3-2.9-2.9c0-1.6,1.3-2.9,2.9-2.9h10.2c1.6,0,2.9,1.3,2.9,2.9
			C49.6,25.9,48.4,27.2,46.8,27.2z"/>
		<path id="XMLID_1929_" class="st3" d="M34.8,64.7H24.6c-1.6,0-2.9-1.3-2.9-2.9s1.3-2.9,2.9-2.9h10.2c1.6,0,2.9,1.3,2.9,2.9
			S36.4,64.7,34.8,64.7z"/>
		<path id="XMLID_1928_" class="st3" d="M68.9,23.1h-4.4c-0.7,0-1.4-0.6-1.4-1.4s0.6-1.4,1.4-1.4h4.4c0.7,0,1.4,0.6,1.4,1.4
			S69.6,23.1,68.9,23.1z"/>
		<path id="XMLID_1927_" class="st3" d="M65.3,45.4l-2.1-3.9c-0.3-0.7-0.1-1.5,0.6-1.8c0.7-0.4,1.5-0.1,1.8,0.6l2.1,3.9
			c0.3,0.7,0.1,1.5-0.6,1.8C66.5,46.3,65.7,46,65.3,45.4z"/>
		<path id="XMLID_1926_" class="st3" d="M78.3,70.7l-2.1-3.9c-0.3-0.7-0.1-1.5,0.6-1.8c0.7-0.4,1.5-0.1,1.8,0.6l2.1,3.9
			c0.3,0.7,0.1,1.5-0.6,1.8C79.5,71.6,78.7,71.3,78.3,70.7z"/>
		<path id="XMLID_1925_" class="st3" d="M61.4,81.8l-4.2,1.6c-0.7,0.3-1.5-0.1-1.7-0.8c-0.3-0.7,0.1-1.5,0.8-1.7l4.2-1.6
			c0.7-0.3,1.5,0.1,1.7,0.8C62.4,80.7,62.1,81.5,61.4,81.8z"/>
		<path id="XMLID_1924_" class="st3" d="M15.3,44.4l-4,1.9c-0.7,0.3-1.5,0-1.8-0.7c-0.3-0.7,0-1.5,0.7-1.8l4-1.9
			c0.7-0.3,1.5,0,1.8,0.7C16.3,43.3,16,44.1,15.3,44.4z"/>
		<path id="XMLID_1923_" class="st3" d="M47,63.1l-4,1.9c-0.7,0.3-1.5,0-1.8-0.7c-0.3-0.7,0-1.5,0.7-1.8l4-1.9
			c0.7-0.3,1.5,0,1.8,0.7C47.9,62,47.6,62.8,47,63.1z"/>
	</g>
</g>
<circle id="XMLID_1918_" class="st4" cx="42.5" cy="42.5" r="42.5"/>
</svg>
