<?xml version="1.0" encoding="utf-8"?>
<!-- Generator: Adobe Illustrator 19.0.0, SVG Export Plug-In . SVG Version: 6.00 Build 0)  -->
<svg version="1.1" id="图层_1" xmlns="http://www.w3.org/2000/svg" xmlns:xlink="http://www.w3.org/1999/xlink" x="0px" y="0px"
	 viewBox="0 0 56.7 18.4" style="enable-background:new 0 0 56.7 18.4;" xml:space="preserve">
<style type="text/css">
	.st0{fill:#595857;}
	.st1{fill:#004EA2;}
	.st2{fill:#002B69;}
	.st3{fill:#82BF25;}
</style>
<polygon id="XMLID_210_" class="st0" points="23.7,15.4 23.7,15 25,13.4 23.9,13.4 23.9,13 25.6,13 25.6,13.4 24.3,15 25.7,15 
	25.7,15.4 "/>
<polygon id="XMLID_209_" class="st0" points="26,15.4 26,13 26.5,13 26.5,13.9 27.4,13.9 27.4,13 27.9,13 27.9,15.4 27.4,15.4 
	27.4,14.4 26.5,14.4 26.5,15.4 "/>
<path id="XMLID_206_" class="st0" d="M28.3,14.2c0-0.2,0-0.5,0.1-0.6c0.1-0.1,0.1-0.2,0.2-0.3c0.1-0.1,0.2-0.2,0.3-0.2
	c0.2-0.1,0.3-0.1,0.5-0.1c0.4,0,0.6,0.1,0.9,0.3c0.2,0.2,0.3,0.5,0.3,0.9c0,0.4-0.1,0.7-0.3,0.9c-0.2,0.2-0.5,0.3-0.9,0.3
	c-0.4,0-0.6-0.1-0.9-0.3C28.4,14.9,28.3,14.6,28.3,14.2 M28.8,14.2c0,0.3,0.1,0.5,0.2,0.6c0.1,0.1,0.3,0.2,0.5,0.2
	c0.2,0,0.4-0.1,0.5-0.2c0.1-0.1,0.2-0.4,0.2-0.6c0-0.3-0.1-0.5-0.2-0.6c-0.1-0.1-0.3-0.2-0.5-0.2c-0.2,0-0.4,0.1-0.5,0.2
	C28.9,13.7,28.8,13.9,28.8,14.2"/>
<polygon id="XMLID_205_" class="st0" points="31.1,15.4 31.1,13 31.5,13 32.5,14.6 32.5,13 33,13 33,15.4 32.5,15.4 31.5,13.8 
	31.5,15.4 "/>
<path id="XMLID_204_" class="st0" d="M34.6,14.5v-0.4h1.1v1c-0.1,0.1-0.3,0.2-0.4,0.3c-0.2,0.1-0.4,0.1-0.6,0.1
	c-0.3,0-0.5-0.1-0.7-0.2c-0.2-0.1-0.3-0.3-0.4-0.5c-0.1-0.2-0.1-0.4-0.1-0.6c0-0.3,0.1-0.5,0.2-0.7c0.1-0.2,0.3-0.3,0.5-0.5
	c0.2-0.1,0.3-0.1,0.6-0.1c0.3,0,0.5,0.1,0.7,0.2c0.2,0.1,0.3,0.3,0.3,0.5l-0.5,0.1c0-0.1-0.1-0.2-0.2-0.3c-0.1-0.1-0.2-0.1-0.4-0.1
	c-0.2,0-0.4,0.1-0.5,0.2c-0.1,0.1-0.2,0.3-0.2,0.6c0,0.3,0.1,0.5,0.2,0.6c0.1,0.1,0.3,0.2,0.5,0.2c0.1,0,0.2,0,0.3-0.1
	c0.1,0,0.2-0.1,0.3-0.1v-0.3H34.6z"/>
<polygon id="XMLID_203_" class="st0" points="37.1,15.4 37.1,13 37.6,13 37.6,14.1 38.6,13 39.2,13 38.3,13.9 39.3,15.4 38.6,15.4 
	38,14.3 37.6,14.7 37.6,15.4 "/>
<polygon id="XMLID_202_" class="st0" points="39.5,15.4 39.5,13 41.3,13 41.3,13.4 40,13.4 40,13.9 41.2,13.9 41.2,14.3 40,14.3 
	40,15 41.4,15 41.4,15.4 "/>
<polygon id="XMLID_201_" class="st0" points="43.3,15.4 43.3,14.4 42.4,13 43,13 43.6,14 44.1,13 44.7,13 43.8,14.4 43.8,15.4 "/>
<rect id="XMLID_200_" x="44.9" y="13" class="st0" width="0.5" height="2.4"/>
<polygon id="XMLID_199_" class="st0" points="46.8,15.4 46.8,13 47.3,13 47.3,14.1 48.3,13 48.9,13 48,13.9 49,15.4 48.4,15.4 
	47.7,14.3 47.3,14.7 47.3,15.4 "/>
<path id="XMLID_196_" class="st0" d="M51.4,15.4h-0.5l-0.2-0.5h-1l-0.2,0.5H49l0.9-2.4h0.5L51.4,15.4z M50.5,14.5l-0.3-0.9l-0.3,0.9
	H50.5z"/>
<polygon id="XMLID_195_" class="st0" points="51.7,15.4 51.7,13 52.2,13 53.2,14.6 53.2,13 53.6,13 53.6,15.4 53.1,15.4 52.1,13.8 
	52.1,15.4 "/>
<path id="XMLID_194_" class="st0" d="M55.3,14.5v-0.4h1.1v1c-0.1,0.1-0.3,0.2-0.4,0.3c-0.2,0.1-0.4,0.1-0.6,0.1
	c-0.3,0-0.5-0.1-0.7-0.2c-0.2-0.1-0.3-0.3-0.4-0.5c-0.1-0.2-0.1-0.4-0.1-0.6c0-0.3,0.1-0.5,0.2-0.7c0.1-0.2,0.3-0.3,0.5-0.5
	C54.8,13,55,13,55.2,13c0.3,0,0.5,0.1,0.7,0.2c0.2,0.1,0.3,0.3,0.3,0.5l-0.5,0.1c0-0.1-0.1-0.2-0.2-0.3c-0.1-0.1-0.2-0.1-0.4-0.1
	c-0.2,0-0.4,0.1-0.5,0.2c-0.1,0.1-0.2,0.3-0.2,0.6c0,0.3,0.1,0.5,0.2,0.6S55,15,55.2,15c0.1,0,0.2,0,0.3-0.1c0.1,0,0.2-0.1,0.3-0.1
	v-0.3H55.3z"/>
<rect id="XMLID_193_" x="23.7" y="8.5" class="st0" width="7" height="1"/>
<rect id="XMLID_192_" x="31.9" y="5.7" class="st0" width="3.6" height="1"/>
<rect id="XMLID_191_" x="23.7" y="5.1" class="st0" width="1" height="3.7"/>
<path id="XMLID_190_" class="st0" d="M29.7,8.8v-3c0-0.2-0.2-0.4-0.4-0.4h-5.6v-1h6.1c0.5,0,0.9,0.4,0.9,0.9v3.5H29.7z"/>
<rect id="XMLID_189_" x="49.2" y="4.1" class="st0" width="7.2" height="1"/>
<rect id="XMLID_188_" x="50.6" y="7.6" class="st0" width="5.5" height="0.7"/>
<rect id="XMLID_187_" x="50.6" y="6.5" class="st0" width="5.9" height="0.7"/>
<rect id="XMLID_186_" x="41.3" y="7.1" class="st0" width="5.8" height="0.8"/>
<rect id="XMLID_185_" x="41.3" y="8.7" class="st0" width="5.8" height="0.8"/>
<rect id="XMLID_184_" x="40.5" y="10.3" class="st0" width="7.3" height="0.8"/>
<rect id="XMLID_183_" x="40.6" y="4.8" class="st0" width="1" height="0.6"/>
<rect id="XMLID_182_" x="41.2" y="5.6" class="st0" width="1" height="5.2"/>
<path id="XMLID_181_" class="st0" d="M46.1,5.6h-4.8v0.8h4.5c0.2,0,0.4,0.2,0.4,0.4v4.1h1V6.5c0-0.5-0.4-0.9-0.9-0.9H46.1z"/>
<path id="XMLID_180_" class="st0" d="M52.8,4.9v5c0,0.2-0.1,0.3-0.3,0.3h-0.3V11h0.7c0.5,0,0.9-0.4,0.9-0.9V4.9H52.8z"/>
<path id="XMLID_179_" class="st0" d="M40.6,4.1V5h6c0.1,0,0.2,0.1,0.2,0.2v0.2h1V4.8c0-0.4-0.3-0.7-0.7-0.7H40.6z"/>
<rect id="XMLID_178_" x="26.7" y="3.7" class="st0" width="1" height="7.4"/>
<rect id="XMLID_177_" x="43.7" y="3.7" class="st0" width="1" height="0.9"/>
<rect id="XMLID_176_" x="33.3" y="4.2" class="st0" width="1" height="6.9"/>
<rect id="XMLID_175_" x="37.9" y="3.7" class="st0" width="1" height="7.5"/>
<path id="XMLID_174_" class="st0" d="M50.2,4.4h-1V9c0,0.5-0.3,1-0.3,1v1c0,0,1.3-0.9,1.3-2.2V4.4z"/>
<path id="XMLID_173_" class="st0" d="M33.2,6.7c-0.1,0.6-0.5,1.5-1.3,2.1v1.3c0,0,1-0.8,1.5-1.9c0-0.7-0.1-1.5-0.1-1.5H33.2z"/>
<polygon id="XMLID_172_" class="st0" points="34.2,6.7 35.6,7.5 35.6,8.6 34.2,7.6 "/>
<rect id="XMLID_171_" x="52.3" y="3.7" class="st0" width="1" height="0.7"/>
<polygon id="XMLID_170_" class="st0" points="54.9,10.1 56.4,9.1 56.4,8.4 54.9,9.3 "/>
<polygon id="XMLID_169_" class="st0" points="37.5,5.7 36,5 36,4.1 37.5,4.8 "/>
<polygon id="XMLID_168_" class="st0" points="37.5,8.1 36,7.4 36,6.5 37.5,7.2 "/>
<path id="XMLID_167_" class="st0" d="M32,5c1.1,0,2.8-0.2,3.4-0.4V3.6c-0.6,0.2-2.3,0.4-3.4,0.4V5z"/>
<path id="XMLID_166_" class="st0" d="M53.9,8.6c0.2,0.8,0.7,2.3,2.5,2.5v-0.8c0,0-1.4-0.2-1.7-1.7H53.9z"/>
<path id="XMLID_165_" class="st0" d="M55.2,7.7V6.5c0-0.2-0.2-0.4-0.4-0.4h-4.3V5.4h4.8c0.4,0,0.7,0.3,0.7,0.7v1.6H55.2z"/>
<rect id="XMLID_164_" x="35.6" y="8.8" class="st0" width="3.8" height="0.9"/>
<polygon id="XMLID_163_" class="st0" points="52.4,9.7 50.5,9.3 50.5,8.5 52.4,8.9 "/>
<path id="XMLID_162_" class="st0" d="M50.2,10.1c0.7,0,1.8-0.4,2.2-0.7v0.9c-0.6,0.4-1.5,0.6-2.2,0.7V10.1z"/>
<path id="XMLID_161_" class="st1" d="M0.3,6.1L0.3,6.1l5-2.5C6,3.2,6.6,2.6,7.2,2c0.6-0.6,1.1-1.3,1.5-1.9v5.4
	c0,1.4-0.8,2.7-2.2,3.6C6.4,9.1,6.2,9,6,8.9L0.3,6.1z"/>
<path id="XMLID_160_" class="st2" d="M0.3,12.4V6.1L6,8.9C6.2,9,6.4,9.1,6.5,9.2C6.4,9.3,6.2,9.4,6,9.5L0.3,12.4z"/>
<path id="XMLID_159_" class="st3" d="M0.3,12.4L0.3,12.4L6,9.5c0.2-0.1,0.4-0.2,0.5-0.3c1.4,0.9,2.2,2.2,2.2,3.6v5.4
	c-0.4-0.6-0.9-1.2-1.5-1.9c-0.6-0.6-1.2-1.2-2-1.5L0.3,12.4z"/>
<path id="XMLID_158_" class="st3" d="M9.6,5.6V0.2c0.4,0.6,0.9,1.2,1.5,1.9c0.6,0.6,1.2,1.2,2,1.5l5,2.5v0l-5.7,2.9
	C12.2,9,12,9.1,11.8,9.2C10.5,8.3,9.6,7,9.6,5.6"/>
<path id="XMLID_157_" class="st1" d="M9.6,18.3v-5.4c0-1.4,0.8-2.7,2.2-3.6c0.2,0.1,0.3,0.2,0.5,0.3l5.7,2.9v0l-5,2.5
	c-0.7,0.4-1.4,0.9-2,1.5C10.6,17,10.1,17.7,9.6,18.3"/>
<path id="XMLID_156_" class="st2" d="M12.4,9.5c-0.2-0.1-0.4-0.2-0.5-0.3C12,9.1,12.2,9,12.4,8.9l5.7-2.9v6.3L12.4,9.5z"/>
</svg>
