<?xml version="1.0" encoding="utf-8"?>
<!-- Generator: Adobe Illustrator 19.0.0, SVG Export Plug-In . SVG Version: 6.00 Build 0)  -->
<svg version="1.1" id="图层_1" xmlns="http://www.w3.org/2000/svg" xmlns:xlink="http://www.w3.org/1999/xlink" x="0px" y="0px"
	 viewBox="0 0 18.1 18.1" style="enable-background:new 0 0 18.1 18.1;" xml:space="preserve">
<style type="text/css">
	.st0{fill:#004EA2;}
	.st1{fill:#002B69;}
	.st2{fill:#82BF25;}
</style>
<path id="XMLID_161_" class="st0" d="M0.2,5.9L0.2,5.9l5-2.5c0.7-0.4,1.4-0.9,2-1.5C7.7,1.3,8.2,0.6,8.6,0v5.4
	c0,1.4-0.8,2.7-2.2,3.6C6.3,9,6.1,8.9,5.9,8.8L0.2,5.9z"/>
<path id="XMLID_160_" class="st1" d="M0.2,12.2V5.9l5.7,2.9C6.1,8.9,6.3,9,6.4,9.1C6.3,9.2,6.1,9.3,5.9,9.4L0.2,12.2z"/>
<path id="XMLID_159_" class="st2" d="M0.2,12.2L0.2,12.2l5.7-2.9c0.2-0.1,0.4-0.2,0.5-0.3c1.4,0.9,2.2,2.2,2.2,3.6v5.4
	c-0.4-0.6-0.9-1.2-1.5-1.9c-0.6-0.6-1.2-1.2-2-1.5L0.2,12.2z"/>
<path id="XMLID_158_" class="st2" d="M9.5,5.5V0c0.4,0.6,0.9,1.2,1.5,1.9c0.6,0.6,1.2,1.2,2,1.5l5,2.5v0l-5.7,2.9
	c-0.2,0.1-0.4,0.2-0.5,0.3C10.3,8.2,9.5,6.9,9.5,5.5"/>
<path id="XMLID_157_" class="st0" d="M9.5,18.1v-5.4c0-1.4,0.8-2.7,2.2-3.6c0.2,0.1,0.3,0.2,0.5,0.3l5.7,2.9v0l-5,2.5
	c-0.7,0.4-1.4,0.9-2,1.5C10.5,16.9,9.9,17.5,9.5,18.1"/>
<path id="XMLID_156_" class="st1" d="M12.2,9.4c-0.2-0.1-0.4-0.2-0.5-0.3c0.2-0.1,0.3-0.2,0.5-0.3L18,5.9v6.3L12.2,9.4z"/>
</svg>
