<?xml version="1.0" encoding="utf-8"?>
<!-- Generator: Adobe Illustrator 19.0.0, SVG Export Plug-In . SVG Version: 6.00 Build 0)  -->
<svg version="1.1" id="图层_1" xmlns="http://www.w3.org/2000/svg" xmlns:xlink="http://www.w3.org/1999/xlink" x="0px" y="0px"
	 viewBox="0 0 113.4 73.7" style="enable-background:new 0 0 113.4 73.7;" xml:space="preserve">
<style type="text/css">
	.st0{fill:#8BC777;}
	.st1{fill:#90B949;}
	.st2{fill:#649B6F;}
	.st3{fill:url(#XMLID_11_);}
	.st4{fill:url(#XMLID_12_);}
	.st5{fill:url(#XMLID_13_);}
	.st6{fill:url(#XMLID_14_);}
	.st7{fill:url(#XMLID_15_);}
	.st8{fill:url(#XMLID_16_);}
	.st9{fill:url(#XMLID_17_);}
	.st10{fill:url(#XMLID_18_);}
	.st11{fill:url(#XMLID_19_);}
	.st12{fill:url(#XMLID_20_);}
</style>
<g id="XMLID_34_">
	<path id="XMLID_186_" class="st0" d="M58.8,25.2l5.7,6.1L58,35.6c3.3,0.2,6.3,0.6,8.8,1.6l3.1-10.1C67.2,26.2,63.5,25.5,58.8,25.2z
		"/>
	<path id="XMLID_185_" class="st1" d="M62,30.8l-6.1-5.6c-3.9,0.1-7.6,0.6-11,1.5L47,37.1c3.3-0.8,6.4-1.5,8.8-1.5L62,30.8z"/>
	<path id="XMLID_184_" class="st2" d="M58.2,63.4c0,0-5.3,4.5-5.1,4.5l5.2,5.3c18-1.2,31.4-10.7,32.1-22.5
		c0.5-8.8-4.6-18.5-21.1-23.8L66.1,37c9.6,3.5,12.8,8.7,12.1,13.9C77.3,57,70.4,62.5,58.2,63.4z"/>
	<path id="XMLID_183_" class="st2" d="M55,63.4l-5.1,4.5l5.1,5.3C36.6,72,23.8,61.9,23.1,50.4C22.5,40.1,29.6,31.8,43.8,27l3.6,9.9
		c-9.3,3.1-13,8.7-12.1,14C36.1,56.6,42.6,62.1,55,63.4z"/>
</g>
<linearGradient id="XMLID_11_" gradientUnits="userSpaceOnUse" x1="34.8667" y1="11.0011" x2="52.4174" y2="11.0011">
	<stop  offset="0" style="stop-color:#AAC467"/>
	<stop  offset="1" style="stop-color:#E3EBA4"/>
</linearGradient>
<path id="XMLID_167_" class="st3" d="M52.4,12.3c-3,1.8-6.9,3-10.8-0.5c-1.7-1.6-3.6-3-6.8-2.8c2.2-1.1,5.5-2,8.9,0.4
	C45.9,11,48.5,12.5,52.4,12.3z"/>
<linearGradient id="XMLID_12_" gradientUnits="userSpaceOnUse" x1="0.7312" y1="11.0011" x2="18.2819" y2="11.0011" gradientTransform="matrix(-1 0 0 1 79.25 0)">
	<stop  offset="0" style="stop-color:#AAC467"/>
	<stop  offset="1" style="stop-color:#E3EBA4"/>
</linearGradient>
<path id="XMLID_54_" class="st4" d="M61,12.3c3,1.8,6.9,3,10.8-0.5c1.7-1.6,3.6-3,6.8-2.8c-2.2-1.1-5.5-2-8.9,0.4
	C67.5,11,64.9,12.5,61,12.3z"/>
<radialGradient id="XMLID_13_" cx="56.6947" cy="7.8171" r="7.2419" gradientTransform="matrix(1 0 0 1 -1.426043e-003 0)" gradientUnits="userSpaceOnUse">
	<stop  offset="0" style="stop-color:#F7F4C5"/>
	<stop  offset="1" style="stop-color:#74A842"/>
</radialGradient>
<path id="XMLID_3_" class="st5" d="M49.5,7.8c4.3,0.6,6.7,3,7.2,7.2c0.6-4.3,3-6.7,7.2-7.2c-4.3-0.6-6.7-3-7.2-7.2
	C56.1,4.8,53.7,7.2,49.5,7.8z"/>
<g id="XMLID_2_">
	
		<linearGradient id="XMLID_14_" gradientUnits="userSpaceOnUse" x1="-355.937" y1="41.3484" x2="-309.7875" y2="41.3484" gradientTransform="matrix(-1 0 0 1 -242.5511 0)">
		<stop  offset="0" style="stop-color:#6FA795"/>
		<stop  offset="1" style="stop-color:#649B6F"/>
	</linearGradient>
	<path id="XMLID_31_" class="st6" d="M67.2,71.6c1.4-1.3,3.2-3.2,5.1-5.5c2.2-2.6,5-5.3,7.1-8.3c4.2-5.9,6.9-13.3,8-16.4
		c1.6-4.6,2.7-10.7,4.3-15.8c1.9-6,4.6-9.6,7.8-11.6c1-0.6,2.7-2.2,5.1-2.5c2.4-0.3,5.7-0.6,8.8-0.4c-4.5,0.6-8.8,3.9-10.7,7.3
		c-0.9,1.7-2.3,4.7-3.6,10.1c-0.9,3.5-2.1,7.4-3.2,11.8c-1.6,6.2-3.5,11.3-5.9,15.6C83.6,67.3,72.5,70.5,67.2,71.6z"/>
	<linearGradient id="XMLID_15_" gradientUnits="userSpaceOnUse" x1="67.2364" y1="41.0821" x2="113.3858" y2="41.0821">
		<stop  offset="0" style="stop-color:#93BD5B"/>
		<stop  offset="1" style="stop-color:#9BBC4B"/>
	</linearGradient>
	<path id="XMLID_6_" class="st7" d="M67.2,71.6c7.2-6.3,16.2-10.5,20-24.1c1.3-4.7,2.8-11,5.5-20.5c1.1-3.8,2.8-7.1,4-8.9
		c0.9-1.4,2-2.4,3-3.2c2.5-1.9,5.5-3.1,8.7-3.6c1.6-0.2,4.9-0.2,4.9-0.2s-2.7-0.5-5.9-0.6c-2.8-0.1-6.1,0.1-8.3,0.7
		c-2.1,0.6-4.6,1.3-7,4c-2.1,2.5-4,6.3-5,9.6c-1.2,4.3-3.1,11.2-5.2,19C78.3,57.7,71.4,67.5,67.2,71.6z"/>
</g>
<g id="XMLID_4_">
	
		<linearGradient id="XMLID_16_" gradientUnits="userSpaceOnUse" x1="-415.1741" y1="41.3488" x2="-369.0246" y2="41.3488" gradientTransform="matrix(1 0 0 1 415.1733 0)">
		<stop  offset="0" style="stop-color:#6FA795"/>
		<stop  offset="1" style="stop-color:#649B6F"/>
	</linearGradient>
	<path id="XMLID_7_" class="st8" d="M46.1,71.6c-1.4-1.3-3.2-3.2-5.1-5.5c-2.2-2.6-5-5.3-7.1-8.3c-4.2-5.9-6.9-13.3-8-16.4
		c-1.6-4.6-2.7-10.7-4.3-15.8c-1.9-6-4.6-9.6-7.8-11.6c-1-0.6-2.7-2.2-5.1-2.5C6.3,11.3,3,10.9,0,11.1c4.5,0.6,8.8,3.9,10.7,7.3
		c0.9,1.7,2.3,4.7,3.6,10.1c0.9,3.5,2.1,7.4,3.2,11.8c1.6,6.2,3.5,11.3,5.9,15.6C29.8,67.3,40.9,70.5,46.1,71.6z"/>
	
		<linearGradient id="XMLID_17_" gradientUnits="userSpaceOnUse" x1="126.4734" y1="41.0825" x2="172.6229" y2="41.0825" gradientTransform="matrix(-1 0 0 1 172.6222 0)">
		<stop  offset="0" style="stop-color:#93BD5B"/>
		<stop  offset="1" style="stop-color:#9BBC4B"/>
	</linearGradient>
	<path id="XMLID_5_" class="st9" d="M46.1,71.6c-7.2-6.3-16.2-10.5-20-24.1c-1.3-4.7-2.8-11-5.5-20.5c-1.1-3.8-2.8-7.1-4-8.9
		c-0.9-1.4-2-2.4-3-3.2c-2.5-1.9-5.5-3.1-8.7-3.6C3.3,11.1,0,11.1,0,11.1s2.7-0.5,5.9-0.6c2.8-0.1,6.1,0.1,8.3,0.7
		c2.1,0.6,4.6,1.3,7,4c2.1,2.5,4,6.3,5,9.6c1.2,4.3,3.1,11.2,5.2,19C35.1,57.7,42,67.5,46.1,71.6z"/>
</g>
<linearGradient id="XMLID_18_" gradientUnits="userSpaceOnUse" x1="27.8947" y1="31.9751" x2="56.9807" y2="31.9751">
	<stop  offset="0" style="stop-color:#8FB954"/>
	<stop  offset="1" style="stop-color:#74A842"/>
</linearGradient>
<path id="XMLID_9_" class="st10" d="M54.8,51.3c-0.7,0-3.2-5.6-4.4-10.7c-1.3-5.4-3.4-11.9-4.4-15.8c-0.8-3.2-2.2-6.5-5-8.3
	c-1.7-1.1-3.7-2.1-5.6-2.6c-2.2-0.6-7.6-0.5-7.6-0.5s3.7-0.6,5.4-0.7c2.5-0.1,4.8,0.1,6.8,0.7c2.4,0.7,4.5,2,6,3.9
	c1,1.3,2.1,3,3,5.2c0.8,1.9,1.6,4.1,2.1,6.7c0.5,2.3,1.1,5.1,1.9,8c0.9,3.6,2.2,7.5,3.8,11.3C57,48.4,55.2,51.3,54.8,51.3z"/>
<linearGradient id="XMLID_19_" gradientUnits="userSpaceOnUse" x1="51.2219" y1="34.5748" x2="85.4912" y2="34.5748">
	<stop  offset="0" style="stop-color:#C3D113"/>
	<stop  offset="1" style="stop-color:#CED759"/>
</linearGradient>
<path id="XMLID_8_" class="st11" d="M51.2,55.9c7.9,1.7,15.2,0.7,18-6.7c1.9-5.3,2.4-12.5,4.3-20.9c1.4-7.7,5.4-14.5,12-14.9
	c-17.3-4.4-21.4,8-25,25.8C58.7,47.8,55,52.9,51.2,55.9z"/>
<linearGradient id="XMLID_20_" gradientUnits="userSpaceOnUse" x1="27.8947" y1="34.2281" x2="85.4912" y2="34.2281">
	<stop  offset="0" style="stop-color:#9DBE52"/>
	<stop  offset="1" style="stop-color:#90BB3D"/>
</linearGradient>
<path id="XMLID_1_" class="st12" d="M51.2,55.9c2.4-1.4,4.6-3.5,6.7-6.3c1.8-2.7,3.8-9.5,4.9-15.3c2.2-11.1,3.9-12.8,4-13.1
	c2.5-5,6.4-7.8,11.7-8.4c2.1-0.2,4.4-0.1,7,0.5c-3.8-1.1-7.8-1.2-11.3-0.3c-2.8,0.7-5.2,2-6.9,4.1c-1.9,2.4-3.9,6.2-5.2,11.9
	c-1.1,5.3-2.7,12.5-5.7,19.3c-0.3,0.7-0.7,1.1-0.9,1.2c-0.7-1.5-1.5-3.6-2.3-5.8c-1-3.1-2-6.5-2.7-9.5c0-0.2-0.1-0.4-0.1-0.6
	c-0.9-3.6-1.6-6.2-2.1-8.1c-1.1-3.4-1.6-4.2-1.7-4.4c-1.5-2.7-3.5-4.7-5.9-6c-1.8-1-3.8-1.7-6.1-2c-2-0.3-6.6,0.1-6.6,0.1
	s3,0.3,4.2,1.1c1.4,0.9,2.7,2,3.8,3.5c1,1.4,1.9,3.1,2.5,5.1c1,3.1,1.7,5.6,2.2,7.7c1.1,5,1.2,7.9,1.9,11c0.6,2.9,1.3,5.4,2.2,7.6
	C46,52.4,47.9,54.6,51.2,55.9z"/>
</svg>
