<?xml version="1.0" encoding="utf-8"?>
<!-- Generator: Adobe Illustrator 19.0.0, SVG Export Plug-In . SVG Version: 6.00 Build 0)  -->
<svg version="1.1" id="图层_1" xmlns="http://www.w3.org/2000/svg" xmlns:xlink="http://www.w3.org/1999/xlink" x="0px" y="0px"
	 viewBox="0 0 51 51" style="enable-background:new 0 0 51 51;" xml:space="preserve">
<style type="text/css">
	.st0{opacity:0.1;fill:#E8456C;}
	.st1{clip-path:url(#XMLID_5_);fill:url(#XMLID_6_);}
	.st2{fill:#F7C1C3;}
</style>
<circle id="XMLID_1_" class="st0" cx="25.5" cy="25.5" r="24.1"/>
<g id="XMLID_3_">
	<defs>
		<path id="XMLID_353_" d="M33.2,29.7c0-0.6,0-1.2,0-1.9c0-0.7,0-1.5,0-2.2c0-0.2,0.1-0.3,0.3-0.3c0.1,0,0.1,0,0.2,0
			c0.8,0,1.2,0.3,1.2,1.2c0,1,0,2,0,3c0,0.6-0.3,0.9-0.9,0.9c-0.2,0-0.4,0-0.5,0C33.1,30.4,33.2,30.4,33.2,29.7 M29.1,20.5
			c-0.2,0-0.3-0.1-0.2-0.3c0.3-0.7,0.5-1.4,0.5-2.2c0-0.2,0-0.4,0-0.6c0-0.2,0.1-0.3,0.2-0.2c0.5,0,0.9,0.3,1.2,0.6
			c0.4,0.6,0.8,0.7,1.5,0.4c1.1-0.4,2.3,0.2,2.5,1.3c0.1,0.7-0.3,1.4-1,1.7c-0.3,0.1-0.6,0.2-0.8,0.2c-0.6,0-1.1-0.2-1.4-0.7
			c-0.4-0.5-0.7-0.6-1.3-0.4c-0.3,0.1-0.6,0.2-0.9,0.2C29.3,20.5,29.2,20.5,29.1,20.5 M20.6,17.2c0.5-1.4,2-2.3,3.6-2.2
			c1.5,0.1,2.7,1.4,3,2.8c0.1,0.5,0,0.9,0,1.3c-0.1,0.8-0.8,1.2-1.3,1.7c-0.4,0.4-0.9,0.6-1.4,0.7c-0.6,0.2-0.8,0.5-0.8,1.1
			c0,1.3,0,2.7,0,4c0,0.1,0,0.2,0,0.3c0,0.5-0.4,0.9-0.7,0.9c-0.4,0-0.8-0.4-0.8-0.9c0-0.9,0-1.7,0-2.6h0c0-0.8,0-1.7,0-2.5
			c0-0.2,0-0.4-0.2-0.6c-0.2-0.3-0.5-0.6-0.9-0.8c-0.5-0.3-0.9-0.2-1.3,0.2c-0.4,0.5-0.8,0.8-1.5,0.9c-1.5,0.2-2.2-1.2-2.1-2.2
			c0.2-1.6,1.8-2.2,3.1-1.7c0.2,0.1,0.4,0.1,0.6,0.1C20.1,17.9,20.4,17.7,20.6,17.2 M19.3,15.6c-0.1,0.2-0.2,0.2-0.4,0.2
			c-0.5-0.1-1.1-0.1-1.6,0c-1.6,0.4-2.8,1.7-3,3.3c-0.2,1.6,0.6,3.2,2,3.9c0.2,0.1,0.3,0.3,0.3,0.5c0,1.9,0,3.9,0,5.8v5.5
			c0,1.8,1.1,2.9,2.9,2.9c3.6,0,7.3,0,10.9,0c0.5,0,0.9-0.1,1.3-0.3c1.1-0.5,1.5-1.4,1.5-2.6c0-0.8,0-1.6,0-2.4
			c0-0.3,0.1-0.4,0.4-0.4c0.2,0,0.4,0,0.6,0c1.4-0.1,2.5-1.2,2.5-2.6c0-1.2,0-2.4,0-3.6c0-1.3-0.9-2.3-2.2-2.5c-0.3,0-0.6,0-0.9,0
			c0,0,0,0-0.1,0c-0.1,0-0.2,0-0.2-0.1c0-0.1,0.1-0.1,0.2-0.1c0.2-0.1,0.4-0.1,0.6-0.2c2.3-0.7,3.2-3.3,1.9-5.2
			c-0.8-1.2-2.3-1.8-3.8-1.5c-0.2,0-0.4,0-0.6-0.1c-1-0.8-2.1-1-3.3-0.7c-0.2,0.1-0.3,0-0.5-0.2c-0.3-0.5-0.7-0.9-1.1-1.2
			c-1-0.7-2.1-1-3.1-1C22.1,13.2,20.4,14,19.3,15.6"/>
	</defs>
	<clipPath id="XMLID_5_">
		<use xlink:href="#XMLID_353_"  style="overflow:visible;"/>
	</clipPath>
	<linearGradient id="XMLID_6_" gradientUnits="userSpaceOnUse" x1="2.8346" y1="27.3831" x2="48.189" y2="27.3831">
		<stop  offset="0" style="stop-color:#F9D2D4"/>
		<stop  offset="1" style="stop-color:#F091A0"/>
	</linearGradient>
	<rect id="XMLID_2_" x="2.8" y="4.7" class="st1" width="45.4" height="45.4"/>
</g>
<rect id="XMLID_245_" x="1.6" y="24.1" transform="matrix(-0.7071 -0.7071 0.7071 -0.7071 25.5124 61.591)" class="st2" width="47.9" height="2.9"/>
</svg>
